<mxfile host="app.diagrams.net" modified="2022-02-07T12:22:56.067Z" agent="5.0 (Macintosh)" etag="cB4-fPwOw1dwTH5Nx7bq" version="16.5.3" type="github">
  <diagram id="-5HM5EegVUKk-gag7wd8" name="Page-1">
    <mxGraphModel dx="2116" dy="1861" grid="1" gridSize="10" guides="1" tooltips="1" connect="1" arrows="1" fold="1" page="1" pageScale="1" pageWidth="827" pageHeight="1169" math="0" shadow="0">
      <root>
        <mxCell id="0" />
        <mxCell id="1" parent="0" />
        <mxCell id="JSSmb_3Z2BOipet1F9V3-1" value="" style="ellipse;shape=cloud;whiteSpace=wrap;html=1;" parent="1" vertex="1">
          <mxGeometry x="-230" y="-110" width="1060" height="650" as="geometry" />
        </mxCell>
        <mxCell id="e54BE-5O06g-NBE3f2j7-24" style="edgeStyle=elbowEdgeStyle;rounded=0;orthogonalLoop=1;jettySize=auto;html=1;exitX=0.5;exitY=1;exitDx=0;exitDy=0;endArrow=classicThin;endFill=1;" edge="1" parent="1" source="JSSmb_3Z2BOipet1F9V3-3" target="e54BE-5O06g-NBE3f2j7-2">
          <mxGeometry relative="1" as="geometry" />
        </mxCell>
        <mxCell id="JSSmb_3Z2BOipet1F9V3-3" value="" style="shape=image;verticalLabelPosition=bottom;labelBackgroundColor=default;verticalAlign=top;aspect=fixed;imageAspect=0;image=data:image/svg+xml,PHN2ZyBpZD0iYjFlNzE0NzktMjEzOC00NGUwLWFkZjAtMDJmZTlmZWQ1YzFlIiB4bWxucz0iaHR0cDovL3d3dy53My5vcmcvMjAwMC9zdmciIHdpZHRoPSIxOCIgaGVpZ2h0PSIxOCIgdmlld0JveD0iMCAwIDE4IDE4Ij48cGF0aCBkPSJNMS4xNTUsNC45M3YuNTEyTDksOS44NjhsNy4wMDYtMy45NTcsMCwxLjZMOSwxMS40OTEsMS41NSw3LjI1OGwtLjM5NS4yMlYxMC41NEw5LDE0Ljk1NWw3LjAwNi0zLjk0MiwwLDEuNTg2TDksMTYuNTgxLDEuNTUsMTIuMzQ3bC0uMzk1LjIydi41MTlMOSwxNy41bDcuODQ1LTQuNDE0VjEwLjAyMWwtLjQtLjIxOEw5LDE0LjAzNiwxLjk5MiwxMC4wNTRWOC40NzZMOSwxMi40MTQsMTYuODQ1LDhWNC45NzhsLS40LS4yMTlMOSw4Ljk5MywyLjM1Miw1LjIxNSw5LDEuNDZsNS40NzYsMy4wOTQuNDc5LS4yNjlWMy44NjNMOSwuNVoiIGZpbGw9IiNmZjM2MjEiLz48L3N2Zz4=;" parent="1" vertex="1">
          <mxGeometry x="160" y="40" width="70" height="70" as="geometry" />
        </mxCell>
        <mxCell id="e54BE-5O06g-NBE3f2j7-14" style="edgeStyle=orthogonalEdgeStyle;rounded=0;orthogonalLoop=1;jettySize=auto;html=1;exitX=0.5;exitY=0;exitDx=0;exitDy=0;exitPerimeter=0;" edge="1" parent="1" source="JSSmb_3Z2BOipet1F9V3-8">
          <mxGeometry relative="1" as="geometry">
            <mxPoint x="325" y="470" as="targetPoint" />
          </mxGeometry>
        </mxCell>
        <mxCell id="e54BE-5O06g-NBE3f2j7-52" style="edgeStyle=elbowEdgeStyle;rounded=0;orthogonalLoop=1;jettySize=auto;html=1;exitX=0.5;exitY=1;exitDx=0;exitDy=0;exitPerimeter=0;endArrow=classicThin;endFill=1;" edge="1" parent="1" source="JSSmb_3Z2BOipet1F9V3-8" target="e54BE-5O06g-NBE3f2j7-51">
          <mxGeometry relative="1" as="geometry" />
        </mxCell>
        <mxCell id="e54BE-5O06g-NBE3f2j7-61" style="edgeStyle=elbowEdgeStyle;rounded=0;orthogonalLoop=1;jettySize=auto;html=1;exitX=1;exitY=0.85;exitDx=0;exitDy=0;exitPerimeter=0;entryX=0.003;entryY=0.539;entryDx=0;entryDy=0;endArrow=classicThin;endFill=1;dashed=1;entryPerimeter=0;" edge="1" parent="1" source="JSSmb_3Z2BOipet1F9V3-8" target="e54BE-5O06g-NBE3f2j7-60">
          <mxGeometry relative="1" as="geometry">
            <Array as="points">
              <mxPoint x="350" y="680" />
            </Array>
          </mxGeometry>
        </mxCell>
        <mxCell id="JSSmb_3Z2BOipet1F9V3-8" value="" style="strokeWidth=2;html=1;shape=mxgraph.flowchart.database;whiteSpace=wrap;" parent="1" vertex="1">
          <mxGeometry x="310" y="630" width="30" height="40" as="geometry" />
        </mxCell>
        <mxCell id="e54BE-5O06g-NBE3f2j7-2" value="" style="rounded=0;whiteSpace=wrap;html=1;" vertex="1" parent="1">
          <mxGeometry x="106.01" y="190" width="496" height="160" as="geometry" />
        </mxCell>
        <mxCell id="e54BE-5O06g-NBE3f2j7-1" value="" style="shape=image;verticalLabelPosition=bottom;labelBackgroundColor=default;verticalAlign=top;aspect=fixed;imageAspect=0;image=data:image/png,iVBORw0KGgoAAAANSUhEUgAAAZAAAAFACAYAAACSgSrjAAAAGXRFWHRTb2Z0d2FyZQBBZG9iZSBJbWFnZVJlYWR5ccllPAAAAyJpVFh0WE1MOmNvbS5hZG9iZS54bXAAAAAAADw/eHBhY2tldCBiZWdpbj0i77u/IiBpZD0iVzVNME1wQ2VoaUh6cmVTek5UY3prYzlkIj8+IDx4OnhtcG1ldGEgeG1sbnM6eD0iYWRvYmU6bnM6bWV0YS8iIHg6eG1wdGs9IkFkb2JlIFhNUCBDb3JlIDUuMC1jMDYxIDY0LjE0MDk0OSwgMjAxMC8xMi8wNy0xMDo1NzowMSAgICAgICAgIj4gPHJkZjpSREYgeG1sbnM6cmRmPSJodHRwOi8vd3d3LnczLm9yZy8xOTk5LzAyLzIyLXJkZi1zeW50YXgtbnMjIj4gPHJkZjpEZXNjcmlwdGlvbiByZGY6YWJvdXQ9IiIgeG1sbnM6eG1wPSJodHRwOi8vbnMuYWRvYmUuY29tL3hhcC8xLjAvIiB4bWxuczp4bXBNTT0iaHR0cDovL25zLmFkb2JlLmNvbS94YXAvMS4wL21tLyIgeG1sbnM6c3RSZWY9Imh0dHA6Ly9ucy5hZG9iZS5jb20veGFwLzEuMC9zVHlwZS9SZXNvdXJjZVJlZiMiIHhtcDpDcmVhdG9yVG9vbD0iQWRvYmUgUGhvdG9zaG9wIENTNS4xIFdpbmRvd3MiIHhtcE1NOkluc3RhbmNlSUQ9InhtcC5paWQ6RDEzMjU3QUQ3NjVEMTFFOEJEMUVCQUE1NThGRkUzREQiIHhtcE1NOkRvY3VtZW50SUQ9InhtcC5kaWQ6RDEzMjU3QUU3NjVEMTFFOEJEMUVCQUE1NThGRkUzREQiPiA8eG1wTU06RGVyaXZlZEZyb20gc3RSZWY6aW5zdGFuY2VJRD0ieG1wLmlpZDpEMTMyNTdBQjc2NUQxMUU4QkQxRUJBQTU1OEZGRTNERCIgc3RSZWY6ZG9jdW1lbnRJRD0ieG1wLmRpZDpEMTMyNTdBQzc2NUQxMUU4QkQxRUJBQTU1OEZGRTNERCIvPiA8L3JkZjpEZXNjcmlwdGlvbj4gPC9yZGY6UkRGPiA8L3g6eG1wbWV0YT4gPD94cGFja2V0IGVuZD0iciI/PjddjBIAACDqSURBVHja7N15dFzVneDx33u1aimt1uJFXuR9xQY6xjZgiCGYDpAwAdIQaHAykIGEppOZnnQyk3T7j0y6z+khnO6cEJjpTkhOz0xmSOOk6QRPdwcYAsbBYExsY4RledMuq0pSqfZl7i2qbHnXVlWvqr6fc+pIlm2VdKv0vrrvvvfKSCaTAgDARBkEBABAQPIxgIbBIOSZeg7PU2/mn/OxteqxqRnzZ5d6c02Wv5Q31X2Gx/w5pD92zr/pUf/mAx41SzxvGAQCQkCK8Ae7Wr1Zm35/mRrj5vT769Ubt7rVqI+tK5Lv9X0dlfRz6dX0x3zq/XfT/+SQer+XZwUBISAEBGNmA+ptsxq/ZWNmEHrWUMsIXXDMgunZTGYGczR9e1f9eYgRIiAEhIAU2w/o5nQY5mdmD2q8bmRksjLWu9SbkJ7FqPd1ZA7J+bvUQEAICAGx3A/iFZkZRDoU89W4LOfZYYnHpkPPVNJh0VE5aprmbkaGgBAQApKXWKibXozenA7FBp4FBfk47k2HZXd6pvIqAQEBISDT+QNWrWOhvsdr0ruj9PtlPOpF+3jr3WB6nWW3epx1VI4REBAQAjLeH6h56rZVvbs+HQt2Q5V2ULrTQXlVPRdeUbd9BAQEhICcnmGoNzeot7eot1vV97KARxSXCcpL6d1dLxX64cVs+wgIAZmgRCKxXn3NW3U0WL/AFDfAeh3lFXXbaZrmTgJCQFBkAUmfc6GD8Sn19tOcZ4EsPtdeUM+vn6t3dxTCuSls+wgIAblINNTt0+rdTDRY+AYxISAEhIBc9IdBr2d8Ws801Nd0Zyk9BoP+k+INnDjrYz1Db0siefFz6CLxfgnHD0/pfh22FnHb5lzy38yq2XjWnz3uRmmsWlhqMXlZvfmpel7usNK6Cds+AlLyAdFrGurNF9XtD4pppjEc7Jf+kcMSjg7LqdH9kpSI+CNvnxl3OSqmUdjP3UQiKUmj9fSfK51Xqe/LKdVli6XC1SC15S1SVzmn2GLyP9Wb56ywZsK2j4CUZEDS52f8gXr3iUI91DYYGZYu3wEZDp0Uf+i4jEYPqBnDsNqqnhCbLcYTa2xokoYK6Hz1wLvE47pSyhyNUluxSBo8i6SqrKFQQ9KhnrvPqHd/lK9ZCds+AlJSASnE2UaX96AM+A/LUPDD05GwGR08caZRLDFLzVyqUnGpdM+VKvccWdhYOAfY5WtWwraPgJREQFQ49HkaX7PyhQgz6xBdvjckEG2XWLxd7LYBniB5FE14xG62SoVjpTRVXSU15S2WXn9Jz0q2q9tzBISAEJCpP8E/pW5/ZsXXvmjv25VaqB6JvCOJ+AF2OxWI1O6w5NLUbEUv8M+tv1IcNpflQqLe/KV63v8om1cTZttHQIoyIOoxeVDdvmaV9Y1oPCwf9rwivX41u1DBsJtdPPBFJBafIW7HOqmruEoWNtxgmXWV9JnvOiQ/yEZI2PYRkKIKSHpX1dNWuKSIXrvoGPi1+EI7CUYJBsXjvkHm122VuTPyP/lNh2S7aZrPEBACQkDOfyLrixjqcNyaz1nG+1071SzjZYlG32CXFNK/1CTFMNdKk+dWWdZ8i5Q5q/IZEn214K9M1+uZsO0jIAUdkPRlRv40vbsq50dVZaLRPfyS2lC8KabJi2PhMs9ZuSLvMUn/svX1qZ7hzraPgBRsQPK5u+q9E78gGpi2mKyafUfOF+LVdsurfna+MpUjttj2EZCCC0j6OlXf0U/+XH6d+jDb/V0/EX9oB7unMK30kV1O202yevbDOT9MWP0s/Ur9LN07mdkI2z4CUlABUWO9VJ80lcvDcg927pSjgz8Wm3mIBwtZp09qbKl5WNa03JHLiHSnI/LqBP8fDxgBKYyApA/NfTpXax06HB2nnuRkPuQpJGUyq/oJWTf37lyG5DumaX6DgBCQoglIepfVD/VvSIQDhCTrEdmlj2Yczy4ttn0ExNIBScfjhVwcnts33C5vHftjztmAJenLqqyZ+d2cnFeiXylRX/bnchFh20dALBuQXMVDH4q7q/1JGQ3/H46oguXZzZtl48JvZP0Q4PFEhG0fAbFkQHIVD322+DsnHxOHOcIDgYIRj9tlafNTWb9i8OUiwraPgFgyIIlE4h+y/aqA+lyOTt+fM+tAwapxPyrrF/7bXERkw4WupcW2j4BYLiAqHvpFnp7K5n2+1vZfJRD9Hww+Cp7epXX9ku1ZPRFRH8RimubnCQgBsXRA1FhekT4KJGuH6r78wZ9JJPYiA4+ioc9o37ry77J9Nw+de9Y62z4CYpmApNc99mbzEuy72/+7+EJPM+goOk77bXLj0u3ZnIXoS5+sU7djBGT6mAzBtD1Bv5PNeLT1vEI8ULT0rHpPx0+y+Yterd6VxUgzA7HcDESNYXX6cgpZ2XWlD9X95wPXcw0rFDV96fhNi3Zm+wWt1qqf033MQJiBWGn28VA21z3eOfoT4oHi3xiZhrx9/HvZ/ll9gpFmBmKpGUgikTiSzcuy//K99QQEJTMLuWHpK1k70VBt74L6Z1Xdetn2MQOxwBM+cUs24zEc7CceKKlZSP9wezZ/4dN7Ch5ipAmIVWYg12Tz8/cMHWCQUVL6RvZn9fOrmcd6RpmAWIJ+jY9sfv7RSD+DjJISjPZl+y7mM8oExCqy+mSscDYwwigpbkd9tu9iGaNMQKwiq0/GxqqljDBKSn3Foqx+fr0OkkwmmxhpApJ34XC4Npufv6Z8poRjZQw0SoI+CqupZmXW7+fDDz9cxGgTkLwbHBzM+n3MrHqMgUZJcDmulwpnVn8nk3g8Lq+//vpJRpuA5J3P58v6fayd+xlmISgJq2c9nvX7CASCDPQ0sTMEU9Pfn/2jpPSlrlfP+ms51PMFMU2aP10i8Zi6xSf1f502m7rx4zOdPO57paFqYdbvx+/nBdgIiEV0dHTI5s2bs34/CxqulH7/V8UbeKrkxzwYjUo8mUi9PxwOnPV3w5Gz/zwa86tIjOb06yuzV4rbVnFmmm+IVDrKz/xCoH4JKHO4CdEYpjFPrmn9Sk7ua3iEgBAQi9ixY4fcfffdUlFRkfX7+tiCB+TVNp+Eoj8q6hlBKBZJvR9PJFQAQqm/C6kIBFUMCiJw6us892s9FRrHb+COGrGbH72wUpWzPB0jl5qB2tRbh9iKdvbZJNct/pGKiC0n93bo0CE2XATEGrxer+zdu1euvfbanNzf5iWPy+uH3eIP/6AgxysQDUssnhR/NHg6EJF4WL31lfxzaSR6Zgy84Qv/myrHDBUSWyowOigVaiZjV2/dKjCFyDBa5NpFfyduR1VO7q+7u1t8viE2XATEOl544YWcBUTbtOhhOdjZKke9/1FsFn1J9JiaQYTUbELvYgrGwuoWOGsDickZjg5cNDC1riYpszml3OFM7SIrV1Gx8pqZ07ZBNiz8LzmLh3ak4yhPIgJiLXv27JG2tjZZsmRJzu5zxewtUu/53/LW0UfEYcvvhlnvbhqNRGRUzSr80ZD4I16JJiM8MXI9Gw73ivecj+n1mHJ7RWoNptJRJhVOpyV2hTV5Hpc1LQ/kbLdVavYbCMjhw4d5ohAQ63nmmWfk29/+trjd7tz9EFYtlFtW/lJ2tT8pwejzuftBjIZVMEIyHAmqWcVwwaxNlKLMeszYNZgKe414nB51c0uluuVy95feZbW25S+k0ZP7q4ns3v1bnhAExLqzkJ/97Gfyuc99Lqf3qw/xvX7J16Vv+B5569gfi93sykowfKFA6ggn/VsuCpteb9K3nvQBaw7DKVWuWql2VabWVsoc2QnKrOo/kZWz787prCNDL5wfP3GCB5+AWNezzz4rq1evljVr1uT8vhvVbOSTq/9R3jvxD9Lp+66YZmDSn0uvXwypGYYv5BdvaIDdUUVOP76nQr2pm+a0VUidq05qXBVqluIU+xQPM6503SFXzn1cypx1efn+Br1eefudvTzQ2ZhR8qpcU7N58+azBrC2tlaee+45qa6uztvXlEjG5d3jfy99I8+IYYTG9X/0LGMw6BdfeIjFbpxFH15c46qW+rKqCc1OdDjWtjwqFa7GvH3tkUhEfvXSS+cdeZVMxOc/9NBDx3h0CYilAqJdffXV8q1vfSuvEdHi8bDsO/lTFZLnVEjOj4Je/PaGRqV39BSH0WJc9PrJjLJamVHuueAJkImkXWrLPyurZ9+f13Bk4vHrl1+W3t7zX1+EgBAQywbEShHJzEhOnNotbf3fk1j8sIrGkPQHhljPwJRnJs0VDanZicPWIC21/04WNt4kTnt53r+2S8WDgBAQywfEahEZq6P/gIrJW/J2999IJPEODyIm5fdm/kCWNKyX1oZVYjOts5x6uXgQEAJSEAGxckS0eCImx099QEww4WjMm7FcnDaX5b6+8cSDgBCQggmINnfuXNm+fbu0trZa9vvIxKTj1D7Z3/8LGQz9lAcXUmm/RZY33GnpaGQMDQ3Ja795XU6dOnXZf0tACEjBBCTjm9/8ptx0000F8X0NBwdVUA5J++AeOdD/HLOTErK0drssmbFR5tWvkBmeWQXxNeurYr+x602JxWLj+vcEhIAUXEC02267TR577LGcXL13OnV626VnqEM6vO9I2+BPCUoRWTXjL2VuzRpprlogs2sXWmo943L0Lqt39u6VDz5om9D/IyAEpCADouldWno2kstrZ00372if9A4fk66hD6XDt1tOjPw1T4YC0Fz+BVlQe63MrloizdXzC2aGcSH6BME33tg1rl1WBISAFE1AMu66667UpU/q6uoKfhz0Gkr/SKcMqNtgoEv6Ro/I/oGv8QTJo9bqP5WmyqXSXLlAmlQs6iqbLb2GMV6hUEj27z8gBw4enPTnICAEpOADkqFnI/py8Lm8EGMuZyq+QL8MjnZLj79dgtEhwjLN9JpFubNG5lStkKqyGVJb3ljQM4tL+aCtTd59d18qIlNBQAhI0QREW7FihTz66KN5uY5WPugXkRr098hIyCvDwYHTcRkKd7I77Bx6t9OM8iXisLlTkahwVUuNikS1ikWZs6IkxqC3r0/eemvPpHZXERACUvQBybj55pvlnnvuKej1kemQ2SWm6d1i4VhAwvGAdA2feTnSQp/J6JmDjoLWWNEqFU79kraO1O4mrVh2OU3FwMCA/O53+6f9SroEhIAUZUAyrrvuulRISmVGMlX6sONAZOT8DVA6PhdzbpTGI7Oxv5ixERjLZS+T2opGHqw8hoOAEJCSCEiGPpP9wQcfJCQoCfo1y/cfOCBdXd1ZvR8CMj14PRCL0y9UpW86JHpGsmrVqoI7hwS4lHg8Lp2dnXLw/fcvewkSEBBMISTaI488Ihs2bLD0pVGAy9HncRxpPyLtR45M+agq5Ae7sKYo27uwLkXPSu644w5Zu3atJS/WCJxLnzmuZxsHDr4/bUdUTQa7sJiBMCsZMyu57777UrMSffRWMZ5PgsKld1F1d/fIyc6T0q5mHOO9XhWYgTADyQMdEz07WbZsGeslIBrMQAgIAZkcfbmUjRs3EhNknd491dPTIydOdsrRo0ctPdMgIASEgEyQvhLwunXrUru59AUdganSC+H9/f3S1dmVtXM2CIh1sQZSQl588cXUTautrZVbb701tQC/YMECaWzkBDdc3siIXwYGVDD07qmTJzl6ihkIM5BSmYFcir4Wl76go97V1dLSQlBwOhhe76D09fVLZ1en+HxDRfF9MQNhBoJpdPDgwdQtQ89QtmzZIsuXL0/t7po9ezZrKEVOr2F4fT7xDg6mFsD7+vuZYYCAYOK8Xq88//zzZ31MH9l15ZVXyrx581JR0bMUDhkuTPooKf0Y+4aGxOf1SU9vb17PywABQZEbe95Jht71pW96pqKDUlNTwwK9xQypSOhdUX7/SGpXlNfnLZpdUSAgKGDn7vrK0FcT1mspek1F7w7TYamvr2c3WJbo3U/Dw8MSCoVToUjNLHw+ri0FAoLC89prr13073RcmpqaZOHChamg6NDY7XZmLpehD5lNxOOpS53rXVB6NhGLx7J+5VqAgKAg4qJldotpM2fOlIaGhtT7+m1lZWXq/WJYf8msQ2jRaDS1q0kLBIMylN7FNDwyzO4mEBBgvC62W+xS9EmSY4MyNjya/jv9sfEoKysTwzAm/HXr3UYxFYKMsSHIKKST7QACgpKQOUFyOtz3ufs5ugwYB5MhAAAQEAAAAQEAEBAAAAEBAICAAAAICACAgAAACAgAgIAAAEBAAAAEBABAQAAABAQAQEAAACAgAAACAgAgIAAAAgIAICAAABAQAAABAQAQEAAAAQEAEBAAAAgIAICAAAAICACAgAAACAgAAAQEAEBAAAAEBABAQAAABAQAAAICACAgAAACAgAgIAAAEBAAAAEBABAQAAABAQAQEAAACAgAgIAAAAgIAICAAAAICAAABAQAQEAAAAQEAEBAAAAEBAAAAgIAICAAAAICACAgAAACAgAAAQEAEBAAAAEBABAQAAABAQCAgAAACAgAgIAAAAgIAICAAABAQAAABAQAQEAAAAQEAEBAAAAgIAAAAgIAICAAAAICAAABAQAQEAAAAQEAEBAAAAEBAICAAAAICACAgAAACAgAgIAAAEBAAAAEBABAQAAABAS4qOTsVQzCNBp2VDMIICAogXg0LZHodfdKfPVWBmMa+Jy1srtyifjtHgYDBARFzFkmsfX/RgybTeIrr5Nk3QLGZArihkPeK2+VhGnKPs+i1J8BAoLi3OBdc7eIpyb1fioim+5KRQWT01Y5X4I2e+p9v+lM/RkgICg6iQXrJdGy4qyPJavqJXHVpxicSTjlbJDjzrqzPqb/3OdqZHBAQFA89K6q+NUXXvOIt66VxKJrGaQJCNvc8l7l3Av+3b7yeRKwVzJIICAoAhW1Erv2s5fcVRW7+laOzBonvc6xp2q5RAz7hWd6pil7KpemIgMQEBQuvWh+w7bT6x4Xo9dDops+S0QuI2GY8nbVstR6x6XodREdGSICAlJAv2njnJnFloclWTO+ffKGwyGxjZ/hyKxLOKBmFl57+bj+rY7MXs8yjsy6CB1X1osIiGVEt3yRiIwR//gjKgazJjxjid94PxG5gDbPYulyVk3o/wzZXKkZCxE5J652j7xRvVLCJjM0AmIVnhoikomAikdiZuuk/nvSXfFRRJqW8JySj3Zbva/i0XHOEVfjpWcsOiLszvrIoLNedqmZ2cXWkEBAiEi+6AXzLQ9POh5jIxLd/EDq0N+SnsWpmcO7VSvPO1x3MhHZ7VlZ8kdn9bia5S3PotSBBiAglo1IbOuXS25BWO920vGc8G6ri0itiay/o2QveRKylcubNaukf5xrHpejF9Zf9yxPnT9Sio5ULJB9lfPYPhGQAtiY6t+gr7tXEitvKo3vV8VS73a63NFWE46IzSaJNTdI4mN3ldTzR1/falf18ssebTVRqUN8Pa3S6Z5TMmOZ2QX4oZsF82xih+A0S12qY+1NkqyfJbb/9+Pi/QFVG/dY67rU95st8cVXS0KP4+vPizHcVbRjqXdZtVfOn/R6x3jtr5gtgw6PLA4cE3c8ULTjGVUBPlC5WHodnFhJQAp1A9uyQpK3/4nYfvtzMXrbimfWoc8u33RX6nIkRk7ub5ZEtz4q9rbdYr77YlHOOvSFETPXtso2fURXj32lrAh2y+zQyaIbTz3LaitvYrGcgBTBxlZtZGM3fV7Mjv1i2/MzkUiwsH9TXr1V4ss3pdYpcjqrU/cXX3mtivLyoglyrmYdF/zlxjRTs5FeV60sG+2Q8pi/4MdTrx0drFw4bWtHICDWmY0sWCWJxnli2/cvKia7Cy+Eeq1jzcdTswEjn1+HCnL0xgfFfux3Yr63U2TUW3jPBcNMHRV02D0zZ7OOi9Eb2/7qlbI41CctwU5xJCIFN556d9WJstnS7pzBUVYEpIhVeCS+8U5JrNgk5sHXCyIkqXCsvEGSDdZZfE2tMbWulVjLSrGfOFAwIdEzjh5Xk7S7m/IejnPphWa9AV4YGZDZoW5xxUMFMZ5dKsKHyxrYXUVASoe+xIfVQ2LFcJwXEr1bqwBCon9DTs04LL6h07+965Do24LIoMwLnLBkSFKXInE2Eg4CQkh0SOJX3CS2rg/EOPRGfo80qqiVxOJNkpi9ZNzXsbJaSGwDJ8ToahPz0Ct5/+34lLNWep31E74MiRXodRl9mxMZkgYVk/qIV2zJaF6/Jn0eS5drRkGOJwFBFjfcntThqqJuxmCXmN1HxOhuy81CsYpGvHW9JGcusvRsY7whSZ0Jr26xNVtyHhO9tuF11Eufq0ZO2muKYn/8SWd16iayIOcx0RH2OWrklBrPHluV5Xb7gYBYb1ZSN0vi+ozuldeKERoVw9urQqKC4usRo3P/1D//7FWSqFOhqG2UpGdGQc00phITc9QrpoqzeNU49h1Toe6Y8n3oC/MNq5vfUSGDtorUBQyL2diYNMQCUhUPSGV0VCrj6hYbmfLn17umwqZLRmye1NFhHE1FQDCVjb27Qs0MPtoInjbiU2HxizkycOZj/SfVr2tnfiNMVtaKUXnmzPCECoU4nEUbi/HEJLW7cMz3n4xGU1GRcPCjtxnDalwDIxI1nBJ1VKm3DhlVcfgoGC4Jq4/rmUapb9xSR2/pMXDNOP0xHRUzmZD66JmY2JKxVGAyYob99HhmxjRouokFAUFOeGrUzKFG4mN3N7WuZVwmGZXUrhI5/zpJw85+6S2fozZsnMk8kahonP1dWjhwGgBAQAAABAQAQEAAAAQEAAACAgAgIAAAAgIAICAAAAICAAABAQAQEAAAAQEAEBAAAAEBAICAAAAICACAgAAACAgAgIAAAEBAAAAEBMi2uGFnEAACAkxczGZjEAACAgAgIAAAAgIAICAAAAICAAABAQAQEAAAAQEAEBAAAAEBAICAAAAICACAgAAACAgAAAQEAEBAAAAEBABAQAAABAQAAAICACAgAAACAlhAxOZmEAACAgAgIAAAAgIAICAAAAICAAABAQAQEAAAAQEAEBAAAAEBAICAAAAICACAgAAACAgAAAQEAEBAAAAEBABAQAAABAQAAAICACAgAAACAlhA0jQYBICAABMXNZ0MAkBAAAAExKKS8USSUQBAQDBhRjjgZxSAwuFIRPSbHkaCgORfLDLAIACFw50Id2/bti3MSBCQ/IuEjjIIQOEoSwQOMgoExCIjaPyGQQAKgzMZE1ci/B4jQUAswd5c++1kPJFgJADrmxcelGQ8/hwjQUAs4bVtHw+b/oGXGQnA+ppC/Xu3bdu2j5EgINZRVvF1BgGwtjmRISmP+rczEgTEUt54/Oa3jODIMUYCsK7m8MCgSPwlRoKAWE7SMG5nLQSw7uyjLjTweQ7fJSCWtOuJT/zOCPn/gpEArKUyEZElo0e/v23bH/6c0SAg1o3IV7f+Jwn5OUQQsJCV/qPH7LHRrzISBMTyorbqT0gsEmIkgPxbHuiJVocHbmHXFQEpCHu+vL7XSESvT8ZiUUYDyJ/5EW+sZfTY7SoeHzAaBKRg6KOyzER4ExEB8qM1fCq8ZKjttm3b/nAno0FAiAiAcVkW7AkuGv5gPfEgIEUREYlFgowGkJt4zPUf2cDZ5gSkaCLiKE/ONEIjBxgNIDv0RRKv9HccUvFYQDxyx0gmeUG9KQ2gYYz732588ldPJSuqn2DUrG1DnSExh1P67ZUMRgFoiAVkSfDo9798751fmsj/Y9tHQAoqINr6v/qnLWZZxT+K3VnG6BEQTM3iUJ9/TrD73kceuOfFif5ftn0EpOACol3/w5ero77IL6Xcs5ERtJ6r6+1i2G0ExMLK4jFZETz+Vn2wRx+m2zuZz8G2j4AUZEAyrnny/35SHI7nDKernpG0jnUNLrGbQkAsyEwkZGF0wDcn0P3AZGYdBISAFE1AMjY+tfOvEo6yPzLsdgcjSkBwYTMjI/G5oa6nq8On/sN0nFnOto+AFEVAtKu/t7vJHhv+X0ZZxQ2MKgHBGXp31bLgybcbgl2fUeGYtpdNYNtHQIomIKdnI8/+5orkaOBvpbzyKkaXgJR6OOaF+z9sDvd/6YsP3P3P0/352fYRkKILSMb6p3fNM0PDKiSeLYwyASkl+vLrc8Kn3m8O9T+RjXAQEAJS9AEhJASkFMMxL9T39uzR41/IxcmAbPsISNEH5KyQBIe2i8t9t9id5Yw8ASkWjbHRaH3U92aL/9jjuTyLnG0fASmZgIy14W/+dZuRiP37pNuzkkeAgBQivb4xK+brrA8PfrcmPPC9fLxeB9s+AlKSATlrVhIZ/YY47PeLjVkJAbG+ORFfsCY2+k+zRo/953y/TgfbPgJS0gE5a1byzOufTQZGvyTu8g2Gadp5ZAiIVdTGAomG6Mi79eFTz/zR/Xc+a5Wvi20fASEg57juh792xSKuTxMTAmKFaFTHhn9YG+r/b1Z8SVm2fQSEgIwjJhIKPpx0ujcTEwJS6tEgIASEgEzS+qd3bTYjo/epL/oT4iqbz6NHQKZCX5eqKe4frYoF9nhi/r+vC/X92OrRICAEhIBMg9QVgSPOrUYoeE/SbrtR7K5aHk0CcjkzYoGYJxFs94RHdjSHup6ezkuLEBACQkAKlD6iy0hGbjci4dvF4fi9Ug4KATmjOh5Wt2BneTy4qy409IPHH/jUvxbL98a2j4AQkCzRF3d0OGLXSCj4++qbvE5cZcsJSHHTLwtbGwv5y+PhD8tjATVFHf1lMQWDgBAQApLfWcpm00xcI+HwJ5OGsdRwuhoJSOHSu6Mq46ET7kT4bWcs9ovm0IlfbNu2bahUns9s+wgIAcmzj33/tfVqDJaZ0cjHxDQ2iWm2is3hISDWoXdDuRPR/rJE5GhZLPS+IxH/l1KLBQEhIASkQOgF+nDIvTY1WwmMLhGHc516ns1RM5YGApLdUNiTcW91LHDSJrF2Wyz+ytzgsR2FvNBNQAgIAcFperFevZlvGMm1RiLSLAm5Rf0oV4rDtZiAXF5jbDSsfmT9lfHQcTMZ71TBeLM8ETrcEOzeUUiH0BIQAgICMu0+2iVmd6vZS7P647LUB2ORmyVplCcNs86w2+cVY0Ayswf9flUi2BdL2rrtyVjIHY/8NmLaB5tCg/uLeUGbgBAQAoKcz2TOPA7xZeqxaD6zcTCuMJKJRonHTl9kcrwBurLRHbMZSftEAqJfy8KdiA2pn6ZE5mOeeMgXF/Os3UdV0ZF3QjbXcf2+Kxn3zxnteFHNHHp5RAkIAQEAEBAAAAgIAGDa/X8BBgDVO37WQeHlLwAAAABJRU5ErkJggg==;" vertex="1" parent="1">
          <mxGeometry x="319.63" y="205" width="68.75" height="55" as="geometry" />
        </mxCell>
        <mxCell id="e54BE-5O06g-NBE3f2j7-4" value="Landing" style="rounded=1;whiteSpace=wrap;html=1;" vertex="1" parent="1">
          <mxGeometry x="110" y="280" width="120" height="60" as="geometry" />
        </mxCell>
        <mxCell id="e54BE-5O06g-NBE3f2j7-5" value="RAW" style="rounded=1;whiteSpace=wrap;html=1;" vertex="1" parent="1">
          <mxGeometry x="230" y="280" width="120" height="60" as="geometry" />
        </mxCell>
        <mxCell id="e54BE-5O06g-NBE3f2j7-21" style="edgeStyle=elbowEdgeStyle;rounded=0;orthogonalLoop=1;jettySize=auto;html=1;exitX=0.5;exitY=1;exitDx=0;exitDy=0;entryX=0.6;entryY=0.1;entryDx=0;entryDy=0;entryPerimeter=0;endArrow=classicThin;endFill=1;dashed=1;" edge="1" parent="1" source="e54BE-5O06g-NBE3f2j7-6" target="e54BE-5O06g-NBE3f2j7-9">
          <mxGeometry relative="1" as="geometry">
            <Array as="points">
              <mxPoint x="404" y="480" />
            </Array>
          </mxGeometry>
        </mxCell>
        <mxCell id="e54BE-5O06g-NBE3f2j7-6" value="CURATED" style="rounded=1;whiteSpace=wrap;html=1;" vertex="1" parent="1">
          <mxGeometry x="350" y="280" width="130" height="60" as="geometry" />
        </mxCell>
        <mxCell id="e54BE-5O06g-NBE3f2j7-7" value="SANDBOX" style="rounded=1;whiteSpace=wrap;html=1;" vertex="1" parent="1">
          <mxGeometry x="480" y="280" width="120" height="60" as="geometry" />
        </mxCell>
        <mxCell id="e54BE-5O06g-NBE3f2j7-8" value="Azure Datal Lake Gen2" style="text;html=1;align=center;verticalAlign=middle;resizable=0;points=[];autosize=1;strokeColor=none;fillColor=none;" vertex="1" parent="1">
          <mxGeometry x="388.38" y="222.5" width="140" height="20" as="geometry" />
        </mxCell>
        <mxCell id="e54BE-5O06g-NBE3f2j7-9" value="DWH onPrem" style="text;html=1;align=center;verticalAlign=middle;resizable=0;points=[];autosize=1;strokeColor=none;fillColor=none;" vertex="1" parent="1">
          <mxGeometry x="350" y="640" width="90" height="20" as="geometry" />
        </mxCell>
        <mxCell id="e54BE-5O06g-NBE3f2j7-25" style="edgeStyle=elbowEdgeStyle;rounded=0;orthogonalLoop=1;jettySize=auto;html=1;exitX=0.5;exitY=1;exitDx=0;exitDy=0;endArrow=classicThin;endFill=1;" edge="1" parent="1" source="e54BE-5O06g-NBE3f2j7-12" target="e54BE-5O06g-NBE3f2j7-2">
          <mxGeometry relative="1" as="geometry" />
        </mxCell>
        <mxCell id="e54BE-5O06g-NBE3f2j7-12" value="" style="shape=image;verticalLabelPosition=bottom;labelBackgroundColor=default;verticalAlign=top;aspect=fixed;imageAspect=0;image=data:image/png,iVBORw0KGgoAAAANSUhEUgAAAeAAAAHgCAYAAAB91L6VAAAACXBIWXMAAA7EAAAOxAGVKw4bAAAgAElEQVR4nOzdeXxU5aE+8Oc9Z7ZMJishCTEGCAgBAkKIiIhWrWu1danW2u1nW5f2drter7fbVbte9fa21trNaq2tva1ra90AS71ArSCEgBAghBBCCGGyzz5nzpxz3t8fccGtCgy8M5Pn+xGbhpB5iMk8877nfd8DEBERERERERERERERERERERERERERERERERERERERERERERERERERERERERHR0SJUByA6Gv7U1u8B4Lr377tmq85Ch+/aU6d1ADAvmzfJUJ2FKNNcqgMQHR2yEhDlADaoTkJH5H0SCALoUB2EKNNYwJSXekaTAIDtB8KKk9CR6Alz4Ev5iwVMeWk4bgIA9ocSipPQkRhOWgCk6hhER4WmOgAREdF4xAImIiJSgAVMRESkAAuYiIhIARYwERGRAixgIiIiBVjARERECrCAiYiIFGABExERKcACJiIiUoAFTEREpAALmIiISAEWMBERkQIsYCIiIgVYwERERAqwgImIiBRgARMRESnAAiYiIlKABUxERKQAC5iIiEgBFjAREZECLGAiIiIFWMBEREQKsICJiIgUYAETEREpwAImIiJSgAVMRESkAAuYiIhIARYwERGRAixgIiIiBVjARERECrCAiYiIFGABExERKcACJiIiUoAFTEREpAALmIiISAEWMBERkQIsYCIiIgVYwERERAqwgImIiBRgARMRESnAAiYiIlKABUxERKQAC5iIiEgBFjAREZECLGAiIiIFWMBEREQKsICJiIgUYAETEREpwAImIiJSgAVMRESkAAuYiIhIARYwERGRAixgIiIiBVjARERECrCAiYiIFGABExERKcACJiIiUoAFTEREpAALmIiISAEWMBERkQIsYCIiIgVYwERERAqwgImIiBRgARMRESnAAiYiIlKABUxERKQAC5iIiEgBFjAREZECLGAiIiIFWMBEREQKsICJiIgUYAETEREpwAImIiJSgAVMRESkAAuYiIhIARYwERGRAixgIiIiBVjARERECrCAiYiIFGABExERKcACJiIiUoAFTEREpAALmIiISAEWMBERkQIsYCIiIgVYwERERAqwgImIiBRgARMRESnAAiYiIlKABUxERKQAC5iIiEgBFjAREZECLGAiIiIFWMBEREQKsICJiIgUYAETEREpwAImIiJSgAVMRESkAAuYiIhIARYwERGRAixgIiIiBVjARERECrCAiYiIFGABExERKcACJiIiUoAFTEREpAALmIiISAEWMBERkQIsYCIiIgVYwERERAqwgImIiBRgARMRESnAAiYiIlKABUxERKQAC5iIiEgBFjAREZECLGAiIiIFWMBEREQKsICJiIgUYAETEREpwAImIiJSgAVMRESkAAuYiIhIARYwERGRAixgIiIiBVjARERECrCAiYiIFGABExERKcACJiIiUoAFTEREpAALmIiISAEWMBERkQIsYCIiIgVYwERERAqwgImIiBRgARMRESnAAiYiIlKABUxERKQAC5iIiEgBFjAREZECLGAiIiIFWMBEREQKsICJiIgUYAETEREpwAImIiJSgAVMRESkAAuYiIhIARYwERGRAixgIiIiBVjARERECrCAiYiIFGABExERKcACJiIiUoAFTEREpAALmIiISAEWMBERkQIsYCIiIgVYwERERAqwgImIiBRgARMRESnAAiYiIlKABUxERKQAC5iIiEgBl+oAREdDgVv3APBBaADkm35XvPrPQe8SB70p3vixB/0PICDe+Adf+/xS4q2PJeVBbx70ewd9rHzT/z/4c7/xsQ7O+TY5Dsr4pr/Sazlfj3BwFvmmN9/j773TY73j1/KtOd+acewxBF4ZHUjpAHBAlIdYwJSXKop85QCmuHy+V5pDQjpjz+NCdwFCQAgBoY1NAglNQGj6Qe8TYx+jaYAQ0PSx94mD3vfq29JxXv/1psdyLPsNjy+lBKSE4ziAfOP7IA96W2gQmnZQPu2VSALaQfnHXmCM/b7QtbFMQnubv58Gx7Je+/xjvYaDsr/x8V/Lb9tvfN/bfS1fy/fqY45lODg/DsqkufQ3fi0P+vMAIG0bBZqERwMAOwHAzPC3B1FWYAFTXvnh6j0BAA2/2x76cNh0FnlLSl4fXUqMDbKEgHhtZHvQCG7sX28ctYlXilgAr4/23vhnDy7qVyrktYGipr8+eHttBCwl5KsfI18dBcvXR5tvzvnqY7/2pvaGPK//HV7/2LdkxCsl/UoOAf21nK+V/qtJDvp6vfqCYuwfiTeM1CUA7ZXHfuUFy7t+LTH2YuedvpYCgKYLLJxUaMwq95qQZg8AA0R5iAVMeUUCHgHUj6bsRQNJ5yyPv/CoP6Z4taSP+iMdmddGm4pz/HMSutBwQnmBecaUotj5MyqGVCciOlqy+2eR6BC0DcQuenJXuOnODQPfVp2FDs/UEg/+6/QaALj+7Gllv1Kdh+ho4giYct7W/ng5gOoHNgVP646Ys1XnocMzuVBDlRdDAJ4A0K46D9HRxgKmfFAN4PRNB2IfHUzadZzYyU3zy12o8Gk9Z08ru1Z1FqJjgQVMOe9/XuiZDeALvQlZGU2rTkOHqlCTVpnLMYeT1rUVPs9m1XmIjhUexEE57aaV3fPCptPQF0/XJW3pSUuOfnNJgQ74XQgVu8X2kaS1+fYLZ21XnYnoWOEImHLdCkvT/ZtHzGLVQejQNRQJFHtdq75z5pRvSym756gORHQMsYApJ92yat8lAE76a3ekNJyy+X2cY3y6gEcXaKgo+InPpW2UUvYJIXjgBo0rfOKiXHUSgI92hkyf6iB06Dy6gN+t4dqTap4C0DenKjCiOhPRscYCppzy32u65wF46tnuSPm2ETOgOg8dGl0ARW6B4/zi56dPci2bWxVYqToTkSosYMoZv2/tPX1P2Jy3fdgMjKZsj+o8dGg0SPhdmjN7gjfm13EAQI/qTEQqsYApl3zckWhevT9RbkuA+31zi0sAZV5hXVhfNACg87qTareozkSkEguYst4ty3bUA5j/y5dHl0QtWW+9fq8DyiFnTC7qqfK7tgO4CUCf6jxEqrGAKau19SfK72vprRtJpE8aSNoVSVv6JUe+OcUl4Hg0mOU+1/bqgKf1upOOa1OdiSgbsIAp250RcVznbRxNXRe1JCzemj3nlHlEZGaJq2/fcOymu8+fy/IlegULmLLStmC8DkD5l1f2fH7EsGojpg2b5Ztz6vwa3BpapZT3CCE47Ux0EBYwZatyAHU9EfPslO3AsHjVNxdV+DQA6Hri43MfUZ2FKNuwgCmrPLJ7xAXA/5m/tH/FcuTV0ZSGsYEvr/vmkhKvjkK3hh+eP+X/SSk7V6gORJSFWMCUNa5rkdqq7R0VcOyPSKE1xGwHnHXOLQKASwPKvHrHpIC7T0rZKYQIqs5FlI1YwJRNtLTl1EHKu6SmYcRSHYcOlRBj5zzPmeB94aaTq/82pyrwoupMRNmKBUzKfUtKDQDmd4z8dk9NSdPPNw4gwWu+OUhCk+itcOHOWNJcB6BddSKibMYCJuVO6hyuADClK5Ju6o9bDSGT5ZuLqvwueHWRKBPp1mgi1T2nmjdYIPpnWMCknCZxCYB7frd1GN2RtOo4dJg+Prscxxd7Yp+YV7lKdRaiXMACJqX+tG3g7rX74407RlIYStqq49BhqC/14KRqP3wu7XYBbFSdhyhXsIBJtavDKduzal9cdQ46TNV+N5YcF4Am8Ocr51S0fFx1IKIcwQImJX60unMJgOlfXNkbcHhno5x1Ya0HQPr+jqHYFwBpCjGRO8eI3iMWMB1Ttyzf4QNQs6bPaDIdLHQkuNc3h5UXuJ4XQmyDhAPBF1FEh4IFTMeaH8D83rh9cdiUZ9sc+ea0K+ZW3QOg65S6UlN1FqJcwwKmY2brQGTxyj3Rxsd2hL4eNlEZTXO7US5yAWiY4HvstOMDayHlSgjB8iU6DCxgOuragjEfpPS/0BNt3BcxF8Qsp950JGz2b04RADQB06ejr9Kvb71yZnnrnEmFebPX9+vLOuoB4LYLZnSpzkLjAwuYjj4payFE8/LO8DcHk9aUvhjPmMxFbg0o0NH3sXrf1wG7Zc6kwk7VmTJJAne88uYVSoPQuMECpqPuFxsPNAC4tieWroiYXHKVeyQEgPkVvkipV+sDZAuAIdWpMuWMn78wD8DZy7b0NGoC2sX3vvifAJ79y7VLWlVno/zGAqajLhhL1wA4a9RwEOMZzzlHANAATC91JyYVuka+9r6peTXyBVAH4INdg5FaXQhXXZn/wxg7x5oFTEcVl6DSUXXlw9u29sTs8s6oXaM6Cx2e6WVeY2ltIAbgnB+8v26z6jyZ9MVHX169ad9IzUvdQ9MPfv/5s6uHFk+tCP3nebNOUJWN8h9HwHRUXPNEe7MA6tuGzfKQ6QRU56HDU+3XDZ+G7QDWAMibBVcPbj7QBGDKL59vrwlGksVv/v29IwkfMFT6wMa+jwHovHphzfpjn5LyHQuYjgoBXAzgco58c9usMncIwPM/eH/dTaqzZJKU+IAQuPTNI99X7QhGAjuCkcDlJ027DcBDAFjAlHEsYMqo+zb1T4fEnX/qGJ3dPmywfHPUcX4N5V4NAM5DHo18T7tvg18CM25fsW2OYzsN7/bx3392S/X840ovX9HePxsCN5w3syrfrn+TQprqAJQ/lncMzbBse/6+aKo5YjrV0bT0qc5Eh0YA8GhAqVeP1ATcwUeumLXlkStm9arOlQk7Bg1flUeUjo5Gm/rDyZr9oYT/3f5M72jCcyCSrG4fiDZvPxAp/9aK7fyepozhCJgy6W7bkU33bR6qsHiDhZzk1oBqn8Di4wpf+MTcipbfqw6UWdXFLtEUjiR+babTSJrvfvvLtGVj/Z5h/8aeUf/840unnDe7agQAR8GUESxgOmLf/FuXD4D/t23DpRHTCVi8wUJO0gAUurXI2VOLVx1X5HkGUubFNpydQwmfBHyf/u2LXwgb5vxw0oRpvffvUEdKwHbQfiB8fc9wfPP20eT3ASRmlxUYRy81jQcsYMoEF4DASwcS/rQDn8ORb07SBFDg0mKfnFe5AUBLY1VhXhQwAJcA/OGkeX7ctBrfy8j3zRwpkUzbZzkSlQDuAsDzr+mIsYDpiPyupa/u9o1DHxtM2repzkKHa+ykq3OP8/5qRrG+sbGq8FeqE2XSjc+0fwzAPcGYiUgiddifx7IlLNtqnHfr03tnVZd8p2Vf7NHm4wNtmUtK4w0LmA7L9tGkD4Dr8kd2fSxqOierzkOHr8Kno67IjQK32AEh2lXnyaRbl7df19obfl9PKAnTOvSR7ztJSdF8++pOtPXHggCMxqpALGOfnMYNFjAdLj+AAEe+ua+uyI0LpwYA4IUvL6lrUZ0nw+6BY2Nbz2BGP6kl8YGeUPIDAB6HxAgAFjAdMhYwHZKtQykfgOrrn+r6Uihln6s6Dx2Zj88ug0cTTxe6XT8A0KE6T6a82D36RQAXfOS+fyBhZv7uW8GRKIbCcVz3OO4G8BSA/8n4g1DeYwHTe7ZjMO57ce9IeW/EbDYse55hOY2qM9Hh8WqAWxOo9Ls260K0njq5ugVC5Pyq3tV7RvwA6nf2RxZYttMUjCSPyuOYlg3TsjESM2Z7ddH1mT9ubARk1/1XNSeOygNSXmIB06GYMpwwmzfuDz+YMB2EUryzUa6aHNBR49dgRpLvA2A1VGr5Uhz1AB5+aOPemr+195ce7Qfr7B2qqK8IXAYULQXEpQC4KIveM56ERe/Z/S29F20biF+4O+Ygmmb55iINEsW6gwKXWFkV8PwIgIE82VKz5J6W8ttXdlT86G87a3b2R9/1lKtMGYwZ/hd2DVQG3PoX7lrded2xelzKfRwB03sWMtILo6ZsGjBYvrlKE4BfBwrd2pazppX95bJZE/OifAFAQvq3HYgWR+LJUsNMH7PHjRqWK2rEijWBcwGUA8irbVx09PDEBHpX//2P3ssAfPP+rSMNw4Z9zEYWlHmlXr335+ce/0MAz58zrWyL6jyZcPPyXeUAqh9e3/lowrRmByPqLmVXFnmNL585sxPAt7929szHlAWhnMApaPqnfrbhwIe6I+bJ6w8kKgxbcsYkh9UVudunlrg3Y+w6ZV7c4ahtKF45GovP29Y7eGXStMoTh3HKVSYZace1Ye9o+bb+2IybV+5uVhqGsh6fUOnd3Dhq2DWre+N1qoPQkbloWtELJ03ybzxnWtlK1VkyqM5y7PMSpvW1mGkhamR+y9GhiJmW6/92DdbMO77slKnVpS4A+bavmjKIBUxv63ebDnwCwGk/bhloiqWlR3UeOlwSJ1Z4cd7kAAIe/XEA+XK+MwDg7tVdD3YMJEo39wwjnlJbvgDgOBIxI4XOYOj0oXCi+ZZlO54DMPCdC2Z1qc5G2YcFTG/wrRUdLgD+PaHUCQCaBxN2wOatBXPQ2EK5Mq+OUq8+VFfk7gHQc9HMiQNqc2XGOb9cWwmgOBhONoQSpvKR78EcRyKRsoohZXHb/lCzrouOm1d0DAkg8Z3zZmRPUFKOBUxv5gcw/7H20aZoWjYZksWbi8Qrv86dWmxCyseunF/zedWZMuxyAOc8s3mv6hxvK2KkETHS2Nw7eneRz/3srJpyRwLrAURUZ6PswUVY9Jq2wegUzeddtHK/cVPSwbwUb+qbs0rcwprk10wAX4AQ/6s6T6b8al135a/Wdf9LJJ48b+u+ofmq87ybkXgKkZQ9b+2+yA1FPvfitv5YvepMlD04AqaDyAoIUR+35EWWBCxOO+csv1s45V7N/On5U+9TnSXDigGcY9n2vKGoMUV1mHcTS1nwF8jahOXUCiGWYWwEzOvBBIAX9ghAW3+sAkDNjX/rfThs2g27Q3lzNsO449GAmgINAK7fcO2JeXUgxNPtQ3e83Bdu/v7KXWdZhgHHOnaHbWRC45RqlAcK2n926ayPA+iZNbFwSHUmUosj4HFux6BR+svW4OwRwzpn2LBKE2nOO+cqtwCKPJo5v8rfCyCyQXWgDPnWsh0eSPj+1n6g7kDEqLHTJqSTe9+nI9EETMsq/q+/dZ4N4DkALOBxjgVMlQMJ64zeqPmf/XELhs1jJnOVTwcqC1yJLy+a1AJg6F7VgTJFwgeB8lU7DzTGU3aDnUqpTnRY+oYj8HlcFQVez2cl0ANgs+pMpBanoMe5Kx9q29aXdMq7Y051ypZg/eYegbHVlNfPr1g3o9zbNq/SfxuAobnVgZxfcbs1GC2//g8bPjQcT904EDWmpyzHZ1q5N/p9lRCA1+0yF9aVt8+vLeu767J5F6jOROpwBDxOfe2ZHbUAyluH0rPjaYcj35wl4daE4ddFbHKxp+3ESv/LjdWBnF/ks61faoDUbn+upTlhWguSabvRSNtI5/j3qZSAYVqeuJGuD4aT1Wv3js4HMHLK5LIe1dno2OM2pPHrSwCe2jRqY18it5/UxjMBoNonuj5W73tkb3D0u43VgZ+qzpQRAh4I4WsPRlaEk+kv94WSOV++B9vcOxp4fFNPJYDVAG5UnYfU4Ah4nNnaH62DlDfetb5/6bbBRLnqPHRklk7ywaOhCxJ/hJB5cYMFAPiPZZvPBXBSz0gcRh4vDLx9xXb/9MrAGVuDkbsgxA/nVhVxJDyOsIDHn3II8SkTwt8ZdXjGc45rKPMAQPDb505/QXWWTEo7ch6Ai4bj+b0l7pm2PtfFJx7XACHqAPwGY4uzaJzgIqxxZO2+8DPtw0bTf6zqq1adhY7MwqoCTCv14vpTppRJKc0Ty7SE6kyZcOuy9gYA9/55c8/0HcFwtcyfWed3pGkCbl3Hjz68YGBmdVHrGfUTuDBrnOAIeBxYvWekHkDziq5ITW8s7Vedhw6fLoBSj4AusN6tiQ4ppQkh8uKA/7b+2Flru4YaH23dVz0ST/nHQ/kCgJQStuNg7Z4hf9dQLLD0V5tLARgvXDffUJ2Nji4W8PjQDODWJzvD9fuiaZ/qMHT4PBpwfKEOv+Y8+tn5Fb+bmycjXwCAlNf63HrTqo7+6c54aV+MrYy2bAdPb+kNuF16+bTJx1cCGADAAs5zLOA895/PdNR+++99dUlb1g/ELZZvDivSHZR69YEPnlD6e12IdZAypDpTJmzoDZ8B4JOff6jl9J6ReMV4Kt+DRQ0LLt2u39u7/88VAe8vbl6+87nvnj+zQ3UuOnpYwHmqfdDwANBueq6zqT9uTQuZji/N+/rmtDKvHprg03vnVvo3AAjOrS7K+RVKi377kuvl/aFKTYimvcPx8r5wctwuDLSlBBz4TMuebdnOgl3B0NC2/lgvAGtOVSDn/1vTW7GA81c5gOJg0v6LDcDkfX1z3qUzJyxfUFWw8cxpEx5SnSWDim9Ztr3WseX8UCw3j5jMJNuRGI6lUOJzf6YvlPgMhFgAYARcHZ2XWMB5pm0o7pNA9c2rui8LGdbJQ4aDPN5GOS5UFOjBWRN87S4djwOyU3WeTGgfjPsBeD7+wNo7XdKZMZI0YefgDRaOlsGYgXjKwo9Xd95c4nO/tK0/+YQQ6JldWcDrwnmEBZx/XAKoiJn2aZGUfUksL9bHjm+lXn3k/KlFbRJYf2HDxHwZCXkA+CHxKW3seEbVebJK1LDGfqWsy1ya8AiBdQCC4MKsvMICziNtwUTjqs5Q00t90d8GEw56YxxR5LqLaz2/BPD36xZO+oPqLJmwfTTpAVB955qeOwzL+ejLvaOqI2W1x9Z3IeD3zl/THfq6lPgKgJy/wQa9jmdB55Hlu4bO2BMyztwXsxDnvHNOqyzQcEKJCwGPving0XtV58mU1e395avb+z/WPxqZvqsvb07OPKrSaTswHI7VuaV9xhk//cdS1XkoczgCziP9cfPTI4bdtG2ECyZz3dQiN2aUunHdSTVPA0j8WHWgDImn7FoAtw2MxLC+m/ejfy9Saas0FbJKqwMFn4YQLQDy6tjR8YwFnAeu/dP2RZDy0ud6EjVxa3zuocwXBS6BGWVeBHz6jycVu58BMAQgL6Yzrnu49VOrdgYXbt0fwmiCLxIP1a7g6LziAnf1v/75ZQfAwz++9MQXVWeiI8Mp6Bz36I6helvTG/oN2TSSsv1hMy+eq8clDRK6QCLg0Vs9Lm3jJSdOaGmYWGg2TCzM6RVKj245EHh0y4G6vlDixP5IsmF/KIEEF10dspRl+5OmVbFvJNEUT1mz/3djzwzVmejIcASc++5wdFf92sFEk+ogdGQKNDi647Q9ccWMkwHgd6oDZc58AVy5ce/IRwdjqQrVYXJZLGUF/vJy79IPLzi+XAjxYQC8cUMOYwHnqCfbR84VAo0/bulvHkraAdV56PAJjN1k4QPTS3qrC119t6gOlEHLdg1f9Gxb38nt/dGzEml+n2bKy/vDNUOJdPGyjqF/A9B2wYyK51RnokPHAs5RQqARwAe3DBpTVGehI6MJwKUBS48vGplXWTCSTwUMoCliWPN3DsRmmzbXJ2RKX9goHU5apQA++Mq7WMA5iOcT5pgNveEGAPfe+VJw+tr98eqYw/+EuUwTwFmTi0a+cUp1L4Cr5lYFtqvOlAnfen6PBwLab/6+Kxk3TIRiSdWR8lKR3wtdEw988Zz6L0HC+NZZc3hxPYdwBJxjlu0OuwBUH4hb/jQHFDlvepE+4tdkGyD/Boi8uLsRAKzc0r0EQGPcMJFKsxOOFtOy4dbEjN+u6v4MgIcwdhtDyhEs4Bzz+M5RH4DpIdNBijdYyHln13h6APuvc6uKvqc6SybZjvw4gGs48j26UqYFza0vMS1nCYAXwQLOKSzgHDL3nk0PpmynOZIGbO42ymnTizRUF2iQEh8XAnkz8v3AL19oAPDbncFI/WCMxxYfC4ZlIx13UFXse3Dmd5e17Lz5gk+qzkTvDQs4B7zv99srANQNRM0my5ENPGUyd+kCKHZrKPZofWVebeg7FzTkxTVfALjkwc1TotH47FTKbE6mLS1h2qojjQtSApaUSNtOg9A0p/k325oF0LPh03M4Gs5yPIgjN1wC4KWYhdnhtOoodCSK3RrOrvXhxIkFd96wdPI5qvNk2NdNKb65vntYG4jy3r7H2kA0heGkPVsAL8mx5wzKchwBZ6mXg9IFQLvx+Z0/CxlWQzhlu9IOV13lslIP4HchqEP+QkC+ACljqjNlwq3L22dIYPEjrfuawgmzzpH8PlXFNNPo6enTpk8s+uRnH99+0q8/PPta1ZnonXEEnL00jL1AusaWWBpKOeA2ytxW6BIo0DFS4sZDbmm3z60uSqjOlCHVAjhtJJqcMhxN8qQrhWzbxvBwCJptLQVwjeo89M9xGW2W+twTO+4FcM2KfUmkHXDFcw5zC4kCTWJGiX7lyVXu1m+dN6dTdaZMaeuP3vPLNZ2zf7++e2nCtMBJmuzyxTMbngOw7MeXzs2XG2rlFU5BZ5kbn9xRDIFFHRG7JuVIpB2AS1lyW4lXj00vcQ2VujEEKfLihupt/bEZkKi576We2dv6Y9Vp2wFnnrNPS/dQ7YSAd+5Dm3rPFxDrrlxwXN6suM8HLOBsI1AB4Pr9cXv2voQDTlLkvpoiz9AnG8s3A+j5yNyqvFiZKiGXCCHe98fNfUsNI4WUxaX52WjdnqHZzXXlAQFRISE7gfzZ8pYP+OyeRb62rONf9setBf/oNy83LOlPS3hUZ6Ijc828CavcOtY0lnsflEDvlXOrcnpz7Lf+b48GSE/rrgN3SOATz7X3l0tHwnFYwNmqwK2bJQVu4zOn1P9p9qSSTR9tqv2J6kw0hiPgLPDn7SMBCJQ/s6P/xFDKaYymZanqTHRkPBoMtwbzhHJvK4CtH5lblfPXfdsHpXbbc62BwZjRGAwlpliOLLctXiDJdsm07UmmbU9vONnocevOk+2DUwCMfKhhYl5cDsllLOBsIDAfwJVtI+Zlg0mrgovTc199QO+cWaJ3f2Z+1Y2qs2SMlD7Lduablr16MIY80B8AACAASURBVJbCgTCPmcwlz2zvb64uidTPq5sAAA8CWKU2EbGAFfvLtsFPvdATOrF92DhrKOUEkry7UU4r0IHpJS5M8rs2TynzrladJxO2hKRLSul5akv3V0sLvU1rdvUjnDRVx6JDFEuaGBIy8PD67qWWxEun37uxfc21C4Oqc41nHGopJgROi5n2ol0jydmxtPSlud0op3l0gckBFyaXeHoubaxqUZ0nQ1xCCI/jyEs0IS46EE6Cx0zmnlTaQjRpenYPRmf0jMSrAfBSl2J8tlfkWys7KgEE1uw3do+kHOxPcA9HrptR5kWJV9/+g3NqrgAQnDOhaER1pkxo/um6eQDOatu9/0bLdmpV56EjV1vqx4SAFxfMrZ0JIPK9Cxo4ElaAU9DH2LaRhEsI4bvlua7FybTTOJJyEOftUnOaLgCPBmiQz7kEtkAiBIG8mKP94mMvN67pGprfH02d6kgZUJ2HMiNmWkAM2N0f/qjPrbdt7TdWSiAxr8rHZ6NjiAV8jAkhNADlSUtelbDkRznyzX0eDSh2C/iF87N5AdE6p6KoT3WmDDrLsaxTh8Pxy1UHocwJJUyEEiZSlv1tXRMPAdgsgD4ALOBjiAV8DG0JycDDW/pmD8XNX4+kRW1vlNfRcp0LEvMmFhiXzyiNWI7s6x6I58VBG893Di0WENMv/uXqm9I2R775avWuAUwqKTj/tuUvN9aUBT67IyK3zyoWeXGTkFzAAj4G+qTUAOAPL/Y2RJLW/KGk1ZiwJAz2b86bXuZ1jivyDEwp9WwXEJFrmmtyeup5fU/YA4HSF7qGZ6QsZ0HCtHnNN4+Fk2kUelylg7FUqQl9+k9WdYQAdKjONV6wgI8NDYBnNJ66N2bY85/vyZeb4NDPz6+LQMon5lYXf0V1lowQKAXw0b92DF7VORRfrDoOHX194ST6wknMOH7iJ0sS9hwA31SdabxgAR8Dn/x1awOAs0yXp4Kj3vwwvUi3Jvk1C8ANECJvRgy3LttRDuCqXf2R+uF4Tp+aSYeobyjcmEgYpbcub/83ACu/fX7DFtWZ8h0L+BgwbVkD4Mzd8XSA+3zzwyS/Zs0tcxlzq4oeUJ0lk3YNxQMAFg/FDMSSKdVx6BiKJc1aryZKARgYm4ZmAR9lbIOj7NblO57aOGRN2TBkNfK4+tznFdKc4nOCAL7+wvXNf1CdJ5O++OimtQPRVNOfNu/jTUDGMSGAM2ZUd54ybWLwO+c3nKY6Tz7jCPgo2RKMzRZAzTdW7pkSTDrl3GyU+wpcAj5NREp92nIAvarzZMpNf+uZAWDxy+17K0fjKT4njHNSAvtDidL1ewaxNRg7H5C9c6uL2lTnykf8YTtKhJRLIcT7W4atRkcCLODcV+LREXBrA7ddOP1OAMGnVQfKnMUAfrj1QKR0MJLg8bSErsFoxd7hWAWALwFiGQAW8FHAAs6wtmCsVkr5hR+1DJy+bciYbbF5c16hW6DMq2POxIKbp5Z4NwPoRp4cWHD33/f8cNWuA40bekZKQ3GDzwcEALAcCduRuOr+F5fOry2tbAvGTgDww8bqQI/qbPmEP3AZtLU/WtsbSc0YTlhNB2Lpuv0xk4ed5zi3Bng0EfG7tWB9iWfzVXPK22ZVePNmeXD3cLxpJGbUDIQTLsvmKgV6nQTQPRwvnlDoqd3UG2oC4FedKd+wgDPrhhHDavqvF/vOiKQBk89nOa/Sp8HvwqqzJul3OGZiy6yJdXl1StDDrT1nJFJpsHzp7RhpC609o9VfG9paARZwxrGAM+CGF/dpgHT9cmN/w6hhN0TSQJpTz3nhfbWFnRDokrC6BPLjBgsH83k9PxIC89y6ODuUMGE7/MalNzJtG5GE4aop8d288I6/bjp3Ye2PpJTm7efMzrufh2ONBZwJEhqE0F7uT9QYtqw2OJjIGyfXFAYhceBjCybl5e3aqipKnwqNhmDq4uyokWYB01vYjkTSsSAELgFQD+CnQoi8WAOhGvcBH6HdI7L431fsuDqetu9qD1tI8qSrvHBKlad7QYUn+O1zTjhFdZaj7Y7Ve5cAuOIXq3Z8bDSeqowbHNjQ2wsUeLFgRi1Kfa6bvnN2/e/mVgXy4uYjqnDLwWFqDzuenRHpu39z79WOpp06ZDjgiufc5xKwKn3agAa8KKX8i+o8x4KUcgDA2pnVxb0zqopDbpcOTfC1Ob1V2rJxYDiCRDJ1yu82BT+1cygR2DmU8KnOlas4BX2YhBAeAD7Ddu5yILAvwXnnfODRYc4tc3UBePQ75854QnWeY+FrZ0zpBNB5f8v+C7sGo57dg7HSpJmGY3E6h94olbbQ2TuI6oDnsphpXwbgDxJIYOz4SjpELOBDtLU/5oKUxX96uedGy5YXPb07gpTNoW8+mFmso9ynD100Y8JvAHQ8pDrQsXdrid8z+wtnzvjBira+mvb+cGnCSKvORFloa0cvdnfuQ1WBtgLAowC+ozpTLmIBH6KtB6J+AM0jSXt+0nLmjfD2RjlPF4BbEyjz6b0TC1ydC6qLOiAQUp3rWPtM83HdD7T2YWKRr6WqxNccTaU9uwcifiklJF9j0kFihomEbWH/aKLRkXLLRfevr5WQA8985mQuIDgEvNBziH6xbl8zgA1PdsXQMsBZl3xQ6tUwKeDGpTNLbzh7aknr3ImFa1RnUu13mw78pxC49MsPbWgyLRspk4te6e2VB3ybF02vWg7gZ09/ZlHenJF+LHAR1iH4179sX7q2N7r0ya4YuiOcmssHPh3wCLSVu/Ej23ZeBNCpOlM2EALPAvj+Vc2ThxZNnhBz6brqSJSlYoZZt76z//wC4Vzyn8u2n606Ty7hFPShaYim7JktgxwN5AuPJuAW6J5fIp6KjUbb506sjajOlA0+OX9SK4DWJ7YP3OFIWbph70jAdhxIzkXTm5iWUz4SM8oFcLKUcAFYqTpTruAU9Huwqmu0GQIf/NyKfdcNG3a16jx05DRIaAJYXOZ6H4Dgnz81r0N1pmy1vGPoEwDu+OIf11d2D8f5op3eUWWRd+DBq0/5A4BH33/CxBdV58l2nIJ+F+v3Rxb9375Y8/1bh5uTtuRZqHliepnXOa220AIQBMBR7z/XKYE/LKwrH1g8ZQKnf+gdpSzH/8im/fPW94wuWt8bXqo6T7bjq9l3d+n+WHr+sq7o+aqDUOacUlNovX9ywLxgRgVHvu/i/BkV6wCse27n4KKd/ZHSdd3DfN6gt5VIO4Hl7QNnXTJvkgvATAAvqM6UzfiD9A62DkTPFRCN1z+9++qQyZFvvqgJuPGFBRXw6OJ/ADyuOk8ukVJeX13sa7rvE4v+93fr9mBN56DqSJRlLMvGQCiGVe3Bps7+8GwAn1edKZuxgN/BtoFELYAFAwmrOuUI8HJ57it2C5R5RGJqibcdwMZzppe1qs6US85rqGxfu3dUA9B6fJm/bvrEQEXnYF7dnZGOkMTYcZUj8VRAShlo+sHKJkAMtd70/h7V2bIRW+UdvP+3W+4CcPWWUbtYdRbKjAtq3Sj3aK37jVknAcCjHxE8P/QwPbdz4F4A13zgZ6tVR6EsNu/48hiAB1pvev+XVGfJRlyE9SYfebyj7iOPd9wVSuOMfXGHU895oECTqPZK+N36/ZUBz72q8+SJBwFc/+lT6iOnTK3giTT0tvaNxHyheOr0s+5effdZP1ldpzpPtuEU9FuVA7g6LYV/1JT8+uQBrwaUuYGJhZ6/fmhOVes3qjjyPVLnzqxcA2DNn7YcuBVAYO2eId4Rh95iNG66vLo2G0C9BH4DgFPRB+EU9EE+/dTu1aOG3fSP/fGA6iyUGWU+HZV+15O/PG/KHRLYMrfKz4uWGfa7lp6PAvjuzU9uqdsfSnpU56HsdGp9hVHqd7f85bqlp6nOki04wgPw9RW7GoQQi1uGzOqI6fAJJA/oAtAEUOQSzxbo4iUAAwLgHtajowsSj0ws8l0uJar7wkmum6C36I8arqTlVH7pyfaPAXL93R+aNe6PfWUBAxBCLAZwV0/EDAwbDq+L5wGXNnbM5IXHe+8E0NdY5R/3P+xHy6ea69YDWP/ZP26c3h8xmlnA9Ha6hmKuCQHflJOB7wPim+C561yE9fuNvU+NppwbnuiKBcIplm/uk3BBYsFE38DlJxR3SGA9gG7VqcaJr2sabjh1+sSuiUVeni5Gb+BIYDSR8jz20q6a57btv/C0X7V8UXUm1cbtCPiW5e2lAHx7I+nmYcPxDxuONrYyh5fFc5lLCEzwaWaZV+86LuDu/sqSehbBMfLrqxZ2XfrrtSgv9LYEPO55Sa/tiqUs7iSg11i2xHDM8EhNr3e54+bNK9prBETiO+fNHHf33wbGcQFLyMUCYt7Pt4aqbQk4LN68UOLVzStmlfdB4u6vLKn9g+o8482fP3tKF4ArL71v3dcEcPGTW/YtVp2JsosjgeFIfPFoNLFYzK3eA6AVwNOqc6kw7gp43b5IKYDFt73Yd/G+SKrJcsZOb6HcN63EPVTq1bohcScE1qvOM54JYDmA9tnVJXcOJ1KB/ohRoToTZQ8pAUdK/H7t7osnlxce/3zHgAYh1px1wsRxNRIedwUMwAdgftxGc78hm7khNH/UBlyxCQVa963v48hXtT9ds3gzgM2X3bfuqxiIVLOA6c0kgJ6ReFNpgRsQog9AC4BxVcDjat51zd7QJSu7oyf9YtPQN1Rnocwp9wgc59cA4KTnr57XojoPvdGlv157OYBbV+0MTo8aFg/soLf11fPn/PjsWZM2nDm1bNy8gB4XI+A/be33QSDwvy8PnHwgYc1XnYcyp8AlUOzVByaXejoB8JCNLCSl7BZCPDqxyPfxArdVMxA1eNANvUVrb7gxGLOshfe0PAbA2Xh9c97v2x8XBQyBAICajX2xS+KWbODuq/xR7NVxXImn88YlNf8rJUZ+ozoQvcUT1yxpAdByxW/WnTgcS3lYwPR2dgRjZ3eNGBWBsqLvAhgX54vnfRP9+4qg74n2oXP/vGPw4bAtpoSscTXrnrfcAvDpwOfmV9z+gfrSu6XEY0KMr+tHuUZCfjUlxQ3Tayp6iwq8CdV5KLv0h6IYDUcbaoS5us6Vvvxbz+7K+xdqeTsCvnHFAU1AYFKxbO6P6QtGjXRDWgLW+LrsnYfG1qx7dREqcInYmXXFGwB0z6kqHFCbi97NY58+pXPhj19AoU9v9XpcjWnbrjNMK2+fg+jQpC0bKV34IoY5v6zAsxBI97YPOC8CwmmozM8bqOTtN7+AcAFwuXX8XXe78dK+pOpIlCE6gGnFrufOPd7/jzlVhX9SnYfeu43/urQTwMXNP3nxBwA+trlzf43qTJQ94ikL/+gcxIVzJv2bEPg3CFGEsTPc83JKOm8LuKrI+SiAM5/ZHcFQIu+v5Y8bJV4dZxwfgE9DO4DnVeehwyMhHxcQL9dVlj4YS5oYiXJGml63tS+MAxEDpi3vBrAawAOKIx0VeVvAQuA0AFe39nPkm08K3TqaJxUCwP7PLaxuU52HDs/GL5+6DsC6RT9d+yAQYwHTG/SMJtAzmsD7G6qvxtgI+AG1iY6OvLsg+tO1+5oA/OPJrqhn02Aq7xeZjSdLK10o9Wit93949skAHCHy87rQeLPop+uuA3BP+94gEqm06jiUTYRA85QK58MLp5gATr3p9CmtqiNlUl4V1B3/t2t2Vyg5e2N/0jWctPPq7zaeBVxAXaEGTYgnAfxFSh4emmfaAdxXVOgbKg3wnA46iJQYihra+q5BV2cw1HDL8vYG1ZEyKa+moCXk0pBhLXx2r+HinY3yR7lXw9wyFwRwW6DA3appGi/q55H1X1y8BsCaRT9d25QwzIpQLC/X29Bh2jsUxb6RuOtDJ9aeVlXs82PsBVteyIsC/taKHTMALH54V+LamCWncF4yf1S5bRRo4vnp5f57JdA5YFgs3/z1Sb/H1dQ0rfrBnsEwhiJcv0FjGw9tx8GqncHLN/UML7p1+Q4XgDXfPn/WdtXZjlTOT9NuG4hVm8JVvy/uLIylZV08jYqxkS9Hv/mg3Kf3FHu0jubjSltPOq40dvcHTuDrqzy1/ounbK8MeDdXFhV0Fhd4IgGfW3UkyiLxVLoiYqTr9gzFFiZNa3rbQDTnt7Dlwwj46pTmObllJHVJ3BZI8/pgXvne2VO/C6D99MmlHaqz0NF324UzewDx+e+t7LhhMGZ+YM22faojUZYwbYlIMl3xfHvwmotPPK4GwEkAblad60jkbAG3DcQapZS1t/y978PBuFURMmzYDss3H2gAppR41tWXedsBvIBxdouy8UxCGAKyfVp54Z+rA97u/pGyfwklUugPc5sSAbaUCCfT+EfX8LyeUaNma390AyR65lYXbVad7XDkbAFLKWuFEPPah1PNSctBwuLMZL7QBDC9zNv+9SXV/9dYGcibBRf07uZVBUwAvW3B+HoAwe3B6L8AYAETAEBKIJm20TuarA0lrVoBLJRjVxtzsoBz7kLp1v5oNSA+8cMX91+xe9RY1B5h8eYLAYlqv+5c01gWAXDDl5fUPaA6E6nV1p+47IH1e8/bciBy3YbOIKKGqToSZZGmqZUAcN/6G953reoshyPnRsBP7xzxAzgxmLDKQyannPPJCSUea4JPGwDwGABe8yVAojvgdb08qdj7fE2Zf1Eo4QpwNEyvGookAU3MmHH7366GxNMdX3//kOpMhyLnCnhdbzQA4OyeqFU6aLCA88kpkwqMmkJX55eX1H1FdRbKDo3V/tYtA9GIAIa+v8KpPxBOsIDpNT3DURQVeBZPLAvMg8BmADlVwDm1DemTj27/hSNx7+aRdMVoSvLInDxR5tWseeXuSChlf1ZCXq86D2UXAdkrgZXnzJx42+LJ5T+fWzsB5YVe1bEoS8SNtKd3IFx8nN/12w/ft+43qvMciqwfAUsptfs29Zc7EnXLO4abY2nZkLCyPze9Nz4d8OkYKPJoHUNJa/ONp83g1DO9wdzKYgOA0RaMtaXSNqqKfd2hhFERT6UDKS6+HPccKWFathZLWQ1uXcPda3Y365ro+eCpU4eOz/Lz4nOhyDQAlwC4a3fM8R2IWzk1aqd/rr5IB4Bnn/jo7JxcREHHTmN14MUtA9H2006YEPr3Rzdd79XFWZ2DMdWxKEts2jfiqS31z8Pcmg0AvgTgPmT5fYSztoB3OY4LQuAPW/p/0TGcbNg6lPKEU7zBQr7w64BXF3j/1JLnAexYrToQ5QQBmZAQrQ3VxY9PKinoHE2Y1xlpG3HTVh2NssBowsQjG3twYl35VQWtfQsAfFZ1pn8mawsYQgBjo99rEpaDjf2vLrzIuZ1T9Da8ukDALXDZrAlbAPTeojoQ5YRXpqM724KJYggEX9g9eB0AFjABAOKmhbV7hjCtqniJlFiCLC/grG2zTz3a1giI2mX7zWWqs1DmCABeHfjQCSXPfn7BxJbGqqJbVWei3NUWjF/0vWVbL3ipe/hfghEDaTurL/nRMXbxSfVXAuh6/JMLW1RneTtZNwL+n+d3eyBQ/lBnfFHCdhaozkOZJOHShDGpQGvXIVslsFF1Isp5PQGve2NVse/JkXjqDMdBsc3difSKDZ395/g9ro3/8fT2AQDB/75odlad5JJ1BQwBD4Dp4bRzaciUF6mOQ5nl0xA6/3jPcsB8am5V0XrVeSi3NVYXbtnanxgQQPvZd/21wXZksc2V0fSKvtH4NeWFnloB9EggAiCrCjirFjXd/Nyuhuf7jPPv3Br5dcSUp6vOQ5n1gcmFuGRa0RCAn0mJnL+XJ2UHAYxIYMtFc4+7Yd5xpd9UnYeySyiRXvLT53fcJWz7Q9uC8SbVeQ6WFSPgtmDMByn9t6zZ1zhs2AtMBzNUZ6LM8ekCAY+GCT5XR5Vf3/LV903vVZ2J8kdjld8EYG7tj7bdsWKHs6k3tN12nBpHolR1NlLPkbI4Zcninf2RBQ9v3Ktt7Y/3AojNrSpUfqRadoyApayFEOd2hK0f7E/Y31AdhzJrSokHl5xQipKA9/9delrdp1Xnofw0t6qo5+TpE9b89xXzrwz43CtV56Hs8lx78F8fWNf1bQCXAZiiOA6ALBgBbxuILXmkbbB551Dy4kTaqUjz8k1eOaFYR5FLvujRxMNuXesWQliqM1FeMwH0TSj0Plzgdm3vjyS5w40AAJbtIG7a5d9evuPjAPoA9ZfBlBcwgBkx01nYGzHPMm0JhysY80qNX4NLQ8dVc2rvh5TGCVl+NBzlti8tmWYBGPnqMzvWAWj/4Yo2FjABABwJmLYT6BpOLAXwoOo8QBbsA/7Iw2279sXt0s6IU6E6C2VOke7ArwE/Obf+YgA9Z51QlpM3zKbcdvNzu07/c8uei/eNxP8tmbb4Ap8AADOrikcmTwhEnv3cqVNV5lA+Ah5IWKUxE7yzUZ5Jj44imYzhzntevmA0HB+adM43FqnOROPPs48snxmX7nk6XBBeP6DrgMiOpS+kTsy0ff2xlOoY6gu4N2ZXmA6QLevBKDNSBw7A7NuHlkTsc6qz0PjVt/cApKbBrbsgaiYDXh+g87lmvAsZab/hwK86h/LvxFNrA5hWzgFwvpCJOOTmDUBwP4ShfJU/EeA4EFYagcE+BAYPQFgW4HApwng2tcyPk49Xv0tN+Qi42KuHvEnbB3AaOtdJIwnEYxDhUYiUAcEnOcoCAgCkhJ4am3J0pQzYHg8c4X71pi80zmgaIl63pnyEoLyA07azKpl2pgCYrzoLHRm7uxMIj8IXC6uOQvQWmm1BJG0UB3sQL6+EWVQCx+VWHYsU2DOSXBOxtQ2qcyifgq4NuDq8uhhQnYMOnzRTkOFRuMKjcMciquMQvTMpIaw0vLEwCkYGIWyb09Hj0NRyPz44u1p1DPUFPLnIvd+ji5DqHHQELAtIJqAnYtCNpOo0RO9IABCOA5eRhDcegZAOhOTepPGmMuBFc636a8BZcQGk7iet1wG4x3AAmR2R6D2S/X3QBoPQ9+5WHYXokNleH1KBYiTLK+HoLl4TznOaEPD73ABwfeiOi3+lOo/ya8AAcHxgLMbemI0UZ4NygnQcQEpog0GIKKedKTcJ24KeMuCJhWEWFo+VsKZ8YpCOEo9LQ21pAQAgG6Zds6KAGyvGFkAPGEmkTDZwLpDO2LUzjnwpl2mWBXciDlfahO3xQgoNkgWct3xuHY2TSgAAbYqzAFlSwLvDZiuAW+OW83kA6q+M0zuTErBt6F0dEMH9qtMQHTHh2BCmg8LBA7C8BYhXTBorYRZx3omnnYFdSf33ALaozgJkSQFbtowA6HYkDNVZ6J3JV8oXsSi0SBhalNuNKPe9/T5hLxwheE04z0gpTbjcewHEVGcBsqSAL5g8Niff1RZD0uaKxKwlJZCIAVs3Asm46jREGfWGfcITqpAqLoUUuupYlEEFusCV0wMAgI2KswBZUsAABgCss6VMCACs4OwiX9mmkR4IApEwfMk4hM3b+lIeemWfsCcWgWalkajgFbF84Q0EINyuCIDnMXY/YOWyooC/eub0EIDQpLs2GRoAW3Ugelt2JAwRHoWWNlVHIToqBAA4DlxGggWcZ9w+HzS32/iPM6dlw/orAFlwEMfBLjzeg6XVWfGagA4i4jFovXsR6O1CYIALryj/6WkT7mQcZV3t8A8GVcehDDi5woWzJ2XX0aNZVcC2I19M2VinOge9TibiQDQMMTwwduIV0Tgytk84CU9klJddcpxpyxYbokV1joNl1XAznJYPB5POLgCLVWehV7xSvtr+vaqTEB1zupWGiEfhMg1EvD7YelY9ZdIhGE45fwmUuLOqgLNqBHzVnInGnIl+XmDMAlbKgBmLQW/fwv2+NK4Jx4ZupuAfOICCwQOq49BhqvDpxowyT1b1S1a9nKst8iZ8ejzhEhK25LnQSiWTQCIOEY+NbT8iGqde3SfsSo0dU6CnDDguN6TOLUq5QBMCLl2DWxexEp87K/b/viqrRsCVJaU9veFUd4VbwpdVycYfV99eeNs2Qki+DCICAFc6BU8iikBwH9yJrHoep3/C7/OgpqIELo+344qTT+hQnedgWTUCBmDOmegz60vdWD9gYHeYix6OOSMJsbcTYmQI4KITojcQjgPdNOCJhqCnU0iWV6qORO9iUrEXp0wtR8DnMgAkVOc5WFaNM6eVC3NamddqrPSj3Jdtrw3GibQJrW8fRDwKjTcqJ3oDAUC3LLiTcXhivAtYLigrcGN2VQB1JT5zVrHgNeB/xpFaUAj8z4jhnAtgnuo840pbKxAehUjwmEmif8ZlpgAzhaL93TD9AaTKKlRHonfQum/06QEDPwCQVdPPQBYWsK7BBLArZUtuRTpGHMOAjMegx+PQXjmQnojenW6m4NJ1OPEoLJ+fC7OykNel4aS6UgBAp+Isb5Z1BVzk02IA1kXT9nmqs4wXMh6Dtb8HrvAotDQLmOi9chsJCMeG5jiIuz0s4CwU8Lhw6bxJAIA/Ks7yZllXwFNLfBaAUIGQpq05iDlZdZk6/wwcgGt4AK5gLzQrqy6PEOUEPW1Csy04QoPlK+B0dBYpDfhgC20IwGZk2QIsIAsLuGRs8ZVR4dOsgAvojHEP6tEgbRuQDrTw6NhZzxz5Eh0WISWEbcOVSgIA0mYKUndxNJwFJpUUAID1kXmTsnLFXNYVcMPEQhPAwA//3m0AwO0bRxUnylNGAkgZ0Dp38KANogzwJONwpQxojg2jdALShUWqI417l8+vBQBsVZzjnWRdAb9qxLAfB7AbwG2qs+QT6ThwLAvaQHBsry+3GhFljJAOXMk4PLoOLW0iVTpBdaRx7UDY+B6ADapzvJOsLeD7d4bXA9gOCBZwhjm2DS0SgjYY5ClXRBkkpIQrbUL+//buLEay667j+Pecu9St6uqenp4Zz5LxMh7HduxJHJvERIlEEASJLChIRBgkQIBA4THLMwqIB3YEIiAEQUKCh0R5QSgSiYAoEJHNE3s8/6rIlAAAEcJJREFUccZje8az93R3dddet27d5RweqntwEi+zVPdd+v95nKmu+++ZUv/6f9YoRBsjAZyzz3/3yhextPOu4/UUNoA//fh02fgfP93LuZIKsRbV71L/3//KuxIhKs0bh3jjkKzRJPVrxI1m3iXtSr/7kUcB+PSf5FzI6yhsAAMxMHQVGAsyUHr77NYc70YL1ZM5dSF2ihsOIcswjkvq+aBlV8dO8IMarucBtCng6ucthR+BPPbZUzYxlokk8G27EcCnT6J6HdyBjCoIsVOSRpN4zxJRcw/GLXLPUx179u9jbmGey594d6EzrvC/jn3waI0Te+VDe7ustbDRgtMncdZXcUZyi4sQO8mNQoL1FYLeBrVRIXfDVM7bFl0+cMTPu4w3VfgAXgr0876jlvOuo7SyDCZjVK+DimOUyfKuSIhdRRmDk8S4kzFONEanqew+2GaesiuLvj6Tdx1vpvABPHDmP/x81/x13nWUlQqH6OEAd9CT8BUiR36vQ9BpUR92cRM5dW47nb4++PvzsftU3nW8mcIHsEMaYW3sFHokv3hsEmOjMfrlM+i163mXI4QAVJbh9dr4wx5+KNNB2yXQJO870ozyruPNFH5y1SOJwKbO5mpoObPpJmUZpAl65VrelQgh2FzxagxuOMJ4PspxZHvSNvG1St93pFn4YYbCB/AffeD+4dcvfHdoXIZXIt2IrSp8154nm6Yw6KFfeUk6XyEKZmsgz+91YHNLYOIHEsQzUq95PHj0AI5W3dqxxcKvHSp8AFtrecuch8WymljiNO+KCi5NoLUC4xCsLPQQosiccDg9HtZ1SV3ZJ3yn5nyHH79nEaUoxRn3hQ9grbX5zJfPGiD9fj9imBb/HzVPKp7ApfOoNEGV4AMoxG706k5YJwnKcTBNF1P8ZTmFtrfu8bG3HwIw79K68O1aKf63nzi6eOqJo4t/aGBFySzw61IvPo8++z2cJEbJNgchSsGNQoLWCkGvgz8a5F1OaSmgP05W5gP3M/OB+0ze9dyMwnfAAMf3N9tYexpU6CiQJviHpAnEMarfRQ370vkKURJbC7OUiXE27xNOa3WM1jIcfYuUUsSZCeu+8wywnnc9N6MUAXziUPMycPnhvzvdn/McerF0dz+g24ErF1CdDZTsLxSilILuBtnmedFxfY60FuRdUqn4jmKSZt0TdzW/lHctN6sUAbylpkykFDFQ/DPGdkiysozT3cDttiEr/JSHEOIN6CzF77Uhy9BZKqujb0FQ82PX0VGZDvss1RiHp0hdrLR4r5L1uph+Dx0OZd5XiJJTxuCFQ9zJGDee5F1OqfieGwc1v1RdSKkC+BM/tr//1MOLcnwMQL+LWl2mee77BC3Z7ytEldR6beauX6bR3ZATs27Sx997H3/woYfzLuOWlGoIek/grgVjswL20PRPdt/5lNYYSFNUv3djI78QoprccIixFmr16aIstft+5t2s3jj+EvDdvOu4FaUK4GP7586vTljS8M5dO9hqLUzGsL6KWi38QS9CiDtQ67Wx1hDPzWOUJwH8OrRSfPZrL/95/FcfO5l3LbeiVEPQwD99/crwHxdrDjW9+z6IWRJj+l30qafRrRVUWqrpDiHEbfCHA/ZcfQV3PEKlSd7lFI7naJo1l2atVP0kULIAPnFwfvk7y6NlDRGw+5rgcIQa9KZ7feMYOZREiOrTJsOdRLhRiDOJpkfMyl7/GxQYrVSslSpdJpTuV4Z+nEUKziaWe0At5V3PTvJePoPqdeReXyF2ofm1ZdJaQO/u4xjHAeXkXVIhGEuYWNYttnRDgqUL4J96Sw2A5zZSro9L9wvP7elsoFauoQY9kIM2hNi1dJIwt7ZMtLCXpNEER0L4yGKdJ4/tB+DzOddyq0o1BA1wYsnjxJLPnlrpSr9tKhyily/DOERl0v0KsVtpkxH0O7jxRI6c3bQ0V+Pxu5d4593lGxAt7UqmA3/57D8Av5V3HdvNfOfr6HGIOyzT+S5CiJ3QetvjeZeQK8f3AT43+bOP/nbetdyO0g1Bb2lsVh6WbtT/5qTjMSaJ8cehnO8shHhNQWedtBaQ7tIjK7cGQst6ZlhpA3jRn/7Lh2k154GTYZ+436chna8Q4nU0V64QLe5juEsDuOlNc6CsPyVLO5Hai+2VXmyfz7uOmTMGooj66jJ7Lr6YdzVCiILzBz0WL7w43aK0y5iFfRfNwr5SXD34WkrbAe/xVQQMRxW6HHh6zGSC6nfQ4RAdjfMuSQhRYIrpDUo6S3GjEIBsF11juH8+CIF4Je9CblNpA/jn76mlQPS3ZysUUnEM/Q7OM9+cdsJCCPEmtlbSzi9fIg0adI89lGs9O+kX7m/EQFLWodDSBvCRPfXTgHFV+JPGginvgm6sMViTwbWL00sWjJx0I4S4dTqJaV6/TLRnqdILsxyt0FpzZDH4InAq73puV2kD+H33H7gIhO7TG6SAKXFeWWunw88b66hBV/b3CSFu2dZwdNDdIA0alQ5grTWuo3nv8X3fsJayjkCXuG3c9OTnnrP9xLIxKXForV1HX3wZ1dmQCxaEEDOz/ta3Y5Wq3IlZSw2fZuDxyu99qNQZVtpV0Ft8TddRhHnXcbtsex36XRiHMu8rhJipoNfGC4dgskpNa7muEwW+V9bdRzeUPoCbnr7qa9XNu47btnwZ1VpFDwcoCWAhxAw1164R9DvoLIMK3Z4W+N5wcb6+lncdd6r0Afyh+xeuPrC3VroAzjZapJfO416/iu518i5HCFFR3nhEc/XqdJ9wRW5Se/vh+f5Tjx2RAM7b0QV/fc7Tw+nduCX4Dc9ayFJUOIReBxVPUJnM+wohtofO0ul9wvEEJ46nP4NKPBytFLhKLR9eCMq6++iG0gfwQweb33YcfdFTJVlRZjIYDnHXrhNcuZB3NUKIilPG4MQT5tZXmNtYm051lTSAlYKa5/KVsyv//IvvPPLxvOu5U6UPYGvt18IkO3vPvIuvix3BNolhOECfO4PqlW7UXAhRYjpJcCchjXYLLwpRJRyO9h3N0cU6RxfreZcyE6UP4BMHF54fxdm1Aw0Xt+ABTJZBNEavXEONR3lXI4TYRZTJ0HFMbdTHSeJSnjfgas3+uRr752p5lzITpT2I49X21/0QuOro5BDYwn1PJsuwWYr77LdRfel8hRD5UNbgjEfMJQmNdovOPcen+4R1OfYJh0nWPrM6+jfgpbxrmYXChdXtmHfpAxeBRaB4x7+MR9Beh0kkW42EEPkzGSoFf9gj82qkQWM6waqKPYpYczVPHF0E4D9zrmUWKhHA9zXVOnAS7IMUMIBVvwvnX0RFoQSwECJ32mRgMubaLSbNBbJafdoJF1zDd/jwicNYJICL5DRwNUzMB4C7irQeWj13Ej0agISvEKJg9CSitrlKerj/MMavFboL7kfJsoXfV9a2865lFioRwJ98//EhMLzvs8/GnoVxARb32TiGLEX3OqhkIuErhCgcZS06TXAjcONoerFNQe8TrnsOWhN/6iePX8y7llkp/SroV3tk0eXYfDEWE9jWCvb8WfSgi4oqdGexEKJStvYJN1eXabaKe7HQsf1NHjm8mHcZM1WpAN6Y2G90JvZbedZg0pRxp41tr+NstPIsRQghbprONvcJt5ZxC7hNcoB7qq9qz+RdxyxVKoBXI15sx5zNswZrDMloiB0O0MPSX9YhhNgllDHoJCbod3GSOO9yfsQQ75W+Uz+fdx2zVKkA/tUH/PgnDrm5fnKc8Yi9p79Drb1WoKVgQgjx5pS1m8PR11h6Jdde5kf89JFa/JsPNor3m8EdqMQirC3zNe+yUXb/Tj/Xbh5urleXod8p7TmrQggBgDEoUmr9Lpnnk9Yb+dWiNNpxMKhzc777Sn6FzF6lOuCPPHbkVKzd0zv+4K0APvcCzrmzKIq0EUoIIW6NNhk6TZhbX8HPeSpNOw5uEBBb5+kPPnr0ZK7FzFilOmBrbdvEyfpje12uhBntyfZ3oiZLUa0V9MXzMBpu+/OEEGKn6Dgi6LdxJxHDuzb3Ce+wQ02Phw7Po226bqH0dwC/WqU64EeXGrG2JlrwVdtTakfmCuxwAIM+qteZXrYghBAV8f/7hEOceIJOkh2vwXVUvCdwuxobvuNgIHPARbZU9/vAl+lHTwIPbPsDnzsJ8QSd7vwHUwghtpsyBsdMqHdapEGD8MDhHX1+ktll7bqngMoNMVYugOddEwMXwT6ync+xgx6MQ9yS3qsphBC3wo3GKGPwex3SemPHhqPrnhM+enD+KlCp7hcqGcDEwCqWaFsfNA6hoPvlhBBi1pw0QVmLNx5hPG/HArjmqOjhg/Mta0l35IE7qHIB/EtP3BsBp/5j+dzPDOOMkZntemQTx6StFfwrF3A3KrUeQAgh3pDOUhqdFu4kIg3qjA6+ZVuft9AIcBx37dFD89+igkPQlVqEtSm2lpU5l/Cu+my/PTOZQDjEXV+T852FELuWTmPcaIw7HqHjybY95+7FOnsCdwhcBemAC++Ru+oR8NJTX3i+v6/mcmE0u8VRZhyiel1qVy/M7D2FEKJs3HgC8YR0UCcJGsTbNBx94vACQPfEweaZbXlAzioXwFvetq++Apz96vXk4Tt9L5tlkCZ4L38f1e/NoDohhCi/oNvGCcboNGWysIh1vZm+//dW+n8BfHOmb1ogVRyCBmDBd1oLvnPxTt/HGgPxBAY99GiAjsIZVCeEEOWnsxQnifGiECeJUTPejmlRlyyqPdM3LZDKdsDY9CTQBX72jt4nTaG1gj73AkTbu7BaCCHKxo0n0yFpa0mCBtG+u2b23r/xnvsA+NTM3rFYKhvAD921kAKxYnqOqb3N05mzi+fRgy4qjsGaGVYohBDV4Y5DVJZiXO+O9wkrBWr6M/urTBupSqpsAN+7t5miiDVwJ7Fp1lfRkzE6q9wCPCGEmBk3maBNRubf+T5hhUJrxafef/z5GZZYOJW/tOd3/vUF+8og5dmNWwtQde0yqrOOvlSp+5+FEGLbxfUmWS1gePju2/r6d927jwcOzPMvv/buSmdUZTvgLcPEfGmQ2HuAd9zM622awnCAGnRhkO81XEIIUUZbZ+N7owHG9chqwS19fW8cn+mO46vbUVuRVD6Av3x98qcYPqpQNxXApAl27Tq01tD9zjZXJ4QQ1eMmE0gmmF6buNG85QB+aW3wPy+tDf59m8orjMpuQ9ryc0drHAhu7tuMel0mrTXcy+fROV9CLYQQZecPewTdDRpr19C3cG7+3Xvn+JX3bP9ldnmrfAd8sO6EjkpjsG/+4uEANeihJrLdSAgh7pTOMpwkxkYKZ/PISuP5b/w1rovve9HRvY3Knf38wyrfAf/y4w+dGSRcu5nXNi69TOPSyyh2weo0IYTYAU6aUBsNqa+vELRbb/ha7boEi3sZe/ULv/7kgyd3qMTcVL4DBuITi06aWc0L3ZTwta7u7Wygrl9FhSMwstdXCCFmbdoBK7zxiMzzMa9xbGXgKB7Z6+M5KoVtvlK2ACrfAT92SKX3NbU5Pu9Qc16nrx0NUNcuQTyRzlcIIbaBkyY4SYybxKjXaXR8rTjadDlYd9K37lOVv2x9N3TAHNy/8C3gk5NrG58Ge/QH/vK/v4JK4m29UksIIXY7BTjJhLlrF3EX95E25xnP7/2B1yTGLh85sPQ3QOWHn2GXBLDJshBYNsbeOI3DDHowHk8PEM9ea1xaCCHEdnDiCIbgBHMYrbHONIqMtamj7AqwK2692RUBnI2jLnA2NfbGnIJdb2FaK/iy4lkIIXbE1hSfG45wwxHJ/B5S1yfdDODMmKjpcQ7YFftAd0UAv+e+vRHQ/sK5UTqZxIxaLdz1VVRnPe/ShBBi12qsXCVpNJnsWaKxb4laUEvfe/+SdMBVcs/eRoq1oaPsGQcTE8eoNL5xXJoQQoids9UJO0lMliZok+E6Gs/V5+7d1+hbayu/AEsIIYQQQgghhBBCCCGEEEIIIYQQQgghhBBCCCGEEEIIIYQQQgghhBBCCCGEEEIIIYQQQgghhBBCCCGEEEIIIYQQQgghhBBCCCGEEEIIIYQQQgghhBBCCCFErv4PoycxLBTPM0IAAAAASUVORK5CYII=;" vertex="1" parent="1">
          <mxGeometry x="410" y="40" width="70" height="70" as="geometry" />
        </mxCell>
        <mxCell id="e54BE-5O06g-NBE3f2j7-13" style="edgeStyle=orthogonalEdgeStyle;rounded=0;orthogonalLoop=1;jettySize=auto;html=1;exitX=0.25;exitY=0;exitDx=0;exitDy=0;" edge="1" parent="1" source="JSSmb_3Z2BOipet1F9V3-4" target="e54BE-5O06g-NBE3f2j7-2">
          <mxGeometry relative="1" as="geometry" />
        </mxCell>
        <mxCell id="e54BE-5O06g-NBE3f2j7-20" style="edgeStyle=elbowEdgeStyle;rounded=0;orthogonalLoop=1;jettySize=auto;html=1;exitX=0.5;exitY=0;exitDx=0;exitDy=0;exitPerimeter=0;endArrow=none;endFill=0;" edge="1" parent="1" source="e54BE-5O06g-NBE3f2j7-15">
          <mxGeometry relative="1" as="geometry">
            <mxPoint x="320" y="560" as="targetPoint" />
            <Array as="points">
              <mxPoint x="115" y="590" />
            </Array>
          </mxGeometry>
        </mxCell>
        <mxCell id="e54BE-5O06g-NBE3f2j7-15" value="" style="strokeWidth=2;html=1;shape=mxgraph.flowchart.merge_or_storage;whiteSpace=wrap;" vertex="1" parent="1">
          <mxGeometry x="80" y="550" width="50" height="40" as="geometry" />
        </mxCell>
        <mxCell id="e54BE-5O06g-NBE3f2j7-18" value="andere Quellen" style="text;html=1;align=center;verticalAlign=middle;resizable=0;points=[];autosize=1;strokeColor=none;fillColor=none;" vertex="1" parent="1">
          <mxGeometry x="55" y="520" width="100" height="20" as="geometry" />
        </mxCell>
        <mxCell id="e54BE-5O06g-NBE3f2j7-3" value="" style="group" vertex="1" connectable="0" parent="1">
          <mxGeometry x="294" y="390" width="120" height="80" as="geometry" />
        </mxCell>
        <mxCell id="JSSmb_3Z2BOipet1F9V3-2" value="" style="shape=image;verticalLabelPosition=bottom;labelBackgroundColor=default;verticalAlign=top;aspect=fixed;imageAspect=0;image=data:image/svg+xml,PHN2ZyBpZD0iZjJmNTcwMWUtY2IzYi00ZDZmLWI0MDctNTg2NmVjNWI3Nzg0IiB4bWxucz0iaHR0cDovL3d3dy53My5vcmcvMjAwMC9zdmciIHdpZHRoPSIxOCIgaGVpZ2h0PSIxOCIgdmlld0JveD0iMCAwIDE4IDE4Ij48ZGVmcz48bGluZWFyR3JhZGllbnQgaWQ9ImE4OTE5MDFiLTc5YWUtNDkwYS04NTY4LTljNDMzNDQxN2QzNSIgeDE9IjkiIHkxPSI1LjM4IiB4Mj0iOSIgZ3JhZGllbnRVbml0cz0idXNlclNwYWNlT25Vc2UiPjxzdG9wIG9mZnNldD0iMC4xOTkiIHN0b3AtY29sb3I9IiMwMDViYTEiLz48c3RvcCBvZmZzZXQ9IjEiIHN0b3AtY29sb3I9IiMwMDc4ZDQiLz48L2xpbmVhckdyYWRpZW50PjxsaW5lYXJHcmFkaWVudCBpZD0iYmJkYWEwMDktMjI4MS00ZGE4LTllODktNmY0MTY4OWU5MWE3IiB4MT0iOSIgeTE9IjEyLjcxMyIgeDI9IjkiIHkyPSI1LjI4NyIgZ3JhZGllbnRVbml0cz0idXNlclNwYWNlT25Vc2UiPjxzdG9wIG9mZnNldD0iMCIgc3RvcC1jb2xvcj0iIzE5OGFiMyIvPjxzdG9wIG9mZnNldD0iMC4xNzIiIHN0b3AtY29sb3I9IiMzMmJlZGQiLz48c3RvcCBvZmZzZXQ9IjAuNSIgc3RvcC1jb2xvcj0iIzUwZTZmZiIvPjxzdG9wIG9mZnNldD0iMC41IiBzdG9wLWNvbG9yPSIjNGZlNGZkIi8+PHN0b3Agb2Zmc2V0PSIwLjUiIHN0b3AtY29sb3I9IiM0YmRkZjgiLz48c3RvcCBvZmZzZXQ9IjAuNSIgc3RvcC1jb2xvcj0iIzQ0ZDJlZSIvPjxzdG9wIG9mZnNldD0iMC41IiBzdG9wLWNvbG9yPSIjM2FjMWUwIi8+PHN0b3Agb2Zmc2V0PSIwLjUiIHN0b3AtY29sb3I9IiMyZGFiY2UiLz48c3RvcCBvZmZzZXQ9IjAuNSIgc3RvcC1jb2xvcj0iIzFkOTBiOCIvPjxzdG9wIG9mZnNldD0iMC41IiBzdG9wLWNvbG9yPSIjMTk4YWIzIi8+PHN0b3Agb2Zmc2V0PSIwLjY2MiIgc3RvcC1jb2xvcj0iIzMyYmVkZCIvPjxzdG9wIG9mZnNldD0iMC45NzUiIHN0b3AtY29sb3I9IiM1MGU2ZmYiLz48L2xpbmVhckdyYWRpZW50PjwvZGVmcz48cGF0aCBkPSJNOSwwLDEuMTUsNC40OXY4Ljk3TDksMThsNy44NS00LjQ5di05Wm02LjQsMTIuNTdMOSwxNi4yNywyLjYsMTIuNjA5VjUuMzhMOSwxLjY4bDYuNCwzLjcxWiIgZmlsbD0iIzAwNzhkNCIvPjxwb2x5Z29uIHBvaW50cz0iOSAwIDkgMCAxLjE1IDQuNDkgMi42IDUuMzggOSAxLjY4IDkgMS42OCAxNS40IDUuMzggMTYuODUgNC40OSA5IDAiIGZpbGw9InVybCgjYTg5MTkwMWItNzlhZS00OTBhLTg1NjgtOWM0MzM0NDE3ZDM1KSIvPjxwYXRoIGQ9Ik0xMi43NCwxMC40NzVhLjczLjczLDAsMCwwLS4zMjMtLjI4NkE1LjgzNSw1LjgzNSwwLDAsMCw3LjkzOSw2Ljg0M0wxNC40MTYsMy4xLDEyLjkxLDIuMjM2LDUuNTM0LDYuNUEuNzUuNzUsMCwwLDAsNS45MSw3LjkuNjg0LjY4NCwwLDAsMCw2LDcuODc3bC4xMjUuNTIzYTQuMzE5LDQuMzE5LDAsMCwxLDQuODM3LDIuMjM4TDMuNjEzLDE0Ljg4NWwxLjUuODY2TDEyLjQ2NiwxMS41YS43MjkuNzI5LDAsMCwwLC4yNDItLjIzNmwuMDc1LS4wMThjLS4wMDctLjAyOS0uMDE4LS4wNTUtLjAyNS0uMDg0QS43MzUuNzM1LDAsMCwwLDEyLjc0LDEwLjQ3NVoiIGZpbGw9IiM1MGU2ZmYiLz48cGF0aCBkPSJNMTIuMDkxLDkuMDEzYTEuODUsMS44NSwwLDEsMCwxLjg1LDEuODVBMS44NSwxLjg1LDAsMCwwLDEyLjA5MSw5LjAxM1pNNS45MDksNS4yNjdhMS44NSwxLjg1LDAsMSwwLDEuODUsMS44NUExLjg1LDEuODUsMCwwLDAsNS45MDksNS4yNjdaIiBmaWxsPSJ1cmwoI2JiZGFhMDA5LTIyODEtNGRhOC05ZTg5LTZmNDE2ODllOTFhNykiLz48L3N2Zz4=;" parent="e54BE-5O06g-NBE3f2j7-3" vertex="1">
          <mxGeometry width="80" height="80" as="geometry" />
        </mxCell>
        <mxCell id="JSSmb_3Z2BOipet1F9V3-4" value="" style="shape=image;verticalLabelPosition=bottom;labelBackgroundColor=default;verticalAlign=top;aspect=fixed;imageAspect=0;image=data:image/svg+xml,PHN2ZyBpZD0iZjllZDk2OTAtNjc1My00M2E3LThiMzItZDY2YWM3YjhhOTlhIiB4bWxucz0iaHR0cDovL3d3dy53My5vcmcvMjAwMC9zdmciIHdpZHRoPSIxOCIgaGVpZ2h0PSIxOCIgdmlld0JveD0iMCAwIDE4IDE4Ij48ZGVmcz48bGluZWFyR3JhZGllbnQgaWQ9ImY3MTBhMzY0LTA4M2YtNDk0Yy05ZDk2LTg5YjkyZWUyZDVhOCIgeDE9IjAuNSIgeTE9IjkuNzciIHgyPSI5IiB5Mj0iOS43NyIgZ3JhZGllbnRVbml0cz0idXNlclNwYWNlT25Vc2UiPjxzdG9wIG9mZnNldD0iMCIgc3RvcC1jb2xvcj0iIzAwNWJhMSIvPjxzdG9wIG9mZnNldD0iMC4wNyIgc3RvcC1jb2xvcj0iIzAwNjBhOSIvPjxzdG9wIG9mZnNldD0iMC4zNiIgc3RvcC1jb2xvcj0iIzAwNzFjOCIvPjxzdG9wIG9mZnNldD0iMC41MiIgc3RvcC1jb2xvcj0iIzAwNzhkNCIvPjxzdG9wIG9mZnNldD0iMC42NCIgc3RvcC1jb2xvcj0iIzAwNzRjZCIvPjxzdG9wIG9mZnNldD0iMC44MSIgc3RvcC1jb2xvcj0iIzAwNmFiYiIvPjxzdG9wIG9mZnNldD0iMC45OSIgc3RvcC1jb2xvcj0iIzAwNWJhMSIvPjwvbGluZWFyR3JhZGllbnQ+PC9kZWZzPjx0aXRsZT5JY29uLWRhdGFiYXNlcy0xMjY8L3RpdGxlPjxnPjxwYXRoIGQ9Ik0xMy4yNSwxMC40OFY2LjU3YS4xNC4xNCwwLDAsMC0uMjQtLjFsLTQsNEw0Ljg1LDE0LjYzVjE3LjVIMTYuOTNhLjU2LjU2LDAsMCwwLC41Ny0uNTdWNi41N2EuMTQuMTQsMCwwLDAtLjI0LS4xWiIgZmlsbD0iIzAwNWJhMSIvPjxwYXRoIGQ9Ik00Ljc1LDMuNThDMi40LDMuNTguNSwyLjg5LjUsMlY3LjY3aDB2OS4yNmEuNTYuNTYsMCwwLDAsLjU3LjU3SDlWMkM5LDIuODksNy4xLDMuNTgsNC43NSwzLjU4WiIgZmlsbD0idXJsKCNmNzEwYTM2NC0wODNmLTQ5NGMtOWQ5Ni04OWI5MmVlMmQ1YTgpIi8+PHJlY3QgeD0iMTIuOTEiIHk9IjEyLjk3IiB3aWR0aD0iMi4yNyIgaGVpZ2h0PSIyLjI3IiByeD0iMC4yOCIgZmlsbD0iI2ZmZiIvPjxyZWN0IHg9IjguOTciIHk9IjEyLjk3IiB3aWR0aD0iMi4yNyIgaGVpZ2h0PSIyLjI3IiByeD0iMC4yOCIgZmlsbD0iI2ZmZiIvPjxyZWN0IHg9IjUuMDMiIHk9IjEyLjk3IiB3aWR0aD0iMi4yNyIgaGVpZ2h0PSIyLjI3IiByeD0iMC4yOCIgZmlsbD0iI2ZmZiIvPjxwYXRoIGQ9Ik05LDJjMCwuODUtMS45LDEuNTQtNC4yNSwxLjU0Uy41LDIuODkuNSwyLDIuNC41LDQuNzUuNSw5LDEuMTksOSwyIiBmaWxsPSIjZWFlYWVhIi8+PHBhdGggZD0iTTgsMS45MWMwLC41NS0xLjQ2LDEtMy4yNiwxcy0zLjI2LS40My0zLjI2LTFTMywuOTQsNC43NS45NCw4LDEuMzcsOCwxLjkxIiBmaWxsPSIjNTBlNmZmIi8+PHBhdGggZD0iTTQuNzUsMi4xNGE4LjA3LDguMDcsMCwwLDAtMi41OC4zNyw3LjY0LDcuNjQsMCwwLDAsMi41OC4zOCw3LjY0LDcuNjQsMCwwLDAsMi41OC0uMzhBOC4wNyw4LjA3LDAsMCwwLDQuNzUsMi4xNFoiIGZpbGw9IiMxOThhYjMiLz48L2c+PC9zdmc+;" parent="e54BE-5O06g-NBE3f2j7-3" vertex="1">
          <mxGeometry x="80" y="40" width="40" height="40" as="geometry" />
        </mxCell>
        <mxCell id="e54BE-5O06g-NBE3f2j7-22" value="Daten zur Verfügung stellen" style="text;html=1;align=center;verticalAlign=middle;resizable=0;points=[];autosize=1;strokeColor=none;fillColor=none;" vertex="1" parent="1">
          <mxGeometry x="410" y="550" width="160" height="20" as="geometry" />
        </mxCell>
        <mxCell id="e54BE-5O06g-NBE3f2j7-23" value="&lt;h1&gt;POC&lt;/h1&gt;" style="text;html=1;align=center;verticalAlign=middle;resizable=0;points=[];autosize=1;strokeColor=none;fillColor=none;" vertex="1" parent="1">
          <mxGeometry x="-105" y="-135" width="70" height="50" as="geometry" />
        </mxCell>
        <mxCell id="e54BE-5O06g-NBE3f2j7-26" value="&lt;h1&gt;Fütür&lt;/h1&gt;" style="text;html=1;align=center;verticalAlign=middle;resizable=0;points=[];autosize=1;strokeColor=none;fillColor=none;" vertex="1" parent="1">
          <mxGeometry x="910" y="-140" width="80" height="50" as="geometry" />
        </mxCell>
        <mxCell id="e54BE-5O06g-NBE3f2j7-27" value="" style="ellipse;shape=cloud;whiteSpace=wrap;html=1;" vertex="1" parent="1">
          <mxGeometry x="850" y="-170" width="1460" height="935" as="geometry" />
        </mxCell>
        <mxCell id="e54BE-5O06g-NBE3f2j7-28" style="edgeStyle=elbowEdgeStyle;rounded=0;orthogonalLoop=1;jettySize=auto;html=1;exitX=0.5;exitY=1;exitDx=0;exitDy=0;endArrow=classicThin;endFill=1;" edge="1" parent="1" source="e54BE-5O06g-NBE3f2j7-29" target="e54BE-5O06g-NBE3f2j7-32">
          <mxGeometry relative="1" as="geometry" />
        </mxCell>
        <mxCell id="e54BE-5O06g-NBE3f2j7-29" value="" style="shape=image;verticalLabelPosition=bottom;labelBackgroundColor=default;verticalAlign=top;aspect=fixed;imageAspect=0;image=data:image/svg+xml,PHN2ZyBpZD0iYjFlNzE0NzktMjEzOC00NGUwLWFkZjAtMDJmZTlmZWQ1YzFlIiB4bWxucz0iaHR0cDovL3d3dy53My5vcmcvMjAwMC9zdmciIHdpZHRoPSIxOCIgaGVpZ2h0PSIxOCIgdmlld0JveD0iMCAwIDE4IDE4Ij48cGF0aCBkPSJNMS4xNTUsNC45M3YuNTEyTDksOS44NjhsNy4wMDYtMy45NTcsMCwxLjZMOSwxMS40OTEsMS41NSw3LjI1OGwtLjM5NS4yMlYxMC41NEw5LDE0Ljk1NWw3LjAwNi0zLjk0MiwwLDEuNTg2TDksMTYuNTgxLDEuNTUsMTIuMzQ3bC0uMzk1LjIydi41MTlMOSwxNy41bDcuODQ1LTQuNDE0VjEwLjAyMWwtLjQtLjIxOEw5LDE0LjAzNiwxLjk5MiwxMC4wNTRWOC40NzZMOSwxMi40MTQsMTYuODQ1LDhWNC45NzhsLS40LS4yMTlMOSw4Ljk5MywyLjM1Miw1LjIxNSw5LDEuNDZsNS40NzYsMy4wOTQuNDc5LS4yNjlWMy44NjNMOSwuNVoiIGZpbGw9IiNmZjM2MjEiLz48L3N2Zz4=;" vertex="1" parent="1">
          <mxGeometry x="1430" y="40" width="70" height="70" as="geometry" />
        </mxCell>
        <mxCell id="e54BE-5O06g-NBE3f2j7-31" value="" style="strokeWidth=2;html=1;shape=mxgraph.flowchart.database;whiteSpace=wrap;" vertex="1" parent="1">
          <mxGeometry x="1462.5" y="435" width="37.5" height="50" as="geometry" />
        </mxCell>
        <mxCell id="e54BE-5O06g-NBE3f2j7-32" value="" style="rounded=0;whiteSpace=wrap;html=1;" vertex="1" parent="1">
          <mxGeometry x="1376.01" y="190" width="496" height="160" as="geometry" />
        </mxCell>
        <mxCell id="e54BE-5O06g-NBE3f2j7-33" value="" style="shape=image;verticalLabelPosition=bottom;labelBackgroundColor=default;verticalAlign=top;aspect=fixed;imageAspect=0;image=data:image/png,iVBORw0KGgoAAAANSUhEUgAAAZAAAAFACAYAAACSgSrjAAAAGXRFWHRTb2Z0d2FyZQBBZG9iZSBJbWFnZVJlYWR5ccllPAAAAyJpVFh0WE1MOmNvbS5hZG9iZS54bXAAAAAAADw/eHBhY2tldCBiZWdpbj0i77u/IiBpZD0iVzVNME1wQ2VoaUh6cmVTek5UY3prYzlkIj8+IDx4OnhtcG1ldGEgeG1sbnM6eD0iYWRvYmU6bnM6bWV0YS8iIHg6eG1wdGs9IkFkb2JlIFhNUCBDb3JlIDUuMC1jMDYxIDY0LjE0MDk0OSwgMjAxMC8xMi8wNy0xMDo1NzowMSAgICAgICAgIj4gPHJkZjpSREYgeG1sbnM6cmRmPSJodHRwOi8vd3d3LnczLm9yZy8xOTk5LzAyLzIyLXJkZi1zeW50YXgtbnMjIj4gPHJkZjpEZXNjcmlwdGlvbiByZGY6YWJvdXQ9IiIgeG1sbnM6eG1wPSJodHRwOi8vbnMuYWRvYmUuY29tL3hhcC8xLjAvIiB4bWxuczp4bXBNTT0iaHR0cDovL25zLmFkb2JlLmNvbS94YXAvMS4wL21tLyIgeG1sbnM6c3RSZWY9Imh0dHA6Ly9ucy5hZG9iZS5jb20veGFwLzEuMC9zVHlwZS9SZXNvdXJjZVJlZiMiIHhtcDpDcmVhdG9yVG9vbD0iQWRvYmUgUGhvdG9zaG9wIENTNS4xIFdpbmRvd3MiIHhtcE1NOkluc3RhbmNlSUQ9InhtcC5paWQ6RDEzMjU3QUQ3NjVEMTFFOEJEMUVCQUE1NThGRkUzREQiIHhtcE1NOkRvY3VtZW50SUQ9InhtcC5kaWQ6RDEzMjU3QUU3NjVEMTFFOEJEMUVCQUE1NThGRkUzREQiPiA8eG1wTU06RGVyaXZlZEZyb20gc3RSZWY6aW5zdGFuY2VJRD0ieG1wLmlpZDpEMTMyNTdBQjc2NUQxMUU4QkQxRUJBQTU1OEZGRTNERCIgc3RSZWY6ZG9jdW1lbnRJRD0ieG1wLmRpZDpEMTMyNTdBQzc2NUQxMUU4QkQxRUJBQTU1OEZGRTNERCIvPiA8L3JkZjpEZXNjcmlwdGlvbj4gPC9yZGY6UkRGPiA8L3g6eG1wbWV0YT4gPD94cGFja2V0IGVuZD0iciI/PjddjBIAACDqSURBVHja7N15dFzVneDx33u1aimt1uJFXuR9xQY6xjZgiCGYDpAwAdIQaHAykIGEppOZnnQyk3T7j0y6z+khnO6cEJjpTkhOz0xmSOOk6QRPdwcYAsbBYExsY4RledMuq0pSqfZl7i2qbHnXVlWvqr6fc+pIlm2VdKv0vrrvvvfKSCaTAgDARBkEBABAQPIxgIbBIOSZeg7PU2/mn/OxteqxqRnzZ5d6c02Wv5Q31X2Gx/w5pD92zr/pUf/mAx41SzxvGAQCQkCK8Ae7Wr1Zm35/mRrj5vT769Ubt7rVqI+tK5Lv9X0dlfRz6dX0x3zq/XfT/+SQer+XZwUBISAEBGNmA+ptsxq/ZWNmEHrWUMsIXXDMgunZTGYGczR9e1f9eYgRIiAEhIAU2w/o5nQY5mdmD2q8bmRksjLWu9SbkJ7FqPd1ZA7J+bvUQEAICAGx3A/iFZkZRDoU89W4LOfZYYnHpkPPVNJh0VE5aprmbkaGgBAQApKXWKibXozenA7FBp4FBfk47k2HZXd6pvIqAQEBISDT+QNWrWOhvsdr0ruj9PtlPOpF+3jr3WB6nWW3epx1VI4REBAQAjLeH6h56rZVvbs+HQt2Q5V2ULrTQXlVPRdeUbd9BAQEhICcnmGoNzeot7eot1vV97KARxSXCcpL6d1dLxX64cVs+wgIAZmgRCKxXn3NW3U0WL/AFDfAeh3lFXXbaZrmTgJCQFBkAUmfc6GD8Sn19tOcZ4EsPtdeUM+vn6t3dxTCuSls+wgIAblINNTt0+rdTDRY+AYxISAEhIBc9IdBr2d8Ws801Nd0Zyk9BoP+k+INnDjrYz1Db0siefFz6CLxfgnHD0/pfh22FnHb5lzy38yq2XjWnz3uRmmsWlhqMXlZvfmpel7usNK6Cds+AlLyAdFrGurNF9XtD4pppjEc7Jf+kcMSjg7LqdH9kpSI+CNvnxl3OSqmUdjP3UQiKUmj9fSfK51Xqe/LKdVli6XC1SC15S1SVzmn2GLyP9Wb56ywZsK2j4CUZEDS52f8gXr3iUI91DYYGZYu3wEZDp0Uf+i4jEYPqBnDsNqqnhCbLcYTa2xokoYK6Hz1wLvE47pSyhyNUluxSBo8i6SqrKFQQ9KhnrvPqHd/lK9ZCds+AlJSASnE2UaX96AM+A/LUPDD05GwGR08caZRLDFLzVyqUnGpdM+VKvccWdhYOAfY5WtWwraPgJREQFQ49HkaX7PyhQgz6xBdvjckEG2XWLxd7LYBniB5FE14xG62SoVjpTRVXSU15S2WXn9Jz0q2q9tzBISAEJCpP8E/pW5/ZsXXvmjv25VaqB6JvCOJ+AF2OxWI1O6w5NLUbEUv8M+tv1IcNpflQqLe/KV63v8om1cTZttHQIoyIOoxeVDdvmaV9Y1oPCwf9rwivX41u1DBsJtdPPBFJBafIW7HOqmruEoWNtxgmXWV9JnvOiQ/yEZI2PYRkKIKSHpX1dNWuKSIXrvoGPi1+EI7CUYJBsXjvkHm122VuTPyP/lNh2S7aZrPEBACQkDOfyLrixjqcNyaz1nG+1071SzjZYlG32CXFNK/1CTFMNdKk+dWWdZ8i5Q5q/IZEn214K9M1+uZsO0jIAUdkPRlRv40vbsq50dVZaLRPfyS2lC8KabJi2PhMs9ZuSLvMUn/svX1qZ7hzraPgBRsQPK5u+q9E78gGpi2mKyafUfOF+LVdsurfna+MpUjttj2EZCCC0j6OlXf0U/+XH6d+jDb/V0/EX9oB7unMK30kV1O202yevbDOT9MWP0s/Ur9LN07mdkI2z4CUlABUWO9VJ80lcvDcg927pSjgz8Wm3mIBwtZp09qbKl5WNa03JHLiHSnI/LqBP8fDxgBKYyApA/NfTpXax06HB2nnuRkPuQpJGUyq/oJWTf37lyG5DumaX6DgBCQoglIepfVD/VvSIQDhCTrEdmlj2Yczy4ttn0ExNIBScfjhVwcnts33C5vHftjztmAJenLqqyZ+d2cnFeiXylRX/bnchFh20dALBuQXMVDH4q7q/1JGQ3/H46oguXZzZtl48JvZP0Q4PFEhG0fAbFkQHIVD322+DsnHxOHOcIDgYIRj9tlafNTWb9i8OUiwraPgFgyIIlE4h+y/aqA+lyOTt+fM+tAwapxPyrrF/7bXERkw4WupcW2j4BYLiAqHvpFnp7K5n2+1vZfJRD9Hww+Cp7epXX9ku1ZPRFRH8RimubnCQgBsXRA1FhekT4KJGuH6r78wZ9JJPYiA4+ioc9o37ry77J9Nw+de9Y62z4CYpmApNc99mbzEuy72/+7+EJPM+goOk77bXLj0u3ZnIXoS5+sU7djBGT6mAzBtD1Bv5PNeLT1vEI8ULT0rHpPx0+y+Yterd6VxUgzA7HcDESNYXX6cgpZ2XWlD9X95wPXcw0rFDV96fhNi3Zm+wWt1qqf033MQJiBWGn28VA21z3eOfoT4oHi3xiZhrx9/HvZ/ll9gpFmBmKpGUgikTiSzcuy//K99QQEJTMLuWHpK1k70VBt74L6Z1Xdetn2MQOxwBM+cUs24zEc7CceKKlZSP9wezZ/4dN7Ch5ipAmIVWYg12Tz8/cMHWCQUVL6RvZn9fOrmcd6RpmAWIJ+jY9sfv7RSD+DjJISjPZl+y7mM8oExCqy+mSscDYwwigpbkd9tu9iGaNMQKwiq0/GxqqljDBKSn3Foqx+fr0OkkwmmxhpApJ34XC4Npufv6Z8poRjZQw0SoI+CqupZmXW7+fDDz9cxGgTkLwbHBzM+n3MrHqMgUZJcDmulwpnVn8nk3g8Lq+//vpJRpuA5J3P58v6fayd+xlmISgJq2c9nvX7CASCDPQ0sTMEU9Pfn/2jpPSlrlfP+ms51PMFMU2aP10i8Zi6xSf1f502m7rx4zOdPO57paFqYdbvx+/nBdgIiEV0dHTI5s2bs34/CxqulH7/V8UbeKrkxzwYjUo8mUi9PxwOnPV3w5Gz/zwa86tIjOb06yuzV4rbVnFmmm+IVDrKz/xCoH4JKHO4CdEYpjFPrmn9Sk7ua3iEgBAQi9ixY4fcfffdUlFRkfX7+tiCB+TVNp+Eoj8q6hlBKBZJvR9PJFQAQqm/C6kIBFUMCiJw6us892s9FRrHb+COGrGbH72wUpWzPB0jl5qB2tRbh9iKdvbZJNct/pGKiC0n93bo0CE2XATEGrxer+zdu1euvfbanNzf5iWPy+uH3eIP/6AgxysQDUssnhR/NHg6EJF4WL31lfxzaSR6Zgy84Qv/myrHDBUSWyowOigVaiZjV2/dKjCFyDBa5NpFfyduR1VO7q+7u1t8viE2XATEOl544YWcBUTbtOhhOdjZKke9/1FsFn1J9JiaQYTUbELvYgrGwuoWOGsDickZjg5cNDC1riYpszml3OFM7SIrV1Gx8pqZ07ZBNiz8LzmLh3ak4yhPIgJiLXv27JG2tjZZsmRJzu5zxewtUu/53/LW0UfEYcvvhlnvbhqNRGRUzSr80ZD4I16JJiM8MXI9Gw73ivecj+n1mHJ7RWoNptJRJhVOpyV2hTV5Hpc1LQ/kbLdVavYbCMjhw4d5ohAQ63nmmWfk29/+trjd7tz9EFYtlFtW/lJ2tT8pwejzuftBjIZVMEIyHAmqWcVwwaxNlKLMeszYNZgKe414nB51c0uluuVy95feZbW25S+k0ZP7q4ns3v1bnhAExLqzkJ/97Gfyuc99Lqf3qw/xvX7J16Vv+B5569gfi93sykowfKFA6ggn/VsuCpteb9K3nvQBaw7DKVWuWql2VabWVsoc2QnKrOo/kZWz787prCNDL5wfP3GCB5+AWNezzz4rq1evljVr1uT8vhvVbOSTq/9R3jvxD9Lp+66YZmDSn0uvXwypGYYv5BdvaIDdUUVOP76nQr2pm+a0VUidq05qXBVqluIU+xQPM6503SFXzn1cypx1efn+Br1eefudvTzQ2ZhR8qpcU7N58+azBrC2tlaee+45qa6uztvXlEjG5d3jfy99I8+IYYTG9X/0LGMw6BdfeIjFbpxFH15c46qW+rKqCc1OdDjWtjwqFa7GvH3tkUhEfvXSS+cdeZVMxOc/9NBDx3h0CYilAqJdffXV8q1vfSuvEdHi8bDsO/lTFZLnVEjOj4Je/PaGRqV39BSH0WJc9PrJjLJamVHuueAJkImkXWrLPyurZ9+f13Bk4vHrl1+W3t7zX1+EgBAQywbEShHJzEhOnNotbf3fk1j8sIrGkPQHhljPwJRnJs0VDanZicPWIC21/04WNt4kTnt53r+2S8WDgBAQywfEahEZq6P/gIrJW/J2999IJPEODyIm5fdm/kCWNKyX1oZVYjOts5x6uXgQEAJSEAGxckS0eCImx099QEww4WjMm7FcnDaX5b6+8cSDgBCQggmINnfuXNm+fbu0trZa9vvIxKTj1D7Z3/8LGQz9lAcXUmm/RZY33GnpaGQMDQ3Ja795XU6dOnXZf0tACEjBBCTjm9/8ptx0000F8X0NBwdVUA5J++AeOdD/HLOTErK0drssmbFR5tWvkBmeWQXxNeurYr+x602JxWLj+vcEhIAUXEC02267TR577LGcXL13OnV626VnqEM6vO9I2+BPCUoRWTXjL2VuzRpprlogs2sXWmo943L0Lqt39u6VDz5om9D/IyAEpCADouldWno2kstrZ00372if9A4fk66hD6XDt1tOjPw1T4YC0Fz+BVlQe63MrloizdXzC2aGcSH6BME33tg1rl1WBISAFE1AMu66667UpU/q6uoKfhz0Gkr/SKcMqNtgoEv6Ro/I/oGv8QTJo9bqP5WmyqXSXLlAmlQs6iqbLb2GMV6hUEj27z8gBw4enPTnICAEpOADkqFnI/py8Lm8EGMuZyq+QL8MjnZLj79dgtEhwjLN9JpFubNG5lStkKqyGVJb3ljQM4tL+aCtTd59d18qIlNBQAhI0QREW7FihTz66KN5uY5WPugXkRr098hIyCvDwYHTcRkKd7I77Bx6t9OM8iXisLlTkahwVUuNikS1ikWZs6IkxqC3r0/eemvPpHZXERACUvQBybj55pvlnnvuKej1kemQ2SWm6d1i4VhAwvGAdA2feTnSQp/J6JmDjoLWWNEqFU79kraO1O4mrVh2OU3FwMCA/O53+6f9SroEhIAUZUAyrrvuulRISmVGMlX6sONAZOT8DVA6PhdzbpTGI7Oxv5ixERjLZS+T2opGHqw8hoOAEJCSCEiGPpP9wQcfJCQoCfo1y/cfOCBdXd1ZvR8CMj14PRCL0y9UpW86JHpGsmrVqoI7hwS4lHg8Lp2dnXLw/fcvewkSEBBMISTaI488Ihs2bLD0pVGAy9HncRxpPyLtR45M+agq5Ae7sKYo27uwLkXPSu644w5Zu3atJS/WCJxLnzmuZxsHDr4/bUdUTQa7sJiBMCsZMyu57777UrMSffRWMZ5PgsKld1F1d/fIyc6T0q5mHOO9XhWYgTADyQMdEz07WbZsGeslIBrMQAgIAZkcfbmUjRs3EhNknd491dPTIydOdsrRo0ctPdMgIASEgEyQvhLwunXrUru59AUdganSC+H9/f3S1dmVtXM2CIh1sQZSQl588cXUTautrZVbb701tQC/YMECaWzkBDdc3siIXwYGVDD07qmTJzl6ihkIM5BSmYFcir4Wl76go97V1dLSQlBwOhhe76D09fVLZ1en+HxDRfF9MQNhBoJpdPDgwdQtQ89QtmzZIsuXL0/t7po9ezZrKEVOr2F4fT7xDg6mFsD7+vuZYYCAYOK8Xq88//zzZ31MH9l15ZVXyrx581JR0bMUDhkuTPooKf0Y+4aGxOf1SU9vb17PywABQZEbe95Jht71pW96pqKDUlNTwwK9xQypSOhdUX7/SGpXlNfnLZpdUSAgKGDn7vrK0FcT1mspek1F7w7TYamvr2c3WJbo3U/Dw8MSCoVToUjNLHw+ri0FAoLC89prr13073RcmpqaZOHChamg6NDY7XZmLpehD5lNxOOpS53rXVB6NhGLx7J+5VqAgKAg4qJldotpM2fOlIaGhtT7+m1lZWXq/WJYf8msQ2jRaDS1q0kLBIMylN7FNDwyzO4mEBBgvC62W+xS9EmSY4MyNjya/jv9sfEoKysTwzAm/HXr3UYxFYKMsSHIKKST7QACgpKQOUFyOtz3ufs5ugwYB5MhAAAQEAAAAQEAEBAAAAEBAICAAAAICACAgAAACAgAgIAAAEBAAAAEBABAQAAABAQAQEAAACAgAAACAgAgIAAAAgIAICAAABAQAAABAQAQEAAAAQEAEBAAAAgIAICAAAAICACAgAAACAgAAAQEAEBAAAAEBABAQAAABAQAAAICACAgAAACAgAgIAAAEBAAAAEBABAQAAABAQAQEAAACAgAgIAAAAgIAICAAAAICAAABAQAQEAAAAQEAEBAAAAEBAAAAgIAICAAAAICACAgAAACAgAAAQEAEBAAAAEBABAQAAABAQCAgAAACAgAgIAAAAgIAICAAABAQAAABAQAQEAAAAQEAEBAAAAgIAAAAgIAICAAAAICAAABAQAQEAAAAQEAEBAAAAEBAICAAAAICACAgAAACAgAgIAAAEBAAAAEBABAQAAABAS4qOTsVQzCNBp2VDMIICAogXg0LZHodfdKfPVWBmMa+Jy1srtyifjtHgYDBARFzFkmsfX/RgybTeIrr5Nk3QLGZArihkPeK2+VhGnKPs+i1J8BAoLi3OBdc7eIpyb1fioim+5KRQWT01Y5X4I2e+p9v+lM/RkgICg6iQXrJdGy4qyPJavqJXHVpxicSTjlbJDjzrqzPqb/3OdqZHBAQFA89K6q+NUXXvOIt66VxKJrGaQJCNvc8l7l3Av+3b7yeRKwVzJIICAoAhW1Erv2s5fcVRW7+laOzBonvc6xp2q5RAz7hWd6pil7KpemIgMQEBQuvWh+w7bT6x4Xo9dDops+S0QuI2GY8nbVstR6x6XodREdGSICAlJAv2njnJnFloclWTO+ffKGwyGxjZ/hyKxLOKBmFl57+bj+rY7MXs8yjsy6CB1X1osIiGVEt3yRiIwR//gjKgazJjxjid94PxG5gDbPYulyVk3o/wzZXKkZCxE5J652j7xRvVLCJjM0AmIVnhoikomAikdiZuuk/nvSXfFRRJqW8JySj3Zbva/i0XHOEVfjpWcsOiLszvrIoLNedqmZ2cXWkEBAiEi+6AXzLQ9POh5jIxLd/EDq0N+SnsWpmcO7VSvPO1x3MhHZ7VlZ8kdn9bia5S3PotSBBiAglo1IbOuXS25BWO920vGc8G6ri0itiay/o2QveRKylcubNaukf5xrHpejF9Zf9yxPnT9Sio5ULJB9lfPYPhGQAtiY6t+gr7tXEitvKo3vV8VS73a63NFWE46IzSaJNTdI4mN3ldTzR1/falf18ssebTVRqUN8Pa3S6Z5TMmOZ2QX4oZsF82xih+A0S12qY+1NkqyfJbb/9+Pi/QFVG/dY67rU95st8cVXS0KP4+vPizHcVbRjqXdZtVfOn/R6x3jtr5gtgw6PLA4cE3c8ULTjGVUBPlC5WHodnFhJQAp1A9uyQpK3/4nYfvtzMXrbimfWoc8u33RX6nIkRk7ub5ZEtz4q9rbdYr77YlHOOvSFETPXtso2fURXj32lrAh2y+zQyaIbTz3LaitvYrGcgBTBxlZtZGM3fV7Mjv1i2/MzkUiwsH9TXr1V4ss3pdYpcjqrU/cXX3mtivLyoglyrmYdF/zlxjRTs5FeV60sG+2Q8pi/4MdTrx0drFw4bWtHICDWmY0sWCWJxnli2/cvKia7Cy+Eeq1jzcdTswEjn1+HCnL0xgfFfux3Yr63U2TUW3jPBcNMHRV02D0zZ7OOi9Eb2/7qlbI41CctwU5xJCIFN556d9WJstnS7pzBUVYEpIhVeCS+8U5JrNgk5sHXCyIkqXCsvEGSDdZZfE2tMbWulVjLSrGfOFAwIdEzjh5Xk7S7m/IejnPphWa9AV4YGZDZoW5xxUMFMZ5dKsKHyxrYXUVASoe+xIfVQ2LFcJwXEr1bqwBCon9DTs04LL6h07+965Do24LIoMwLnLBkSFKXInE2Eg4CQkh0SOJX3CS2rg/EOPRGfo80qqiVxOJNkpi9ZNzXsbJaSGwDJ8ToahPz0Ct5/+34lLNWep31E74MiRXodRl9mxMZkgYVk/qIV2zJaF6/Jn0eS5drRkGOJwFBFjfcntThqqJuxmCXmN1HxOhuy81CsYpGvHW9JGcusvRsY7whSZ0Jr26xNVtyHhO9tuF11Eufq0ZO2muKYn/8SWd16iayIOcx0RH2OWrklBrPHluV5Xb7gYBYb1ZSN0vi+ozuldeKERoVw9urQqKC4usRo3P/1D//7FWSqFOhqG2UpGdGQc00phITc9QrpoqzeNU49h1Toe6Y8n3oC/MNq5vfUSGDtorUBQyL2diYNMQCUhUPSGV0VCrj6hYbmfLn17umwqZLRmye1NFhHE1FQDCVjb27Qs0MPtoInjbiU2HxizkycOZj/SfVr2tnfiNMVtaKUXnmzPCECoU4nEUbi/HEJLW7cMz3n4xGU1GRcPCjtxnDalwDIxI1nBJ1VKm3DhlVcfgoGC4Jq4/rmUapb9xSR2/pMXDNOP0xHRUzmZD66JmY2JKxVGAyYob99HhmxjRouokFAUFOeGrUzKFG4mN3N7WuZVwmGZXUrhI5/zpJw85+6S2fozZsnMk8kahonP1dWjhwGgBAQAAABAQAQEAAAAQEAAACAgAgIAAAAgIAICAAAAICAAABAQAQEAAAAQEAEBAAAAEBAICAAAAICACAgAAACAgAgIAAAEBAAAAEBMi2uGFnEAACAkxczGZjEAACAgAgIAAAAgIAICAAAAICAAABAQAQEAAAAQEAEBAAAAEBAICAAAAICACAgAAACAgAAAQEAEBAAAAEBABAQAAABAQAAAICACAgAAACAlhAxOZmEAACAgAgIAAAAgIAICAAAAICAAABAQAQEAAAAQEAEBAAAAEBAICAAAAICACAgAAACAgAAAQEAEBAAAAEBABAQAAABAQAAAICACAgAAACAlhA0jQYBICAABMXNZ0MAkBAAAAExKKS8USSUQBAQDBhRjjgZxSAwuFIRPSbHkaCgORfLDLAIACFw50Id2/bti3MSBCQ/IuEjjIIQOEoSwQOMgoExCIjaPyGQQAKgzMZE1ci/B4jQUAswd5c++1kPJFgJADrmxcelGQ8/hwjQUAs4bVtHw+b/oGXGQnA+ppC/Xu3bdu2j5EgINZRVvF1BgGwtjmRISmP+rczEgTEUt54/Oa3jODIMUYCsK7m8MCgSPwlRoKAWE7SMG5nLQSw7uyjLjTweQ7fJSCWtOuJT/zOCPn/gpEArKUyEZElo0e/v23bH/6c0SAg1o3IV7f+Jwn5OUQQsJCV/qPH7LHRrzISBMTyorbqT0gsEmIkgPxbHuiJVocHbmHXFQEpCHu+vL7XSESvT8ZiUUYDyJ/5EW+sZfTY7SoeHzAaBKRg6KOyzER4ExEB8qM1fCq8ZKjttm3b/nAno0FAiAiAcVkW7AkuGv5gPfEgIEUREYlFgowGkJt4zPUf2cDZ5gSkaCLiKE/ONEIjBxgNIDv0RRKv9HccUvFYQDxyx0gmeUG9KQ2gYYz732588ldPJSuqn2DUrG1DnSExh1P67ZUMRgFoiAVkSfDo9798751fmsj/Y9tHQAoqINr6v/qnLWZZxT+K3VnG6BEQTM3iUJ9/TrD73kceuOfFif5ftn0EpOACol3/w5ero77IL6Xcs5ERtJ6r6+1i2G0ExMLK4jFZETz+Vn2wRx+m2zuZz8G2j4AUZEAyrnny/35SHI7nDKernpG0jnUNLrGbQkAsyEwkZGF0wDcn0P3AZGYdBISAFE1AMjY+tfOvEo6yPzLsdgcjSkBwYTMjI/G5oa6nq8On/sN0nFnOto+AFEVAtKu/t7vJHhv+X0ZZxQ2MKgHBGXp31bLgybcbgl2fUeGYtpdNYNtHQIomIKdnI8/+5orkaOBvpbzyKkaXgJR6OOaF+z9sDvd/6YsP3P3P0/352fYRkKILSMb6p3fNM0PDKiSeLYwyASkl+vLrc8Kn3m8O9T+RjXAQEAJS9AEhJASkFMMxL9T39uzR41/IxcmAbPsISNEH5KyQBIe2i8t9t9id5Yw8ASkWjbHRaH3U92aL/9jjuTyLnG0fASmZgIy14W/+dZuRiP37pNuzkkeAgBQivb4xK+brrA8PfrcmPPC9fLxeB9s+AlKSATlrVhIZ/YY47PeLjVkJAbG+ORFfsCY2+k+zRo/953y/TgfbPgJS0gE5a1byzOufTQZGvyTu8g2Gadp5ZAiIVdTGAomG6Mi79eFTz/zR/Xc+a5Wvi20fASEg57juh792xSKuTxMTAmKFaFTHhn9YG+r/b1Z8SVm2fQSEgIwjJhIKPpx0ujcTEwJS6tEgIASEgEzS+qd3bTYjo/epL/oT4iqbz6NHQKZCX5eqKe4frYoF9nhi/r+vC/X92OrRICAEhIBMg9QVgSPOrUYoeE/SbrtR7K5aHk0CcjkzYoGYJxFs94RHdjSHup6ezkuLEBACQkAKlD6iy0hGbjci4dvF4fi9Ug4KATmjOh5Wt2BneTy4qy409IPHH/jUvxbL98a2j4AQkCzRF3d0OGLXSCj4++qbvE5cZcsJSHHTLwtbGwv5y+PhD8tjATVFHf1lMQWDgBAQApLfWcpm00xcI+HwJ5OGsdRwuhoJSOHSu6Mq46ET7kT4bWcs9ovm0IlfbNu2bahUns9s+wgIAcmzj33/tfVqDJaZ0cjHxDQ2iWm2is3hISDWoXdDuRPR/rJE5GhZLPS+IxH/l1KLBQEhIASkQOgF+nDIvTY1WwmMLhGHc516ns1RM5YGApLdUNiTcW91LHDSJrF2Wyz+ytzgsR2FvNBNQAgIAcFperFevZlvGMm1RiLSLAm5Rf0oV4rDtZiAXF5jbDSsfmT9lfHQcTMZ71TBeLM8ETrcEOzeUUiH0BIQAgICMu0+2iVmd6vZS7P647LUB2ORmyVplCcNs86w2+cVY0Ayswf9flUi2BdL2rrtyVjIHY/8NmLaB5tCg/uLeUGbgBAQAoKcz2TOPA7xZeqxaD6zcTCuMJKJRonHTl9kcrwBurLRHbMZSftEAqJfy8KdiA2pn6ZE5mOeeMgXF/Os3UdV0ZF3QjbXcf2+Kxn3zxnteFHNHHp5RAkIAQEAEBAAAAgIAGDa/X8BBgDVO37WQeHlLwAAAABJRU5ErkJggg==;" vertex="1" parent="1">
          <mxGeometry x="1589.63" y="205" width="68.75" height="55" as="geometry" />
        </mxCell>
        <mxCell id="e54BE-5O06g-NBE3f2j7-34" value="Landing" style="rounded=1;whiteSpace=wrap;html=1;" vertex="1" parent="1">
          <mxGeometry x="1380" y="280" width="120" height="60" as="geometry" />
        </mxCell>
        <mxCell id="e54BE-5O06g-NBE3f2j7-35" value="RAW" style="rounded=1;whiteSpace=wrap;html=1;" vertex="1" parent="1">
          <mxGeometry x="1500" y="280" width="120" height="60" as="geometry" />
        </mxCell>
        <mxCell id="e54BE-5O06g-NBE3f2j7-37" value="CURATED" style="rounded=1;whiteSpace=wrap;html=1;" vertex="1" parent="1">
          <mxGeometry x="1620" y="280" width="130" height="60" as="geometry" />
        </mxCell>
        <mxCell id="e54BE-5O06g-NBE3f2j7-38" value="SANDBOX" style="rounded=1;whiteSpace=wrap;html=1;" vertex="1" parent="1">
          <mxGeometry x="1750" y="280" width="120" height="60" as="geometry" />
        </mxCell>
        <mxCell id="e54BE-5O06g-NBE3f2j7-39" value="Azure Datal Lake Gen2" style="text;html=1;align=center;verticalAlign=middle;resizable=0;points=[];autosize=1;strokeColor=none;fillColor=none;" vertex="1" parent="1">
          <mxGeometry x="1658.38" y="222.5" width="140" height="20" as="geometry" />
        </mxCell>
        <mxCell id="e54BE-5O06g-NBE3f2j7-41" style="edgeStyle=elbowEdgeStyle;rounded=0;orthogonalLoop=1;jettySize=auto;html=1;exitX=0.5;exitY=1;exitDx=0;exitDy=0;endArrow=classicThin;endFill=1;" edge="1" parent="1" source="e54BE-5O06g-NBE3f2j7-42" target="e54BE-5O06g-NBE3f2j7-32">
          <mxGeometry relative="1" as="geometry" />
        </mxCell>
        <mxCell id="e54BE-5O06g-NBE3f2j7-42" value="" style="shape=image;verticalLabelPosition=bottom;labelBackgroundColor=default;verticalAlign=top;aspect=fixed;imageAspect=0;image=data:image/png,iVBORw0KGgoAAAANSUhEUgAAAeAAAAHgCAYAAAB91L6VAAAACXBIWXMAAA7EAAAOxAGVKw4bAAAgAElEQVR4nOzdeXxU5aE+8Oc9Z7ZMJishCTEGCAgBAkKIiIhWrWu1danW2u1nW5f2drter7fbVbte9fa21trNaq2tva1ra90AS71ArSCEgBAghBBCCGGyzz5nzpxz3t8fccGtCgy8M5Pn+xGbhpB5iMk8877nfd8DEBERERERERERERERERERERERERERERERERERERERERERERERERERERERERHR0SJUByA6Gv7U1u8B4Lr377tmq85Ch+/aU6d1ADAvmzfJUJ2FKNNcqgMQHR2yEhDlADaoTkJH5H0SCALoUB2EKNNYwJSXekaTAIDtB8KKk9CR6Alz4Ev5iwVMeWk4bgIA9ocSipPQkRhOWgCk6hhER4WmOgAREdF4xAImIiJSgAVMRESkAAuYiIhIARYwERGRAixgIiIiBVjARERECrCAiYiIFGABExERKcACJiIiUoAFTEREpAALmIiISAEWMBERkQIsYCIiIgVYwERERAqwgImIiBRgARMRESnAAiYiIlKABUxERKQAC5iIiEgBFjAREZECLGAiIiIFWMBEREQKsICJiIgUYAETEREpwAImIiJSgAVMRESkAAuYiIhIARYwERGRAixgIiIiBVjARERECrCAiYiIFGABExERKcACJiIiUoAFTEREpAALmIiISAEWMBERkQIsYCIiIgVYwERERAqwgImIiBRgARMRESnAAiYiIlKABUxERKQAC5iIiEgBFjAREZECLGAiIiIFWMBEREQKsICJiIgUYAETEREpwAImIiJSgAVMRESkAAuYiIhIARYwERGRAixgIiIiBVjARERECrCAiYiIFGABExERKcACJiIiUoAFTEREpAALmIiISAEWMBERkQIsYCIiIgVYwERERAqwgImIiBRgARMRESnAAiYiIlKABUxERKQAC5iIiEgBFjAREZECLGAiIiIFWMBEREQKsICJiIgUYAETEREpwAImIiJSgAVMRESkAAuYiIhIARYwERGRAixgIiIiBVjARERECrCAiYiIFGABExERKcACJiIiUoAFTEREpAALmIiISAEWMBERkQIsYCIiIgVYwERERAqwgImIiBRgARMRESnAAiYiIlKABUxERKQAC5iIiEgBFjAREZECLGAiIiIFWMBEREQKsICJiIgUYAETEREpwAImIiJSgAVMRESkAAuYiIhIARYwERGRAixgIiIiBVjARERECrCAiYiIFGABExERKcACJiIiUoAFTEREpAALmIiISAEWMBERkQIsYCIiIgVYwERERAqwgImIiBRgARMRESnAAiYiIlKABUxERKQAC5iIiEgBFjAREZECLGAiIiIFWMBEREQKsICJiIgUYAETEREpwAImIiJSgAVMRESkAAuYiIhIARYwERGRAixgIiIiBVjARERECrCAiYiIFGABExERKcACJiIiUoAFTEREpAALmIiISAEWMBERkQIsYCIiIgVYwERERAqwgImIiBRgARMRESnAAiYiIlKABUxERKQAC5iIiEgBFjAREZECLGAiIiIFWMBEREQKsICJiIgUYAETEREpwAImIiJSgAVMRESkAAuYiIhIARYwERGRAixgIiIiBVjARERECrCAiYiIFGABExERKcACJiIiUoAFTEREpAALmIiISAEWMBERkQIsYCIiIgVYwERERAqwgImIiBRgARMRESnAAiYiIlKABUxERKQAC5iIiEgBl+oAREdDgVv3APBBaADkm35XvPrPQe8SB70p3vixB/0PICDe+Adf+/xS4q2PJeVBbx70ewd9rHzT/z/4c7/xsQ7O+TY5Dsr4pr/Sazlfj3BwFvmmN9/j773TY73j1/KtOd+acewxBF4ZHUjpAHBAlIdYwJSXKop85QCmuHy+V5pDQjpjz+NCdwFCQAgBoY1NAglNQGj6Qe8TYx+jaYAQ0PSx94mD3vfq29JxXv/1psdyLPsNjy+lBKSE4ziAfOP7IA96W2gQmnZQPu2VSALaQfnHXmCM/b7QtbFMQnubv58Gx7Je+/xjvYaDsr/x8V/Lb9tvfN/bfS1fy/fqY45lODg/DsqkufQ3fi0P+vMAIG0bBZqERwMAOwHAzPC3B1FWYAFTXvnh6j0BAA2/2x76cNh0FnlLSl4fXUqMDbKEgHhtZHvQCG7sX28ctYlXilgAr4/23vhnDy7qVyrktYGipr8+eHttBCwl5KsfI18dBcvXR5tvzvnqY7/2pvaGPK//HV7/2LdkxCsl/UoOAf21nK+V/qtJDvp6vfqCYuwfiTeM1CUA7ZXHfuUFy7t+LTH2YuedvpYCgKYLLJxUaMwq95qQZg8AA0R5iAVMeUUCHgHUj6bsRQNJ5yyPv/CoP6Z4taSP+iMdmddGm4pz/HMSutBwQnmBecaUotj5MyqGVCciOlqy+2eR6BC0DcQuenJXuOnODQPfVp2FDs/UEg/+6/QaALj+7Gllv1Kdh+ho4giYct7W/ng5gOoHNgVP646Ys1XnocMzuVBDlRdDAJ4A0K46D9HRxgKmfFAN4PRNB2IfHUzadZzYyU3zy12o8Gk9Z08ru1Z1FqJjgQVMOe9/XuiZDeALvQlZGU2rTkOHqlCTVpnLMYeT1rUVPs9m1XmIjhUexEE57aaV3fPCptPQF0/XJW3pSUuOfnNJgQ74XQgVu8X2kaS1+fYLZ21XnYnoWOEImHLdCkvT/ZtHzGLVQejQNRQJFHtdq75z5pRvSym756gORHQMsYApJ92yat8lAE76a3ekNJyy+X2cY3y6gEcXaKgo+InPpW2UUvYJIXjgBo0rfOKiXHUSgI92hkyf6iB06Dy6gN+t4dqTap4C0DenKjCiOhPRscYCppzy32u65wF46tnuSPm2ETOgOg8dGl0ARW6B4/zi56dPci2bWxVYqToTkSosYMoZv2/tPX1P2Jy3fdgMjKZsj+o8dGg0SPhdmjN7gjfm13EAQI/qTEQqsYApl3zckWhevT9RbkuA+31zi0sAZV5hXVhfNACg87qTareozkSkEguYst4ty3bUA5j/y5dHl0QtWW+9fq8DyiFnTC7qqfK7tgO4CUCf6jxEqrGAKau19SfK72vprRtJpE8aSNoVSVv6JUe+OcUl4Hg0mOU+1/bqgKf1upOOa1OdiSgbsIAp250RcVznbRxNXRe1JCzemj3nlHlEZGaJq2/fcOymu8+fy/IlegULmLLStmC8DkD5l1f2fH7EsGojpg2b5Ztz6vwa3BpapZT3CCE47Ux0EBYwZatyAHU9EfPslO3AsHjVNxdV+DQA6Hri43MfUZ2FKNuwgCmrPLJ7xAXA/5m/tH/FcuTV0ZSGsYEvr/vmkhKvjkK3hh+eP+X/SSk7V6gORJSFWMCUNa5rkdqq7R0VcOyPSKE1xGwHnHXOLQKASwPKvHrHpIC7T0rZKYQIqs5FlI1YwJRNtLTl1EHKu6SmYcRSHYcOlRBj5zzPmeB94aaTq/82pyrwoupMRNmKBUzKfUtKDQDmd4z8dk9NSdPPNw4gwWu+OUhCk+itcOHOWNJcB6BddSKibMYCJuVO6hyuADClK5Ju6o9bDSGT5ZuLqvwueHWRKBPp1mgi1T2nmjdYIPpnWMCknCZxCYB7frd1GN2RtOo4dJg+Prscxxd7Yp+YV7lKdRaiXMACJqX+tG3g7rX74407RlIYStqq49BhqC/14KRqP3wu7XYBbFSdhyhXsIBJtavDKduzal9cdQ46TNV+N5YcF4Am8Ocr51S0fFx1IKIcwQImJX60unMJgOlfXNkbcHhno5x1Ya0HQPr+jqHYFwBpCjGRO8eI3iMWMB1Ttyzf4QNQs6bPaDIdLHQkuNc3h5UXuJ4XQmyDhAPBF1FEh4IFTMeaH8D83rh9cdiUZ9sc+ea0K+ZW3QOg65S6UlN1FqJcwwKmY2brQGTxyj3Rxsd2hL4eNlEZTXO7US5yAWiY4HvstOMDayHlSgjB8iU6DCxgOuragjEfpPS/0BNt3BcxF8Qsp950JGz2b04RADQB06ejr9Kvb71yZnnrnEmFebPX9+vLOuoB4LYLZnSpzkLjAwuYjj4payFE8/LO8DcHk9aUvhjPmMxFbg0o0NH3sXrf1wG7Zc6kwk7VmTJJAne88uYVSoPQuMECpqPuFxsPNAC4tieWroiYXHKVeyQEgPkVvkipV+sDZAuAIdWpMuWMn78wD8DZy7b0NGoC2sX3vvifAJ79y7VLWlVno/zGAqajLhhL1wA4a9RwEOMZzzlHANAATC91JyYVuka+9r6peTXyBVAH4INdg5FaXQhXXZn/wxg7x5oFTEcVl6DSUXXlw9u29sTs8s6oXaM6Cx2e6WVeY2ltIAbgnB+8v26z6jyZ9MVHX169ad9IzUvdQ9MPfv/5s6uHFk+tCP3nebNOUJWN8h9HwHRUXPNEe7MA6tuGzfKQ6QRU56HDU+3XDZ+G7QDWAMibBVcPbj7QBGDKL59vrwlGksVv/v29IwkfMFT6wMa+jwHovHphzfpjn5LyHQuYjgoBXAzgco58c9usMncIwPM/eH/dTaqzZJKU+IAQuPTNI99X7QhGAjuCkcDlJ027DcBDAFjAlHEsYMqo+zb1T4fEnX/qGJ3dPmywfHPUcX4N5V4NAM5DHo18T7tvg18CM25fsW2OYzsN7/bx3392S/X840ovX9HePxsCN5w3syrfrn+TQprqAJQ/lncMzbBse/6+aKo5YjrV0bT0qc5Eh0YA8GhAqVeP1ATcwUeumLXlkStm9arOlQk7Bg1flUeUjo5Gm/rDyZr9oYT/3f5M72jCcyCSrG4fiDZvPxAp/9aK7fyepozhCJgy6W7bkU33bR6qsHiDhZzk1oBqn8Di4wpf+MTcipbfqw6UWdXFLtEUjiR+babTSJrvfvvLtGVj/Z5h/8aeUf/840unnDe7agQAR8GUESxgOmLf/FuXD4D/t23DpRHTCVi8wUJO0gAUurXI2VOLVx1X5HkGUubFNpydQwmfBHyf/u2LXwgb5vxw0oRpvffvUEdKwHbQfiB8fc9wfPP20eT3ASRmlxUYRy81jQcsYMoEF4DASwcS/rQDn8ORb07SBFDg0mKfnFe5AUBLY1VhXhQwAJcA/OGkeX7ctBrfy8j3zRwpkUzbZzkSlQDuAsDzr+mIsYDpiPyupa/u9o1DHxtM2repzkKHa+ykq3OP8/5qRrG+sbGq8FeqE2XSjc+0fwzAPcGYiUgiddifx7IlLNtqnHfr03tnVZd8p2Vf7NHm4wNtmUtK4w0LmA7L9tGkD4Dr8kd2fSxqOierzkOHr8Kno67IjQK32AEh2lXnyaRbl7df19obfl9PKAnTOvSR7ztJSdF8++pOtPXHggCMxqpALGOfnMYNFjAdLj+AAEe+ua+uyI0LpwYA4IUvL6lrUZ0nw+6BY2Nbz2BGP6kl8YGeUPIDAB6HxAgAFjAdMhYwHZKtQykfgOrrn+r6Uihln6s6Dx2Zj88ug0cTTxe6XT8A0KE6T6a82D36RQAXfOS+fyBhZv7uW8GRKIbCcVz3OO4G8BSA/8n4g1DeYwHTe7ZjMO57ce9IeW/EbDYse55hOY2qM9Hh8WqAWxOo9Ls260K0njq5ugVC5Pyq3tV7RvwA6nf2RxZYttMUjCSPyuOYlg3TsjESM2Z7ddH1mT9ubARk1/1XNSeOygNSXmIB06GYMpwwmzfuDz+YMB2EUryzUa6aHNBR49dgRpLvA2A1VGr5Uhz1AB5+aOPemr+195ce7Qfr7B2qqK8IXAYULQXEpQC4KIveM56ERe/Z/S29F20biF+4O+Ygmmb55iINEsW6gwKXWFkV8PwIgIE82VKz5J6W8ttXdlT86G87a3b2R9/1lKtMGYwZ/hd2DVQG3PoX7lrded2xelzKfRwB03sWMtILo6ZsGjBYvrlKE4BfBwrd2pazppX95bJZE/OifAFAQvq3HYgWR+LJUsNMH7PHjRqWK2rEijWBcwGUA8irbVx09PDEBHpX//2P3ssAfPP+rSMNw4Z9zEYWlHmlXr335+ce/0MAz58zrWyL6jyZcPPyXeUAqh9e3/lowrRmByPqLmVXFnmNL585sxPAt7929szHlAWhnMApaPqnfrbhwIe6I+bJ6w8kKgxbcsYkh9UVudunlrg3Y+w6ZV7c4ahtKF45GovP29Y7eGXStMoTh3HKVSYZace1Ye9o+bb+2IybV+5uVhqGsh6fUOnd3Dhq2DWre+N1qoPQkbloWtELJ03ybzxnWtlK1VkyqM5y7PMSpvW1mGkhamR+y9GhiJmW6/92DdbMO77slKnVpS4A+bavmjKIBUxv63ebDnwCwGk/bhloiqWlR3UeOlwSJ1Z4cd7kAAIe/XEA+XK+MwDg7tVdD3YMJEo39wwjnlJbvgDgOBIxI4XOYOj0oXCi+ZZlO54DMPCdC2Z1qc5G2YcFTG/wrRUdLgD+PaHUCQCaBxN2wOatBXPQ2EK5Mq+OUq8+VFfk7gHQc9HMiQNqc2XGOb9cWwmgOBhONoQSpvKR78EcRyKRsoohZXHb/lCzrouOm1d0DAkg8Z3zZmRPUFKOBUxv5gcw/7H20aZoWjYZksWbi8Qrv86dWmxCyseunF/zedWZMuxyAOc8s3mv6hxvK2KkETHS2Nw7eneRz/3srJpyRwLrAURUZ6PswUVY9Jq2wegUzeddtHK/cVPSwbwUb+qbs0rcwprk10wAX4AQ/6s6T6b8al135a/Wdf9LJJ48b+u+ofmq87ybkXgKkZQ9b+2+yA1FPvfitv5YvepMlD04AqaDyAoIUR+35EWWBCxOO+csv1s45V7N/On5U+9TnSXDigGcY9n2vKGoMUV1mHcTS1nwF8jahOXUCiGWYWwEzOvBBIAX9ghAW3+sAkDNjX/rfThs2g27Q3lzNsO449GAmgINAK7fcO2JeXUgxNPtQ3e83Bdu/v7KXWdZhgHHOnaHbWRC45RqlAcK2n926ayPA+iZNbFwSHUmUosj4HFux6BR+svW4OwRwzpn2LBKE2nOO+cqtwCKPJo5v8rfCyCyQXWgDPnWsh0eSPj+1n6g7kDEqLHTJqSTe9+nI9EETMsq/q+/dZ4N4DkALOBxjgVMlQMJ64zeqPmf/XELhs1jJnOVTwcqC1yJLy+a1AJg6F7VgTJFwgeB8lU7DzTGU3aDnUqpTnRY+oYj8HlcFQVez2cl0ANgs+pMpBanoMe5Kx9q29aXdMq7Y051ypZg/eYegbHVlNfPr1g3o9zbNq/SfxuAobnVgZxfcbs1GC2//g8bPjQcT904EDWmpyzHZ1q5N/p9lRCA1+0yF9aVt8+vLeu767J5F6jOROpwBDxOfe2ZHbUAyluH0rPjaYcj35wl4daE4ddFbHKxp+3ESv/LjdWBnF/ks61faoDUbn+upTlhWguSabvRSNtI5/j3qZSAYVqeuJGuD4aT1Wv3js4HMHLK5LIe1dno2OM2pPHrSwCe2jRqY18it5/UxjMBoNonuj5W73tkb3D0u43VgZ+qzpQRAh4I4WsPRlaEk+kv94WSOV++B9vcOxp4fFNPJYDVAG5UnYfU4Ah4nNnaH62DlDfetb5/6bbBRLnqPHRklk7ywaOhCxJ/hJB5cYMFAPiPZZvPBXBSz0gcRh4vDLx9xXb/9MrAGVuDkbsgxA/nVhVxJDyOsIDHn3II8SkTwt8ZdXjGc45rKPMAQPDb505/QXWWTEo7ch6Ai4bj+b0l7pm2PtfFJx7XACHqAPwGY4uzaJzgIqxxZO2+8DPtw0bTf6zqq1adhY7MwqoCTCv14vpTppRJKc0Ty7SE6kyZcOuy9gYA9/55c8/0HcFwtcyfWed3pGkCbl3Hjz68YGBmdVHrGfUTuDBrnOAIeBxYvWekHkDziq5ITW8s7Vedhw6fLoBSj4AusN6tiQ4ppQkh8uKA/7b+2Flru4YaH23dVz0ST/nHQ/kCgJQStuNg7Z4hf9dQLLD0V5tLARgvXDffUJ2Nji4W8PjQDODWJzvD9fuiaZ/qMHT4PBpwfKEOv+Y8+tn5Fb+bmycjXwCAlNf63HrTqo7+6c54aV+MrYy2bAdPb+kNuF16+bTJx1cCGADAAs5zLOA895/PdNR+++99dUlb1g/ELZZvDivSHZR69YEPnlD6e12IdZAypDpTJmzoDZ8B4JOff6jl9J6ReMV4Kt+DRQ0LLt2u39u7/88VAe8vbl6+87nvnj+zQ3UuOnpYwHmqfdDwANBueq6zqT9uTQuZji/N+/rmtDKvHprg03vnVvo3AAjOrS7K+RVKi377kuvl/aFKTYimvcPx8r5wctwuDLSlBBz4TMuebdnOgl3B0NC2/lgvAGtOVSDn/1vTW7GA81c5gOJg0v6LDcDkfX1z3qUzJyxfUFWw8cxpEx5SnSWDim9Ztr3WseX8UCw3j5jMJNuRGI6lUOJzf6YvlPgMhFgAYARcHZ2XWMB5pm0o7pNA9c2rui8LGdbJQ4aDPN5GOS5UFOjBWRN87S4djwOyU3WeTGgfjPsBeD7+wNo7XdKZMZI0YefgDRaOlsGYgXjKwo9Xd95c4nO/tK0/+YQQ6JldWcDrwnmEBZx/XAKoiJn2aZGUfUksL9bHjm+lXn3k/KlFbRJYf2HDxHwZCXkA+CHxKW3seEbVebJK1LDGfqWsy1ya8AiBdQCC4MKsvMICziNtwUTjqs5Q00t90d8GEw56YxxR5LqLaz2/BPD36xZO+oPqLJmwfTTpAVB955qeOwzL+ejLvaOqI2W1x9Z3IeD3zl/THfq6lPgKgJy/wQa9jmdB55Hlu4bO2BMyztwXsxDnvHNOqyzQcEKJCwGPving0XtV58mU1e395avb+z/WPxqZvqsvb07OPKrSaTswHI7VuaV9xhk//cdS1XkoczgCziP9cfPTI4bdtG2ECyZz3dQiN2aUunHdSTVPA0j8WHWgDImn7FoAtw2MxLC+m/ejfy9Saas0FbJKqwMFn4YQLQDy6tjR8YwFnAeu/dP2RZDy0ud6EjVxa3zuocwXBS6BGWVeBHz6jycVu58BMAQgL6Yzrnu49VOrdgYXbt0fwmiCLxIP1a7g6LziAnf1v/75ZQfAwz++9MQXVWeiI8Mp6Bz36I6helvTG/oN2TSSsv1hMy+eq8clDRK6QCLg0Vs9Lm3jJSdOaGmYWGg2TCzM6RVKj245EHh0y4G6vlDixP5IsmF/KIEEF10dspRl+5OmVbFvJNEUT1mz/3djzwzVmejIcASc++5wdFf92sFEk+ogdGQKNDi647Q9ccWMkwHgd6oDZc58AVy5ce/IRwdjqQrVYXJZLGUF/vJy79IPLzi+XAjxYQC8cUMOYwHnqCfbR84VAo0/bulvHkraAdV56PAJjN1k4QPTS3qrC119t6gOlEHLdg1f9Gxb38nt/dGzEml+n2bKy/vDNUOJdPGyjqF/A9B2wYyK51RnokPHAs5RQqARwAe3DBpTVGehI6MJwKUBS48vGplXWTCSTwUMoCliWPN3DsRmmzbXJ2RKX9goHU5apQA++Mq7WMA5iOcT5pgNveEGAPfe+VJw+tr98eqYw/+EuUwTwFmTi0a+cUp1L4Cr5lYFtqvOlAnfen6PBwLab/6+Kxk3TIRiSdWR8lKR3wtdEw988Zz6L0HC+NZZc3hxPYdwBJxjlu0OuwBUH4hb/jQHFDlvepE+4tdkGyD/Boi8uLsRAKzc0r0EQGPcMJFKsxOOFtOy4dbEjN+u6v4MgIcwdhtDyhEs4Bzz+M5RH4DpIdNBijdYyHln13h6APuvc6uKvqc6SybZjvw4gGs48j26UqYFza0vMS1nCYAXwQLOKSzgHDL3nk0PpmynOZIGbO42ymnTizRUF2iQEh8XAnkz8v3AL19oAPDbncFI/WCMxxYfC4ZlIx13UFXse3Dmd5e17Lz5gk+qzkTvDQs4B7zv99srANQNRM0my5ENPGUyd+kCKHZrKPZofWVebeg7FzTkxTVfALjkwc1TotH47FTKbE6mLS1h2qojjQtSApaUSNtOg9A0p/k325oF0LPh03M4Gs5yPIgjN1wC4KWYhdnhtOoodCSK3RrOrvXhxIkFd96wdPI5qvNk2NdNKb65vntYG4jy3r7H2kA0heGkPVsAL8mx5wzKchwBZ6mXg9IFQLvx+Z0/CxlWQzhlu9IOV13lslIP4HchqEP+QkC+ACljqjNlwq3L22dIYPEjrfuawgmzzpH8PlXFNNPo6enTpk8s+uRnH99+0q8/PPta1ZnonXEEnL00jL1AusaWWBpKOeA2ytxW6BIo0DFS4sZDbmm3z60uSqjOlCHVAjhtJJqcMhxN8qQrhWzbxvBwCJptLQVwjeo89M9xGW2W+twTO+4FcM2KfUmkHXDFcw5zC4kCTWJGiX7lyVXu1m+dN6dTdaZMaeuP3vPLNZ2zf7++e2nCtMBJmuzyxTMbngOw7MeXzs2XG2rlFU5BZ5kbn9xRDIFFHRG7JuVIpB2AS1lyW4lXj00vcQ2VujEEKfLihupt/bEZkKi576We2dv6Y9Vp2wFnnrNPS/dQ7YSAd+5Dm3rPFxDrrlxwXN6suM8HLOBsI1AB4Pr9cXv2voQDTlLkvpoiz9AnG8s3A+j5yNyqvFiZKiGXCCHe98fNfUsNI4WUxaX52WjdnqHZzXXlAQFRISE7gfzZ8pYP+OyeRb62rONf9setBf/oNy83LOlPS3hUZ6Ijc828CavcOtY0lnsflEDvlXOrcnpz7Lf+b48GSE/rrgN3SOATz7X3l0tHwnFYwNmqwK2bJQVu4zOn1P9p9qSSTR9tqv2J6kw0hiPgLPDn7SMBCJQ/s6P/xFDKaYymZanqTHRkPBoMtwbzhHJvK4CtH5lblfPXfdsHpXbbc62BwZjRGAwlpliOLLctXiDJdsm07UmmbU9vONnocevOk+2DUwCMfKhhYl5cDsllLOBsIDAfwJVtI+Zlg0mrgovTc199QO+cWaJ3f2Z+1Y2qs2SMlD7Lduablr16MIY80B8AACAASURBVJbCgTCPmcwlz2zvb64uidTPq5sAAA8CWKU2EbGAFfvLtsFPvdATOrF92DhrKOUEkry7UU4r0IHpJS5M8rs2TynzrladJxO2hKRLSul5akv3V0sLvU1rdvUjnDRVx6JDFEuaGBIy8PD67qWWxEun37uxfc21C4Oqc41nHGopJgROi5n2ol0jydmxtPSlud0op3l0gckBFyaXeHoubaxqUZ0nQ1xCCI/jyEs0IS46EE6Cx0zmnlTaQjRpenYPRmf0jMSrAfBSl2J8tlfkWys7KgEE1uw3do+kHOxPcA9HrptR5kWJV9/+g3NqrgAQnDOhaER1pkxo/um6eQDOatu9/0bLdmpV56EjV1vqx4SAFxfMrZ0JIPK9Cxo4ElaAU9DH2LaRhEsI4bvlua7FybTTOJJyEOftUnOaLgCPBmiQz7kEtkAiBIG8mKP94mMvN67pGprfH02d6kgZUJ2HMiNmWkAM2N0f/qjPrbdt7TdWSiAxr8rHZ6NjiAV8jAkhNADlSUtelbDkRznyzX0eDSh2C/iF87N5AdE6p6KoT3WmDDrLsaxTh8Pxy1UHocwJJUyEEiZSlv1tXRMPAdgsgD4ALOBjiAV8DG0JycDDW/pmD8XNX4+kRW1vlNfRcp0LEvMmFhiXzyiNWI7s6x6I58VBG893Di0WENMv/uXqm9I2R775avWuAUwqKTj/tuUvN9aUBT67IyK3zyoWeXGTkFzAAj4G+qTUAOAPL/Y2RJLW/KGk1ZiwJAz2b86bXuZ1jivyDEwp9WwXEJFrmmtyeup5fU/YA4HSF7qGZ6QsZ0HCtHnNN4+Fk2kUelylg7FUqQl9+k9WdYQAdKjONV6wgI8NDYBnNJ66N2bY85/vyZeb4NDPz6+LQMon5lYXf0V1lowQKAXw0b92DF7VORRfrDoOHX194ST6wknMOH7iJ0sS9hwA31SdabxgAR8Dn/x1awOAs0yXp4Kj3vwwvUi3Jvk1C8ANECJvRgy3LttRDuCqXf2R+uF4Tp+aSYeobyjcmEgYpbcub/83ACu/fX7DFtWZ8h0L+BgwbVkD4Mzd8XSA+3zzwyS/Zs0tcxlzq4oeUJ0lk3YNxQMAFg/FDMSSKdVx6BiKJc1aryZKARgYm4ZmAR9lbIOj7NblO57aOGRN2TBkNfK4+tznFdKc4nOCAL7+wvXNf1CdJ5O++OimtQPRVNOfNu/jTUDGMSGAM2ZUd54ybWLwO+c3nKY6Tz7jCPgo2RKMzRZAzTdW7pkSTDrl3GyU+wpcAj5NREp92nIAvarzZMpNf+uZAWDxy+17K0fjKT4njHNSAvtDidL1ewaxNRg7H5C9c6uL2lTnykf8YTtKhJRLIcT7W4atRkcCLODcV+LREXBrA7ddOP1OAMGnVQfKnMUAfrj1QKR0MJLg8bSErsFoxd7hWAWALwFiGQAW8FHAAs6wtmCsVkr5hR+1DJy+bciYbbF5c16hW6DMq2POxIKbp5Z4NwPoRp4cWHD33/f8cNWuA40bekZKQ3GDzwcEALAcCduRuOr+F5fOry2tbAvGTgDww8bqQI/qbPmEP3AZtLU/WtsbSc0YTlhNB2Lpuv0xk4ed5zi3Bng0EfG7tWB9iWfzVXPK22ZVePNmeXD3cLxpJGbUDIQTLsvmKgV6nQTQPRwvnlDoqd3UG2oC4FedKd+wgDPrhhHDavqvF/vOiKQBk89nOa/Sp8HvwqqzJul3OGZiy6yJdXl1StDDrT1nJFJpsHzp7RhpC609o9VfG9paARZwxrGAM+CGF/dpgHT9cmN/w6hhN0TSQJpTz3nhfbWFnRDokrC6BPLjBgsH83k9PxIC89y6ODuUMGE7/MalNzJtG5GE4aop8d288I6/bjp3Ye2PpJTm7efMzrufh2ONBZwJEhqE0F7uT9QYtqw2OJjIGyfXFAYhceBjCybl5e3aqipKnwqNhmDq4uyokWYB01vYjkTSsSAELgFQD+CnQoi8WAOhGvcBH6HdI7L431fsuDqetu9qD1tI8qSrvHBKlad7QYUn+O1zTjhFdZaj7Y7Ve5cAuOIXq3Z8bDSeqowbHNjQ2wsUeLFgRi1Kfa6bvnN2/e/mVgXy4uYjqnDLwWFqDzuenRHpu39z79WOpp06ZDjgiufc5xKwKn3agAa8KKX8i+o8x4KUcgDA2pnVxb0zqopDbpcOTfC1Ob1V2rJxYDiCRDJ1yu82BT+1cygR2DmU8KnOlas4BX2YhBAeAD7Ddu5yILAvwXnnfODRYc4tc3UBePQ75854QnWeY+FrZ0zpBNB5f8v+C7sGo57dg7HSpJmGY3E6h94olbbQ2TuI6oDnsphpXwbgDxJIYOz4SjpELOBDtLU/5oKUxX96uedGy5YXPb07gpTNoW8+mFmso9ynD100Y8JvAHQ8pDrQsXdrid8z+wtnzvjBira+mvb+cGnCSKvORFloa0cvdnfuQ1WBtgLAowC+ozpTLmIBH6KtB6J+AM0jSXt+0nLmjfD2RjlPF4BbEyjz6b0TC1ydC6qLOiAQUp3rWPtM83HdD7T2YWKRr6WqxNccTaU9uwcifiklJF9j0kFihomEbWH/aKLRkXLLRfevr5WQA8985mQuIDgEvNBziH6xbl8zgA1PdsXQMsBZl3xQ6tUwKeDGpTNLbzh7aknr3ImFa1RnUu13mw78pxC49MsPbWgyLRspk4te6e2VB3ybF02vWg7gZ09/ZlHenJF+LHAR1iH4179sX7q2N7r0ya4YuiOcmssHPh3wCLSVu/Ej23ZeBNCpOlM2EALPAvj+Vc2ThxZNnhBz6brqSJSlYoZZt76z//wC4Vzyn8u2n606Ty7hFPShaYim7JktgxwN5AuPJuAW6J5fIp6KjUbb506sjajOlA0+OX9SK4DWJ7YP3OFIWbph70jAdhxIzkXTm5iWUz4SM8oFcLKUcAFYqTpTruAU9Huwqmu0GQIf/NyKfdcNG3a16jx05DRIaAJYXOZ6H4Dgnz81r0N1pmy1vGPoEwDu+OIf11d2D8f5op3eUWWRd+DBq0/5A4BH33/CxBdV58l2nIJ+F+v3Rxb9375Y8/1bh5uTtuRZqHliepnXOa220AIQBMBR7z/XKYE/LKwrH1g8ZQKnf+gdpSzH/8im/fPW94wuWt8bXqo6T7bjq9l3d+n+WHr+sq7o+aqDUOacUlNovX9ywLxgRgVHvu/i/BkV6wCse27n4KKd/ZHSdd3DfN6gt5VIO4Hl7QNnXTJvkgvATAAvqM6UzfiD9A62DkTPFRCN1z+9++qQyZFvvqgJuPGFBRXw6OJ/ADyuOk8ukVJeX13sa7rvE4v+93fr9mBN56DqSJRlLMvGQCiGVe3Bps7+8GwAn1edKZuxgN/BtoFELYAFAwmrOuUI8HJ57it2C5R5RGJqibcdwMZzppe1qs6US85rqGxfu3dUA9B6fJm/bvrEQEXnYF7dnZGOkMTYcZUj8VRAShlo+sHKJkAMtd70/h7V2bIRW+UdvP+3W+4CcPWWUbtYdRbKjAtq3Sj3aK37jVknAcCjHxE8P/QwPbdz4F4A13zgZ6tVR6EsNu/48hiAB1pvev+XVGfJRlyE9SYfebyj7iOPd9wVSuOMfXGHU895oECTqPZK+N36/ZUBz72q8+SJBwFc/+lT6iOnTK3giTT0tvaNxHyheOr0s+5effdZP1ldpzpPtuEU9FuVA7g6LYV/1JT8+uQBrwaUuYGJhZ6/fmhOVes3qjjyPVLnzqxcA2DNn7YcuBVAYO2eId4Rh95iNG66vLo2G0C9BH4DgFPRB+EU9EE+/dTu1aOG3fSP/fGA6iyUGWU+HZV+15O/PG/KHRLYMrfKz4uWGfa7lp6PAvjuzU9uqdsfSnpU56HsdGp9hVHqd7f85bqlp6nOki04wgPw9RW7GoQQi1uGzOqI6fAJJA/oAtAEUOQSzxbo4iUAAwLgHtajowsSj0ws8l0uJar7wkmum6C36I8arqTlVH7pyfaPAXL93R+aNe6PfWUBAxBCLAZwV0/EDAwbDq+L5wGXNnbM5IXHe+8E0NdY5R/3P+xHy6ea69YDWP/ZP26c3h8xmlnA9Ha6hmKuCQHflJOB7wPim+C561yE9fuNvU+NppwbnuiKBcIplm/uk3BBYsFE38DlJxR3SGA9gG7VqcaJr2sabjh1+sSuiUVeni5Gb+BIYDSR8jz20q6a57btv/C0X7V8UXUm1cbtCPiW5e2lAHx7I+nmYcPxDxuONrYyh5fFc5lLCEzwaWaZV+86LuDu/sqSehbBMfLrqxZ2XfrrtSgv9LYEPO55Sa/tiqUs7iSg11i2xHDM8EhNr3e54+bNK9prBETiO+fNHHf33wbGcQFLyMUCYt7Pt4aqbQk4LN68UOLVzStmlfdB4u6vLKn9g+o8482fP3tKF4ArL71v3dcEcPGTW/YtVp2JsosjgeFIfPFoNLFYzK3eA6AVwNOqc6kw7gp43b5IKYDFt73Yd/G+SKrJcsZOb6HcN63EPVTq1bohcScE1qvOM54JYDmA9tnVJXcOJ1KB/ohRoToTZQ8pAUdK/H7t7osnlxce/3zHgAYh1px1wsRxNRIedwUMwAdgftxGc78hm7khNH/UBlyxCQVa963v48hXtT9ds3gzgM2X3bfuqxiIVLOA6c0kgJ6ReFNpgRsQog9AC4BxVcDjat51zd7QJSu7oyf9YtPQN1Rnocwp9wgc59cA4KTnr57XojoPvdGlv157OYBbV+0MTo8aFg/soLf11fPn/PjsWZM2nDm1bNy8gB4XI+A/be33QSDwvy8PnHwgYc1XnYcyp8AlUOzVByaXejoB8JCNLCSl7BZCPDqxyPfxArdVMxA1eNANvUVrb7gxGLOshfe0PAbA2Xh9c97v2x8XBQyBAICajX2xS+KWbODuq/xR7NVxXImn88YlNf8rJUZ+ozoQvcUT1yxpAdByxW/WnTgcS3lYwPR2dgRjZ3eNGBWBsqLvAhgX54vnfRP9+4qg74n2oXP/vGPw4bAtpoSscTXrnrfcAvDpwOfmV9z+gfrSu6XEY0KMr+tHuUZCfjUlxQ3Tayp6iwq8CdV5KLv0h6IYDUcbaoS5us6Vvvxbz+7K+xdqeTsCvnHFAU1AYFKxbO6P6QtGjXRDWgLW+LrsnYfG1qx7dREqcInYmXXFGwB0z6kqHFCbi97NY58+pXPhj19AoU9v9XpcjWnbrjNMK2+fg+jQpC0bKV34IoY5v6zAsxBI97YPOC8CwmmozM8bqOTtN7+AcAFwuXX8XXe78dK+pOpIlCE6gGnFrufOPd7/jzlVhX9SnYfeu43/urQTwMXNP3nxBwA+trlzf43qTJQ94ikL/+gcxIVzJv2bEPg3CFGEsTPc83JKOm8LuKrI+SiAM5/ZHcFQIu+v5Y8bJV4dZxwfgE9DO4DnVeehwyMhHxcQL9dVlj4YS5oYiXJGml63tS+MAxEDpi3vBrAawAOKIx0VeVvAQuA0AFe39nPkm08K3TqaJxUCwP7PLaxuU52HDs/GL5+6DsC6RT9d+yAQYwHTG/SMJtAzmsD7G6qvxtgI+AG1iY6OvLsg+tO1+5oA/OPJrqhn02Aq7xeZjSdLK10o9Wit93949skAHCHy87rQeLPop+uuA3BP+94gEqm06jiUTYRA85QK58MLp5gATr3p9CmtqiNlUl4V1B3/t2t2Vyg5e2N/0jWctPPq7zaeBVxAXaEGTYgnAfxFSh4emmfaAdxXVOgbKg3wnA46iJQYihra+q5BV2cw1HDL8vYG1ZEyKa+moCXk0pBhLXx2r+HinY3yR7lXw9wyFwRwW6DA3appGi/q55H1X1y8BsCaRT9d25QwzIpQLC/X29Bh2jsUxb6RuOtDJ9aeVlXs82PsBVteyIsC/taKHTMALH54V+LamCWncF4yf1S5bRRo4vnp5f57JdA5YFgs3/z1Sb/H1dQ0rfrBnsEwhiJcv0FjGw9tx8GqncHLN/UML7p1+Q4XgDXfPn/WdtXZjlTOT9NuG4hVm8JVvy/uLIylZV08jYqxkS9Hv/mg3Kf3FHu0jubjSltPOq40dvcHTuDrqzy1/ounbK8MeDdXFhV0Fhd4IgGfW3UkyiLxVLoiYqTr9gzFFiZNa3rbQDTnt7Dlwwj46pTmObllJHVJ3BZI8/pgXvne2VO/C6D99MmlHaqz0NF324UzewDx+e+t7LhhMGZ+YM22faojUZYwbYlIMl3xfHvwmotPPK4GwEkAblad60jkbAG3DcQapZS1t/y978PBuFURMmzYDss3H2gAppR41tWXedsBvIBxdouy8UxCGAKyfVp54Z+rA97u/pGyfwklUugPc5sSAbaUCCfT+EfX8LyeUaNma390AyR65lYXbVad7XDkbAFLKWuFEPPah1PNSctBwuLMZL7QBDC9zNv+9SXV/9dYGcibBRf07uZVBUwAvW3B+HoAwe3B6L8AYAETAEBKIJm20TuarA0lrVoBLJRjVxtzsoBz7kLp1v5oNSA+8cMX91+xe9RY1B5h8eYLAYlqv+5c01gWAXDDl5fUPaA6E6nV1p+47IH1e8/bciBy3YbOIKKGqToSZZGmqZUAcN/6G953reoshyPnRsBP7xzxAzgxmLDKQyannPPJCSUea4JPGwDwGABe8yVAojvgdb08qdj7fE2Zf1Eo4QpwNEyvGookAU3MmHH7366GxNMdX3//kOpMhyLnCnhdbzQA4OyeqFU6aLCA88kpkwqMmkJX55eX1H1FdRbKDo3V/tYtA9GIAIa+v8KpPxBOsIDpNT3DURQVeBZPLAvMg8BmADlVwDm1DemTj27/hSNx7+aRdMVoSvLInDxR5tWseeXuSChlf1ZCXq86D2UXAdkrgZXnzJx42+LJ5T+fWzsB5YVe1bEoS8SNtKd3IFx8nN/12w/ft+43qvMciqwfAUsptfs29Zc7EnXLO4abY2nZkLCyPze9Nz4d8OkYKPJoHUNJa/ONp83g1DO9wdzKYgOA0RaMtaXSNqqKfd2hhFERT6UDKS6+HPccKWFathZLWQ1uXcPda3Y365ro+eCpU4eOz/Lz4nOhyDQAlwC4a3fM8R2IWzk1aqd/rr5IB4Bnn/jo7JxcREHHTmN14MUtA9H2006YEPr3Rzdd79XFWZ2DMdWxKEts2jfiqS31z8Pcmg0AvgTgPmT5fYSztoB3OY4LQuAPW/p/0TGcbNg6lPKEU7zBQr7w64BXF3j/1JLnAexYrToQ5QQBmZAQrQ3VxY9PKinoHE2Y1xlpG3HTVh2NssBowsQjG3twYl35VQWtfQsAfFZ1pn8mawsYQgBjo99rEpaDjf2vLrzIuZ1T9Da8ukDALXDZrAlbAPTeojoQ5YRXpqM724KJYggEX9g9eB0AFjABAOKmhbV7hjCtqniJlFiCLC/grG2zTz3a1giI2mX7zWWqs1DmCABeHfjQCSXPfn7BxJbGqqJbVWei3NUWjF/0vWVbL3ipe/hfghEDaTurL/nRMXbxSfVXAuh6/JMLW1RneTtZNwL+n+d3eyBQ/lBnfFHCdhaozkOZJOHShDGpQGvXIVslsFF1Isp5PQGve2NVse/JkXjqDMdBsc3difSKDZ395/g9ro3/8fT2AQDB/75odlad5JJ1BQwBD4Dp4bRzaciUF6mOQ5nl0xA6/3jPcsB8am5V0XrVeSi3NVYXbtnanxgQQPvZd/21wXZksc2V0fSKvtH4NeWFnloB9EggAiCrCjirFjXd/Nyuhuf7jPPv3Br5dcSUp6vOQ5n1gcmFuGRa0RCAn0mJnL+XJ2UHAYxIYMtFc4+7Yd5xpd9UnYeySyiRXvLT53fcJWz7Q9uC8SbVeQ6WFSPgtmDMByn9t6zZ1zhs2AtMBzNUZ6LM8ekCAY+GCT5XR5Vf3/LV903vVZ2J8kdjld8EYG7tj7bdsWKHs6k3tN12nBpHolR1NlLPkbI4Zcninf2RBQ9v3Ktt7Y/3AojNrSpUfqRadoyApayFEOd2hK0f7E/Y31AdhzJrSokHl5xQipKA9/9delrdp1Xnofw0t6qo5+TpE9b89xXzrwz43CtV56Hs8lx78F8fWNf1bQCXAZiiOA6ALBgBbxuILXmkbbB551Dy4kTaqUjz8k1eOaFYR5FLvujRxMNuXesWQliqM1FeMwH0TSj0Plzgdm3vjyS5w40AAJbtIG7a5d9evuPjAPoA9ZfBlBcwgBkx01nYGzHPMm0JhysY80qNX4NLQ8dVc2rvh5TGCVl+NBzlti8tmWYBGPnqMzvWAWj/4Yo2FjABABwJmLYT6BpOLAXwoOo8QBbsA/7Iw2279sXt0s6IU6E6C2VOke7ArwE/Obf+YgA9Z51QlpM3zKbcdvNzu07/c8uei/eNxP8tmbb4Ap8AADOrikcmTwhEnv3cqVNV5lA+Ah5IWKUxE7yzUZ5Jj44imYzhzntevmA0HB+adM43FqnOROPPs48snxmX7nk6XBBeP6DrgMiOpS+kTsy0ff2xlOoY6gu4N2ZXmA6QLevBKDNSBw7A7NuHlkTsc6qz0PjVt/cApKbBrbsgaiYDXh+g87lmvAsZab/hwK86h/LvxFNrA5hWzgFwvpCJOOTmDUBwP4ShfJU/EeA4EFYagcE+BAYPQFgW4HApwng2tcyPk49Xv0tN+Qi42KuHvEnbB3AaOtdJIwnEYxDhUYiUAcEnOcoCAgCkhJ4am3J0pQzYHg8c4X71pi80zmgaIl63pnyEoLyA07azKpl2pgCYrzoLHRm7uxMIj8IXC6uOQvQWmm1BJG0UB3sQL6+EWVQCx+VWHYsU2DOSXBOxtQ2qcyifgq4NuDq8uhhQnYMOnzRTkOFRuMKjcMciquMQvTMpIaw0vLEwCkYGIWyb09Hj0NRyPz44u1p1DPUFPLnIvd+ji5DqHHQELAtIJqAnYtCNpOo0RO9IABCOA5eRhDcegZAOhOTepPGmMuBFc636a8BZcQGk7iet1wG4x3AAmR2R6D2S/X3QBoPQ9+5WHYXokNleH1KBYiTLK+HoLl4TznOaEPD73ABwfeiOi3+lOo/ya8AAcHxgLMbemI0UZ4NygnQcQEpog0GIKKedKTcJ24KeMuCJhWEWFo+VsKZ8YpCOEo9LQ21pAQAgG6Zds6KAGyvGFkAPGEmkTDZwLpDO2LUzjnwpl2mWBXciDlfahO3xQgoNkgWct3xuHY2TSgAAbYqzAFlSwLvDZiuAW+OW83kA6q+M0zuTErBt6F0dEMH9qtMQHTHh2BCmg8LBA7C8BYhXTBorYRZx3omnnYFdSf33ALaozgJkSQFbtowA6HYkDNVZ6J3JV8oXsSi0SBhalNuNKPe9/T5hLxwheE04z0gpTbjcewHEVGcBsqSAL5g8Niff1RZD0uaKxKwlJZCIAVs3Asm46jREGfWGfcITqpAqLoUUuupYlEEFusCV0wMAgI2KswBZUsAABgCss6VMCACs4OwiX9mmkR4IApEwfMk4hM3b+lIeemWfsCcWgWalkajgFbF84Q0EINyuCIDnMXY/YOWyooC/eub0EIDQpLs2GRoAW3Ugelt2JAwRHoWWNlVHIToqBAA4DlxGggWcZ9w+HzS32/iPM6dlw/orAFlwEMfBLjzeg6XVWfGagA4i4jFovXsR6O1CYIALryj/6WkT7mQcZV3t8A8GVcehDDi5woWzJ2XX0aNZVcC2I19M2VinOge9TibiQDQMMTwwduIV0Tgytk84CU9klJddcpxpyxYbokV1joNl1XAznJYPB5POLgCLVWehV7xSvtr+vaqTEB1zupWGiEfhMg1EvD7YelY9ZdIhGE45fwmUuLOqgLNqBHzVnInGnIl+XmDMAlbKgBmLQW/fwv2+NK4Jx4ZupuAfOICCwQOq49BhqvDpxowyT1b1S1a9nKst8iZ8ejzhEhK25LnQSiWTQCIOEY+NbT8iGqde3SfsSo0dU6CnDDguN6TOLUq5QBMCLl2DWxexEp87K/b/viqrRsCVJaU9veFUd4VbwpdVycYfV99eeNs2Qki+DCICAFc6BU8iikBwH9yJrHoep3/C7/OgpqIELo+344qTT+hQnedgWTUCBmDOmegz60vdWD9gYHeYix6OOSMJsbcTYmQI4KITojcQjgPdNOCJhqCnU0iWV6qORO9iUrEXp0wtR8DnMgAkVOc5WFaNM6eVC3NamddqrPSj3Jdtrw3GibQJrW8fRDwKjTcqJ3oDAUC3LLiTcXhivAtYLigrcGN2VQB1JT5zVrHgNeB/xpFaUAj8z4jhnAtgnuo840pbKxAehUjwmEmif8ZlpgAzhaL93TD9AaTKKlRHonfQum/06QEDPwCQVdPPQBYWsK7BBLArZUtuRTpGHMOAjMegx+PQXjmQnojenW6m4NJ1OPEoLJ+fC7OykNel4aS6UgBAp+Isb5Z1BVzk02IA1kXT9nmqs4wXMh6Dtb8HrvAotDQLmOi9chsJCMeG5jiIuz0s4CwU8Lhw6bxJAIA/Ks7yZllXwFNLfBaAUIGQpq05iDlZdZk6/wwcgGt4AK5gLzQrqy6PEOUEPW1Csy04QoPlK+B0dBYpDfhgC20IwGZk2QIsIAsLuGRs8ZVR4dOsgAvojHEP6tEgbRuQDrTw6NhZzxz5Eh0WISWEbcOVSgIA0mYKUndxNJwFJpUUAID1kXmTsnLFXNYVcMPEQhPAwA//3m0AwO0bRxUnylNGAkgZ0Dp38KANogzwJONwpQxojg2jdALShUWqI417l8+vBQBsVZzjnWRdAb9qxLAfB7AbwG2qs+QT6ThwLAvaQHBsry+3GhFljJAOXMk4PLoOLW0iVTpBdaRx7UDY+B6ADapzvJOsLeD7d4bXA9gOCBZwhjm2DS0SgjYY5ClXRBkkpIQrbUL+//buLEay667j+Pecu9St6uqenp4Zz5LxMh7HduxJHJvERIlEEASJLChIRBgkQIBA4THLMwqIB3YEIiAEQUKCh0R5QSgSiYAoEJHNE3s8/6rIlAAAEcJJREFUccZje8az93R3dddet27d5RweqntwEi+zVPdd+v95nKmu+++ZUv/6f9YoRBsjAZyzz3/3yhextPOu4/UUNoA//fh02fgfP93LuZIKsRbV71L/3//KuxIhKs0bh3jjkKzRJPVrxI1m3iXtSr/7kUcB+PSf5FzI6yhsAAMxMHQVGAsyUHr77NYc70YL1ZM5dSF2ihsOIcswjkvq+aBlV8dO8IMarucBtCng6ucthR+BPPbZUzYxlokk8G27EcCnT6J6HdyBjCoIsVOSRpN4zxJRcw/GLXLPUx179u9jbmGey594d6EzrvC/jn3waI0Te+VDe7ustbDRgtMncdZXcUZyi4sQO8mNQoL1FYLeBrVRIXfDVM7bFl0+cMTPu4w3VfgAXgr0876jlvOuo7SyDCZjVK+DimOUyfKuSIhdRRmDk8S4kzFONEanqew+2GaesiuLvj6Tdx1vpvABPHDmP/x81/x13nWUlQqH6OEAd9CT8BUiR36vQ9BpUR92cRM5dW47nb4++PvzsftU3nW8mcIHsEMaYW3sFHokv3hsEmOjMfrlM+i163mXI4QAVJbh9dr4wx5+KNNB2yXQJO870ozyruPNFH5y1SOJwKbO5mpoObPpJmUZpAl65VrelQgh2FzxagxuOMJ4PspxZHvSNvG1St93pFn4YYbCB/AffeD+4dcvfHdoXIZXIt2IrSp8154nm6Yw6KFfeUk6XyEKZmsgz+91YHNLYOIHEsQzUq95PHj0AI5W3dqxxcKvHSp8AFtrecuch8WymljiNO+KCi5NoLUC4xCsLPQQosiccDg9HtZ1SV3ZJ3yn5nyHH79nEaUoxRn3hQ9grbX5zJfPGiD9fj9imBb/HzVPKp7ApfOoNEGV4AMoxG706k5YJwnKcTBNF1P8ZTmFtrfu8bG3HwIw79K68O1aKf63nzi6eOqJo4t/aGBFySzw61IvPo8++z2cJEbJNgchSsGNQoLWCkGvgz8a5F1OaSmgP05W5gP3M/OB+0ze9dyMwnfAAMf3N9tYexpU6CiQJviHpAnEMarfRQ370vkKURJbC7OUiXE27xNOa3WM1jIcfYuUUsSZCeu+8wywnnc9N6MUAXziUPMycPnhvzvdn/McerF0dz+g24ErF1CdDZTsLxSilILuBtnmedFxfY60FuRdUqn4jmKSZt0TdzW/lHctN6sUAbylpkykFDFQ/DPGdkiysozT3cDttiEr/JSHEOIN6CzF77Uhy9BZKqujb0FQ82PX0VGZDvss1RiHp0hdrLR4r5L1uph+Dx0OZd5XiJJTxuCFQ9zJGDee5F1OqfieGwc1v1RdSKkC+BM/tr//1MOLcnwMQL+LWl2mee77BC3Z7ytEldR6beauX6bR3ZATs27Sx997H3/woYfzLuOWlGoIek/grgVjswL20PRPdt/5lNYYSFNUv3djI78QoprccIixFmr16aIstft+5t2s3jj+EvDdvOu4FaUK4GP7586vTljS8M5dO9hqLUzGsL6KWi38QS9CiDtQ67Wx1hDPzWOUJwH8OrRSfPZrL/95/FcfO5l3LbeiVEPQwD99/crwHxdrDjW9+z6IWRJj+l30qafRrRVUWqrpDiHEbfCHA/ZcfQV3PEKlSd7lFI7naJo1l2atVP0kULIAPnFwfvk7y6NlDRGw+5rgcIQa9KZ7feMYOZREiOrTJsOdRLhRiDOJpkfMyl7/GxQYrVSslSpdJpTuV4Z+nEUKziaWe0At5V3PTvJePoPqdeReXyF2ofm1ZdJaQO/u4xjHAeXkXVIhGEuYWNYttnRDgqUL4J96Sw2A5zZSro9L9wvP7elsoFauoQY9kIM2hNi1dJIwt7ZMtLCXpNEER0L4yGKdJ4/tB+DzOddyq0o1BA1wYsnjxJLPnlrpSr9tKhyily/DOERl0v0KsVtpkxH0O7jxRI6c3bQ0V+Pxu5d4593lGxAt7UqmA3/57D8Av5V3HdvNfOfr6HGIOyzT+S5CiJ3QetvjeZeQK8f3AT43+bOP/nbetdyO0g1Bb2lsVh6WbtT/5qTjMSaJ8cehnO8shHhNQWedtBaQ7tIjK7cGQst6ZlhpA3jRn/7Lh2k154GTYZ+436chna8Q4nU0V64QLe5juEsDuOlNc6CsPyVLO5Hai+2VXmyfz7uOmTMGooj66jJ7Lr6YdzVCiILzBz0WL7w43aK0y5iFfRfNwr5SXD34WkrbAe/xVQQMRxW6HHh6zGSC6nfQ4RAdjfMuSQhRYIrpDUo6S3GjEIBsF11juH8+CIF4Je9CblNpA/jn76mlQPS3ZysUUnEM/Q7OM9+cdsJCCPEmtlbSzi9fIg0adI89lGs9O+kX7m/EQFLWodDSBvCRPfXTgHFV+JPGginvgm6sMViTwbWL00sWjJx0I4S4dTqJaV6/TLRnqdILsxyt0FpzZDH4InAq73puV2kD+H33H7gIhO7TG6SAKXFeWWunw88b66hBV/b3CSFu2dZwdNDdIA0alQ5grTWuo3nv8X3fsJayjkCXuG3c9OTnnrP9xLIxKXForV1HX3wZ1dmQCxaEEDOz/ta3Y5Wq3IlZSw2fZuDxyu99qNQZVtpV0Ft8TddRhHnXcbtsex36XRiHMu8rhJipoNfGC4dgskpNa7muEwW+V9bdRzeUPoCbnr7qa9XNu47btnwZ1VpFDwcoCWAhxAw1164R9DvoLIMK3Z4W+N5wcb6+lncdd6r0Afyh+xeuPrC3VroAzjZapJfO416/iu518i5HCFFR3nhEc/XqdJ9wRW5Se/vh+f5Tjx2RAM7b0QV/fc7Tw+nduCX4Dc9ayFJUOIReBxVPUJnM+wohtofO0ul9wvEEJ46nP4NKPBytFLhKLR9eCMq6++iG0gfwQweb33YcfdFTJVlRZjIYDnHXrhNcuZB3NUKIilPG4MQT5tZXmNtYm051lTSAlYKa5/KVsyv//IvvPPLxvOu5U6UPYGvt18IkO3vPvIuvix3BNolhOECfO4PqlW7UXAhRYjpJcCchjXYLLwpRJRyO9h3N0cU6RxfreZcyE6UP4BMHF54fxdm1Aw0Xt+ABTJZBNEavXEONR3lXI4TYRZTJ0HFMbdTHSeJSnjfgas3+uRr752p5lzITpT2I49X21/0QuOro5BDYwn1PJsuwWYr77LdRfel8hRD5UNbgjEfMJQmNdovOPcen+4R1OfYJh0nWPrM6+jfgpbxrmYXChdXtmHfpAxeBRaB4x7+MR9Beh0kkW42EEPkzGSoFf9gj82qkQWM6waqKPYpYczVPHF0E4D9zrmUWKhHA9zXVOnAS7IMUMIBVvwvnX0RFoQSwECJ32mRgMubaLSbNBbJafdoJF1zDd/jwicNYJICL5DRwNUzMB4C7irQeWj13Ej0agISvEKJg9CSitrlKerj/MMavFboL7kfJsoXfV9a2865lFioRwJ98//EhMLzvs8/GnoVxARb32TiGLEX3OqhkIuErhCgcZS06TXAjcONoerFNQe8TrnsOWhN/6iePX8y7llkp/SroV3tk0eXYfDEWE9jWCvb8WfSgi4oqdGexEKJStvYJN1eXabaKe7HQsf1NHjm8mHcZM1WpAN6Y2G90JvZbedZg0pRxp41tr+NstPIsRQghbprONvcJt5ZxC7hNcoB7qq9qz+RdxyxVKoBXI15sx5zNswZrDMloiB0O0MPSX9YhhNgllDHoJCbod3GSOO9yfsQQ75W+Uz+fdx2zVKkA/tUH/PgnDrm5fnKc8Yi9p79Drb1WoKVgQgjx5pS1m8PR11h6Jdde5kf89JFa/JsPNor3m8EdqMQirC3zNe+yUXb/Tj/Xbh5urleXod8p7TmrQggBgDEoUmr9Lpnnk9Yb+dWiNNpxMKhzc777Sn6FzF6lOuCPPHbkVKzd0zv+4K0APvcCzrmzKIq0EUoIIW6NNhk6TZhbX8HPeSpNOw5uEBBb5+kPPnr0ZK7FzFilOmBrbdvEyfpje12uhBntyfZ3oiZLUa0V9MXzMBpu+/OEEGKn6Dgi6LdxJxHDuzb3Ce+wQ02Phw7Po226bqH0dwC/WqU64EeXGrG2JlrwVdtTakfmCuxwAIM+qteZXrYghBAV8f/7hEOceIJOkh2vwXVUvCdwuxobvuNgIHPARbZU9/vAl+lHTwIPbPsDnzsJ8QSd7vwHUwghtpsyBsdMqHdapEGD8MDhHX1+ktll7bqngMoNMVYugOddEwMXwT6ync+xgx6MQ9yS3qsphBC3wo3GKGPwex3SemPHhqPrnhM+enD+KlCp7hcqGcDEwCqWaFsfNA6hoPvlhBBi1pw0QVmLNx5hPG/HArjmqOjhg/Mta0l35IE7qHIB/EtP3BsBp/5j+dzPDOOMkZntemQTx6StFfwrF3A3KrUeQAgh3pDOUhqdFu4kIg3qjA6+ZVuft9AIcBx37dFD89+igkPQlVqEtSm2lpU5l/Cu+my/PTOZQDjEXV+T852FELuWTmPcaIw7HqHjybY95+7FOnsCdwhcBemAC++Ru+oR8NJTX3i+v6/mcmE0u8VRZhyiel1qVy/M7D2FEKJs3HgC8YR0UCcJGsTbNBx94vACQPfEweaZbXlAzioXwFvetq++Apz96vXk4Tt9L5tlkCZ4L38f1e/NoDohhCi/oNvGCcboNGWysIh1vZm+//dW+n8BfHOmb1ogVRyCBmDBd1oLvnPxTt/HGgPxBAY99GiAjsIZVCeEEOWnsxQnifGiECeJUTPejmlRlyyqPdM3LZDKdsDY9CTQBX72jt4nTaG1gj73AkTbu7BaCCHKxo0n0yFpa0mCBtG+u2b23r/xnvsA+NTM3rFYKhvAD921kAKxYnqOqb3N05mzi+fRgy4qjsGaGVYohBDV4Y5DVJZiXO+O9wkrBWr6M/urTBupSqpsAN+7t5miiDVwJ7Fp1lfRkzE6q9wCPCGEmBk3maBNRubf+T5hhUJrxafef/z5GZZYOJW/tOd3/vUF+8og5dmNWwtQde0yqrOOvlSp+5+FEGLbxfUmWS1gePju2/r6d927jwcOzPMvv/buSmdUZTvgLcPEfGmQ2HuAd9zM622awnCAGnRhkO81XEIIUUZbZ+N7owHG9chqwS19fW8cn+mO46vbUVuRVD6Av3x98qcYPqpQNxXApAl27Tq01tD9zjZXJ4QQ1eMmE0gmmF6buNG85QB+aW3wPy+tDf59m8orjMpuQ9ryc0drHAhu7tuMel0mrTXcy+fROV9CLYQQZecPewTdDRpr19C3cG7+3Xvn+JX3bP9ldnmrfAd8sO6EjkpjsG/+4uEANeihJrLdSAgh7pTOMpwkxkYKZ/PISuP5b/w1rovve9HRvY3Knf38wyrfAf/y4w+dGSRcu5nXNi69TOPSyyh2weo0IYTYAU6aUBsNqa+vELRbb/ha7boEi3sZe/ULv/7kgyd3qMTcVL4DBuITi06aWc0L3ZTwta7u7Wygrl9FhSMwstdXCCFmbdoBK7zxiMzzMa9xbGXgKB7Z6+M5KoVtvlK2ACrfAT92SKX3NbU5Pu9Qc16nrx0NUNcuQTyRzlcIIbaBkyY4SYybxKjXaXR8rTjadDlYd9K37lOVv2x9N3TAHNy/8C3gk5NrG58Ge/QH/vK/v4JK4m29UksIIXY7BTjJhLlrF3EX95E25xnP7/2B1yTGLh85sPQ3QOWHn2GXBLDJshBYNsbeOI3DDHowHk8PEM9ea1xaCCHEdnDiCIbgBHMYrbHONIqMtamj7AqwK2692RUBnI2jLnA2NfbGnIJdb2FaK/iy4lkIIXbE1hSfG45wwxHJ/B5S1yfdDODMmKjpcQ7YFftAd0UAv+e+vRHQ/sK5UTqZxIxaLdz1VVRnPe/ShBBi12qsXCVpNJnsWaKxb4laUEvfe/+SdMBVcs/eRoq1oaPsGQcTE8eoNL5xXJoQQoids9UJO0lMliZok+E6Gs/V5+7d1+hbayu/AEsIIYQQQgghhBBCCCGEEEIIIYQQQgghhBBCCCGEEEIIIYQQQgghhBBCCCGEEEIIIYQQQgghhBBCCCGEEEIIIYQQQgghhBBCCCGEEEIIIYQQQgghhBBCCCFErv4PoycxLBTPM0IAAAAASUVORK5CYII=;" vertex="1" parent="1">
          <mxGeometry x="1680" y="40" width="70" height="70" as="geometry" />
        </mxCell>
        <mxCell id="e54BE-5O06g-NBE3f2j7-43" style="edgeStyle=orthogonalEdgeStyle;rounded=0;orthogonalLoop=1;jettySize=auto;html=1;exitX=0.75;exitY=0;exitDx=0;exitDy=0;" edge="1" parent="1" source="e54BE-5O06g-NBE3f2j7-48" target="e54BE-5O06g-NBE3f2j7-32">
          <mxGeometry relative="1" as="geometry" />
        </mxCell>
        <mxCell id="e54BE-5O06g-NBE3f2j7-45" value="" style="strokeWidth=2;html=1;shape=mxgraph.flowchart.merge_or_storage;whiteSpace=wrap;" vertex="1" parent="1">
          <mxGeometry x="1320" y="720" width="50" height="40" as="geometry" />
        </mxCell>
        <mxCell id="e54BE-5O06g-NBE3f2j7-46" value="andere Quellen" style="text;html=1;align=center;verticalAlign=middle;resizable=0;points=[];autosize=1;strokeColor=none;fillColor=none;" vertex="1" parent="1">
          <mxGeometry x="1362.5" y="730" width="100" height="20" as="geometry" />
        </mxCell>
        <mxCell id="e54BE-5O06g-NBE3f2j7-47" value="" style="group" vertex="1" connectable="0" parent="1">
          <mxGeometry x="1564" y="430" width="120" height="80" as="geometry" />
        </mxCell>
        <mxCell id="e54BE-5O06g-NBE3f2j7-48" value="" style="shape=image;verticalLabelPosition=bottom;labelBackgroundColor=default;verticalAlign=top;aspect=fixed;imageAspect=0;image=data:image/svg+xml,PHN2ZyBpZD0iZjJmNTcwMWUtY2IzYi00ZDZmLWI0MDctNTg2NmVjNWI3Nzg0IiB4bWxucz0iaHR0cDovL3d3dy53My5vcmcvMjAwMC9zdmciIHdpZHRoPSIxOCIgaGVpZ2h0PSIxOCIgdmlld0JveD0iMCAwIDE4IDE4Ij48ZGVmcz48bGluZWFyR3JhZGllbnQgaWQ9ImE4OTE5MDFiLTc5YWUtNDkwYS04NTY4LTljNDMzNDQxN2QzNSIgeDE9IjkiIHkxPSI1LjM4IiB4Mj0iOSIgZ3JhZGllbnRVbml0cz0idXNlclNwYWNlT25Vc2UiPjxzdG9wIG9mZnNldD0iMC4xOTkiIHN0b3AtY29sb3I9IiMwMDViYTEiLz48c3RvcCBvZmZzZXQ9IjEiIHN0b3AtY29sb3I9IiMwMDc4ZDQiLz48L2xpbmVhckdyYWRpZW50PjxsaW5lYXJHcmFkaWVudCBpZD0iYmJkYWEwMDktMjI4MS00ZGE4LTllODktNmY0MTY4OWU5MWE3IiB4MT0iOSIgeTE9IjEyLjcxMyIgeDI9IjkiIHkyPSI1LjI4NyIgZ3JhZGllbnRVbml0cz0idXNlclNwYWNlT25Vc2UiPjxzdG9wIG9mZnNldD0iMCIgc3RvcC1jb2xvcj0iIzE5OGFiMyIvPjxzdG9wIG9mZnNldD0iMC4xNzIiIHN0b3AtY29sb3I9IiMzMmJlZGQiLz48c3RvcCBvZmZzZXQ9IjAuNSIgc3RvcC1jb2xvcj0iIzUwZTZmZiIvPjxzdG9wIG9mZnNldD0iMC41IiBzdG9wLWNvbG9yPSIjNGZlNGZkIi8+PHN0b3Agb2Zmc2V0PSIwLjUiIHN0b3AtY29sb3I9IiM0YmRkZjgiLz48c3RvcCBvZmZzZXQ9IjAuNSIgc3RvcC1jb2xvcj0iIzQ0ZDJlZSIvPjxzdG9wIG9mZnNldD0iMC41IiBzdG9wLWNvbG9yPSIjM2FjMWUwIi8+PHN0b3Agb2Zmc2V0PSIwLjUiIHN0b3AtY29sb3I9IiMyZGFiY2UiLz48c3RvcCBvZmZzZXQ9IjAuNSIgc3RvcC1jb2xvcj0iIzFkOTBiOCIvPjxzdG9wIG9mZnNldD0iMC41IiBzdG9wLWNvbG9yPSIjMTk4YWIzIi8+PHN0b3Agb2Zmc2V0PSIwLjY2MiIgc3RvcC1jb2xvcj0iIzMyYmVkZCIvPjxzdG9wIG9mZnNldD0iMC45NzUiIHN0b3AtY29sb3I9IiM1MGU2ZmYiLz48L2xpbmVhckdyYWRpZW50PjwvZGVmcz48cGF0aCBkPSJNOSwwLDEuMTUsNC40OXY4Ljk3TDksMThsNy44NS00LjQ5di05Wm02LjQsMTIuNTdMOSwxNi4yNywyLjYsMTIuNjA5VjUuMzhMOSwxLjY4bDYuNCwzLjcxWiIgZmlsbD0iIzAwNzhkNCIvPjxwb2x5Z29uIHBvaW50cz0iOSAwIDkgMCAxLjE1IDQuNDkgMi42IDUuMzggOSAxLjY4IDkgMS42OCAxNS40IDUuMzggMTYuODUgNC40OSA5IDAiIGZpbGw9InVybCgjYTg5MTkwMWItNzlhZS00OTBhLTg1NjgtOWM0MzM0NDE3ZDM1KSIvPjxwYXRoIGQ9Ik0xMi43NCwxMC40NzVhLjczLjczLDAsMCwwLS4zMjMtLjI4NkE1LjgzNSw1LjgzNSwwLDAsMCw3LjkzOSw2Ljg0M0wxNC40MTYsMy4xLDEyLjkxLDIuMjM2LDUuNTM0LDYuNUEuNzUuNzUsMCwwLDAsNS45MSw3LjkuNjg0LjY4NCwwLDAsMCw2LDcuODc3bC4xMjUuNTIzYTQuMzE5LDQuMzE5LDAsMCwxLDQuODM3LDIuMjM4TDMuNjEzLDE0Ljg4NWwxLjUuODY2TDEyLjQ2NiwxMS41YS43MjkuNzI5LDAsMCwwLC4yNDItLjIzNmwuMDc1LS4wMThjLS4wMDctLjAyOS0uMDE4LS4wNTUtLjAyNS0uMDg0QS43MzUuNzM1LDAsMCwwLDEyLjc0LDEwLjQ3NVoiIGZpbGw9IiM1MGU2ZmYiLz48cGF0aCBkPSJNMTIuMDkxLDkuMDEzYTEuODUsMS44NSwwLDEsMCwxLjg1LDEuODVBMS44NSwxLjg1LDAsMCwwLDEyLjA5MSw5LjAxM1pNNS45MDksNS4yNjdhMS44NSwxLjg1LDAsMSwwLDEuODUsMS44NUExLjg1LDEuODUsMCwwLDAsNS45MDksNS4yNjdaIiBmaWxsPSJ1cmwoI2JiZGFhMDA5LTIyODEtNGRhOC05ZTg5LTZmNDE2ODllOTFhNykiLz48L3N2Zz4=;" vertex="1" parent="e54BE-5O06g-NBE3f2j7-47">
          <mxGeometry width="80" height="80" as="geometry" />
        </mxCell>
        <mxCell id="e54BE-5O06g-NBE3f2j7-49" value="" style="shape=image;verticalLabelPosition=bottom;labelBackgroundColor=default;verticalAlign=top;aspect=fixed;imageAspect=0;image=data:image/svg+xml,PHN2ZyBpZD0iZjllZDk2OTAtNjc1My00M2E3LThiMzItZDY2YWM3YjhhOTlhIiB4bWxucz0iaHR0cDovL3d3dy53My5vcmcvMjAwMC9zdmciIHdpZHRoPSIxOCIgaGVpZ2h0PSIxOCIgdmlld0JveD0iMCAwIDE4IDE4Ij48ZGVmcz48bGluZWFyR3JhZGllbnQgaWQ9ImY3MTBhMzY0LTA4M2YtNDk0Yy05ZDk2LTg5YjkyZWUyZDVhOCIgeDE9IjAuNSIgeTE9IjkuNzciIHgyPSI5IiB5Mj0iOS43NyIgZ3JhZGllbnRVbml0cz0idXNlclNwYWNlT25Vc2UiPjxzdG9wIG9mZnNldD0iMCIgc3RvcC1jb2xvcj0iIzAwNWJhMSIvPjxzdG9wIG9mZnNldD0iMC4wNyIgc3RvcC1jb2xvcj0iIzAwNjBhOSIvPjxzdG9wIG9mZnNldD0iMC4zNiIgc3RvcC1jb2xvcj0iIzAwNzFjOCIvPjxzdG9wIG9mZnNldD0iMC41MiIgc3RvcC1jb2xvcj0iIzAwNzhkNCIvPjxzdG9wIG9mZnNldD0iMC42NCIgc3RvcC1jb2xvcj0iIzAwNzRjZCIvPjxzdG9wIG9mZnNldD0iMC44MSIgc3RvcC1jb2xvcj0iIzAwNmFiYiIvPjxzdG9wIG9mZnNldD0iMC45OSIgc3RvcC1jb2xvcj0iIzAwNWJhMSIvPjwvbGluZWFyR3JhZGllbnQ+PC9kZWZzPjx0aXRsZT5JY29uLWRhdGFiYXNlcy0xMjY8L3RpdGxlPjxnPjxwYXRoIGQ9Ik0xMy4yNSwxMC40OFY2LjU3YS4xNC4xNCwwLDAsMC0uMjQtLjFsLTQsNEw0Ljg1LDE0LjYzVjE3LjVIMTYuOTNhLjU2LjU2LDAsMCwwLC41Ny0uNTdWNi41N2EuMTQuMTQsMCwwLDAtLjI0LS4xWiIgZmlsbD0iIzAwNWJhMSIvPjxwYXRoIGQ9Ik00Ljc1LDMuNThDMi40LDMuNTguNSwyLjg5LjUsMlY3LjY3aDB2OS4yNmEuNTYuNTYsMCwwLDAsLjU3LjU3SDlWMkM5LDIuODksNy4xLDMuNTgsNC43NSwzLjU4WiIgZmlsbD0idXJsKCNmNzEwYTM2NC0wODNmLTQ5NGMtOWQ5Ni04OWI5MmVlMmQ1YTgpIi8+PHJlY3QgeD0iMTIuOTEiIHk9IjEyLjk3IiB3aWR0aD0iMi4yNyIgaGVpZ2h0PSIyLjI3IiByeD0iMC4yOCIgZmlsbD0iI2ZmZiIvPjxyZWN0IHg9IjguOTciIHk9IjEyLjk3IiB3aWR0aD0iMi4yNyIgaGVpZ2h0PSIyLjI3IiByeD0iMC4yOCIgZmlsbD0iI2ZmZiIvPjxyZWN0IHg9IjUuMDMiIHk9IjEyLjk3IiB3aWR0aD0iMi4yNyIgaGVpZ2h0PSIyLjI3IiByeD0iMC4yOCIgZmlsbD0iI2ZmZiIvPjxwYXRoIGQ9Ik05LDJjMCwuODUtMS45LDEuNTQtNC4yNSwxLjU0Uy41LDIuODkuNSwyLDIuNC41LDQuNzUuNSw5LDEuMTksOSwyIiBmaWxsPSIjZWFlYWVhIi8+PHBhdGggZD0iTTgsMS45MWMwLC41NS0xLjQ2LDEtMy4yNiwxcy0zLjI2LS40My0zLjI2LTFTMywuOTQsNC43NS45NCw4LDEuMzcsOCwxLjkxIiBmaWxsPSIjNTBlNmZmIi8+PHBhdGggZD0iTTQuNzUsMi4xNGE4LjA3LDguMDcsMCwwLDAtMi41OC4zNyw3LjY0LDcuNjQsMCwwLDAsMi41OC4zOCw3LjY0LDcuNjQsMCwwLDAsMi41OC0uMzhBOC4wNyw4LjA3LDAsMCwwLDQuNzUsMi4xNFoiIGZpbGw9IiMxOThhYjMiLz48L2c+PC9zdmc+;" vertex="1" parent="e54BE-5O06g-NBE3f2j7-47">
          <mxGeometry x="80" y="40" width="40" height="40" as="geometry" />
        </mxCell>
        <mxCell id="e54BE-5O06g-NBE3f2j7-51" value="" style="shape=image;verticalLabelPosition=bottom;labelBackgroundColor=default;verticalAlign=top;aspect=fixed;imageAspect=0;image=data:image/jpeg,/9j/4RoGRXhpZgAATU0AKgAAAAgADAEAAAMAAAABAQcAAAEBAAMAAAABAJwAAAECAAMAAAADAAAAngEGAAMAAAABAAIAAAESAAMAAAABAAEAAAEVAAMAAAABAAMAAAEaAAUAAAABAAAApAEbAAUAAAABAAAArAEoAAMAAAABAAIAAAExAAIAAAAiAAAAtAEyAAIAAAAUAAAA1odpAAQAAAABAAAA7AAAASQACAAIAAgACvyAAAAnEAAK/IAAACcQQWRvYmUgUGhvdG9zaG9wIENDIDIwMTcgKFdpbmRvd3MpADIwMTc6MDc6MTEgMTU6MTk6NDIAAAAABJAAAAcAAAAEMDIyMaABAAMAAAAB//8AAKACAAQAAAABAAABG6ADAAQAAAABAAABGwAAAAAAAAAGAQMAAwAAAAEABgAAARoABQAAAAEAAAFyARsABQAAAAEAAAF6ASgAAwAAAAEAAgAAAgEABAAAAAEAAAGCAgIABAAAAAEAABh8AAAAAAAAAEgAAAABAAAASAAAAAH/2P/tAAxBZG9iZV9DTQAC/+4ADkFkb2JlAGSAAAAAAf/bAIQADAgICAkIDAkJDBELCgsRFQ8MDA8VGBMTFRMTGBEMDAwMDAwRDAwMDAwMDAwMDAwMDAwMDAwMDAwMDAwMDAwMDAENCwsNDg0QDg4QFA4ODhQUDg4ODhQRDAwMDAwREQwMDAwMDBEMDAwMDAwMDAwMDAwMDAwMDAwMDAwMDAwMDAwM/8AAEQgAoACgAwEiAAIRAQMRAf/dAAQACv/EAT8AAAEFAQEBAQEBAAAAAAAAAAMAAQIEBQYHCAkKCwEAAQUBAQEBAQEAAAAAAAAAAQACAwQFBgcICQoLEAABBAEDAgQCBQcGCAUDDDMBAAIRAwQhEjEFQVFhEyJxgTIGFJGhsUIjJBVSwWIzNHKC0UMHJZJT8OHxY3M1FqKygyZEk1RkRcKjdDYX0lXiZfKzhMPTdePzRieUpIW0lcTU5PSltcXV5fVWZnaGlqa2xtbm9jdHV2d3h5ent8fX5/cRAAICAQIEBAMEBQYHBwYFNQEAAhEDITESBEFRYXEiEwUygZEUobFCI8FS0fAzJGLhcoKSQ1MVY3M08SUGFqKygwcmNcLSRJNUoxdkRVU2dGXi8rOEw9N14/NGlKSFtJXE1OT0pbXF1eX1VmZ2hpamtsbW5vYnN0dXZ3eHl6e3x//aAAwDAQACEQMRAD8A9VSSSSUpJJJJSkkkklKSSSSUpJJJJSkkkklKSSSSUpJJJJSkkkklKSSSSU//0PVUkkklKSSSSUpJJJJSkkkklKSSSSUpJJJJSkkkklKSSSSUpJJJJSkkkklP/9H1VJJJJSxIAk6AclR9an99v3hVesjEd0nMGaXNxDRZ9oLPpCvafU2c+7YvPfQ/xcf6fM+7/wBRKbDh9wE+vQ/oQ42HNlMCB6df35cD6Z61P77fvCQex07XAxzBleaeh/i5/wBNmfd/6iW59Vq/qk39ojpNmQ+ccfavVERX+k/m/Y33fTT58sIxJ/WafvY+Ef8ASWQ5gylXo/wZ8T1/rU/vt+8JetT++37wvMmUf4t9jYvzIgRp2j/ik/o/4uP9Pmfcf/SSf90H+t/8K/8AQkfej/q//DH0z1ajw9v3hSXmXof4uf8ATZn3f+olpdJ679Uejv3YefnmqCDjWS+ok/nCtzPY/wD4r002fKSr0jIT2lj4Ux5kX6jADwnxPdOexsbnATxJhN61P77fvC5b61X/AFWz8Hp2X1S677NdusxHUDncxpd6ntf+Yud9D/Fx/p8z7v8A1Ghj5biiCRk6/LDiGninJnMZUOD/AAp8J+x9LFlbjDXAnwBBUl5zgZP1A6bm05+Nk5jbsd25pIJEEFjw8en9DY/3L0Rj2PYHscHMcAWuGoIOrXBR5sRxkaSo/vx4F+LLxg/LY/dlxruexsbnATxJhN61X77fvC4z605n1Pzuo+h1XIyPWwQatlImsOdtss/Mf+k+gyxY/of4uP8AT5n3f+olJDlbiCRk119OPiH22xz5mpEDg07z4S+liytxhrgT4Agqa4b6rVfU1vWqz0m3Jdm+nZsbaIZtgepPsau5UWXH7cuH1bX648B+xlxT448Wm/6J4x9qkkklGyP/0vVUkkklMXsa9pY8BzXCHNcJBB7ELG67TZhYldnSulUZt7rQ19ZraIZteXWfm/nNY1bayPrLVdbhVtp6m3pLhcCb3ODQ4bX/AKHV9f0vp/8AW0/H84va+vFw/wDM9SzJ8p710q/+c5HTMjrWR1CinN+r9GPi2OItu2N9oDXOaef3w1q6irDxKd3o0117xDtjGtkeDtoXL9Iw86vqmM+z6yszmBx3YgeCbBsf7Q31X/R/nPo/mLrk/PXEKqq/Q46/8dW4b4dbu/0uC/8Axtx+s4/2TAdd0zplGXktc0NpNbdWk7Xn836LVi4eV163Mx6sj6u0VUWWNbdbsb7GE++zn81q3/rBXbZ017Ks9vTHl7IynHaB7h7N26v+c+h9Jc1+z+pf/PdX/nj/ANLp+HhMDxcN3vL3eL/xv0rMtiYoSrtH26/57137N6d/3Fp/7bb/AORXIjO+s3f6s44/sN/8kl9g6l/891f+eP8A0urHT+l5tubSy360HKZO52PRYBZYG+7YHC17ms/0u1v82jGEYAkyhP8AvDN/6AtlKUyAIyh5HF/6G73TKXZfTMZ3UsKmi8NJONtBbXJO1rA7ds9m3esfrNvVcXqD6endBoy8UMaW3FjdXGd7fzfoLqFzHXsTMt6m99P1iZ01hYyMRzwC3n9Jt9Vn85/VUeIgzN8IGpqXHw/+N+tkygiAq701jwcX/P8AS0Pt31l4/wCbOPH9Rv8A5JdJ0rOz7OkG/MwXY2VQHj7IwAbgzWoY/u/wjNjP+MXPDpnUXYz7W/WsH07ALLfUBra1whjH/pvba6z6CevG6izHuo/51UP9Ys/SueC9mwl0Uu9f2+t9G1SzjCQocAo9Bm/7pjhKUTZ4zY6nF/3LA9R+tDyX2fVqgvf7nksBJJ5klylVmfWJ11bbPq1jtY57WvdsGjS4Ne76X5rUqul9SdXfZ/zrD21M1e2wbWOcQ2p9x9b+b+mo04HUBfU4/W2uwCxh9P1B7hub+j/n/wDCfQTvRr/N/ZzC312Pn+3C9hXhYdT/AFKqK63jQOaxoOv8poR0ydUm5SkkkklP/9P1VJJJJSlg/XC7otPTaXdZx7MnHN7QxlRgizZZtcf0lPt2ep+ctbOOW3DvdhNa/LFbjjtf9E2QfTDtW+3euZ+1/wCMeP6Fife3/wB6FLhj6hLijHhPWfty+jFml6THhJ4h0j7kfq0OgZn1Ls61iM6f0/JpzHPd6FtjiWtOx+7d+sWf4Pf+Yu8XJ/a/8Y3/AHCxPvb/AO9C0OkX/W1/2r9rY9FW2sHF9Mj3We72vi2z2/QUmePEeLijoKo5Pdkx4JcI4eGWpv8Am/bil+tVvS6uj2P6tS/IxN9YdXUYcXFw9Mzvq+i/+WuRw7fqDmZdGJX0zKa/JsbUxznu2hzjA3bcpztq2G5f+MjaN2FiboEiW8/+xKf7X/jG/wC4WJ97f/ehSY7hAx4433jm4B/irMlTkJcEqHfFxf8AObv/ADF+q/8A3EP/AG7b/wClFytXU/qFXYy6npuZXbW4Pre2whzXNPtc0/avat37X/jG/wC4WJ97f/ehMcv/ABjx/QsQ+Ut/96UoSmL48onf+u4VTEDXBjMK/wBTxPRdK6lR1Tp9PUMYObVeC5rXgBwgljg7aXN+k1cp9aMr6oVdZsZ1XByMjMFde+2pxDdpDvTb/P1fR/qLZ6hb9bq8HBODTj3Zrmk54dAY120GKt1rPz/b9JUPtX+Mb/uFife3/wB6VHhjwyMxKIGoEfc9uX+MvyyJiImMidDxe37kf8VX1bo+q3VcHqGJgYNtWNYa25Vdzj7zBfV6bhdbs2R+9WsH7b9QASHdJzGuBIc0vIIIO1wd+trtOg2/WKxt/wC3KKqXAt+z+kQZEH1N22y385VOqW/XRvUn19Mpxn4Liz07rI3NBht3qN9Zjn+m7c/2sT45CMkxxb1L+dIjt+/+mtljvHA1tp/NXL/E/QalVH1Yxvqlk9QbgXV9NzAyy+guPrPa17a6Xbjd7W/4Rn6b6CxMfO+oJyaRX0vKFptrFZLzAfvb6bv6UfovXd9Vf1JnT7ndLYy3OAHossgNJ3N37pdX+Zu/PXP/AGv/ABjf9wsT72/+9CWLISJkyrikfmy8H/oysuMAwAjfCBti4/8A0V6xOue6RkfXN+exvVsairCLXb31kbg7T0+LrP8AqFr43VMDLtNWPc2x4BcAJ9zQdjrKifbdW1/t9Sr2KrOHCasS8YniDZhLiF0Y/wB4cJbSSSSauf/U9VSSTSkpBn4zsvDvxW2Gl19bqxa36TC4bfUb9H3MXM/8xcqP+W8v/pf+lU31w+vA6PYen4DW258A2PfqyoO1buaPp3Ob7ti4V31t+tNzi/8AaF5PfZAH+ZW1rGpv3z2iYxN96AP/AEm9h+CZeZgMsuHHH9AzlKPEPKL3f/MXK/8ALvK/6X/pVaPR/q1d0z7Vv6jflfaaxW31CfZG79IyXv8Ad71z/wBS/rpY8PwOu2kOaHWUZl2gLQN9lV9n0W7W++qx/wDxf+j3x6l/jSYy51fS8P1ammBfeS3d/Upb7mt/4x//AFtOPOmULlPQ9KFsQ+C5hmljhjMpQ/TEv1fDLrxSk6LfqHlNaG/tvKMACfd2/wCup/8AmLlf+XeX97v/AEqqXR/8Z+Nfa2nquP8AZQ8wMiolzBP+lrd762f8I31F2l+Vj4+O/KvsbXRW3e+0n2hoE7pT485OQuMwf8GP8Gvn+GywTEMuIxlL5fVKXF/dMZPMf8xcrv1vLj4u/wDSq1ek/VvF6ZYLzkZOXkAECzItc4Nn6Xp0z6Tf62z1FzOd/jUoZc5mBguuqBgW3P2F3wqa1+1v9Z6vfVn6/wBPWM/7Bl0Nw7bB+ruD9zXuH0qjLW7bP9H++mHnOP0Gd32HD+LP/ofmMUDlOEiMRxG5cUgP7nE7PX+hW9XbQK823B9AuJNU+/cNsO2vr+isn/mJlf8Al3l/e7/0qq31h/xg5HSOsZPTWYTLhj7IsdYWk7mMt1aGO/0i6fonWMbrPTqs/GMNsEPrmSx4+nU/+r/1H6ROx81IeiMvl6UP+6Ys/wAOnGEc+XGeDIBwy4v3h6fkl6Wv0HodvR23izNtzvXLSDbPs2gj27nP+lKuX4DL87FzC97XYnqba2uIY71Ghn6Vn5+z/BrnPrX9d7+gdSZhV4jMgPpbdvc8tMudYzbAa7/RrQ6h9bcHpnRMTqeaItzKmWVY1ZlznOa2x7Wudt/RVb/fa7/q0w5wZSJl6h82lf1V45DMIYiMZMcp/VUeIy/S/vOl1bAd1Hp92Ey9+K64AC+v6TYc1/t1b9LbtXO/8xcr/wAu8v73f+lVTH176rUa8vqWPR07Csh9eO/fbl2s939HpDqNrXbP6Xksox/3PXWt9Wvrt0/r1hxthxM0AubQ924PaP8AQ2wze9rfc+vYnY+aMfTGVXrRH/fKzfDMvCck8fFGGkpQlxRj/iH/ABldN+qNuFl+vd1PIy6jW+p1Dy4AiwbN0+o76KtdN+rzsPLZkWXCz0gdu1pBc4j0xY/c5zadtTtv2fG9PHst/WP5xZv1n+vlHRMz7Bj0fa8loBuJdsYzd7ms4c59mz3LKw/8aZflVtzMJtWM4xbYx5e5oP8AhNm0b9v56Zk5mMpeuXq22/71kw/CuZOITx4j7ZHGPUOKX+DKXG+gpKFVtd1bLanNsrsAcx7SC1zSNzXtcPpNc1TTmq//1fVVFxDQXHgCT8lJRcCQQDBI5SU+GUi7rXWmNtfF3UckB7/A2v8Acf7G5e24eHi4GNXi4lbaaKhtYxo0A8/3nfvPcvI+m/WnrmP1PFOd1DJOPTez7Sx73H2B0XNsafpexexNLXAOaZaRII1BB7qvywHqO5vq7PxuWS8MSBHGInhEJcUP+jB4r/Gj1Kynp2L09joGW9z7Y7sq2wx38n1bGP8A+tKt/i8+rPTcrp7+qZ9DMqyyx1dDLQHsaxmjnem72eo+z/qFa/xk5nVsCrAycDJtxqnOsqu9JxaC4hj6d23+Sy5Wf8XvXndS6dZi5eQbs/Hsc4+o6Xuqd7mWe76TWP31/wDBpaHPr20BQDlh8JBxDhBn+snCXr+b9IcPp/Q/Sed/xi/V3B6ZZjZ+BU3HqyS6q6lghgeBvY+tn5m9m/fs/cWNm/WTJyfq1hdGNjiMex/qjX3Vt2fY2F35zK91v6P/AIKhdf8A4xfrFdhnFwenZbqcsONmR6Loc1sba2W7f9Ju37f5C5e3qn1rq6Tj9Vd1HK9DJuspad7o/Rhhad3/AAjvXb/1hR5aE58JrT1UG9yJnPluWOaMZETPsyyTMZmXr4P0J/4L1H1C+q3SLujV9TzcevLvyXP2i5u9rGNc6na2t/s3O9PfvXTt+rvQGOD2dNxWuYQ5rm0sBBB3Nc1zW+1Zn1F62zqfRKa7sn1+oUF7cgWOmw+5zq36+57PSLP0i57/ABjdW6rg9boqw8y/GrditcWVWOY0uNlzd21h+l7WqYGEMQlV7OZLFzPM89lxGZxy4p/MZcIhH5Yx/quF9e9frd1ADUzVp/1mlP8AVP6xW/V3qrmZO5uJcfTzKiDLC07fW2fS9Wh302/6P/raPl9W+tOR1KrD6fmZdr3Y2K/ZW8/nY+O+217vosb6lm+22z2fvrqPrpZm9HsHV6Lsq7HuLWfZW2mvGrsDTttv9ItvfVdDP0FXo1+r6nrX/pvSUIj6pZASOGXZ0pZh7ODlMkIZPdxCMQJ+rigI8HzQ/V8X6Dj/AF+wLOo9apzKX1swfsdZOdY7bRBdfa3ZYN32ix7PdXTjMuus/wBGsvqX1gxvtdA6Sz18nHqpxaM/IaCGCoNY12BiP3Mx/Us/S+tk+vk/pf8AAK1d9buoNx8Budbc+u+l1zrcZ/oX1u9fIpcaCweg+ttFbWfZr6fT/wCEqUM7L+teJuyMXqt+djUiu20scRZWx7W5Nf2zFO59TH0n+e/S4n/D/mJSIJJjetGWmqMEJxjjx5YxrGJQxcU+DHP1cEuI8EuKX9SfA99T9UuhNxPQysWvMteP0+VeN99jyPfa7JfNzXu/kWez8xeW9Uot+rf1ktrxnndgXtsocTrt9t1TbP3v0Ttlq9iw+oYebhV5+Pa12NYzeLJEAfnb/wBx1f8AhP3F5Z9YvrZ1S/rWY7pnULq8Mv2UBlhayGhtW9n5uyx7fUUnMCAjEjQ3pTV+ET5iWXNCQM48JE45CYxEr/uy/rNH61491PXsu2yTXlvOVjvIMPqt/SVFv9Vv6L+wuu+r/XPqR1JjKM3puFgZkBpbZSz0nEd6r3M9v9S7/wAFXSHqfQrcBuLkdWoLxW1j7mZTWWbgBue26uxljXb2rhfrLbn9L229N+sr+oY1rtgqGTvuboXTZ6Tiyyv2/wA7+j/4tNMfbJmCJA7hkhl++Qhy8oSxZIenHkEpwjL/AMb4f8Z9OxsbHxaW4+NW2mlk7K6wGtEnd7WN9v0iiLif8W3XOo9QrzMPOufkjH2PqtsJc+LN++t9jvc9vs/R7l2wViEhKIkOrj81gngzTxTIlKP6Q/S4vVb/AP/W9VTFOkkp82+uv1JzRmW9V6VU7IpvJsvoYJex5+nZWz6VtdjvftZ72f8AFrnsT60fWXpdQxKMu2iuvRlVjQ7aONrRkMe5jW/uL2lJQSwXIyjIwvs6mH4sRijiz4YcxGHy8e//ADozfJOmdY6t9ZOo0dF6tmPuw8txD2htbXBzWvsqsY8V+3Za1rv5f82o5/1D+s2BefQoOXW0nZkY7hJH/FFzbq3fv/8Anxeup0vu4I9UjI/vJ/0xOE7w4YYsZFSw/NAy/f8ATHH6nybpH+L3rude051f2DGJmyywg2Ed/SpaXO9T/jvT/tr0XK+r3S8now6K+rbhtYGVhujmFv0LWP8A9Nu92/8Awn+FWoknwxRgCBre9tbmfiGfmJxlI8Htm8cYekQl+9/efKM3/Fv9YsfIjEFeZUDLLmvbW6P5ddzm7H/1H2JY31C669jsjqVNpDTtZjUvqddYfzf01tn2fGo/4V/qv/7rL1dJN+7wvr5Wz/6a5oxo8F7cfDU3zTrf1f8ArdlH7NhdP+z9PdTjtfRXZVLyyqtuzLvdY27MdjP/AEDHW/ov0W+ti9B6hgY3UcK7Bym7qMhpY8aSP3Xt599bvez+WrSSfGAF6k8XdqZeankGMcMYezZjKGkjI8PqnL970PlXVPqR9ZS3EooxPXGLS+p1rbK2h36fJtY5rbLGu/SU2VWLpeo/VDLy+n9Ny8G44HXMHFqpLg4gODWBr6X21btrmO3/AKRv85/NWez+b7BJNGGIvfX9jNP4nzEhD5R7Zkdvn9z545BL5oyfLrPqt1nPc6nqHTX4eVY7XMxfTOPY72tFmbh1WbGfvPycTZ/4UtV/oX+L3LxG3ZvUCyzJrrsGJisIcPULXMrste/2f8Uz/rn8hehJJDBC7OvmmXxTmDA441CMtxH/AKMeL5YvjQ+ov1sgf5Od/wBuU/8ApZEp+oH1rseGnCFQPL321QPjsse5ewpJv3WHcs5+O81+7j/xZf8AfOF9U/q1X9XsB1ReLcvIIfk2jRsgQyqr870qvd9P+v8A8GtwJ0lNECIAGwczLknlnLJM8U5G5F//1/VUkkklKSSSSUpJJJJSkkkklKSSSSUpJJJJSkkkklKSSSSUpJJJJSkkkklP/9D1VJJJJSkkkklKSSSSUpJJJJSkkkklKSSSSUpJJJJSkkkklKSSSSUpJJJJT//Z/+0iIFBob3Rvc2hvcCAzLjAAOEJJTQQEAAAAAAAHHAIAAAIAAAA4QklNBCUAAAAAABDo8VzzL8EYoaJ7Z63FZNW6OEJJTQQ6AAAAAAFtAAAAEAAAAAEAAAAAAAtwcmludE91dHB1dAAAAAYAAAAJaGFyZFByb29mYm9vbAEAAAAAUHN0U2Jvb2wBAAAAAEludGVlbnVtAAAAAEludGUAAAAAQ2xybQAAAA9wcmludFNpeHRlZW5CaXRib29sAAAAAAtwcmludGVyTmFtZVRFWFQAAAA2AFwAXABiAHIAYQBpAG4AYQBwAHAALgBiAHIAYQBpAG4AYwBvAHUAcgB0AC4AZABlAFwAUwBhAG0AcwB1AG4AZwAgAEMATABYAC0AOQAyAHgAMQAgADkAMwB4ADEAIABTAGUAcgBpAGUAcwAAAAAAD3ByaW50UHJvb2ZTZXR1cE9iamMAAAASAFAAcgBvAG8AZgAtAEUAaQBuAHMAdABlAGwAbAB1AG4AZwAAAAAACnByb29mU2V0dXAAAAABAAAAAEJsdG5lbnVtAAAADGJ1aWx0aW5Qcm9vZgAAAAlwcm9vZkNNWUsAOEJJTQQ7AAAAAAItAAAAEAAAAAEAAAAAABJwcmludE91dHB1dE9wdGlvbnMAAAAXAAAAAENwdG5ib29sAAAAAABDbGJyYm9vbAAAAAAAUmdzTWJvb2wAAAAAAENybkNib29sAAAAAABDbnRDYm9vbAAAAAAATGJsc2Jvb2wAAAAAAE5ndHZib29sAAAAAABFbWxEYm9vbAAAAAAASW50cmJvb2wAAAAAAEJja2dPYmpjAAAAAQAAAAAAAFJHQkMAAAADAAAAAFJkICBkb3ViQG/gAAAAAAAAAAAAR3JuIGRvdWJAb+AAAAAAAAAAAABCbCAgZG91YkBv4AAAAAAAAAAAAEJyZFRVbnRGI1JsdAAAAAAAAAAAAAAAAEJsZCBVbnRGI1JsdAAAAAAAAAAAAAAAAFJzbHRVbnRGI1B4bEBSAAAAAAAAAAAACnZlY3RvckRhdGFib29sAQAAAABQZ1BzZW51bQAAAABQZ1BzAAAAAFBnUEMAAAAATGVmdFVudEYjUmx0AAAAAAAAAAAAAAAAVG9wIFVudEYjUmx0AAAAAAAAAAAAAAAAU2NsIFVudEYjUHJjQFkAAAAAAAAAAAAQY3JvcFdoZW5QcmludGluZ2Jvb2wAAAAADmNyb3BSZWN0Qm90dG9tbG9uZwAAAAAAAAAMY3JvcFJlY3RMZWZ0bG9uZwAAAAAAAAANY3JvcFJlY3RSaWdodGxvbmcAAAAAAAAAC2Nyb3BSZWN0VG9wbG9uZwAAAAAAOEJJTQPtAAAAAAAQAEgAAAABAAIASAAAAAEAAjhCSU0EJgAAAAAADgAAAAAAAAAAAAA/gAAAOEJJTQQNAAAAAAAEAAAAHjhCSU0EGQAAAAAABAAAAB44QklNA/MAAAAAAAkAAAAAAAAAAAEAOEJJTScQAAAAAAAKAAEAAAAAAAAAAjhCSU0D9QAAAAAASAAvZmYAAQBsZmYABgAAAAAAAQAvZmYAAQChmZoABgAAAAAAAQAyAAAAAQBaAAAABgAAAAAAAQA1AAAAAQAtAAAABgAAAAAAAThCSU0D+AAAAAAAcAAA/////////////////////////////wPoAAAAAP////////////////////////////8D6AAAAAD/////////////////////////////A+gAAAAA/////////////////////////////wPoAAA4QklNBAgAAAAAABAAAAABAAACQAAAAkAAAAAAOEJJTQQeAAAAAAAEAAAAADhCSU0EGgAAAAADSQAAAAYAAAAAAAAAAAAAARsAAAEbAAAACgBJAEIATQAgAEMAbwBnAG4AbwBzAAAAAQAAAAAAAAAAAAAAAAAAAAAAAAABAAAAAAAAAAAAAAEbAAABGwAAAAAAAAAAAAAAAAAAAAABAAAAAAAAAAAAAAAAAAAAAAAAABAAAAABAAAAAAAAbnVsbAAAAAIAAAAGYm91bmRzT2JqYwAAAAEAAAAAAABSY3QxAAAABAAAAABUb3AgbG9uZwAAAAAAAAAATGVmdGxvbmcAAAAAAAAAAEJ0b21sb25nAAABGwAAAABSZ2h0bG9uZwAAARsAAAAGc2xpY2VzVmxMcwAAAAFPYmpjAAAAAQAAAAAABXNsaWNlAAAAEgAAAAdzbGljZUlEbG9uZwAAAAAAAAAHZ3JvdXBJRGxvbmcAAAAAAAAABm9yaWdpbmVudW0AAAAMRVNsaWNlT3JpZ2luAAAADWF1dG9HZW5lcmF0ZWQAAAAAVHlwZWVudW0AAAAKRVNsaWNlVHlwZQAAAABJbWcgAAAABmJvdW5kc09iamMAAAABAAAAAAAAUmN0MQAAAAQAAAAAVG9wIGxvbmcAAAAAAAAAAExlZnRsb25nAAAAAAAAAABCdG9tbG9uZwAAARsAAAAAUmdodGxvbmcAAAEbAAAAA3VybFRFWFQAAAABAAAAAAAAbnVsbFRFWFQAAAABAAAAAAAATXNnZVRFWFQAAAABAAAAAAAGYWx0VGFnVEVYVAAAAAEAAAAAAA5jZWxsVGV4dElzSFRNTGJvb2wBAAAACGNlbGxUZXh0VEVYVAAAAAEAAAAAAAlob3J6QWxpZ25lbnVtAAAAD0VTbGljZUhvcnpBbGlnbgAAAAdkZWZhdWx0AAAACXZlcnRBbGlnbmVudW0AAAAPRVNsaWNlVmVydEFsaWduAAAAB2RlZmF1bHQAAAALYmdDb2xvclR5cGVlbnVtAAAAEUVTbGljZUJHQ29sb3JUeXBlAAAAAE5vbmUAAAAJdG9wT3V0c2V0bG9uZwAAAAAAAAAKbGVmdE91dHNldGxvbmcAAAAAAAAADGJvdHRvbU91dHNldGxvbmcAAAAAAAAAC3JpZ2h0T3V0c2V0bG9uZwAAAAAAOEJJTQQoAAAAAAAMAAAAAj/wAAAAAAAAOEJJTQQRAAAAAAABAQA4QklNBBQAAAAAAAQAAAABOEJJTQQMAAAAABiYAAAAAQAAAKAAAACgAAAB4AABLAAAABh8ABgAAf/Y/+0ADEFkb2JlX0NNAAL/7gAOQWRvYmUAZIAAAAAB/9sAhAAMCAgICQgMCQkMEQsKCxEVDwwMDxUYExMVExMYEQwMDAwMDBEMDAwMDAwMDAwMDAwMDAwMDAwMDAwMDAwMDAwMAQ0LCw0ODRAODhAUDg4OFBQODg4OFBEMDAwMDBERDAwMDAwMEQwMDAwMDAwMDAwMDAwMDAwMDAwMDAwMDAwMDAz/wAARCACgAKADASIAAhEBAxEB/90ABAAK/8QBPwAAAQUBAQEBAQEAAAAAAAAAAwABAgQFBgcICQoLAQABBQEBAQEBAQAAAAAAAAABAAIDBAUGBwgJCgsQAAEEAQMCBAIFBwYIBQMMMwEAAhEDBCESMQVBUWETInGBMgYUkaGxQiMkFVLBYjM0coLRQwclklPw4fFjczUWorKDJkSTVGRFwqN0NhfSVeJl8rOEw9N14/NGJ5SkhbSVxNTk9KW1xdXl9VZmdoaWprbG1ub2N0dXZ3eHl6e3x9fn9xEAAgIBAgQEAwQFBgcHBgU1AQACEQMhMRIEQVFhcSITBTKBkRShsUIjwVLR8DMkYuFygpJDUxVjczTxJQYWorKDByY1wtJEk1SjF2RFVTZ0ZeLys4TD03Xj80aUpIW0lcTU5PSltcXV5fVWZnaGlqa2xtbm9ic3R1dnd4eXp7fH/9oADAMBAAIRAxEAPwD1VJJJJSkkkklKSSSSUpJJJJSkkkklKSSSSUpJJJJSkkkklKSSSSUpJJJJT//Q9VSSSSUpJJJJSkkkklKSSSSUpJJJJSkkkklKSSSSUpJJJJSkkkklKSSSSU//0fVUkkklLEgCToByVH1qf32/eFV6yMR3ScwZpc3ENFn2gs+kK9p9TZz7ti899D/Fx/p8z7v/AFEpsOH3AT69D+hDjYc2UwIHp1/flwPpnrU/vt+8JB7HTtcDHMGV5p6H+Ln/AE2Z93/qJbn1Wr+qTf2iOk2ZD5xx9q9URFf6T+b9jfd9NPnywjEn9Zp+9j4R/wBJZDmDKVej/BnxPX+tT++37wl61P77fvC8yZR/i32Ni/MiBGnaP+KT+j/i4/0+Z9x/9JJ/3Qf63/wr/wBCR96P+r/8MfTPVqPD2/eFJeZeh/i5/wBNmfd/6iWl0nrv1R6O/dh5+eaoIONZL6iT+cK3M9j/APivTTZ8pKvSMhPaWPhTHmRfqMAPCfE9057GxucBPEmE3rU/vt+8LlvrVf8AVbPwenZfVLrvs126zEdQOdzGl3qe1/5i530P8XH+nzPu/wDUaGPluKIJGTr8sOIaeKcmcxlQ4P8ACnwn7H0sWVuMNcCfAEFSXnOBk/UDpubTn42TmNux3bmkgkQQWPDx6f0Nj/cvRGPY9gexwcxwBa4agg6tcFHmxHGRpKj+/HgX4svGD8tj92XGu57GxucBPEmE3rVfvt+8LjPrTmfU/O6j6HVcjI9bBBq2Uiaw522yz8x/6T6DLFj+h/i4/wBPmfd/6iUkOVuIJGTXX04+IfbbHPmakQODTvPhL6WLK3GGuBPgCCprhvqtV9TW9arPSbcl2b6dmxtohm2B6k+xq7lRZcfty4fVtfrjwH7GXFPjjxab/onjH2qSSSUbI//S9VSSSSUxexr2ljwHNcIc1wkEHsQsbrtNmFiV2dK6VRm3utDX1mtohm15dZ+b+c1jVtrI+stV1uFW2nqbekuFwJvc4NDhtf8AodX1/S+n/wBbT8fzi9r68XD/AMz1LMnynvXSr/5zkdMyOtZHUKKc36v0Y+LY4i27Y32gNc5p5/fDWrqKsPEp3ejTXXvEO2Ma2R4O2hcv0jDzq+qYz7PrKzOYHHdiB4JsGx/tDfVf9H+c+j+YuuT89cQqqr9Djr/x1bhvh1u7/S4L/wDG3H6zj/ZMB13TOmUZeS1zQ2k1t1aTtefzfotWLh5XXrczHqyPq7RVRZY1t1uxvsYT77OfzWrf+sFdtnTXsqz29MeXsjKcdoHuHs3bq/5z6H0lzX7P6l/891f+eP8A0un4eEwPFw3e8vd4v/G/Ssy2JihKu0fbr/nvXfs3p3/cWn/ttv8A5FciM76zd/qzjj+w3/ySX2DqX/z3V/54/wDS6sdP6Xm25tLLfrQcpk7nY9FgFlgb7tgcLXuaz/S7W/zaMYRgCTKE/wC8M3/oC2UpTIAjKHkcX/obvdMpdl9MxndSwqaLw0k420Ftck7WsDt2z2bd6x+s29VxeoPp6d0GjLxQxpbcWN1cZ3t/N+guoXMdexMy3qb30/WJnTWFjIxHPALef0m31Wfzn9VR4iDM3wgampcfD/4362TKCICrvTWPBxf8/wBLQ+3fWXj/AJs48f1G/wDkl0nSs7Ps6Qb8zBdjZVAePsjABuDNahj+7/CM2M/4xc8OmdRdjPtb9awfTsAst9QGtrXCGMf+m9trrPoJ68bqLMe6j/nVQ/1iz9K54L2bCXRS71/b630bVLOMJChwCj0Gb/umOEpRNnjNjqcX/csD1H60PJfZ9WqC9/ueSwEknmSXKVWZ9YnXVts+rWO1jnta92waNLg17vpfmtSq6X1J1d9n/OsPbUzV7bBtY5xDan3H1v5v6ajTgdQF9Tj9ba7ALGH0/UHuG5v6P+f/AMJ9BO9Gv839nMLfXY+f7cL2FeFh1P8AUqorreNA5rGg6/ymhHTJ1SblKSSSSU//0/VUkkklKWD9cLui09Npd1nHsycc3tDGVGCLNlm1x/SU+3Z6n5y1s45bcO92E1r8sVuOO1/0TZB9MO1b7d65n7X/AIx4/oWJ97f/AHoUuGPqEuKMeE9Z+3L6MWaXpMeEniHSPuR+rQ6BmfUuzrWIzp/T8mnMc93oW2OJa07H7t36xZ/g9/5i7xcn9r/xjf8AcLE+9v8A70LQ6Rf9bX/av2tj0VbawcX0yPdZ7va+LbPb9BSZ48R4uKOgqjk92THglwjh4Zam/wCb9uKX61W9Lq6PY/q1L8jE31h1dRhxcXD0zO+r6L/5a5HDt+oOZl0YlfTMpr8mxtTHOe7aHOMDdtynO2rYbl/4yNo3YWJugSJbz/7Ep/tf+Mb/ALhYn3t/96FJjuEDHjjfeObgH+KsyVOQlwSod8XF/wA5u/8AMX6r/wDcQ/8Abtv/AKUXK1dT+oVdjLqem5ldtbg+t7bCHNc0+1zT9q9q3ftf+Mb/ALhYn3t/96Exy/8AGPH9CxD5S3/3pShKYvjyid/67hVMQNcGMwr/AFPE9F0rqVHVOn09Qxg5tV4LmteAHCCWODtpc36TVyn1oyvqhV1mxnVcHIyMwV177anEN2kO9Nv8/V9H+otnqFv1urwcE4NOPdmuaTnh0BjXbQYq3Ws/P9v0lQ+1f4xv+4WJ97f/AHpUeGPDIzEogagR9z25f4y/LImIiYyJ0PF7fuR/xVfVuj6rdVweoYmBg21Y1hrblV3OPvMF9XpuF1uzZH71awftv1ABId0nMa4EhzS8ggg7XB362u06Db9YrG3/ALcoqpcC37P6RBkQfU3bbLfzlU6pb9dG9SfX0ynGfguLPTusjc0GG3eo31mOf6btz/axPjkIyTHFvUv50iO37/6a2WO8cDW2n81cv8T9BqVUfVjG+qWT1BuBdX03MDLL6C4+s9rXtrpduN3tb/hGfpvoLEx876gnJpFfS8oWm2sVkvMB+9vpu/pR+i9d31V/UmdPud0tjLc4AeiyyA0nc3ful1f5m789c/8Aa/8AGN/3CxPvb/70JYshImTKuKR+bLwf+jKy4wDACN8IG2Lj/wDRXrE657pGR9c357G9WxqKsItdvfWRuDtPT4us/wCoWvjdUwMu01Y9zbHgFwAn3NB2OsqJ9t1bX+31KvYqs4cJqxLxieINmEuIXRj/AHhwltJJJJq5/9T1VJJNKSkGfjOy8O/FbYaXX1urFrfpMLht9Rv0fcxcz/zFyo/5by/+l/6VTfXD68Do9h6fgNbbnwDY9+rKg7Vu5o+nc5vu2LhXfW3603OL/wBoXk99kAf5lbWsam/fPaJjE33oA/8ASb2H4Jl5mAyy4ccf0DOUo8Q8ovd/8xcr/wAu8r/pf+lVo9H+rV3TPtW/qN+V9prFbfUJ9kbv0jJe/wB3vXP/AFL+uljw/A67aQ5odZRmXaAtA32VX2fRbtb76rH/APF/6PfHqX+NJjLnV9Lw/VqaYF95Ld39Slvua3/jH/8AW0486ZQuU9D0oWxD4LmGaWOGMylD9MS/V8MuvFKTot+oeU1ob+28owAJ93b/AK6n/wCYuV/5d5f3u/8ASqpdH/xn419raeq4/wBlDzAyKiXME/6Wt3vrZ/wjfUXaX5WPj478q+xtdFbd77SfaGgTulPjzk5C4zB/wY/wa+f4bLBMQy4jGUvl9UpcX90xk8x/zFyu/W8uPi7/ANKrV6T9W8XplgvORk5eQAQLMi1zg2fpenTPpN/rbPUXM53+NShlzmYGC66oGBbc/YXfCprX7W/1nq99Wfr/AE9Yz/sGXQ3DtsH6u4P3Ne4fSqMtbts/0f76Yec4/QZ3fYcP4s/+h+YxQOU4SIxHEblxSA/ucTs9f6Fb1dtArzbcH0C4k1T79w2w7a+v6Kyf+YmV/wCXeX97v/SqrfWH/GDkdI6xk9NZhMuGPsix1haTuYy3VoY7/SLp+idYxus9Oqz8Yw2wQ+uZLHj6dT/6v/UfpE7HzUh6Iy+XpQ/7piz/AA6cYRz5cZ4MgHDLi/eHp+SXpa/Qeh29HbeLM23O9ctINs+zaCPbuc/6Uq5fgMvzsXML3tdieptra4hjvUaGfpWfn7P8Guc+tf13v6B1JmFXiMyA+lt29zy0y51jNsBrv9GtDqH1twemdExOp5oi3MqZZVjVmXOc5rbHta5239FVv99rv+rTDnBlImXqHzaV/VXjkMwhiIxkxyn9VR4jL9L+86XVsB3Uen3YTL34rrgAL6/pNhzX+3Vv0tu1c7/zFyv/AC7y/vd/6VVMfXvqtRry+pY9HTsKyH14799uXaz3f0ekOo2tds/peSyjH/c9da31a+u3T+vWHG2HEzQC5tD3bg9o/wBDbDN72t9z69idj5ox9MZVetEf98rN8My8JyTx8UYaSlCXFGP+If8AGV036o24WX693U8jLqNb6nUPLgCLBs3T6jvoq1036vOw8tmRZcLPSB27WkFziPTFj9znNp21O2/Z8b08ey39Y/nFm/Wf6+UdEzPsGPR9ryWgG4l2xjN3uazhzn2bPcsrD/xpl+VW3Mwm1YzjFtjHl7mg/wCE2bRv2/npmTmYyl65erbb/vWTD8K5k4hPHiPtkcY9Q4pf4Mpcb6CkoVW13Vstqc2yuwBzHtILXNI3Ne1w+k1zVNOar//V9VUXENBceAJPyUlFwJBAMEjlJT4ZSLutdaY218XdRyQHv8Da/wBx/sbl7bh4eLgY1eLiVtpoqG1jGjQDz/ed+89y8j6b9aeuY/U8U53UMk49N7PtLHvcfYHRc2xp+l7F7E0tcA5plpEgjUEHuq/LAeo7m+rs/G5ZLwxIEcYieEQlxQ/6MHiv8aPUrKenYvT2OgZb3PtjuyrbDHfyfVsY/wD60q3+Lz6s9Nyunv6pn0MyrLLHV0MtAexrGaOd6bvZ6j7P+oVr/GTmdWwKsDJwMm3Gqc6yq70nFoLiGPp3bf5LLlZ/xe9ed1Lp1mLl5Buz8exzj6jpe6p3uZZ7vpNY/fX/AMGloc+vbQFAOWHwkHEOEGf6ycJev5v0hw+n9D9J53/GL9XcHplmNn4FTcerJLqrqWCGB4G9j62fmb2b9+z9xY2b9ZMnJ+rWF0Y2OIx7H+qNfdW3Z9jYXfnMr3W/o/8AgqF1/wDjF+sV2GcXB6dlupyw42ZHouhzWxtrZbt/0m7ft/kLl7eqfWurpOP1V3Ucr0Mm6ylp3uj9GGFp3f8ACO9dv/WFHloTnwmtPVQb3Imc+W5Y5oxkRM+zLJMxmZevg/Qn/gvUfUL6rdIu6NX1PNx68u/Jc/aLm72sY1zqdra3+zc709+9dO36u9AY4PZ03Fa5hDmubSwEEHc1zXNb7VmfUXrbOp9EpruyfX6hQXtyBY6bD7nOrfr7ns9Is/SLnv8AGN1bquD1uirDzL8at2K1xZVY5jS42XN3bWH6XtapgYQxCVXs5ksXM8zz2XEZnHLin8xlwiEfljH+q4X171+t3UANTNWn/WaU/wBU/rFb9XequZk7m4lx9PMqIMsLTt9bZ9L1aHfTb/o/+to+X1b605HUqsPp+Zl2vdjYr9lbz+dj477bXu+ixvqWb7bbPZ++uo+ulmb0ewdXouyrse4tZ9lbaa8auwNO22/0i299V0M/QVejX6vqetf+m9JQiPqlkBI4ZdnSlmHs4OUyQhk93EIxAn6uKAjwfND9XxfoOP8AX7As6j1qnMpfWzB+x1k51jttEF19rdlg3faLHs91dOMy66z/AEay+pfWDG+10DpLPXyceqnFoz8hoIYKg1jXYGI/czH9Sz9L62T6+T+l/wAArV31u6g3HwG51tz676XXOtxn+hfW718ilxoLB6D620VtZ9mvp9P/AISpQzsv614m7Ixeq352NSK7bSxxFlbHtbk1/bMU7n1MfSf579Lif8P+YlIgkmN60ZaaowQnGOPHljGsYlDFxT4Mc/VwS4jwS4pf1J8D31P1S6E3E9DKxa8y14/T5V4332PI99rsl83Ne7+RZ7PzF5b1Si36t/WS2vGed2Be2yhxOu323VNs/e/RO2Wr2LD6hh5uFXn49rXY1jN4skQB+dv/AHHV/wCE/cXln1i+tnVL+tZjumdQurwy/ZQGWFrIaG1b2fm7LHt9RScwICMSNDelNX4RPmJZc0JAzjwkTjkJjESv+7L+s0frXj3U9ey7bJNeW85WO8gw+q39JUW/1W/ov7C676v9c+pHUmMozem4WBmQGltlLPScR3qvcz2/1Lv/AAVdIep9CtwG4uR1agvFbWPuZlNZZuAG57bq7GWNdvauF+stuf0vbb036yv6hjWu2CoZO+5uhdNnpOLLK/b/ADv6P/i00x9smYIkDuGSGX75CHLyhLFkh6ceQSnCMv8Axvh/xn07GxsfFpbj41baaWTsrrAa0Sd3tY32/SKIuJ/xbdc6j1CvMw865+SMfY+q2wlz4s37632O9z2+z9HuXbBWISEoiQ6uPzWCeDNPFMiUo/pD9Li9Vv8A/9b1VMU6SSnzb66/UnNGZb1XpVTsim8my+hgl7Hn6dlbPpW12O9+1nvZ/wAWuexPrR9Zel1DEoy7aK69GVWNDto42tGQx7mNb+4vaUlBLBcjKMjC+zqYfixGKOLPhhzEYfLx7/8AOjN8k6Z1jq31k6jR0Xq2Y+7Dy3EPaG1tcHNa+yqxjxX7dlrWu/l/zajn/UP6zYF59Cg5dbSdmRjuEkf8UXNurd+//wCfF66nS+7gj1SMj+8n/TE4TvDhhixkVLD80DL9/wBMcfqfJukf4veu517TnV/YMYmbLLCDYR39Klpc71P+O9P+2vRcr6vdLyejDor6tuG1gZWG6OYW/QtY/wD0273b/wDCf4VaiSfDFGAIGt721uZ+IZ+YnGUjwe2bxxh6RCX73958ozf8W/1ix8iMQV5lQMsua9tbo/l13Obsf/UfYljfULrr2OyOpU2kNO1mNS+p11h/N/TW2fZ8aj/hX+q//usvV0k37vC+vlbP/prmjGjwXtx8NTfNOt/V/wCt2Ufs2F0/7P091OO19FdlUvLKq27Mu91jbsx2M/8AQMdb+i/Rb62L0HqGBjdRwrsHKbuoyGljxpI/de3n31u97P5atJJ8YAXqTxd2pl5qeQYxwxh7NmMoaSMjw+qcv3vQ+VdU+pH1lLcSijE9cYtL6nWtsraHfp8m1jmtssa79JTZVYul6j9UMvL6f03LwbjgdcwcWqkuDiA4NYGvpfbVu2uY7f8ApG/zn81Z7P5vsEk0YYi99f2M0/ifMSEPlHtmR2+f3PnjkEvmjJ8us+q3Wc9zqeodNfh5VjtczF9M49jva0WZuHVZsZ+8/JxNn/hS1X+hf4vcvEbdm9QLLMmuuwYmKwhw9Qtcyuy17/Z/xTP+ufyF6EkkMELs6+aZfFOYMDjjUIy3Ef8Aox4vli+ND6i/WyB/k53/AG5T/wClkSn6gfWux4acIVA8vfbVA+Oyx7l7Ckm/dYdyzn47zX7uP/Fl/wB84X1T+rVf1ewHVF4ty8gh+TaNGyBDKqvzvSq930/6/wDwa3AnSU0QIgAbBzMuSeWcskzxTkbkX//X9VSSSSUpJJJJSkkkklKSSSSUpJJJJSkkkklKSSSSUpJJJJSkkkklKSSSSU//0PVUkkklKSSSSUpJJJJSkkkklKSSSSUpJJJJSkkkklKSSSSUpJJJJSkkkklP/9k4QklNBCEAAAAAAF0AAAABAQAAAA8AQQBkAG8AYgBlACAAUABoAG8AdABvAHMAaABvAHAAAAAXAEEAZABvAGIAZQAgAFAAaABvAHQAbwBzAGgAbwBwACAAQwBDACAAMgAwADEANwAAAAEAOEJJTQQGAAAAAAAHAAgBAQABAQD/4QzZaHR0cDovL25zLmFkb2JlLmNvbS94YXAvMS4wLwA8P3hwYWNrZXQgYmVnaW49Iu+7vyIgaWQ9Ilc1TTBNcENlaGlIenJlU3pOVGN6a2M5ZCI/PiA8eDp4bXBtZXRhIHhtbG5zOng9ImFkb2JlOm5zOm1ldGEvIiB4OnhtcHRrPSJBZG9iZSBYTVAgQ29yZSA1LjYtYzEzOCA3OS4xNTk4MjQsIDIwMTYvMDkvMTQtMDE6MDk6MDEgICAgICAgICI+IDxyZGY6UkRGIHhtbG5zOnJkZj0iaHR0cDovL3d3dy53My5vcmcvMTk5OS8wMi8yMi1yZGYtc3ludGF4LW5zIyI+IDxyZGY6RGVzY3JpcHRpb24gcmRmOmFib3V0PSIiIHhtbG5zOnhtcE1NPSJodHRwOi8vbnMuYWRvYmUuY29tL3hhcC8xLjAvbW0vIiB4bWxuczpzdEV2dD0iaHR0cDovL25zLmFkb2JlLmNvbS94YXAvMS4wL3NUeXBlL1Jlc291cmNlRXZlbnQjIiB4bWxuczpkYz0iaHR0cDovL3B1cmwub3JnL2RjL2VsZW1lbnRzLzEuMS8iIHhtbG5zOnBob3Rvc2hvcD0iaHR0cDovL25zLmFkb2JlLmNvbS9waG90b3Nob3AvMS4wLyIgeG1sbnM6eG1wPSJodHRwOi8vbnMuYWRvYmUuY29tL3hhcC8xLjAvIiB4bXBNTTpEb2N1bWVudElEPSI2MjRGM0I0Njk5NEQ3NDgzMUU1ODhERUI4NUE0NzIyNSIgeG1wTU06SW5zdGFuY2VJRD0ieG1wLmlpZDozY2IzYWM5NS0yZTE4LWY4NDAtOTVmMi03NTEwMTMxNDliZmUiIHhtcE1NOk9yaWdpbmFsRG9jdW1lbnRJRD0iNjI0RjNCNDY5OTRENzQ4MzFFNTg4REVCODVBNDcyMjUiIGRjOmZvcm1hdD0iaW1hZ2UvanBlZyIgcGhvdG9zaG9wOkNvbG9yTW9kZT0iMyIgcGhvdG9zaG9wOklDQ1Byb2ZpbGU9IiIgeG1wOkNyZWF0ZURhdGU9IjIwMTctMDctMTFUMTU6MTE6MTQrMDI6MDAiIHhtcDpNb2RpZnlEYXRlPSIyMDE3LTA3LTExVDE1OjE5OjQyKzAyOjAwIiB4bXA6TWV0YWRhdGFEYXRlPSIyMDE3LTA3LTExVDE1OjE5OjQyKzAyOjAwIj4gPHhtcE1NOkhpc3Rvcnk+IDxyZGY6U2VxPiA8cmRmOmxpIHN0RXZ0OmFjdGlvbj0ic2F2ZWQiIHN0RXZ0Omluc3RhbmNlSUQ9InhtcC5paWQ6M2NiM2FjOTUtMmUxOC1mODQwLTk1ZjItNzUxMDEzMTQ5YmZlIiBzdEV2dDp3aGVuPSIyMDE3LTA3LTExVDE1OjE5OjQyKzAyOjAwIiBzdEV2dDpzb2Z0d2FyZUFnZW50PSJBZG9iZSBQaG90b3Nob3AgQ0MgMjAxNyAoV2luZG93cykiIHN0RXZ0OmNoYW5nZWQ9Ii8iLz4gPC9yZGY6U2VxPiA8L3htcE1NOkhpc3Rvcnk+IDwvcmRmOkRlc2NyaXB0aW9uPiA8L3JkZjpSREY+IDwveDp4bXBtZXRhPiAgICAgICAgICAgICAgICAgICAgICAgICAgICAgICAgICAgICAgICAgICAgICAgICAgICAgICAgICAgICAgICAgICAgICAgICAgICAgICAgICAgICAgICAgICAgICAgICAgICAgICAgICAgICAgICAgICAgICAgICAgICAgICAgICAgICAgICAgICAgICAgICAgICAgICAgICAgICAgICAgICAgICAgICAgICAgICAgICAgICAgICAgICAgICAgICAgICAgICAgICAgICAgICAgICAgICAgICAgICAgICAgICAgICAgICAgICAgICAgICAgICAgICAgICAgICAgICAgICAgICAgICAgICAgICAgICAgICAgICAgICAgICAgICAgICAgICAgICAgICAgICAgICAgICAgICAgICAgICAgICAgICAgICAgICAgICAgICAgICAgICAgICAgICAgICAgICAgICAgICAgICAgICAgICAgICAgICAgICAgICAgICAgICAgICAgICAgICAgICAgICAgICAgICAgICAgICAgICAgICAgICAgICAgICAgICAgICAgICAgICAgICAgICAgICAgICAgICAgICAgICAgICAgICAgICAgICAgICAgICAgICAgICAgICAgICAgICAgICAgICAgICAgICAgICAgICAgICAgICAgICAgICAgICAgICAgICAgICAgICAgICAgICAgICAgICAgICAgICAgICAgICAgICAgICAgICAgICAgICAgICAgICAgICAgICAgICAgICAgICAgICAgICAgICAgICAgICAgICAgICAgICAgICAgICAgICAgICAgICAgICAgICAgICAgICAgICAgICAgICAgICAgICAgICAgICAgICAgICAgICAgICAgICAgICAgICAgICAgICAgICAgICAgICAgICAgICAgICAgICAgICAgICAgICAgICAgICAgICAgICAgICAgICAgICAgICAgICAgICAgICAgICAgICAgICAgICAgICAgICAgICAgICAgICAgICAgICAgICAgICAgICAgICAgICAgICAgICAgICAgICAgICAgICAgICAgICAgICAgICAgICAgICAgICAgICAgICAgICAgICAgICAgICAgICAgICAgICAgICAgICAgICAgICAgICAgICAgICAgICAgICAgICAgICAgICAgICAgICAgICAgICAgICAgICAgICAgICAgICAgICAgICAgICAgICAgICAgICAgICAgICAgICAgICAgICAgICAgICAgICAgICAgICAgICAgICAgICAgICAgICAgICAgICAgICAgICAgICAgICAgICAgICAgICAgICAgICAgICAgICAgICAgICAgICAgICAgICAgICAgICAgICAgICAgICAgICAgICAgICAgICAgICAgICAgICAgICAgICAgICAgICAgICAgICAgICAgICAgICAgICAgICAgICAgICAgICAgICAgICAgICAgICAgICAgICAgICAgICAgICAgICAgICAgICAgICAgICAgICAgICAgICAgICAgICAgICAgICAgICAgICAgICAgICAgICAgICAgICAgICAgICAgICAgICAgICAgICAgICAgICAgICAgICAgICAgICAgICAgICAgICAgICAgICAgICAgICAgICAgICAgICAgICAgICAgICAgICAgICAgICAgICAgICAgICAgICAgICAgICAgICAgICAgICAgICAgICAgICAgICAgICAgICAgICAgICAgICAgICAgICAgICAgICAgICAgICAgICAgICAgICAgICAgICAgICAgICAgICAgICAgICAgICAgICAgICAgICAgICAgICAgICAgICAgICAgICAgICAgICAgICAgICAgICAgICAgICAgICAgICAgICAgICAgICAgICAgICAgICAgICAgICAgICAgICAgICAgICAgICAgICAgICAgICAgICAgICAgICAgICAgICAgICAgICAgICAgICAgICAgICAgICAgICAgICAgICAgICAgICAgICAgICAgICAgICAgICAgICAgICAgICAgICAgICAgICAgICAgICAgICAgICAgICAgICAgICAgICAgICAgICAgICAgICAgICAgICAgICAgICAgICAgICAgICAgICAgICAgICAgICAgICAgICAgICAgICAgICAgICAgICAgICAgICAgICAgICAgICAgICAgICAgICAgICAgICAgICAgICAgICAgICAgICAgICAgICAgICAgICAgICAgICAgICAgICAgICAgICAgICAgICAgICAgICAgICAgICAgICAgICAgICAgICAgICAgICAgICAgICAgICAgICAgICAgICAgICAgICAgICAgICAgICAgICAgICAgICAgICAgICAgICAgICAgICAgICAgICAgICAgICAgICAgICAgICAgICAgICAgICAgICAgICAgICAgICAgICAgICAgICAgICAgICAgICAgICAgICAgICAgICAgICAgICAgICAgICAgICAgICAgICAgICAgICAgICAgICAgICAgICAgICAgICAgICAgICAgICAgICAgICAgICAgICAgICAgICAgICAgICAgICAgICAgICAgICAgICAgICAgICAgICAgICAgICAgICAgICAgICAgICAgICAgIDw/eHBhY2tldCBlbmQ9InciPz7/7gAhQWRvYmUAZEAAAAABAwAQAwIDBgAAAAAAAAAAAAAAAP/bAIQAAQEBAQEBAQEBAQEBAQEBAQEBAQEBAQEBAQEBAQEBAQEBAQEBAQEBAQEBAQICAgICAgICAgICAwMDAwMDAwMDAwEBAQEBAQEBAQEBAgIBAgIDAwMDAwMDAwMDAwMDAwMDAwMDAwMDAwMDAwMDAwMDAwMDAwMDAwMDAwMDAwMDAwMD/8IAEQgBGwEbAwERAAIRAQMRAf/EAScAAQABBAIDAQAAAAAAAAAAAAAJAgcICgEDBAYLBQEBAAAHAQEBAAAAAAAAAAAAAAECAwUGBwgJBAoQAAAGAgIBAQYEBgMAAwEAAAECAwUGBwQIAAkREjATFxgZCiExFhoQICIyFBWAQSNQQjMnEQABAwMDAgMDBgYJDQkRAAABAgMEEQUGACEHMRJBEwhRIhRhcTIjFRaBodSWFzggMJFCkyQ0GCjwscHR8VJy0jND1SY3EIDTRDZmhpcJgqN0hJSktCU1RYWVxUZ2J2cSAAIBAgQDBAMICg4IBQMFAAECAxEEACESBTFBBlFhIhNxgQeRobEy0iMUFTDB0UJSkjOT0zYQIPBicoJTY3OjJHQ1FoDxssJDg2SU4aI0VIRQ4wizw6QmF//aAAwDAQECEQMRAAAA3+AAAAAAAAAAAAAAAAAAAAAAAAAAAAAAAAAAAAAAAAAAAAAAAAAAAAAAAAAAAAAAAAAAAAAAAAAAAAAAAAAAAAAAAAAAAAAAAAAAAAAAAAAAAAAAAAAAAAAAAAAAAAAAAAUSy9cIdkJuYzUyqJKavJ3SVhxGIonk5pxohCpNVM5RphDhDmMKJ1UitPwdSnxGHkRq8xgAAAB48sI9dnaw8D7vh5R4hH3D4LndOxXzHvLcPqAPKkmy317n91bJe7NZBj+J2f4IjDiML+4jlWTmIZmjJZa9WLFDYOBoOJZcgMPzHJ/GMtqRAAAA/Plo66PUnK/4/wBdGqabhJePG77lthOdxzbb1VzCPAi4g9mt31Txc4dH4yZLjESe/NGcxcU45hYDnswujN2dqrGptjU0cG2tVcFMssg+rdoSmak3HXEAAAB+fLJpk998Fes/b8vD5q6dbI3D8vkW1ns6F3oPnyiSrTUVy0+ZnVTr+2236p6ebelNerqvlur5qyEeK7cR4J7kuVar3p9dzcM2pyKwiuSWYnRW/Z3+bui6pogAAAdcjphTgP6N57i53To+bHnToiYnSu8aYwsHkmManXZ3F917ZfduXiLtO392tGoH2vxWqSbfPDHcfuMk+nJ3Dw/4X1/NVJPMFoje2RmMZLr39P8AL6CuFTam417PyVxXJe+rNUAAAAUxjRShGLtbUGGuc4HInrPaeeuAbI4Rtfc7JClvXQHmyfTcW3XDoqyW7r/JlBh2Tylan3P4v10IFuhecOuEfIjD2/4/tupZbzjhlWOeVJQ8Cqmk0Tvi8dhyHu+iHMJgAAAOIOqmjO3FpvDzY2uZBtQ7bzy11s/mWNq7xYoWuieeOyo5pBROlj0HvTInFMr8T6qEEvTPM/RUoXLx2+W0v9q/V+b6e6E36lGp6d91vmT576EvBZr33xqgAAADiDqgge6O56jN3Lp6Zznbfkvml91cQhYTJcb1YuyeRe+WdWop5uv4Z5mdB7vlz0fu38v7LfqG9y8X+FCMyWg94Q5b70hVWoSbaX3JhDszWlob1atoPjnrjJTEsp7a8OYTAAAAUyx6pZderqPmKJnfujp1+Yej5p9AdA8JcdslxbUH724YvPjOTbiPA/cttrvZ9NLv3hjp+z4dzjz1799w+OtpU+hnBvQo7lfAvdmnr3lw96z9Nv26OFe39XzsnkKzmTY5trcIdy5SYjk/fVjyiAAAB4UlPW5605P/ACvspcVPn4pVrxY/ecv8Az+ODcWpeJY01KVfz1eK1NNV8346krukN1RJb50bXOopVNj3krq6LrcunLKZRjE6PMXTGvP1dy1b29WXiVIhqHa0qmn90VlQAAAPFjJA/vznz8ar86Liaa6tku+TeNZRgjnmAUzQIEeZK/VPRzXwTObxWe+xlbS1VVGTrhPO7oLf2PN/x+0V3ssgOvtiwfb85+9H+yilpZp4Nn+E2uNny5mSpUAAAeDJJrJdecj/AJNShzGbiWN7LFesx9e7AjO3HqIcnCPmyTZ2a8z+YLQW9sEti4DDd0DoKuWp4s8mzVyD1zTUpWcvNkyNxbKtbnq7li3l3sVKaRXVW0fStKbyksiyEKgAADxIU8P7Bt3Fux7WydvesMxMj033UY0yT908OTlHhDrjDiSbiaTmWWqNTtjN0SKasiMOaceKsvNOaqE/EtJNGupNVGNYAAOinJ41Vp9c+ev2onz/AOxX5FP7L93fX30aOwPzZa1+m/SyLHDOq5LMs5p3IuifGy9f3Ypq66Y9NYQtZd3+5/Rju+P1B4Q6NPNPuRlPf9T7o/QfjJjZZtmaDXL/ALybz/TPhpA7rTuqNaw72vHTsmwvtnz+kfyjnfR25r9wcXrPtOZTY3Fm3VvXye7gADqgiPwPqv5sXG36ZdlDdHmDtGbz8pv0qlHSM5u9xMNMQ35s07x8rtZLSHqlIrmHNkzGwuKNOrnf2b2n97+Tt1rnh0v+ecc/P05O/RVirYNwb2fVHgLMLn3J/wArnhf9UG470h4lxOYh1pODn/DUFmq/QaLTAusdqrfXlBqCc9exu3D0H45XcumD7Me3fOK+P34qAB1Sw1F9Deu+nrz77E/VL7g/KhlBfNXW++S+/J94U/WVuV9E+Me0ru7yx1dNI+pGldzt7X5BfZgc2WzuGt67pvwppgpjW+Vjw9+q6zFtzcl+gR1Z+eXUe0l6rfh/BlXvi2/Rw7D/ADiYm4/t35Y/EX6qdgPcPmxAHqL0ekizblzdF6H8V5fs95O5S9sk9dQB4s1LWh0r6Y63moPSn6LHWv5z7j3HGLSfFlPzueRf0TbX2+vJuePZ3CkHmru49R3RPr17TG3zx7T8/NpfePllA9rPurW71L6M9lL65v8AZ3DuDWMblvfe9fW2tWSxZYL2NI7k3N+6j0j4r2tt2X/Ox5O/RdtQb38oZVc15P1E+e/WmNHC+sdiPcHm/tTb18s/Jp1OUQOmEutPp30w0SeXferfw61/PLsM7J4A8Oev8szib9TmTd71nus9J+Gmmjzn7Y4H4pvaZ7ZHD0T2B9lbyfS3hBDtgvZGs/pv0uzSyXQW1lvTyvx9suxNZ7TXp1G1hXTO07vjyXjzxDpXbZ3z5DRGYB2PqEc6+yuz1vLylzpybR/5FD7NQPnz2RkbzHnL6TXY/wCarypalSAHjTU7UWzLPme8efpbwlxnoLNW+aJ8WNeQzM+aIYtbduWpt+bXT+vEN+zq38+8ombcwfPh5Q/QnFbgnWvvH3WCarZ/ndjrZ9wT17L4Z2mt3eXOjJzb7X61GlfUb6KvW350dQvQXrr+19NixVxre05+1eCoUtbdw4G4n0NVGncf68c3yuoPAWfna/BflU69cQHXLHqjJan4so119R+h2Ltl2xRLUmh2VxFJRmHOOE+M7/zWyHQd3bhivMI+OqWi+HIu+ePovz3vzVC4X1WO5Fawek0b1Zj4cpv7csH8upJhJjG88gr1rm9dwwrGWzbH/Hk+jy4SXpveGe/1rL2UXYjVNEACmMaVMm4Ske2EwAAAAAAAAAAAAAAAAIEQAAAAAAAAAAAAAAAAAAAAAAAAAAAAAAAAAAAAAAAAAAAAAAAAAAAAAAAAAAAAAAAAAAAAAAAAAAAAAAAAAAAAAAAAAAAAAAAAAAAAAAAAAAAAAAAAAAAAAAAAAAAAAAAAAAAAAAAAAAB//9oACAECAAEFAP8AgAbyJhIPp9Sgj5V4YxigXwucSnEv/rz/ANeeVeeVeAPkDmMmVP0+CGKAiByj5V4YFTEMBiiQfUUfBOAU3nyrzyrz0+8HwX1gHgPYh6THw6XsJwxi0RaCaXwPs/nwNswePlQWCwNkYg0pmRfgfZ/PgfZ/PgfZ/PgfZ/EqQskSO7E9sWQmumoeMxl7mOYFG2eXnwPs/nwKtE5JLXsvhqBvdkMT+s0ci75MHH4H2fz4H2fxSh7URw5RBJTDueQH2RB91kYOzbnhYJNpHRFP5p3fim0jqqSUbBOckjdWWtkVkkG1bqPPmodx4G07wHPmrdQ5lbTueaeRbJ5MoanXKwlXKtJwrXroO1TqPB2pdBAdo3c3LGulSxmZTx6y+feVfZZqwH5p3jnzTu/E9oXNJG0bezbHxygAB7EgG/yWq3aQxWn4zUgKfxho3hrjo4xrCsmpXmJUVN4PESjddHiA3VSnAuykxD400cPD3LQx+BcVGEF6tWk3hspySQ6Lyr4z0UsHxgosBPc9H+cy4KGc05L/AIKT96PXkRSzKUj0c+MtG8+MtG8UuWlP8a+5zX80wCl9BfYnL6+ekgLUnUUesdsJrBAVU7kruOwPOMQDcEoCMPacR9lgaxQIppLrRD2djUIAnjLWg6PZNY4EoQ2r8ELx1xMLFc8BJPLcG/WiBZ2ClrBAxKGrkJFC5qhaq+wqjr4tkSPK1hgJVC6vQY3D6vwUoTZow45JBTT8ey/6P/fA6/mc0wyUDcHpnsFksGzOeRDjIzuL28koa21yBQFsegdbrJx1EtbLQIT4G2qZaaQWawNE+UqdJEg5mT8C7SIgXXy2VEyUZa7jx01+sxTAjdK2RImBShbcA5aDtlQA1/tsAkLQ6Mb6UDCoP5+xD+4TeFK5sOewjFUv28ToWDM5jMF+G/tYnF1Z30t+XYmopsHeA8G/LrNnqX/eRl177usSTSUSaVyESmBHGXVx1sW9rkxsb483ksEavC3MHCJetzgljXXcWDiO9/3KOA2XVceDiq3ndKpZU5Oj2/HAfHsgD+oVCENS1nROBNQbE1l6bnn8dnbrwQEQhzw3sUtJsBUpDDsHVhxW2HqZUS7C1MZNPYGsiqW/K4FM8xMpkUcQU0czE2Hq1JIL/q8pawtFlikmVv8Aq4SZexNUGLc9rRiYNUUveumphJsdWiBJ294T9LvdnDg/n7ETAXgEIoNCRaCvbT8O6V9zebHEGfM9QCYP/TkHxWxxlpa9o1AJbDagw2YEwRyI9jYuVIMeCUnk4jhX1MKY8iwU8J6bCFHPZYHSizcMCpjHx8k+FivzJCKScmcYDSaZ5vkM36shMDqHKY1INSgoTduaWuT+8U8D+fsfeKAti6r5uamjqW6GTT1Odh4bT91A8v1mcIZHakqF3tDDHUN0IVLVJ0U4XVFwMXG1FdhVLqA+45h1NeB5k6rueJjVvWuTO34NQ3HHMbUaSk4nqc+Ljn4p8TOqyncmzsCc695cAivrVODPrO5vTCtqc5ogOpbj6Lap/OrTnn1eyII+vDcL4Ni/59/KGUydgCcHK2AUTkGTcxWuC5NgIp/519eTOF9mH/Y34A/7C+y8HPvrypmX6iR8sOwA5BlZinnDl32Bv9hsBwMy/fLgK51os/yBmzZnJ5xkmVE4Ea3O7U2wMm/y8/zdgUTz41kKJeQH2QGOmZn2qc2tjLtg6lKfbN5EB20djEl+y2bM4lUttZNYYvzauvPm1defNq68+bV14ttw6rBM9i7DlSJj5Bz1dYq9bSdTbZ2FT5tnbiW27p7zOzxcnRvz1WrPm8syZdIjCIGYtm89oZR21eRW+bZzNi21ci9mYQB6Q9iJgKLpII+xmCzoP7lhlbG+gcTAdMxuARNQfd893z3fPd8FTwIAcDAb3oidZUCpqCHu+HBcnAVOPC+AKIplTE/oAQFMhRADqCYR9ymkUDAcP5xAvrJ6Ejz60VMZU2YrkHDGWE0ffc1gc2iZNbiwyO4Fs04WZLhOw3K5I5GA7NztjiKKaUptjAbUjWzNfW1W7IjOrY54bzgO1my/DdYfZKuY6FW96EnzMvBYVbdmXojGXmZ8emdsIN6rW5z2QouFsgzrRKeNMqSdXHFZ8F3uORrZ5rYm4JwC0j52UHj+YfIDYshPHo2ssK+VXlag+inCWBI6sJi51LFdkyPEdjOfKHH4IN5UJLHXGLZ1Xy1VjcbflyrchiN2Y4ZLPSYZGKFJsigRGKKRLGl5wNJAUEpawmqT3gTA4IxhRMp1P8t5cIIhgRyLLhXDo7Y8vgGdEwbczLbM6xpELjDkElclRmqFtcm9OkWZNdsQVxsH+UfxC8lcg2Oni5Jhjif+IyHAohmrKY6DgdZdxpJuMjgGUAFLnxEcloIbJRXkLpnPbtTOEU7/AOBBMhjlL5L4laK3++TbshXBa8twa87GkxppCk4g2x1F+m2e541YYH+RLDAUhZbhf5LIpigkswsS0ngeTg5eOvFp2/RosWnjLIgJ+SZTeSCPr/iAABbbfXFoIjYcgBbAzDODWKZUzPCuURuWsOSYylWyHOfmwgeBtV7ymlnLYkoAMywppimqmUuDrmEN71CzX17jzRGbImi73IZvI8KQ1s9Oj+wpLzPBVZbHSyTHe3ORZrlLZ41rV/NnZykRhOuD3mhgNA2FJCKVg6O7s2uOAXOwZEWfRIqc9k/mtrByXzJ9QgP/AH/EAEgXGzrZzIqKYp1lLcZ1ZvJVBKI+JixLML7Ws2JFsxKfRlRGwp1+q14s0qvDxcEYO350Pk+XEHJmsWMuuDa7+z5zLFRSUkDvF3Z6kNbNTK3Ntuxo7rhQIyQj7/Jx8p6zcMjJhsakfcG2w2TNwZ9ZWEq3gRQTRCxmqJNZbvjhFMu5Y1lpveYjnuFXYy2RLDicDj+f8SiBhdcVF1wpfEsyJuiS6uEqWcSYTKzmU5BmeOOditTmzOTRmqpAQcZmcMteu4FjxnDf2RvkmHJ4E7sGYpiZQC2sOY7KxyKMzRmTuSvmY50omsVsVx0FyKRNRgf1iZYAxsGDJa/c4/KII5g7MknUdoq7NSkCq/LE84IBZikRP0ppKn5iteU4r1jDP0/jiPkofl/ESj70SkFRya8B3QcaWaclZSiSeRolLxDoYMSLmt+G4pfoCKevCaGxuSUImqQCE9ShCHQ/1TeK2PgY+MoLPgCuoyNKp8TCxsHiZDEWXwsbIOaPs51CoESIuQi/MuFRnNVb25FrTL4KGQwNOScY0wiJIxH0zpppIlA4gAB4VAvg38v/AFwP+H3/2gAIAQMAAQUA/wCAH4lED+FC+PHkOD5MAGFMqZyAPkOeQ55DnkOAcREP6hEFh4Yp+FEfHkOCIcA5TCY3gxv61AOHr8hzyHFDHIkcFBAfz9j59PMu5a+wcr47VkZT441pwLxrXy0W5BX3Pk06jUPD441pz441pz441pz441pw151qiZnk7FIUDAomEklTLEcUbxrTnxxrTnx0rMFIzYcRmWR4ExVB9AyOUssPxPjjWnPjjWnCXpVqqkdnkal5wAQD2K4Asln614efn/LKiqoGsiQc+WbFKaJa+tsdklnVYlY2SOsRA58suOHDa04nCazY48Q1jQxCR/XMY05tqK5Max4WSetg6yY4j8saReBrQj6q1p4tcuqZVj88gROzq9JZBvlmx+fLNj8NrNgKGrGrEK+zPV6vZL+RxXSqrqyHM9UXOVT4VXWPBqm7EzQKA2yxy28YdOZCoWprxAPhTdBeDVtxm4arLtKKdTXf6jVNdBitdfXC0vVwscmkMSNUt2efhVdA8LUdzpjiVDdLepGzZosAePcyitbcfZH8I7n4FR3P5+FdwJ59IRabxnIA3qD2IfgIFOCVz2tIK9cktm52ZSnLIf7AARA3DCYTTB1y2OMH2dnhgjex0ucs1BcpkJFnrtjMtstPk8hPZycelnXzF2xwWWxG942Rn7ZnE2bnyyyWy89WcaatZ5n2Vbc+WrmLo7PTYhy7PTsRLs3OTDCXzKkcbL5IqIgPsh/t/wDpPpzEYjnjd1SAauZrHprhcDwIvry3NLCe56qx0zXZXJSfMhXyi2RsfXanD3VWqZYRMIlOcgAT9+scuDjGuytllvjhWCqitv1e0C0XxWpM+T29Amp3JdNXnWUuusEhTvGrzcjbu1u8fN6DJEDwT2I/kP8A+diQSCS7OLR9HFWriHwyJpcD85E3tLkymo+mD8So2mDKGo2jfdlpCigQQpClfeQqNxiMMBBDyvjIL4+dTVLZmUWlKKIs90fUx8pKlaRTUcKrp9xWwKDpnIdM6nqbXXLS9PInira1NDAl5EfZD+X/ANLiriTztzDX+yA5TUBkEGwOCPgJk05z5Fy0XavrLR9qJcSoq1yAlQln+tWiLKPyrYlNoYgb0qnzExy8TI18sY6oUNYh8myqydZXGi0JYxRDX+zQNU1YSKKOshpGxXCQKUTaSpoK15TLEhH3gFAQL7H0iIGEChecsmDC7hPrm95Sb3LnQvgeHESBOM3OwYurPrnVyYvNLYy3VFUcjClCy+HH15hc2Gvhzu5jhH8lRdmcTLJNj3O7lx3A06uE6+OXKy40+za5MZ6y5rdh04Sg7qxGVzu2sZ3CwLkSCF5jpnxzyUhw8+PYnBIC5O0WLiZBtqGg6mTtQ1E4ltY3+mLbGYswlNqWthVeuXbdlU580bYkKm02Cmqvto1gkG17OuHzQtReY+zbfk5NjWKSvWIdosUoBtXHDD807LjGwV03HEsq28ev82E7BYU4lhgMQ75sg2s70bahpTP81GAjmVXcWNZS3gA9koUop5rTSArlZqMWArRRhhTwKMAY8z08d8nOFAzZH+povwLdRqg/62jB4m30YPCtdJc/19IZB2KtoMBZulFE8EG+lAD/AFNFGEW2jExwBQKlL45HZBhwqNQbC4T1KKOzNTue4GxKMMj/AKii11a/TrzHzB/P2KhQMVz1dx892JqpjF4jqk2gJdUGvkY1txYxKrWqVGxcr5UG7nyot/PlRb+fKi3jzG1SRTGIa8QuLZOMiihjWjAErEjaeqLf7r5UcDg6rYCCmBiFb27PxEnTBhkYQikbOI8fNasZ2fEdVMRNE2p2H/lVJTnw2cPIj7ICm9ddUTcdwYhtHdqiHsuhrZp4gIkS5/SoYxjJc9RueR55HnkeAVQR976hOf3QCCKPCin488A5PUQg++KqqcDeTGN/6qJHKJROXiSSBeCcFBAokD+fyJVSCZQumeiIPePhMbM1Y5snDHHtSqYjcMRsLWSz4TbtNdaEfxMUNEdcsXlw9Y8QcG+d15L6xkOPj5OVkUF1zymbYeH1z6ypozrrjotaIzuESCtZPVGhmu8srrZ7r+irJAjAci1LRxnltoJdeGtayOwkKaYNduuXXY9SpulsA1LrcYX15JWAlsZqfPqAdIVE3udyuqutWpmWO/Tt1e9e4+h+BCIr/SAfyh4EdL6gQti92tNPEwd09z3WqXHM2mvrK4bZ6/Pc6XwGSjWt53bEKMhi3adMBdKPvWIXnDt8tcMC0a465ta2ibusym8eriMzrtNzMWRB2oWYJNhdgTbCuuvJyJ0uthY+ajvbq7lVjKdbymC9G42algN8Yr9u2gcn66r4aC7pQqoXXV7diP38vZEJjk4hWkOvxIbsVl52VjYlg9l9iwaXOPaPYLhgzZ9wpPJ/5fUVPnVdiNeM45r41YiF3yBeX3B5yByIo2FfZLEjNbDFe0OZf5899woZPrGn54/M5ARofmqnYHEKmhPZ9MMprrME0ziYhBVMBin18XwDVBlz+PfrGdRqKz2L5NSKa0bOumwdiXLh03qpX8LdN/ZRlR/XY5lT8oaTZ0KuHEe8ZfAsmzmehtw2+WM+a27Aaq1RfeNd+n1o0+iUTm4JgMn+QfxOmmIde9LQW4EHvSuk1sGbtAR+dgVUFK8QwMyXtemdEZTZ2BUzGKmshcolPohULBcVl5OmOv5cdj091zk2P2EUFB6mYxH3K+iVNV9dNh23pHrpFK3pPUqlZFVm6teQSirdUxNYplj2RpeqwMDfUERo5CHaras2K17oap11CqSVXEw1xHgk9gYuktHenf8AreAVnMq4sDBisgojC0lu9sX0n189zvBpSyVWwnIVVMA9IfxMmcxusyf4UftdL3hg3t1tlkFscAMU6SymNl66Wfi2rVm5WtBNgYL8pN+5brpnq5k6+xC+7GZqwq3rdu4ZQw7G0eyX7XM+0ivuDOvXVT9mQGytgwUNT1d3vB6xpXeGZWFN5b113s0w+WbToHXwyMzc8xetI+7jdeTcLfPo5PdNrmhzzpro3LGeaKpjhI7Gacz3ZqyB6s7cBHA6x7nZ82BRvPh9d75PrXga9KCmY4j5H+IlWVUhEzeIHLtc9iInsBDHmOtUhaM3VnX9fFT1MoDHG17nZdOrJg9kQWfMHv01CTGzIHX8e3G2vzr8f6xs2TVFLNeN0avuxuRkUeWyZhYkVgjNaOwNi3ZEdUKaqyMQbtNNj5U7wnHNb3PAv3GvKrsByZC4dmWvIaW3Ar24KC2+hy0HuLX81VbCwK0sXcTepnbGvUPIb2/X8zjioKZTsxGO+T+GxBp3V2rxb5k4CY3PSBQ/iIj6Ug91jwqYSaun2B9mNjsTcj2w5BUh7YgOfaTZxLZDPjcxlMRzEN0tmcVCTzKSTRzIUEw/HgnESpTOWIlfZpLZKGZa1i56GHZ1gYGO/wAqkkqUD1FTapA8MoJWxZCSbi4OTtmIZWTjZjJs9e8eSnFiTaxnMvkuO323Y7VhfGm1hMrcdmrcdJA+Py5iFUHwb3RQ8F/l/wCvxATAB+e7JwCFKP8A8F4D/gz/AP/aAAgBAQABBQD/AIAD58m9QiHkeeB4b8A9Q8AwgfyPPx54HngeeQNzz+AmMA+oeAA88Dw3kOAIjzz+Ij4D1eTeB54HhhEwGEw8D8vYrq+6I69rOgLE7fVt68vP1bevTg9tvXlyvuy7SG1Jvf8At/rtq4t9W/ry59W3r059W3r059W3r0439rnXu4ZFY3nT90N5FPUN6bD09rbEPq29egc+rb16c+rZ16Dyg9ytbdnnAo+TGHwF5bCU9rhEvq29efn6tvXnz6tnXl4oPcHXHaHKL/b7HNT9+nI/t764kMmL9uzXI8/bsVzwft2K4Dmu3RvANfr17B+uGLb7ZH7deueft2K54P27Vc8/bs1zw326tbHLXvQe31HKazZJVF4Vvfpgx7yU6X7diufH7diueD9uxXA80c6m2bSG6CesOGEQL2B9fmLvnjj9uxXAj+3Yrnn7dquAHr761IvoU+k8gT2Ocmc+POuvntrcp+HXV26jz6dvbr5Hrr7dQ5p3ov2bQHanuD1v2/v1f6dXbrweuvt4Afp2dvIj9Ort3EA66u3Xh+uzt48QHRbt9gc97Uag2WvfVf6dnbwUPp2du/p+nV28cN16dwWCek3CdulT5ix0ELz0t7bbZuj6d3bxz6d3bxz6dnboIdQGtO5tAy4n4l9iYnqEEhAe1zsq2G0uukO/HdcVOo/ei59344KXqKZHwG0FiyGodeEe/TdoydJd324k/u9I3q5bEnzYTWWP367sq4q3fhvAbHqd4k8hrJ5yFcBnzu+3dVFz+vxul5J357pKn6m+yywN0ZB2k7tPuj+vX19N0kh+vzumPDd+e7P+Np/bMnvfWQSfgQPBfY/9n5urvdp/q3YI9xHWJ69G9t9adsGMPyN/bb84iVa1gl2/9ZKyWH3CdbOFlB3vaR8yu9fR/KQN2+9ZQJakbdadbmzFECpEc8rHwW7I7hOslLKL3DdZBwX7eOtRvVrbuJ67l5ns92j6Q1HaZe4nrHMOX2/daOBkG7jOsUiVEWTBbdqAQExSh4L7JQRDm52hWpG2NgB0w9aBT6Qada36iNRP7R/K44JFLOqxHpf60wR+i/1r+R6X+tTx9GDrU8B0wdaghrLrxSuslUAbwRxxksxty+mXrYyMr6NHWZhhcvUBoDOZ8j0ydaiZ37p/68pY8RvpX66MqRWN1G9ddgWKbpj60QToitILTlPh54H5eyP+Ju0zrIvHdm5R6B9xzJdTuhlsaLx0A8Ab8C7O1o+3Lr7jdBG5mHjD0Ibo8+gjujwehHdDwfoM3KyidZurG5unrUQv/m9Yps9oU6CNwQcMjoC3EzC9h/XHJ9vtei9Au35DH6EN0fR1cdVs/wBN7avzo/2ltC88noC3EzcfUGo5DQus/jyAfgHsTGAvDG8j267Gb0U9d3zy9xIc6c7t27uaLAcPSZQvjbGRzuI62Y28ncYojQm5/a+9XsiPktxOkgZ6pQ3l7ixw8ve3uLw8anZO4zSqn1fIxmJw3k7gQcvni7iPRHAk77Usx3E7kolMczebuIxcXUpstnE102J3L7X45f6u83cUTE0rk1jzLVf3hfAfl7HLVBEkj+4Vj0dlg/cVxnyP3FMbHn7iiNc107z4/f8AfXYf2RM+gi4/cUxsw/uKIwPB+4ojYiH3FkdDhvuLI4fhfuKY34afuGGJ5e96t2cbSaiS/cUx/wBIfcUxoOKfcXRdIsTfySqK9g3ZrkaGTvUTubNt1sUBPxuHvrjtT27+4pjYc/cUx7nXj2Xs++8gKfxwDAIewyvd+6ksI6KMqUhAuhLn6C6EhD9A9CIDRkN6YW+495I/1+PK/wCgehLwEB6EvH6B6Ex5+gehIeDAehLxkQnoMxEaS0D673Tm6DRqE+VaED6EufoLoQ4rAOgs5IwkxEje1VGaxW/AtMKG0JZEzGHzZ0F6ScqywgXQlz9BdCPNM2/rjhmRL+x675Jnar34fYerCf2/z5aXviSr7e12k0yD7dZ2EC/bqPA8/bqu3nWnowzNf9huyDrgzN+l/wBum8c/bpvHP26bzz9um8cavt1vXl689ImmlJPLbg4bZidieluRvXSSf26LqBf26btxf7c1xPyFsH6ViM0i7VOIlqfrfENTqHN5ALi6EHK07gD7dR58D9us6+OurrELoo6r9dFnwjI1qoRp1zq8vnx/MI+AVU/qvTfjTnWhyP3kdWHNad/dQdwXUg8E4gBRAR9XAHzzwPBHxz1gI/0efUXnqKAEEPHjipvSPkA4UQMICBOCcTcKcvkBAeCUpeCYolKYvpAwef5jCPqU9Xp7iO8+QNT/ACB6eJQ7GWSKXWfY6y9Urp147R9YLq043I+5bumYPuX3K9kORlai/cq7D12463bH1DtZVGY44rdi78fciQWp5NIvuC+yt9caZ+4Z31hloUfc0B2Gqza7u77Ea02c6t+++7H/AGOxjkOnuXP5TVuqyXfj2bqY3XvckyunR/sU+42Z6zkVNXH27bU4Em+4Cluucc60+3Kh+w1nuG2oPRdY7Rfcfbe2FPlO+3s1Mn0796E3tSz0RESfymAPPdPtrm6j6NCqqoPSr0vxXcGLtnUL1xtuF9JXrn9XcNZ1IYuzWmenNvby3Wl9rBHf0PuTp3cejd09GO/rtp7tF9xb2Nv1XR2oKln162VT32tr25w79q9W3jrR65pJ11s29wELuqQTEN0GdpK+ytedhIiOjmKY4YcutTZKV9W8Yh2j2icmz+j/AGa3cjvZn0x3P16MtI3FOtebT7xd7ybBdbBRMJqM+2jrS1Khx/taK9xsnXWupvUtO/ymEgB9068PeUyFismUU0qqRnozVAwima3pYSBVVOP1nNZr9r5SzYwUYIAZP7nqjMGS0A2M0ua3XbK47H2wvT7ZqokXbcYAII+SmOmTyfe1vzT7qo01ZuXVtRWZZlEWZD9zGnsr6sY3opR2pzfuP2YXBe0T6GKYwbS7IfT5HempGO9dQ14pKsM+sus07386cciGTnBW0K7Kty9A3XRfuY1e3MyER9Ie8DhPPj+Jk/8A1+4V3R2P0+ycXu07AgzaekxJzVQAbzfjnJGKkjd1vYbiLdCG5dh7ha6FHwXvi25srUHVQ/dx2CeJf2+9lkAkX2/nYJf229qkE3jvr3G2D02ojXXuw7IJzsFt528bwQDaLpT2BvzfXWrEmvahXrvq13Z5kqtjH3gvPeNOye1Ls6pqZ9MXahsneu9RQAhLzmha1ppTuy7BSr/b+bS33thRmymuz9bME3hm3eHos5m7kewso9H/AHJ2xspYxUwUAv4B/H8zfc10Q62DqUYgiXoS7EoBe+syZgODhgYjq3dgGuUn1U296iux1Xruv/K7net7GhXcP2eodiVt6Z65yfbDZ37ifSbKou8uv7dqb6EbFUt309c1uM/3DO6Wr2ytBaiAcdrbR0vvrbTezocqvWema7+470KebiqfrHU9FhMufntBNpLZjy2oDHp7ZtFTPXHvR0Jumu+3zvYpm1aUQxFljdfXcZTfWLQJvundfhB7+6D1lf2e8ZzHbQt3o6jMilHZwT8Sl/t/ip5Ly66ghl/VV2Adftx6AXIxPT5F3Jk7P+weOJK9mPYGqrqlp3cPcPQ1w0na2v0wBRE4VFS9pX3K+mrqaxdAYRs7rHVW3NL72dPe2Gk8qO0upD1TTtpXfMqD1E1M0lu/tQ3a2DubYv7WRT/+MyBkZpIyyPR1z0F30xkxDC1K1WrLc7pm2G0x366m7rydkNK97FNgNEL6oXL6fujCxZlO+zjIRS7BTZCBRBRFY1d1LaFsSHpE6p3fRaEJfiBPPj+Jk/Vz/HN5uKi6lv6EXR9r1rPMHtb7VCQip+1PlHOqHq6d+tRjtGgKXu5syum3rVzXKqNe6VoprDHABOgU/Mhux8tLO1voRy5XuvVJ1MZr0r1NZXZ3081bf3euaWquocT3Hnksq+v52snpHqKkSLwyNQiPu8cZpA0ybq70BlmTU+s1DUXFSYximkukeo0yfw0D0pAuJojptgHhNPVdWxBxS+oEvxKHpD+UQ88MQDD6C8EpR4QhQH/h3//aAAgBAgIGPwD/AEAEAPA54ID56u3lggBcsfFXGqTJRnlxOPMjZxTkchgMSAw5DgfTjgMcBj4q4+KuM6V7sFqVHunBmLN4uXZ6sGpb14OihHfj4q4Zcgx4YY1+99/CuTwFKYZyTQ4MmriMhy9zHxVx8VcROHIUE8Ofpw66m+L+4jvwBX7F5at86cRXlnsweB0DA+bCKgitaFxiGb/LIpKNQ+fg9H8pj9Wv6+D9Jjx9OhR3zwfakxLu+5bJ5dhGKswlhbL0K5PvYuH6f2wTeUQGHmIvH+Gy4/Vr+vg/SY/Vr+vg/SY/Vr+vg/SY/Vr+vg/SYlki6ayWtfnoOXH/AImeDb7ptjRSA51Ip7oqPfxIPMo6nMU4evnh7HY7IS3CrWmtV504sQMU/wAuV/58H6TH6tf18H6TEjr00PAK/l7fn/zMWt11DtXlJM+kHXG3ImngZs+YHPAQHM54aNjj6BsFoZrhF1adSqKD985AHu4/Vr+vg/SY/Vr+vg/SYLv05pFP5e3PP+lxZT79YiFJGoPGjZAVPxGbFRwP2JJmkAWoy9Hfi12k7GGt0hVR4oxXSAvHy9Xw4SGPYgsaigq6HL1x/Dj/AAZfxo/0WPLOxLnl8dP0eNx6bu9qAgnXSCWTw9nCME+7XG7QWu3eesxQ5sopQGpqytxr3cMfq+v48f6PH+BL+NH+jxnsi/jR/o8UPT6n+PH8jEclxsakoBSjotKcK0jzw+0bt05HJZsumgaNTT+EsQbhzrXE0m07TJBt0lCqs4fTQZ+I0LCteWWJt1toRcTFCKAgUzqPjBh72AfqJVHYXj/R4y2NPx0/R4o+ygp2aoxX1+ViDatw2UxNFJrRhImRoVqQqiuR7cIQ4MSihUca8jX7WPNc6V78bw9ltDTT3QUayy6QqmtPErHj2Y/wZfxo/wBFj/Bl/Gj/AEWJE+og0Z/fpl6/Lxt0G42YgSFzpro5rQfEVeXbgAHKn2KJn0eQGBNePf3Y2+zuNkt2v0t0DMbW2PiCgHM+I59uIkfp+21KKZWltniv1Db/APaW2Ix9RW4FRQ/RbbI/u7M8bzYbHt0C7tIvgbyIFoc+DKNQPozxvidabdDO0pTRqhilpQNX8rmOI4YGnp21Gf8A7O1wNPT1rx/9nbYoenLX/s7bFT09bV/udrjw7DBq/ulrjLYbcn+6WtMbhZptEUcrxlVItrdaVy4jMerPnjcLzqe2im23ySqq0cclTqyOl8uHrxWbp+2DjIUtLUCnL14quwwU/ulrhCvT8FR/0lt7+JY32KCJjHQFbS1XOnaK+7jcpNsKnaGmYx8K0Y1UZZUHDji3SVtMRb3sbXtlxtaT3SKA7PBbyGtPwmzOfpx+r9v/ANpa4/V+3/7S2x5abBa6qc7S27fcxscPSW3wW8sbnXphhhr4CP8Ah8c+3CpXgKfYgp4DCPoGrTprjqG/3reJbaS0njRQnljUHRmJOsg1FKZYEkfVdzozrnBl/wCbPG12uybhJdxyAsWk0VVl5AISOda4qeNcOwUFz28sbJsV7KYbC5uESSRaakVuLAHIkcq8cKr9WXRVkqDWAZnh99i93S36rneeKPUFJgIJ7Khq0xJqVaLzxsu2zAJBc3ccTMKVCu4UsK5VANaHnhdHVlyWNOJgH+9gA9WXIIB4GDP0eL4MX9pbxgosroDTMhSQDXvpXFnayIBE0iITzALAZVy4YtrmLqq5LugLA+QoB7BU4LS9U3FCPD4oPX99i4M/U86sqkg6oDXsFC2Nkvtp3R7mzmyfUY6q3FaBDWhocGxvbnyNriTVI4ZARX4oGsgEkjhxywgh6xu8zmp8inDt1Yz6ruAfTB8rDFeq7kkDtg+Vjc9lspWktIpAquaaiKA50y4nC+ZEpbVl9rHCn2IYGNwuelg5treRVk0sF8TAla1Za5A9uEjWOUJIaZOlPWPMxa2fUn/qJE1AVBy9RP7FQKnG2bVtgP1jcyqiDIZnhnUYbUslBWlXWlPx8GJoXcNyLoB6Pj48ptoHmN+/TPn+HiGb6q0FJajxpUEZ1yfDrLG4APEyL8s4sb7qLdjHbSahElanKgYAhiRma1GPNRCUqanL7mLO2hP9okdAPSxAHvnFs0Ory5U1LRxw5cXwqpqBTMjUvP8Aj5YZYWkYAkGrry9L4uHvbczR24Z9JdfvAWNPHyAOLffenrd4rO4GqqsuYBKioLjv5YpIsmhRUkupGf8AzK4rG7Efw1+Xg6y/46/LxuGy78D9ZRMFNSCa6QeIJrkRzwiyfemuD9iOeB4CcbjD0hYLLaXEitNW3M1HVSFFR8XInLnhVTZ4kIrQ/QST8P28WNx1faCO4RToIh8kMOeR45+r9g42vddoCtfQSq0alS5LDgNI417MeHaIhpWlDYnj7tcRt9UwEjssKV9/EN2+yxnSeH0IgcKdtcEjZo9B4D6DkPfr72FA2OIHKv8AYT9vE+59RA/TJG8cYQosZAAosdSI6gAkDiczh/o4oew5+9izuY9IuEZSARzUgjL0jhiGG32SMoq0UmzLZcvTiDXskbMhJ0rYlS1eWRxfW1lYx3TI7sxFsWK6iTpY1yYZjOnCmGK7AnzqkMTZFhRhQr2VIPHlhdttNijis1FFH0I1GdeIpz7sXIvLCCK1ZdOr6GU0kinxiRn2dhxbKm2CWMRrpY2jEsKZHVXxE8dXM54DJsYz7LM5e/i83Pd49G7yPVxpKAMABQqcxkOGEqw11xn9iJwARn6Mb7Z9RWHnT3M8bofJEulVVgRUsKVJGVDiErsRqpNR9EX9JjbZ+n7FoI4YqMPKEQJr2Bmr+xQDPHT+6bpEXsLe5R3ULrqq5kaSQD6K4NdicnTxFmnH85hAdgbSv/SJ+kwrR7JJqXstE/SYIbap/OI/9on6SuCZtnlKd9qh+GTEd/0vZz2+4sAHIiWJGA4VozGvfxw6SP488642+9uCTFHKjEDOoVgTkeNRiyEnT7+CLSaWicaUr+U9/EWjbbgVOdLVMv6zHVG5bjYtNst8JVCNFrZSZdSusZYANpyrnlli1SLbrlYFALKLVQSwPZ5lDh5/qe4YueH0NDT1eZjb9s6T294VWQtITCIiRpyHhZqiuefZja7Lddl8y5hs442ItQ9XRAGzLitSOPPBMOxPRuH9kUU7j85ljdN226Hy7K4kDKoXTTwgfFBNMx24j1Mah6+rB+xZ8Ma+VcdRXPV9jBLNHcxrF5gY0UoxamlhzpxwiLs1lU1qdMlQOVPHU42aPpGwhhgZG1lNQLHvDMTlyPOuNFfFhgrUI542Oz3hQ21vcIJSQT4DkchQn0DCSPslnISAM1lBqfRJjcZrLYbOOcRkoVEmRA7S5p68SKECxnhzxtguoVayaZA9eY1AEEVrwxaN/l2ykk0rq1CVc+f/ABBiVbHpyxW5KHTp8w0NO0yU93G72oFbSORgvcATT3sWME3zls0qaq5UQsARl3YtBJ09Yyao6lnEimtOHxxXFw0fTdi0qrUCknHuOs8cTTm0VrNbtvm86GMOfBXjTTl242vd02Sycz26MUKyihZatmXBJXspnhBHsNmbUA56Jfg11xup6dski2nzdCBagaVy1AHPM1NMbbdblYW01xJaoW1o48ZUFsw4rQ1FR6cMh6WsQVFKjza8OP5TMjG62mz3HmbbDINDaSvFQSNNSRQkrnxpXniNyuTNT1duD9ihhWIlXYCvLPuxt16vU0aedaJLQwyGhYBqZNTKuDIvWcFGzoIJfl4o3WUP5iX5eBcDq6FicvyEx+F8bl1LN1HDJ5KatIhkWta8yxA9zG93MG9xwvatGNJiZq6w1T4SOzAnPVkQk7PIl+XhxL1jElOB8mX5eCF66ty1P5CX5eK/5xt6f3eb7b4Lf5ohAqc/o8vy8UPV8Q/5Evy8XUlz1tbxwxrUEwzAUHHPXXLG47Cu8IqQqW16GYMNemoFa58czjRYdVwsjZ18iU5nlm/wY1P1bCF/u8vy8FLfquNpBQGkEvPIff5YvLKY/wDpp5FLHn5bMpy4jhXPhjcbyx6ljgnhl0CPy3c6SoIbwsBSuVe7F71DunVKNJFTSnlSJrZmC6QSxzzw5nFEArU42XfLLquIW13FEwBhkOnzFDcQwBpWnDGkdZxGQn+QloB+PXEksfWEErn8GCX7b42mS6v/AD/Nav5MpSgrzJxWnH7EKEVHD04tbu023dDZCEKjiKfSUoKEH4pWnAjLswhXb9zKHhSKb7RpgH6s3X83OfgOEV9t3bSD/J3AHw4ul3+x3NdoK+NpI5vLA72Y6QPTi+foi3ungJXzPIWRgDQ01aMq+nGr6v3b8Sf7uAfq7dK/0U+P8O3P8zNiv1duv5qfA1WO8VPalx93HmSWG6rH2tHPT3ScT7Nuu6TiYgq6kuNOWYbxVBpyOLhujoriXctGawq7uRX8FKk58MV+rd4Vuzy5x71csU+hbtTvjuPu41rtm8VGfhiuPfpx7sXP0mv0kSOZAa6tRJ1gg511VqDz44jTpq7miup1C6UZgWqchRSKmvAZnswNh6ruLwNqq0UhcFCKEa1c1XtFRnywlCNIPiB7O/G3w7XY7i22GNfK0RSlNJUaNJXLhSlOWG1bZu2qv8lOT7mZ+0OeJYo9u3MRinCKcjP99wxY3HXdvexxBvm/PWRQcq0XXxy7OWKr8U/YpZAoppHrp2423ZT09HJHBapHnLJnpULWlch3YjWHpaAKo5SSD7eKnpuP1SyfdwyHp9aUJ/KyYv8AppthSJZUClhI54V5NkcblHb7Ulw85WoZ2VfDUZ6ePHH6p2352X7uP1Ttvzsv3cfqnbfnZfu4/VO2/Oy/dwDb9KWzOPw5JcqdlDj6NZyrt0FKEQSyVPrcmlO6mFnvbt5LtiS5Y6ixPMniTj64trETPpApVl514jEjf5XhapJ8Uslfhx+qlt+dl+7hA3TcaZ/eSyZ+mpxuV20IUzzSSHjlrctSp40rix3O3JE1vOjChofCwPHlwxvHUVwCJp3U0JJoKBQKnjSmJzpr4Rl242faoumoilrDGg+ckFfLULWlcuGDKOnIa5/8WT7uLmNul4V1gColkyoa88bPZ3ViYRDJUeMuDVCvPgc8Bez7FHqegLU9OJLjc92RFAIzDEju8IJ97CFOoUDEVp5c1fXWPEh2/clmI7mHwgYOr4mnI9+JGmFI/wB3ZjzIJBoHHL7uOOOOPjY44Compvcx5jRe/gssVad+KxginoOKyt4v3dmOOAYU1dvAfDhwY6FVrxxUn4+fu4Mdcx6cRvSoJwzmPNj24iUJQsK+jHlPcZnlTAkkz051z5YDL8U5j7AJc9S5e7iSRm8J9zLFzY7J/wCoDFWfwsNNKUUcQeerjhpZXYsSa6iSM+PPC1XwvmD2gdmIL+Bm+bbMDmOzM0xHvk8wGkeNaiqkciOeGt9mhMbIx0swVq0PceeBMdxUTLwXQM/VWnvYSHeYRJAeOlVRhnmcyeWEudru0ljoCSCCAOYPY3LEt1LIBFxrWgA78XFjtAE01KBqqwBqeROeFZ7iFKAcYVGQ4c8W77nPHJYhvEAir6M65e/2YttzsWLQutVIOR7eHYcbnYxXcMdujEUaNScieeItv6jv4zbvmsgoiq3JSa1JJpQUwXP5I5g9oPfjcryzYLMkZYEivCmHtmvIdJJFfKWvZxxs99uUyVe3RmNNOdOPZiSx6fjEt2DTzfC6Ag5jTXM8sS7juW6xWW0x0LPIhQFcq6SvwjniPbtkSSZEkGqSQq/mCtPB4sgfvSa4oCLe/U0MTsus96gGtK8uOLi/vpVUIteQrTsrzxcR7OI0tmGgBo1c9hOqvPl2Y+ji5i0A5nylqCO/iMDbd/u4gWoEc6VqTwHHGRBH7bgNP28StGaXUgKr28RXmDwOGkkZiSanmST6eOF3fdwU28fFQZF6fhKynLl34ULtVu0SZLqVSQOY4ZejCTDY7UAcfAv3MT7TsgjgsbcZ6Dp1nn8U6WHdTEcFkoAqNRzApXM1AOY44J+tJjeEZZrpr+LWmHtL6FTIR8YVK05UagFfRiOyvNRsrqRUzBJDMQARUgac+PpxFsG3OyTOKsQaZdlVIzzrmPgxHbWytJeSGlMzn25An09mI5t93KRZCAdKMCB3HUvLDfR9xnqOZC/DpxJEdzmmteKqWqB6BQe9zxurgER+YeIoTmeIwqx+Eghq8Dlwz+DEez3r/wBtgAAJ+/HLiSSQBn72N3DqSfIYZCuJGU8GONm2TaXMd40KanYsgVAM/nPvR6ciMRRTONy6glTJRomt1YnMsw8RIr7uHn3veZohIoAhgc+Uq/ghCKU7QMsC7h+ftHyVjVmWtaVAUUoM68sWu4Q3LLKrg+FiDSorWlDjZLmB6i8qSB+9oCMjlnxGffgIjhGU1rXSf9WLC8G7SnzoVkejKRqIBYKdPLvz7cLNHu1wGU1FClcv4uWfZi3t5pWd0FNR4kDIV76ftjzGNkgSPUpMhPp8OI1S0pIDWvwY2hHj0ym3SvpIqfdJwyq1JmOX7uGLqUxAwKhJz45cO3PF5K9tqZ5G41/CNOXLhjdbmaDSxlAXuGmpGDQ0IPHsxt07SkyLOwBpnTSTT0Ys5tbsYpFK5EUoQRTLuxPf3yEszd+XDLgP9dcbhevFVoofCSKEFqg09Qp6MOHNVPL7WAiRAR+nDxA+Ie99rG7mbUwDmhoTz504ZYbcWjZ4FbyyeGmoqKczQcMqYS82uVxJGwzAz7aHI8aZ43F7S3K7i0RVkqcmJpkSBWuZ97Ee4dUTk3RdiLcLq1AfF1yKSEDHjzGIbHa9Vtt0cejykrpNMhUlanLLjTmMWHnxEpUkgg55GnZzHLESRyFQDkBjcfMFaQOfQaVrhlYtTP70+r3cQ2qVF9Zs5iGWWtqtQ5DOmfHE0ckJEgJDHtA7aYSCJnntuAibJadoopI78C3C+Ruukako9Af3rFQD8OCpkLsOZw2vhXLEtTUasv2jaB4zzxsrWlwi6vMrVFbPw9oPZhGfcIilafkox/u42y48wN5kMbEgcSVFffwjgaUHHvxeCzWswjJBoCK05g9mHiG4xMqyHLyo8s+NdP28bg9xco0qzDgoXIr3AYZCPEcWcttKqymcjNQwyXsIxFHFuERJYAAQx8TwGanEsF1dJG4NCDDCDX8Q43aG7YTSCNG8KqnMjgAK4ZhkakejFpdbXLRmehOlT6OIONvimugYpmIIMcfiFD3Y3CAXkaDLjFGcjmB8WvDtON6lu50+m+Y0cUnloFU6AVYqBQ0JrnxGVcbiN+3iGxtll/LywRlX/gIoqdXLLLB26wtP7FaK5MpK0k51ICgrU10jOg454nHTnUMK3Plkm2eJWkZhxCuwAOrKgyph7Hck8mcZgPDCCAOVAufpzxt9pdsrA6hQIi8jnkBiksB4ceHwYvpUGawvT1Ke3D+TKgH9HGf93E+4bjuEcltqy0xqtD2VUD4MXUe3XMcNyykBtAbM9oPEejDySyrLZHMyLDGFHprWnuYWRb6NUGYYRJ8NPtYNjuk4e/JJ1UUahWgXSoAFO3jnivKmCe39oxJ44t79EqbcngD99SvLsHw4QwKdNc68fe97Fpt9zcQreQxhVWqhiAKVpUmopniRGmU58jh0nddTZUHPuoeONxtpYz5RYsppkdRJ4kAH1YuILmJmspiNWmlajIEEkAAVwbkbnEigVIdlDHLkNWLe2iTTtUUhIFAJCSKEkhiCOzLG3WtnGSfpCMQczpDAk5A8B25YXereMCznNCDU+IUHZQVp24G4wqrQSAK4pUlR2ZgA9+AZb1bd2rUSMin/AGsWVtZ7tDOQ4JEbhjQc8jzxtNJCi68i5p6q9+NyuBAY7ICplcMqALlXXQr6M8XEe0XTzP5o8wswZNdAPABQ09IrhL+yMhuosmUE6NPeoB8X2sb5HLXT5GXLtr8GGvbeR1cSmhBI4GvIj4cbFeb/AGck+13dmmqRKeek3EUkbgtOIJNRwxa9U9OXkV5bxuD5SEyTqGyo8YHEVzz04FxdzG3u0rqikKq4p2rXgeWJNv2Vld5k0s50lQp4jJqg9+DoBZq8RUj/AFnliLY32u5JDFn1BdVWoeBYGnZUcMMPqm60D+j4/j4dH2K5kUj4riNlPcRqI97FxeW0Yjt2NQgAFAeQAyyxavAhEQoW48PSMAKB5dBgkftNBFT9zF3tkyAh1pniSF0LWDZq3GoPE0AoKYF3tV7LHKONPCfURniKm73CaRmQ58XecC5+vboFOHzjYk3GbcZZL+FqAO2RXMU8VTU8a4ksrmyKyofjUJ9w0ofTg+YzmTvGIo7K2Lh6BSQwz9NKCmFvb9FO7yZ1yOkH70NTnx+DDWF+upBwqAdJ7RXKuLl4IjPtSN4WPOvaqjLPGmS1ZR3K1c+6lcC2tbd2loTQqRw7yKerGzXfUdxKbpyxWGJQ4BFBRzTw8agccuOLzbIZJY9vXwqqagrDtYcKnnjcXlLkefmGyodI4d3f2k4nikQESAg17CMdSW9vH/ZnhrHwGRWtAB2E09WHgELV8wmtGHH1Y2nbdygGoW6gErUqyigYV5jBuITIbbWdLKxOoD8LSMvRhzv9obHcGfKSCMtryAIlDDIDIgr6SMLMYfNspHIQp4wRyJCjw5ca0ocsRbvvUQW2PiWGoZXyyLAgFacueN3eBHEAkFKKRwRQaD014YYtE5NTxU4cIjjjyP2hiK1js5BI5oCFPHvNCBiS5vU/tzDuOkdlaCv2q4eh7cAc+f7RJAeApTHmhfFh4NxthLEwpQ14eoinqwX2+/NtGTw0F/fMgOK/5loT/Mf/AHcKF6loB/M//cxPHDunnI60poC5558T248m9t1kWlM//CmNY2pa1/Cf5WFgsrNY7cVIUE8TxNa1z7zhEdKqpBHpHD3MMxWpJwbcr4CCPdx5zWiFqU4YleKNQGrkBT38R3LW6mUVqaZk9uJXksUOvjx+7jTaRBI6cBiSUvUHgOz7uEkmiDOOePMNgnv/AHcRx24CKvZnjS6jy+Y5HAnm2pDLWtauPeDAYMFgPLtzxUZ190k4ZQPCcRyS2SFlNc68/Xgk7XHmO/7uPMTaow/r+7gJFGFTsGWCOdMGSuRHDDmvE1/bD9jljl/oe//aAAgBAwIGPwD/AEAHbiKYFVNNHv41VOfb+wQtK0xSQVPdnilXJPbwGOOOP7PhT3Rg5EYCoFp21xlTFGAr+xqzoOzGQI9WAnbgRg09GDGBwHH9lwNJfli3bh4hWnZg/Yizj5oCtcT2V5vJjnjcqR5UppQkcQhxLEOoGZozQ/MTZH1oK4/xtvzM3yMALvjVP8zN8jCbZt+7l7tjQAxSip4cStMRrvt6Ylk4HQ7e8oOP8bb8zN8jH+Nt+Zm+Rj/G2/MzfIx/jjfmZvkYVJeojVuHzE/PhwjwJdq3ASRkfgsPeYA+9hfLirGeBr9rC3u+Xhit2NAQrNw7lBOBXfWJ/oZvkY/xtvzM3yMRRHf2UuaD5ibOnoQ0xPa9P7mZpoxUjy5F50+/VcMQM1alcLKuBf77ceVbOdNdLMa8eCg4/wAbb8zN8jH+ON+Zm+RhFTfyWP8AMz/o8XEGw7iZHjXPwOtOX3yjABNT2/YpYQvi0mp5UIpi73VN8jW5knZ6kSkAElqEawOfHEs432Iu5qSFk4/j4Ore46fwZfl4VpN8j0g14Sj/AH8WvUMO7K9xC9QB5nMjkXI97G33E24LFNAjKuT8GIJyVhXhzrTljPe4/wAWX5eBq3uP8WX5ePDvMfuS/LxX66jp/Bl+XiVLXeowr1rVZW48aVfLC7rt3UKpeg1qRMwrX8FpNPqpizg3bcUn3KIUdlXQGJJNQo4ZUFO7Ee2TzCGJGrU6qH8Ug4rFvcYX+DKf9/FW3uOn8GX5eA0O9xCReemU09WvE+5W27JIsq0caXzzrlqZqeoYnopUs1anhT0Y8tV1OOQxtSTbskS25YhSGqSwp96y8hzrj/Go/wAWX5eP8aj/ABZfl4hDb1GZwTylz9Qfsxf3VndiYSJRgNfI/vyaerGqlK8vsU6oPnNBp7mWNwuId8lW0e6d1AnvBRC5IFAKcMqDLEkke/XPluagfSLzIdlKUGKfX91/3F59zEZTe7liTQ1nvCKHn8XFjdb1uUsm16/FWW5YUr+/AX3cbc/R+5SxKFIbRJOhrXL8kOztwCeoLv13F79zFZN9usv+ovOHuYqu93ef8/d/cwdO9XdP6e8+5gM2/XdD/wBRe/cx/j93X+8XnycbPLc7jcyWqSVc+ZdtUV51FD68W9r0vcTRbkXBJVpFNNPMxAtiNk367C0Ff7RecfcxR9/u6/3i8+5hlHUF3pcUJ+kXmVP4uIp16huZKPUhri8bL0acbZbX4YbikShya8QKHj4vd9eJ2goZaZVzz9WeN0v7beJYbbVVFSa6T3lBHDsx+sN3/wBzefJwK9Q3dP7xefJxG8W9XxSvOe7PKnZjeZOrbueZHXwBnmfny80Dl2YDAEA9v2InDgysQW1ej976MbDY7JtaXAu7eRzq8yilGAA8APEE8cRxf5Zh8wmlPn/h043KbeduW28nJQvmUbMCp1gduPEoIwGQ0py5Y3jfbEGW5toWdENaMy08JoK0PdiR/wDLUIiWvDzzmP4uNttrjpuNIpmAY0nqoJ4iq4tnMjFpBXMcMsbnuMErmeCB3Vc6EqCQDTOh4ZcsTpJ03EFUmlPPNfT4cI8vTETI3AfP5Z8/Dl68Wt3OgDSQq5FeBYVoBxoK4u7qGVmlWJmA5VCkgZZ0ri5tpumoQqPpWhnao7TRaVxBCOmogKnWfnxQcqVTPCrFsEflZCnz3ycb7Z71tKW1xC50lRJRlyrUuAOfu4+nbTZ/SN0kcBVIelNQDMSgPAHKvHFzA/S8RkRAQ1LitTy+LTGfTMX9f8nAp01FxHKf5ONt3e6tliupEqyrWgPcWzwzmQlKZg8MVHA/Yz6MbZa9SojXtxGzw6i4OhCA1NKsMiedMRTBYfOQknxS1X+rpi9vOnowLeOUq1Cxz/jKv7GfDG77nfBfq62gaR6k0ooqwyBPvHAaO3iKs3DXLxP/AC8Qv5MasvDxSZf1eI0e/QAHtk7P6LCwC+R0lOg5yDjl/Jfu7cExxRs/c0g//bxuUGz7MvmppLMJGNe8gqtKUwY0YVKjLF5cOawIjMfUCT24uReW0fmxPpNXk4+qPBLwxnVwOuTP+rxVreISHxfGk4Hh/wAM4to4ZI4BcMql9UjZuQACPLzqTi82fdikk9s2kAs4zIBNKIe3t5YnRooxPoFRrlzHIfk6Yzsoz/Hk/R4ytYx/Hk/R4sN52Ir9WyAmgJp8YgirAHiOzDFeBX4cKBwp9jOeNru+r9w8i/t4nSD5/wAkFGIL5ffZ0z5Yt5DvbEV8Q+ncRTlllnjcIujb4zWrsS4M3nUNRzyp+zuO07tqXbJ4isratFFbj4uXpwY33eQpq1ZXhrXlyw6nd5iB/wBafuYd13WbL/rv/DES/W0mtZNdfp3vcMTynepTGxNB9NOXpyxZ7dsDqduQEI+sO7gsxq0lAXoSQK8OHLERkIzag5YvLa5lAt3DgmtKAgg1PLLnyxNLcb/Qs9Wpe0z58Blgm33x++t/qp6csq4t77cbyaG3eNEXVdFQxUZMCRShGfv4dW3lzIr60pe0IKmoPDMA8cG93HqLXfOcyt5QH1Z4S6hvriW8GkhVvSRlwJXSajDxDd9Mikgj6XwIyI4ZUPLiMASbyw5j+18fRli02/Zm17UikIdWuorXJueeHyISnA8f9X2Q/u5Y6fvOn9wEMFrbypIPOMWpnZSDQK2qgBzypiNG30VJ/wDdN+j+AY3OLfr4TySykqRKZKDLmVWnA/sEnG97Xtsui+uLZkRi2mjGlDqoSPTTLBYb3HTvu3+1Hh2G8xam/wCrf5GGSTd4Ch/6p/kY1vvMOgcf7U/6PAFvv0dO67b9Hh7TqS+guNtQeGszysKnOgZVUAE8MRNEo8sGvoxuFnb/AJeSKRQxyoWUqM+VCRi7Kb6vjk1Ct03Cv9Hg6t1jRFIrS5Yah2fEz9eOn9t2ndZIb2zdGLCXRr0x6CrMFNRU1plywzDe1MhFKm6OQPKuj3sQwpu0RCZajdNX/wDTr72LrdOp9zMrtGFjUTealampIZRmBwocbxfbTuqR2s1xK6A3LLRWdmA0hDSgIFOWLVZN6jOhaN/a27e9M8bVtd++u8hjKs2rVU6mPHnx40w+jLKmFB4gfYjQY0H4xGOm7XpPcJoIpbaRpQhUAsHUKTqU50rwp34ikk3q6AU8NcVD6fBjdW6u3OeWbiiPpYKKjMMqjM8KH9gkiuN1utqlZd0WFjEBkS+VBUggV7TkMSqOobuNRXINERUHvTFjHe77dPBrGsEx0pXuQVxA48cmkVrlnQVxuBsWKbj5Z0U7fScsXaz79dxeJtIDxN6PvTgfSeobxkrn4ohXMdiV9zG23EtfpEsSk97UzxfywL5dwI3KkHi4U09BJxd13q6ho/hRWiYae2uj3sWkkvUd4lrqzIMWY51ASuWIytwyXUtqCrZVEjIKNnz1Z55Yv9pTerqIwzsoIeI6tBoPvKUb00w+jqW7S5rmAYSB3V8unDsxtJ6hvXm3by9TO2ktqPA+Gi1p2Y3WLb92uEsY5nVCGjzVWIBoUJFQOHLFrctvt20TUJq0XM0pTRzxttxvUOjdpI6yLqD0PLxCgNRQ+unLDwp+UC1pgahRvsUkrN4kWtPRjcrNun5ZGgvHiBEsQFFYrwK15Y0y9IzAplUzRGvo8GWAI+kpa/00PyMRKnS8qEnM+dFT/YxZdNrskkaSsRqMsZ4ehQcbZaTbZJOlyjMaSKtApAz1A9vLHkr0xMa/z8XyMAr0lKQTwEsPP+JgV6HuAK/y0PyMUPRtzXs+kQ/IwE/yxN+fi9z4mKnpOU/82L5GLaC16MnaWVqECWHjWg+8xt+8vtTySXDBdAZVK+HVnqBBpwyHLAa/6cl1Hh89EKj8XAVOlJC/b50PyMJJedLSCE8Pnohw456MQbjb5Ce3R1XjQOoYZ8OB9eLK1v8Apea5heMMzLJGg1An8JScWPT21dF3CRyltb+bCwUBSdZAQGgpnnXGuHhwIxuWyXPTEpnt5XU/OxZ6SV4FDStMID0dMY/6aH1feYSBelZ0jHbNEeX8HG6QCwNv5K/fOjVzp96oxQcPsUhb4tDX0Yu7e43eyFyZWd6TWuoNU6q5VBrxrn24JTd7Q0/nrU197PDEbvZmnH561P2sUXdbI0P8ra8fcxA+y7raHdg1VVZbfUT2AINR9AxaP1hdwpOAfL854gCDStBLxAPZzx5h3Swr3S2g+1gk7taCn89aj3MsA/W9r657b7mNP1nZeuW1+5gst/YFeOT2vwgYMce52rSV4LJbE+4BiHedusw0RoUJERBAPEUSnEcQcWydYTxLYlqK7sgjU05tJ4Rljxb1t7qcx89atke+mK/WliD/AEtqPtYQtvO3muQVprU19AI+DFtPaEfRGiRUpSmkAaeGVKdnLhhn6ghU2sJ1FwEBWnGrMpovbWmG3vpaBGAqBKPKZWrkdLoorTMGhyxLxCkc8vcxfzbjuttHuSSMZFaa3V6gnVUMNXHt9eEkG52RVQBlLan3cuOIblt4tBIeAM1qOGXCmL626OuLeeUpV/KaF9IrxPl5jPLPng5fYmRpGCyArQd4xum5wbsY0nnkagWPg7E/g9+I1PUk0bgEAKsdG7z4cP8A/wBnuErxokXycIIep59IepOiIV/8uLDfYuoJnMT1ppjBOfco7MbYZ92khEKsKhVPGhy1A078frPP+JH8nH6zz/iR/Jx+s8/4kfycZ9Tz0/gR/Jwy3HVl0kX7xYjl6CuBd3bvuEn89FHT/wAozwLWztEis4wFRVFAB2AcqYOzzXhiXVWoCnlT74HEQ/zHMhCgUCRU/wBnH60T/iR/JxHcLvLTshqA6R5HLMUXicbbYBtQijRfxVA5ejG57XJGNE0bqcvwlK88sWOwRUpEDUgDMlixOWXPPCIGoCePZjdd5PUEuq5ZyarGT4yTn4c+OJYv8wyUcg/Fjyp/FxbyL1TO4Uk5rF2fwcbtexX3mGaKn3o4MG+9AxU8fsTvp1BRUDvw9z0B0Lc30KS0JSSBV92WWMZ9xw8v/wDjt1qjNP8A1e38/wD5eLWX2ldHS7dFdHShaWCQEgZisEslMu2mPIEtKeLhXjgIsw1ejCxFtVcfF9/HxccMfFxqbID0YEaSeL0YCyTUY92AJGFT6cDyvi/sLG7ULcO/DupqAMNRKeLtGJJTwFPfxPBqodIz9OCgkqV45dmKlsseYqUp6cGON82ywFJzGX2AIR4SCcSGRCVbgBkfRix9pPtkt2j/ACc1lZuJYCjKwdJLhShWVGSlE4Z1bPLAh2zb4I4EFNMUaISRzGlVpiOCSKREHxqnMNyqeX28bp0j1dAj217CUDV0MjChRlcKWUqwBqvZTgTiT2VWGxT3l9cTn6JKkUhS5hZyqyIWUEAcGrwINOWLe+9r16b+5kEbKlrJPbpDUAmOXUlXYHI5gGh7sS28PSUro1KN57kLTvIqMNf+ybdjtd2AzSLdSz3Eb8SAihCU5AUPE1xfdJda7VLZ7lCSUEiMnmJqKrKhYDXE+klWpni0t7Wkk0hChFBLuzGihQOJJNKc8bJ1P7Tbs7bttzqP0ArNFdqAxAMr6Cq61AZAtTQ1PHC+dse4yT00V+nzEVHOlB8Fcb5D0rs1/a9TGE/RpmupnRHAJDNHQ61rxWmY78bx0d1LtskG/WcmhgwNGGRV1DZ6WUhh6c8646S3/fOn7+Teb61jeVkvJVUFkVq6RSgzPDF11N7Edvn+u9uJkmtjLLcSTQRoxfQtCFZSAxckAgUxIkinUSSRwII5EcqY6C6f6igeXaLvcFjlRGKMyMGqAw4HLji3u06W3HONSaXk2kZVJI7MdddFdLWcrbTa7k8FsgYyNoLARjUaFzmBwqTiw639sV39X7TMKjbmWe3uaAkVkfQQoIAKha/vjniz6R6J6IuOq+uZS6rY2Fwl1cRsq/HnD/EQnLxnjXLF31x7Tlg2v6bbEQ7fb+dbPaGpKeeRHpkkUEBwtFJHE4lnmibcOiy3zd/FFKIIw7EJDM7qB5pHMVUngcbN0n0zaNcbneTCOBFBYsxBLVAzIVQzGg4A0xYt7T1uN06kbxPJbXM8EIDCukRFQQRWhqTw4Y8fT+4MxNQBfTCnYCOff24HW3sg2y4+gWik3lvqmnYqWFJY/DRFjFdYJzGYzywAldPf+21cSMsdPWG72xm6atC09ypoVAWNzEpDI6UeVVqGABANM8Q26WkUcYURoiLpVQuQJX70e92YPsy9nT2r9QPHrubhtdbeuoKInimX5yo+Ky+HmDwxdSN7T96GpqkC5nFfQNfAYgR/avvhJrT+2T1Hr11GNn6/9rF7Nu3W+4TNNFLdN9JeG2IVrdQ8q+ZGwqzaQxUahTni96l6ruJvo7SqESEK8zSNUIqIZEJjLCjHlxwLYdCbeuwGUAN899I8uoqTSfRrpwHDEXUfSbzNYVZCkyqkwkQ0cPGJHITVXQTTUKYvesdqtLdOtdltmnQpoUy28SSSSRSERtI+VSiBlAbFz7YOtrbzdo26YxW9uyI8ckrIQXeOaJgVSvgZGBVxU8KY3Lq7f3EGwbfCZZNIUOEXKkasyBmzAAqCeWLu09nfRdncbCpOiS8jlilatc9MdxQH117sPG/QWzGQ5jO44D/5GNr37cOjrDa98gVllktUZDMCRTWzszPppQVJIrQZY6JcSO87WMfxs6UjXhzxPHLGBC8TK4IADBgQykHJgwNCDx54uPab0rtoPRu6SM80caALaTu1KKkcSpHA/KpqHqM61x7MIvAZzuseRPhGTesYheUijxKGoSQBQZj1Y9sftl9pVwlz05s/UdxbW1kgiuJ7i61AwstmwLzqgyBjppk9GUu8I/8Ak32NQ3TM0zST7fvT28Yy+bkrDCkjilGNWU5UOBs/sb9nNjulrBIzSbpu9uDuNzIzVdmuIZFZwGqEZyWK0PPD9MbpZLYdaxI0rw6dFs8Ssi1hd5mZ5Kt8TTWmeN/6T6q21bnaL2OlFjWWRcvCVV1YKymhDUOkiuPajadQ2sMl30uLcQl9LEC7EjI6akB1GKgZ10kEmmRxeSfRg9IzmFJFB+Ceb05Y6k6dHszsY4bS+lhhN1DdRzNCsjLHI6ecCGcANqXwkGoyOJds3T2bbFNBKtCjrcMjrzDq05B7gcsbrv237LBt1vdPr+jwrpijYirCNQSFUmpAGQ/baq5E49r2/bhOInhWwQk8w5uTxrXIryHEiuLq7fcVOmOrGoqVGdDnwp2Y9o+93Chopt5uyh1VoizusYGQyCAAYVRGGiIOZPxacgOdcbBs0a53N3HHTlRmAPGg4V4nHTO1pcxxWsFnAg0lc9MSilNRoKDtOOiOnLS7rtsO3ySFQfCZWlZVJFOIXIGtO7EfmH5/1Z+vHXnT19cf2K4sYpI1ZqKJFl0swy4lDQ1NPXjddsEkP9ss5YXbUtQkqMjNQsK0DVplXtxZdHdPbxrtbTwksFQuxJbU1GIr4iMjwAx0h01t96fJ3K/kE4Vh4khWN1DUrVdTdo4DjjzdIoDl3HtwjiT5ymWXAHGbluzu9Hpx0HHFeL5wsogRkBXy0yqTniLoaW/Rd6NobkRZkGNX0GTV8WurIrWtM6UxufSfV9vBc7PdRFSrmq1NdLaQy1KmjLnTUBXLHRu39W7ip6cg3FZor7wsZbdULanSJn0uKgFK1FQRljcNi/8Ax/2uKPp1IY4Zd5knFubd2AEr29pOFe4eIZg5Rscq4v8ArXra5i6h67vrr6Ub66RBMrsSzMgilKIWcljRQwJpwGOqvqm+0LcG3iqrCpSSdFZaGpIIBrz9GChj+b5Gv2sezrfbVygj3W2VqNTUjyojKcjkQcxTEF5FPGLhgCPGK6DxzJ7M+/EfUl9cp/k3rCCCK6lJaiNZxBI2MaB3bxsAahcm7BiPzNwQQSqGiFcqsKg5cKg88SPdxQWPV5jUjcYgr3CiOvgIeVUZe4inChGL3qG6tIr7oqOXSl2s1v5jAnJpLdJXdOQqAVqaVwXkPi7OQ9eA6N4S1K4A7P2hec1IPh5UHZ3+nHtPXrLb5bhbJ7EKqXE8BUS/SOJhdK1MeWqtKGlMXkNt0re6o4qr/b74+LgP+P8ADl246w2BLdo7W13O6iCE1I8uZ0ALEkk0GdSe3EiSmsTGqjhQDv546ast9U/VE17GjoGKtpZqGjrmK14jMcsbNeN0pe1njjy+sb775Qf5f93djpiy6b26a22efbyw8yaWYa1mYEBpXduFK50zBHE4WUHSh49/rxv209WbfLebJa7esjiOWSAgvKEWrwuj9vOmJ7mLo++jSCNtQ+sr41RRUmvnmmVe/LFpJteyXM0DISrJuN+QgBzUnzxqzHHPHQW6dF7LcW6Xl3cRTSPczzrREjKCk0j0JJY1UCvA8sJDEtIsqnj6cdQ7H15tv0qwt7TzFUSyxeLUAc4mU19JoMdb77tPRckV/BCrRyfTLtqEMoqoaUjnQggg9mOlOo962G7lu5NWYvryPNcqlUmVPUABj2dzdO2twel57SKa5t1ubhpHQTuJlE0ruw8yMBRQ0VhUCpx03D7IPZ7ufVfVl5aPI9pZbteBrOg4XMsrLEugnxEVJoaLTPGzXvVe7mPqHd5UjgiHnMu3uSusHVI30iqsAxNKsKrQGmLOH27eyDc7nZDNEidQW9/Pa2MUUq1Uz2kchkjMVDrejKwINRyt+sOkkl3LaZQVWWHcdwaNic6hvNANKiopUVzpjqnqrpPZLpNx2x7dtTXdzKpSS4ijeqSysuQetStRyzxC4mVQTThWvcMdEdPXIMtrfbxaQsi1VistxGjUYEEeFjwII5Z4iEnS96DGCpH1hfZkcD+X93HSXT3Re2TQM8ErXCvcTTEZp5ZrM7lagk+E0OXZhb3q/arndelzGEltxdSQMUBH5OVa6GAFAaYsNt27b5Nq6uumy26bdNwlumIAqVKyBWU1oCpoeNBiO3m6EvCxUgltwvmXvqpuCCMRe0b2cbc1r05EVSe2LSy6K0Bm8yWRiPEQNAFMx2HCRj8mGqfTzwAOH7RSSNON/wCj724WL65tkMeohQ0luJG0mrDUSGOgAManLnilywUk0APh1DsNeON+672nbJbjpPdrqS5kkhjkdbeSWRmYSusaoisTVc8uBPAlloaKaVPP0Yhu7aomiYMp7CpBBy7x246V6k2l1ciyhilTJpI5Yo1WQlVZig1htNTWnHFlBtVzbxdZ2Xzts8hIAUVMkbhI3kYPwA4BqHDbK3s43SscugzC2uBAcwNSuIjVaZ1A4V9GN/uepLmK46w3MDXJblvKSNaGNB5kUciutT5mZBbOgoMdV9T71fLAV2uaGLxKpkmkhdYlUMy6nLkVodRAJHDHUfRHUG6B9+gnElspYBntyHdwoLlmCGtdK0UfGOeNz6PuZmj3GNGezkLBRFcHTpaQhJG8vw0IUCoyw22w9LybxGDlLYw3MqH1tApz5cu/HVF/1j0Lue3QyWWiN57aWJGbUCRV0FaDjTHXqyflhaj4oNPjpXL0Y6PsJriTcepiSE2+0Mc97K70YLHa6xIxPLLId2OnuoOuenBtMLWjfQ7aSJ4rkQa2ZTcKSV8yrZhGKjhWuG9nPU9raQ2O6SNJDcskSSJMEIEZmd1IR8qIASzZDjj2ZWzuoeXdtJK5EZxgUyyyPu4sds3m1tbm1WBAVmRZAaKBmHVqk0zyzx7Y9i9jfWi7d15tPUt3LDYXM8h2mWxJPmKLGClJFkNEaNQEpn2G99jP/wCRnT1x0/ut9byRTXc8aWW2zmM6tVrc3DnVqomkOok1AnSOTWew9OSdQbBMS8F3t8U9zCyN4hVxEPEBQEgUJ4GmNt9o/tMijtobSPzba1YyrOtyGQxvIskOkKg1DSDq1EGopULcXd7EluiEtVqGo5gnkOJry54uvaj0p11sp6dlhjjth5k7+GJRG5YxRyxkl1auliMhWhriGQ9c7ESX8QrdUp/2+Z7jli23Kw9p+y2dxHICkkUt5FKmfxkZIFII7mGeNi6f3beHv94ggRZJjI8rOy01MWfx+I1OfbTHXcd/cIl3dWfkwq5FHkLIaIpNS4FT4cwM8KSGDA8Blw507MVHD9ooDUQd+Np6t6fuGi3SwmWRGUlScqFajMBlJUkZ0OLLc7a/SLqOBQk8BOkxyBeCeYxd+3UBQ+nE+19SbLaXtg4KmOYCRWBFPEjZH3MsSSXHsc6e84sOFlF29tMWlvH7IOntSsS39jiHHP146Z6Y2bpOw2/2b7jGrTm0RldXZ/G/lREKwWNSAOLFgTkMbZ1d09v0U9pdRBo9bIjaTxBUtqXvDUOHntGjqeWoBR/BNc68Ti/6i6q6ijgsbdC0io8btQcdMesMx/eipPZh+n+n5ZYvZxZynyF+cQ3LKW8ueWF2YRsoYgU9J5Y2bq/pLcJYdys6h1VmQSxnKSJilGKSLVWpnixs5LhNu6xaIm5tpVMUSlT/AMOaZwJRSmYNakimWFhi36BnChgGljpTkAdXuY3Tqbet/t4NvtY2d6SIWKjjoUNqck8AtSTwGOuLT2W7RbWns7CRrJuN88lreMp8bfR7N2q/xdJZvCQaAEnGxdbXUsG49UsPNNzeeS1zEaDTHG9dSxx1IjAoQOePZ3dWU0ZT6sIojhhp852qaE5nhTs4Y2+82qdoL6FxJHKhKtGyEMCrcjUZY9ju8XN0o6n2/cgl8pYikgdVD6pDVtaoJC3AaqYtJH3KAxm3jNPMjIzQV4Nj2l9ddETCqb7dakDsiTwyS6nicxmuh6Z0OGt+pLCwn36GNPpFtewoEhkcf8E3DVehGTJWukEkDDbl7LOqj1Z0HBZsDt26XqobRUJdRY+Uak0JVUkypRVOLy3hum27qCyhWS6iukNo8bEDWi/SHHmKGqFZSQQK144v/Z17J79rrepWMdxeESI1rQ00wSKxjkEgqrjNQDmTlj2XwtfxF5LMu2uRAQzySMwOY4VpnmeeeBbvuFuamv5VDkTl99hVubu2KBfw0PvasblvW7brZJt9tEXasserSOJCawWPctTiw6d6WmkXoTb5NcbESxmeZlAYvE506YyGEbUqwOrhTEkpXMsV9XbgAHl+0IU0NOOPK4v+F/4YsOp+id3k2/e7aTXHIgViG7dMgZG9DKR3Yitus+mhvm5IKfSPpCWxK9hSO1ZczzGI47j2MO6LwH1mMv8A+FiR5PYm7SMBn9Zjl/8ACx0/uMfRp2eWyDAg3P0jzAa8fmotPqBwt/07vUtrcq1VK6fD3UYMp9YOILa39qVytvGKKvkWdKeu3ribduqd1kvb5ySWfSPEeJAUKor3AYbTxOAymko5/Dl34jC5OpqDzxGI9/uAyDwnVwpw9zFk297/ADXMtuR5Zeh00NcgABhrW66suntiKFTppTlkFFKcqenEVradVXKQIAABp4DgPi19fHEU3UO8S3csaFEL0qq8lFAMhgRg5jniQbZfvDrIJ00zI4VqD28OePLHV91p5U0AAdlAvLFxuG4XrS3sr6mdgKk8TWlBnhL62nKTq1QRxBHAg92DBtXtDuY4tAUAxW7EAcPE8LE+snB3rrLqCS+3fyfKErrGpEYJIWkaIpALHiK58cLEWq+VW7ad2INu2zq26gsYk0xouiiL2Dw19fHCu3XN6XHOq1p2fFxWXrG7LdtUr/s4Nzvu5y3c+WchrSmKzjWw+KTyPbl9vBj18Txwq14D9sMVGBqP2scffxUH3/8A6Hw/0Gf/2gAIAQEBBj8A/wB4BWpoN6V9mgAT/fGhPTxGq1/HuPnGuv49dT+A/wBW2up/BXQFVGtfpV2oDrw14a6/j11/HrZStjvvTR3Jp+6dVFSFeBrt8w/BoUrv7dtbn8euv49Dc+PQ66n8eup3/cGq9yvl3121UDsfZrr+PXX8eu5KlBQ8KkJPz+OgAohXd71DtSmh47Df8H7U4skIShtTinDQpbSkFSlKTsaJSCdXax3X1J4TFulkuc6z3WGpF0UuHcrdIXFmRniiApIcZfaIIBI0aepnCK7Vo3dvZt1t+v1mMJ/g7r+QaqfUxhNARt5d28TQf8Q+XWN8c4B6gMRyLM8vuSbPjlhhpuCZd2uC0LcTFjF6G235pQgncjprF2ueuT7Lx0vLlTkY4m8NTXPtUwENql+SuJHfQnyA6mpVStdfrM4T/BXb/R+v1mMJ/g7r+Qa/WYwn+Duv5Br9ZjCf4O6/kGkRo/qdwBt11QSkyV3GMyST++fegoZR8pKhp268TclYbyBCbHc45i97g3RxhJNO55hh4utgq8VADRSKKKNl0qmh38D16aZz3mzOLZgGIv3SJZWL1d0SFR13ScopjRaRmXllbxSabU1T+czhBpts3dSNvl+A31+sxhP8HdfyDR/pMYTsCrZu7VpsKD+IdSTrILXwTyrj3IlwxRmJKyKHZzJRJtcWcvsivvNSo7CiytQKSoVAJHt0KkhR37eo6D6J22GiSKgdRX6R8B+HTGfc2Z5aMAxN+7Q7IxeLwXUsybrO7hGgsNMtPPOOudp6A08dEfzmcI2p/m7t4/8Aw/X6zGE/wd2/INbepnCCfkau5/8Ap+sjhcD8p2DkWXiaIbmSNWZMxDtrbuPd8Et5MuOxVLpSaUrpO9fdG/t26/tUhhSgEusOMgnYpU82tskE+ASqvz6yrJP5zucxHMnyi/5NIipxbD3G4r98ukm5OxW1uMeYtuMZHYkq3ITU76P9KXOzv1+6eGHw/wDB9tfrS53+aWF/k+ve9Uud0qD/AMksM3oQafyf5NcYc4231EZlk1w4zyL7wQ8fnY3i0WFdHvIdYMZ6RDYTKaCkuGimyFDw1xavIOT71xs5xmu+uQVWW02a6OXQXluMhxD32uhZQ2z5Ffc6k76/Wkzof9EcL/J9frSZ3+aWGfk+v1o87p/+J4b+Ta29Umdj58Swz8nGilfqjzhYVsoLxLDCCPZ/kOmoeacWetrmbjfJre6h2Nd8Qt+NWtwlABCZcRCfgZ7BWN2nUKQodRrHMdzzOk8jZZZ4SYN0zVy3W+xysjdaqlmdNtluCIMee62B5oaSlBVvTfVv4gv+fXjj2Bb8zsuYG8WW32u5y5EizLWWoJburbjLbDyl+8U0Uaa29UmcingnEsMAHs28g9Nb+qXO/wA0sM/J9EfzpM6Jp++xLDNjsQafD9dtTuXMT9QmW5ei94tKxPIMPu1hxuDa7zEdebkx5TrluQ3ITOgvtBTaxvSqTsTojoenvUr4eA116U2pU7+I9prrjaw3zmzIeNMX4+nXO8uY7Y7VZrmzfL5PYS1DuM/7VSspct7QPlppQVJG+q/zpM78P/tHDPDp/wAX1+tLnf5pYZ+T6AHqlzvuP/NPDCenh/F6a5Mvdg5byPkh3kqFZoMyLfLVZbYzavsYuLbci/ZTTa3FvlW5cJ26aQD1CRX9z9qlpb95xcZ5DaQdw6plYb/wKqIodcg3O0t8pLstzzrKrlYlMc6uRIv2HOvMuRawxFFySqI0iI4kBvt90DQ7muWgo12Tz2pSajaoWbuKhXzaILHLRoNj+nw0Ua9Nrx1polLXLZIVt3c8rBNaEe6Luoe7uOu/s1wTnHK45KRxtjGbtXDNftbmR2+W9Vp+GkIUqRZxc3BPaStQqgpNdcFv+lZOVLONScpVmn3Yz37ku+ROYgptzclfxsUTB5rSlBO5TvvodzPLfTenPRJB/wDnOqeTyzQdSefSK18QPtg9BofU8rgmgUf0/qISpQNO3su6lL33OwA1uxy0TTx57PXx63nQqxy2DXw58JSQB1r9sdwPyEaJRG5bUnwCue9yogAkhd4JAoKgHprBc4jwOS5z2J5bZL8q3XbnEXC2T40K4RnbjCn29y7uMTI0qEFposddtYzi/pyh5DG5T+/GGX66RcYzD7nz4cCK15l5jG9IlxUOMNuLKCjuUlYGjSNyyUgk1/T44FdFKNUi6qJUpfy+OveY5aCxsQOfFFO1Pok3gEg/MKa/k/LPXqefD+7/AO2K6jXGAxyz9pW2ZFuMBS+eSthMqE+iQyJDRu586OpTdFoooLSaEb646m8oWQY1yI7iFlTm1kMpuYIGSNw2Wro03LaUpt9C5KFLSQeitSHmGlSXWY77rcdugW+6htS0MhRISFOqASKnqdcp8lw7NyPZIWZ5tfLtabLZ+aWbRarVj4lLbsEKDbo158uKGrclNUhIIJ31tH5b/wCvw/6Z1/J+W/8Ar8P+mdAhrlupJFBz0dz+9J77yhQT7SAdc4S/VQnL/sfJLRi7OHfefkI5ykzYLjhuJioXOlmAVJVQ9O7ST090bfg/aiakbU8KfhHjoqK1V3odqgEdPmAGuN8A4itOEz7BlOBT8lujmS2a7XGc3cY11ZhNNR3oTa2EMKZWSQferpTYx7inuSCfL+62R93u0rRXk9vca7Dx1zdd+YrZjNsk8eZVYrJYE4zabhamZEO5W6TLkuShPShbjyHmQBTamkivynbrtt8m2tlKNKe6SKH3k7nbrQa5j5PxFENzJsFwK+5LZGbhHdmQV3G3RlOxkzIrILz7BWPeSncjUVT+OcTx3HlAFDuKZI0QokApJLJokE0r7NcOcdX3HOLW7FnvJGM4penouNX9qe1abpOQ1clQ1rZDbUkNGqFr93SSpNUrSkoO4VUpBNR4U1yHmFqQ25c8VwzJMgt7TrS32XZ1qtUudFbfaaBdWy4+wkKA3Ka003IOO8UJ7isrpimSI8rtcWnyyhTPd7oGguLjHEkl51TTUdtWJ5OpL78h5LUVrsSz5hLz5CU06Hc64/vuaMRomXX3D8fvGRR4TJahsXi5W2PMnsMMr95ppp50pSDuAN99Xae0El6FbZ0xhKgVhTkaM480FACpT3oFRq/MtY1xaiLb8gv9sjF3FshDyo1ru0yAx5vYyQpzymAVEdSdCti4mGwP/JTJQR/3jfXamw8TKNCQj7rZIEEI95Q3YCQSkddcs8fc1RcStWdYnHtGTYtGxe2XW2sXHFZaPhZzr3x7aUPSIdxHvdp2SoahZpgtvtd25PzPLrZiWC267w5s+1l1wLn3i43CPBQp5TMK1RXCnoPMKdELsPEfmAhJP3UyUdqkj3/LKmKrSo9PHW1j4mPyfdTJv+A1IdTYuI0lth91Di8XyUtdzSCpKVhLPeCoimuF+Xs1jwYOU8gYTasgvsS2R5ES2sz5aVLcTEjSgJDLI7R7qt9EknfoPBJ9qfZpI60SB+L9qPzf2tD5tyfo0PhTxOsYwz1B4XPyjLL9jT18s78TAbflaI1nbmIjKZVNmDuYK3zUIGxpU6NOI7yV0Kgn9DVipVPUlKO5VBXc0NNcgXb05YtIxeFh96t1rypmVh0LEXZVwmxXZER0Nw0ATkJZaUAtRJGh82jtXpt+Ef1tZ5yDncNdxwvEsaul7yiE1CauRlWeCwp2WwIEijUsrbFOxWytNOs8QXhbTzaVoKuIMbBIWD3AJLp9zqK+Ps1GnReKMhgy4TrciJOi8QY+1IjvtEFl9h5l1t5l5sj3VJUCPDVRG5cqf+ZLRr1p/wC9tPR37dyvKjyGnI77D+ER1NPNOoLbjLrS7opLrbiFEKCgQQemv9j98U4VBKWRwxjh71qO3afNoE03KlAJr46yPF+FuDJCl4XEZuGT5DfeLccteO2KQ6tIt1uduyPPb+3JSh3tx2u5SUIKlFNBUAADy0hKUpHalKE7JCQKpCQNgB0Gp06UKxYUOVOkt0KyqNGZceeARsHSppBFPHVxZkcR3pT0S5XGHKc/QzYKKlw5r8aWruSAHKyGVEK3Kganc6SWuIbw53KS2kI4bx4KUpaghAAPakdzigOvUjUlifwvkEJ+G+Y0tmZw3jzbjEgIS4qO40palpcShaVUKRUGusctWGYNkGJXvLbxbMQi3yLxlabIll28TER4rM+4QlofatxkrHd1SOtNZDwry7jl7zvKOO3Ihuvw2CW/LLTZ7jc4KJvwjEm4rS2i4iC+guBCQpKXEgmh0AeHL6hwlCQ0eGbB3VUaMpSEEp7lkgADck00/Cn8MZDCmx1JbfhyOGbC3JbcWyh9LamlHvS55bgJCgKaWtXDN/CEtOuOd3C2PEFKEkrrVXve6Drj/k3jSC9a8CzPHod5xaA7b2rU5HtEgEx2V26OVsQO0A+4nYD2a3G3UfN7NAfIP637UdVA3CTvQGnQmu+wIGsXzDn3L7nj+VYxjUiw2SHb8+iYkl6zSJiJjj70N5QclkSE0S4NgNtdx5HyKvb9ZTma3p7kq6hRDvvpV0oSK65Ctfp2yG45BBzS82255Oq45izl64c6DFeYhtNOsKUIDamHFHyzueuhr26zzjvPZjluwvM8buWP5JPYnotbsW1XBstSn0XFwhuGtts1Ditk6aDfJWRLZW2lKFp5ktxDqB9DsKVkBIPs0R+kfJQBQUHMkGh29hdA1X9JGTGn/wDZbf8A1vMroV5JyYgGv+2W3UAp4fWV2+bRB5KyQIAdAKeZ4CV9i/8AKDvLoKU93Xw1Y+N+BrNbrbhLBeuH2qxJZus/JZ8lwqfvF4vrdXLvMeXVPmqUQkJCU0po7VVv2+PcD0+c7amwZKlJjzYcmPIUghK0MyGHG3iFnZBQ2omp2Gp773IuRNOTLhcJsplHMkFCWpU+Y/LltoQXSG+2S8v3a1T00w+eR8hSmJKjS0OL5ot6Cl2PIbeaHd5nakLdQB+HV05Hzq+5Bil5zv7PlrjRuSmrDa7o5brZEtjc+3wXy2y45IiR2i843stXvGldNlvkvJWXI77MloN8zQG3WpEV5EiO+kh0LbcYkNJUlSfFOx1csoyjl7ML/kt5f+LvV+uXNMF+ddpSWW4wkzHS5VxxEOOhsE9EoGrI7Yswyq/3W1XWBkESzR+VY92TNcskpmYhMm3MKU5LghxkBxPQjx1nmdZHnl5tuSZdk0m9X62Q+WYFth2u5GPFiOQIdu8wKt7cdEZI8s0UCTUacYe5GyEpcYdbX3c0wQfLcQoLWKubUB+bXHnGPGk165YLhWNwrFi02Rc0Xl+TaYgUliQ7c2/cnBYP0x10K7DbY9SfaPk/azqnsRXxB3NDQ9PweOuPuReL8nwCyWrEsEnYpPjZS5do9xemSro1ODzC4Cw0phLaKCtDXXw7vI/DKmQn6tHx2UdxUjdIcKniFp8fk1zZZ+UclxbIneSMqsN/s5xWTdXokNq22x+HKbcauTjnklbrwI7T72+w0Bo0602+fw/Hrl7inGpEGHf8/wAEveM2iVcVutQY825R/KbdmOshTqGEk7lIrpuLH5H4VS2yjtTWRk5qmoIA+t2dqTU7A/i0QeSuFNqUPxGTgK28Ku+Hy01/tI4U/wDKMm/4XX+0rhQCu9ZGTe78/wBdpTMrkbhZ+M6ktyG0y8nC1tDo2nueUgf2PDV44n5qzzCeQeEPIdn4O3Aut5nZPx/c1OpVJssR+5BQmY1PBU422VFUZ2vbssgJBI7gNz0I227fYdXaAyQXp1quENorJSnzZMR1lHc4kVQjvUKn2fNq+ymOSeISm55JkF7jpM/J20tN3m6ybg0ythtwN+Yy08lKiKBRFdH4nkbhpySlxhxLq5mTqaQph5t5ujC3FIUSEU32BNfDXCWIYdd8ZsfMHDrWOxIt/vj9yas0u1N4/Gs2TWkrgqRIeYmPMBxjv2CkgmmvMZ5D4eS6O3sU5csncQhQ3CezzKnt6bk6WlXJPCzncCVgScnSXCoEdifrKI+fWdct8yZFh+T3ubi8LFsDj4tMu8lNpYkOmRfpsxFyUWg/KoGkFIJ7R1GuXeS8dznimDZs65FyPK7JCnzshTNjQLjKD0IyUMuhlEhaD2rQkAAI2O+prUnkzhxDr0F6NHW1NypHa66kjuVR/uSlNeu5+TXC/DuWzYFyyPjzCrZjd5n216S9bpk6GFJekRH5n8aWyor279zqlT1IBr0/tU0B12H7VuaV2Hyn2a23907UI3B69P7uuMMe9LVy5KgYfeePrlcsg+5HGruawjfmbuwxH+NmoiyBCkmKo9re3cnem2gr7c5/V20BCuCXkj2d3d9nHtIr0oa65yl+rOVnMq52HLrJAwpebYU5hj6rS5bn3ZioUVcSKmW0ZBAUsA0I30Ca9adD7aVNRsPl1Su56Chr1609lRrmrJeMnLo3yFZePr/ccNXZbf8Aat2+340Ra4XwFtCFmbJDn0G6HvO2mFOX7n8OutN+YRwRI7UrIPdRLltStBFD4b0rrhaw5te+apmC37krHLRl6blwpJtMIY9MmNtTDNuSrckQkUV7y1FIA0CBWqEdRQKV2jurvUGtdckXXFFSm8mt2EZLPxxyDF+OmJvca1Snbd8LDKFfEv8AxSE9qO09xoNNqdvvPnnkr70DgV9BFHFpFSbQKntA9ldLlovHPj64pYdTGc4JfKJSW30KVHIFs7lKdT3BdB9GgG9NcdZZfYUq33rIcOsF2vMGfGXCmxbrLtsd24syoSwHIr6JRV3NkAoO1NXp+E4puW1a7i/EW2kOLTIaivLY7EEHzFeakUTTemr4mPe+fm48fIb9EiRk8FyFdsGNd5rMEodFt7VtqiIR2Kr7yaHx0yUX/n0LVJjJLSuB5aqtqkNJcBUi2EAFtRqaigFdWDz7jJtua3rjq0Lfu78cNSoWTz8cYcXOehuJ7G3491c71NEbEUOsxxCfk/N8mXiOV33G/ibVwW6/bbjFtVxfiQ7rCnN24szYtwYaS6h1CilQV109IayDn911LR7I6eA5S1l3ohCUi2E/WLIFfDrriRHPORT8q5en4lbbvnd4uDEeJLRe7sj492AqNDShphNtD4aSkAU7aHfXNmPYLd+cI2CWLk7JLThrVt4Wk3OD92o0gfZzkK5qtnbNjdiqJWFnuHTUgovnPpdEV5TdeCH6+cEL8sIraXKknprg3KeYXbu9ybfcBtFwzV7IbWqy3py8uIWZBuVqW1H+AlAqFUdgprbqB3EVrt03PtOh8w/annSgrDLLjp7VBO7TanKE/ve4JpXWY41/NpyeWrFMtyDFvjW8ysLSJyrFc5VtMtDXklTbTrkatFe8K6qr0vZN3eNc1sCifwmPsPZrb0vZInrSuZ4+d6eP8X2B1Uel/KE1oKjNrCASSNlUYA3UNvHXFnB7Xp+yXGJHJ+SjHWL7IyuzTmLc55Dr3nORo7QfcADfQHXE8e5cYXfkh7lJeQIifZl6t9oTahj6Ii3S8qchanviPi09vb0odb+mDJyevvZtYqV+WrJFfwa39LuTFNRT/XPHh71NztH+gBt8+jX0uZIAmhB++WPmpSd6D4etf7011t6X8nBPU/fixmn4CzTXar0wZRQlNAc2sCup3JPkUSABo/0XMmPtpmePdfn+HFdWOxw/Stlkiff77aLBb48bLrC/JfnXiazBioaYTGU68suPdEeHzaxvma78eXDMTfsoxrGHsaiXaDaZFsl35gvFx+dKT5CxCXVCgBuodNUPpgyojbuCs3sBIBA90tpj1+evhT2629LWTJruK5nj9fnJ+HFSfH2aC3vS/kwaD0dDhOZ4+fLbdeQyt0ARwSW/MrTx1jGUtRVRGslx6yX5uItbbpit3i3R7gywpxICHVNJfAKgAKjXHeN3vge8chY7yLZbpcbbmEHI7TaIjN1tDo+LsbkeZHU4ZaYykOiij3JVrC+AsY9NV/sbmSwbteLxk72VWedFxqyWeG9IkXOdBjxi+tnz0IZT7yauOppXSe6lNqAJoAAPdCf7wa5P4rkem7ILy/xvmd3w5+8x8wx9tm5SLS8GlykMOR1PNNOqO3ce6vXQ/ouZNT2ffPH9/wDzfXaPS/lIR++QM2sKfdrsEr+H6j2a5OsFv4uu3HT3G0GyXBx65XyBeUXNN6WtvymfgUI8lTHbv3HQTTcADc/J4mlNV6dfxdf2l3zKFHlq8wE7eX2K8zuB6o8utab6yd/IbhwOcnfyK8u5OlWQXFqSjI1T3/tlEtlmShLUpE7vDiaVSqo0QZ3A21OuRXev/pZ1/LuBvzju/wCV6qZvA+29Dkd3I2NegmfJrjydwdK4YXzIxfkjjxuxXy6Sr4u/PMuBKbbGckuIXIDIUT3CgHXXG/8APflcfsyGHryON05xc5FvcW643HN4VbEw321OIS2hAX3e6DTX8u4G/OK8f2ZdNEfHcEfhyO7H9z+Oa3ncD/nHdvyw63ncED/pHdv7Ew6/lvA3sr947xX8czS5Ei5cCsNN0C3nMmu6W0naiSfjQnuNdh1rrAucuH+FsSltRJkbKMDy5pu+FtMqG8tES7QY1zdAcb81JLa1I7VUChUb6t0X1oHEWeK05XbHbevN5bsGzjKkd32WlD0d5tQmKNfLH749NGtw4DcNalQyW8Ek1OylJlhJKemv5bwN+ct5/LNdjk/gIpU40AlWTXmpc81BZCf44KqU6AAN6mmsdbxgs/dlFitDWPJiqUuMbE1BYRafIWoqUWfgQ32EmtKV0i7+qTDsbyTCOM3JmVM3TJBJbjYwfh0x51zMmE4iQyymMgB0k9hAqRqbzl6N8TwV1m8x5mGyeQcPfmz2p0eM5GlTrSzOmPvIWhp0NFflgUOxOgEgmoA6A023PUDXIMnkqXwmzyW/llyez9Nyv10YuRylawu4me23JDKJilfTpTrqpm8DU8AMkvNenifjiNAqncDJ+Q5Legfw0mqGuVLx6L5PHSJkKywblypKwi5T7g61ZoDMiVAduiJUh5LaQ20ooKEpUSN9HK8VyjFuNLdfMZtHInDfF8zE4eVXnkTAshzCXhOKv3pc2/2i/XPIcoukMvvwbFFluWyA4HlBZSoah5jdMbXheaWa7XPEOQ8OU+ZzOO5rYJJhXiJb7iEIE62OkB1hwpSoNuBKwFpUNDqabb9dvb7D+0Ot93b5jLrQVSpQp1tTYUj2KHdXWZ5SfUjCZVlWX5Jk4ZXgEBx2Km/XaXc/hS+CC+WDJ7e87mmhT1MxU02r9woQJp8yhTX6zkWntOBw/wCwvX6zcQgHtP8AqDE6EHw7zXXFHOUjn1jJEcaZMMk+w2MIg29y6ARHY3w3xyVF2NXzAe4eymuInY3KDXHR4zkZC+tt7HY19Fy+2mYraCyt4pXFWx5BrTZQVr9ZuP8AmJC/xtfrNx/zEhf42v1nI/5iQv8AG1+s3H/MSF/jaQu8epqQIqVUdFswK1B9aQae45L7kIVq35bltluXOmY215mZEnckNwpVhgz49PJkwcVjNptbTrNB2qWF1pU6j263xI8CBEYbYhwobDUWJHYaSEoZYjMoQyw02nZKUgADVt4gjZy1x8q3ZrZMvVeV2Vm9+Y3aCtRhojPUbSt4r+n1Gqo9S0JoKJUUN4FCSgE+IHeaVA3+XW/qYhq/wsChmn4e/bSe/wBSkLtDzDqinAYQcCY77T3a04pZ8tS+ylRvrFsX+IMv7tY3ZLB8b2Bv4w2e2xrf8V2DZsveR3U8K6yfDL5Gal2fKcfu2PXONIZS8y9Du8F6C95jSwpDlEvVFR1GsH4IwkByyYWxcUCcY7UeRdJdyucy5PTpgaAS7KKZCWis7lLSdAgb/J+HXKnKDPqIiWhrkbO77mibSvB4ctdqN6dbWIJlqUFPeQG6AnX6zUam3XBIRpT/ALrQ/pMQ1Abk/o/iCn4CqpFdcwz7vyRG5Kict2e0WF+3tY1FsjMKJb0vNvNulklUsTW3iCVdK6n41gjHFmc2y2S7GngvlzOZN6tPJHp4tOM3i637FLbbYtqCoN/ViFyvkr4d5PauXEKGXwQDq24DCvlyy29Sbhc8nzfN7yG0XXM82yKWu537I5rLP1MVE+a8oNMo91ppKE+FTvtudqUpv0/B+zrqgqSR7qKbk/J0qfmO2lWbnT1B8e8eX5tKSuxT7jIul+QlRIQHbPYI11ubRWQQApsHbSwv1YY93IPYSMF5VISR0IUjBloUFHpudZDYfTjzdj3JF8xVliZfLHDt2QWW7Q4D/wBW3ORb8mtFnlTIJcHaXWErQlWxNdHsHQmoHhQkEknc79NUFSfYBXSVFJ7hWhII/u6/q/ta2/3T1+an9nRPbQ9T4/KfHQJP+Cfw77V17CehPj8nyap7T1/q8P8AcG1T4D29dUIICwABSm5PTbVAKEAinyaCSenTbRQAeg6CuxrvSmqU7lAUPh8mlCnX5dVSKE7A/wB3RrXYVr7KDrsdDauw3oN9uuqUp7P2dE/LXx6aJKuwCtFEfQATUlSie0Co8dqazL0n+jbI0Wt20SJ2N8nc3W9bEiT8Y2S1Pxzj6U2txDSoq0lqRcAahVUt+0Sr/k94uWSX2e6p+febzNk3O6TH3lqccdemTFuyF9y1k0JpvoJIKEj6QUpI947ChqCnWE858R5C7j+YYjcmXwkPKTAv9oU4j7Txq+xQQ1Ps91jgpcbcBCSAoUIGj6vrtnVmwfF8WtRTynZLrOii84blsJhBm46q3odMmTKuD6gq3pQCZLbie2prS74z6OcUtnG+DNvLixc9zm1t3fMru228pPxsS0LIg2VicyKoDhU82DuK1Gn5CvUvlZWt4v1Yi25DDJUoOFtDYjp7GFdnbQeBpq3WL1YYraOYsHMptuVlmLw2bDnVriPKQ2pz4RkC23lEVBUuh7Xl9NzTWM808IZhDy/BcmiILEhlXbc7PObFZdjv9tKi/abzbXVFDzLwC0kewg6l3C4yWLfbrfGemTp0x5DEOJEjNqeelPvuqS0xHaaQpS1KIAA1fuLfR5htv5ZyWwT1W26coZJIcZ48TLYUW5rFgjRK3C+JYWkjz6JYWr6JoK6mTIfJ2I41EfkKXHtdnwizGPCBJIabdkhyQ8lINNzuBrDMi5ZzW08hcbQL7CXm2IM4jarfMu2NOLSxdU2uUwhDrFzYZJcZ3opaKeOsM5j4wvbN+wnObLEvNoktqQJDKJbKVPQJ7CFrMW5QHj5b7S6KbWkjXPvHWG8v2m3YrhXLma41jcA4dY5H2fZLReHotvjKedbcceLLDYBUSSo76tnFnrZzezZBx5yg7AxvGcuZscGwKwbL5MhTVvfukmGENu2S9uLTHWpygZd7CD7x0hxpxLjLqErZcSrubU2oBSFNqqQtC0kFKhsQa65/5Iwec1bMxwni3Ksjxy4SGESWId2t1vW9EkOxnSG3UtuJB7TsdNufpptNPIStVcHsCgSUCpVVkAmvs3GvT7zRyte4dxzHMONrdkuZX4MsWyAuYttyROluNpWI8KK00klRqEpSmusq4d9FVms+b3+wTJ1jvHNGThUrDWboyVsSBhcBuv3iTBfSUiQ4UsLWKJrQnU7nrk/1c5D6W/TbH8+XkXOWdS42D4THjNkOuxsIxn4RNwyqepJ7Y7MRKkd9ApVDrF+H/TDf8q9SMXGbkqTnPP3qQDwvvIEzz0IuMfEcdhtMjH8bcbYIjeZ9YAsqA1JxqAlXHXO+OwWn8k4wvklAXdWENJVJv2GTO7svlqQ4PrQn66PWi0+Os25c5KvTFhwjAbFOyHILm+4hCWocNAPks96k+bMkvKQ2y2PeW4sJHXVy/m5jHeHeLYFylfYEebZYmQZde4CSW48i9zJgVHYW62A55TI90qoTtooPN9tRtQFnC7E2sBVaBZLBFR49NK9O3rZy21SbxnFxZRxNygYMSxRPtmR9WrDMnW0pERsTngkQHjQl1Xlq3IJAUanr49Pw/sttjvvsN9ckX/F7lMtnInJfk8Y4HNgSxFlWufkKVoud6YeStD7btus7T6kKbCilxSela6cekq86TIdW4++tRcW9IcUVuSXVLKnFqedUVqUTUqJOn/Ur6nm7t+ho3OTbOO8LtUt20S85uVonobuN6ukxKQ8jG4z7S2EoZUnz1BVTTTMFv0p8ayW4o7A7PtRmyXDWve5KfWt5wn5VeGqH0m8UbkBI+wW6VI6V321mPpz9KvH1s4h4X4juIx/LLTigVb7PyRyLb0tPTshvEGK+uNcWrEVCNBU6CtCg6aCo1aeDuHYcQXaZHcu2SZLdFEWPDMbjrCJV+vCmlKcEZKiENNIAW+77oI66Q3I9Ut8XyMLcSX2cVgN4iq8JQVJaTGWTdfgSsUFXu8A9fbeeD+ZrZGTdIUZq6Y7kVs816w5hjslfbEvNmkuJSVJA919pXvsOe6onVl4xyi9La4K5+vNvxXKLe+64qDj+XznGoWM5fHY8wNR5DklaIckhNVNuoqaI1a/RVxDkL9nyHkWwN33mK/WiQW7hbsJnlaLdi0SUy8Vxhk6G1KkFICvhQUggq1iHEfFeOSsozrNbqxacfssEEOOPuqNX33ahuPCiMguPOq2S2CdztqDcecPUY3jOby47T8uwYFY2bvabU44mrsZV0uiGnZ7zRPaVIQhNQdqap/OozbsVSn+qtlKt9qUCSCkjrrOMDg+oXJeV+LckfjXSx4XkNnhQmsRyEkC53K0So6e6PGuzCEhyMKt+YnvFFE19V4TXuPPXI4oQkJRS+vgBASKJHyaDjSltOtjvbeQtTTjam/eStpxJCg4FGqaUod/AUZ9J/OF+Q/zhxXZW14Vkc+QPiORuPYIDMdEl53yy/kuMp7Wn6dyn2AF0FDr1UEk/7FM3G1ak/ZThJUOvaQdNlZ6sJCqdxOzSRtTqkfiGvQ76HvSNYLxI5H5w4JseQck5+w99kYpx5w8y7LgXCZk+ZvqYtNgRfZram1lSzIDCDRBBOomMmBC/7Rb1rJvNutOO4XjaEr9NeF5dcJTESFajNLypfI19iTXaqKB8G4sIp2DuOrHnnry9V93xu/ybfEnY9wbxbZoUXjbimE+wh+FjsGzOtpsfxtsbWG3nmY4X3JKe8gVMblGJlEDlrgu53duzqymDAft99xOZIH/q6LlFr+tjqbmrCkolsrQ0VgJKAdzhHMnGt5l2HMsCvcO/2m4QHXG3V/DuBUy2Sg0tBcg3SL3MPNn3VoWQRr0fXzAl3C22L1OXpWU5gxFcR8Gy5hEJDN3xG4JDqlKVHySSohHUCPUkeKUDsHnFtPmO1EdsKcDfmOL3IKK1PsSNcf8AIyvV5Ivb2Y4tZ77Km4PY7LdcZbl3eGxNMW3S/NlPPNw0v+WorWF96TVKemo8qJ6sc8iSoj7UmLMiY1aI8uNLiuB5iRHkNhK2n2HUJUhaSFJUKjcawvjrkPky48wZRidsTaJPIN3hMW+75BFirLcB+5sRvq/jGogSha9y4U9x3Oj8/wC5sP2J7vb8p/ra9IWD2yDcZ9vuN15NyiSzb4MqaRLs0bF7cwt1MZDhbV5N3c7aj3gFU+idNtrx/IWEOyIzC3nLJckIZTJkNMILziowCGwXQK9a69P3FlmjJYhYnxbiUdyqaOKucy0xbjdX3AUpV5ki4ynFqJAKianST/miD3nxCj9EdvU1OuR80JWDiuD5Tf0KbStTvnWuzTJjIbQ2lS1OF5pISACSdZfmdwsWUS5uWZTfcjkTH7Nc1vyXr1dJFw7nO+P397gfpTrttrnnmufZnIuXZTyLHwhifMhmPLYsGO29h9+A357bcltP2s+suJI7Srca3SCEpPd7dyQaVp1A664U5stdmlTMuwnP3MOfft0J2TJex/JowWiO6iO24+4zHnNBYP0QomurZdomOZOxLts2FPYfYs9zbfZfhSW5LLjK/h/cfbdbCknqFAayrm7I8QyeFc8gt2M2luG7abrIWzbsYs0azRe91UehcfMdS1U93uX8uuTs6yiwS2J/H3FYdxxd3s8llKLhkV1XClyYD0lpttuXFjRO33SSErO2+t/ePUVG4Ptr7aa7QPoiuwrtvQbfRO3TRUE0C/A9KDtrXxCj1Hza9VREG4BS+eORFgKgyEhSFX2QW3Aot9q0uI3ChsoGupvNMbE7pJ43tGXMYPdr4xDkOt2zInoTdwisS0hv6lqZHdHYs+6pQKa11hnLvGU+845m2CXuJkFhusSNMSEvxXUrdjSWUICZFvmM1afaVVCm1EfLrnnMOMsduC+WpXEmT4NmnF0Nlx68W3kNy0BpMC2t9gMuFewRIhdtStpwJPvV1Ay//tCs5us/PYlptuQ2v0X8Gtyci5OuKX4yZkCLyplMJDln47tk1tB81CnS/QFBoogaxzg3hi3zOAPS1YcOx+yWbhXAmrnAWxEiQkD7LynJUoauuQNRllX1XmBjzFKJCtcSpyO2uuWrArFk/ITTMyCVRnZdkt7jFuKvPCR5rcyYhaFCqgoVA2qCCkUUNz1A22CvZTXqE40vMZEuLeeLcsejAxkynY90s9plXW1y4zSwR8S3Mhp7FAVr031KbXjeRIchvyY7hNmuKe0MPONKLqlRwlPd2fLrkPAMFYlzeS/SFzrfM3wPHpEN34rJ7FkFhhXXIcftLj6WnIr84PPONNJ7vNkR6GneKzrbc8Ny2DPt8iRGmwZWO3Zt+DOYd8p+NIbMQlpxlwdpChsdtMwePY2R5fxVLlpl37iLL7beJGMSVfRcfs8kx3JmPziwCkKYHlKoCU6sWETm8g4T5ru/bHi8X8h22VEXfJQbUp1OJX5McWq99vYVFpK0voSR3IFdUp2eFCKHateoqfn12pVuBXpTbp4697rX+rp+w71KHbvtv1J2316XpPBF9xuxwM0a5MjZUchw/Hcq+Ik2xWJLtDcVV+t84wQlmXJLnldnmVSFVFNQvOz7jgxW5kFUkL4b45KRF+KZ89JH3f7WkeXXcUUkbgg640zVmZGnpyzAsTyJU+GhCIkt672ODPefjttANttLdfVRKQAB00pRcSunSiadvyH2nXLd9xENIyq0ceZZc7AJMVmcwLlb7LMlRg/EfStiU2VtboWClQ2IppbDue8eedFffjLDvDXHAWFMurbUjtNgPYGlIISPCm+uUZ/MWQ2K98j4Hyg7bJf2Nj1jxdDNhu9tYuVnrasfhQIa2W0rU2l4oK1KSQSaaJ7wVJ+mOlSen+CPb8msNyviG+2Ky59lnKdqsdv+3ces+TsS7XHjOTbsGLbeosuH5zDASrzOwqSDsdFaM6489wFaknhzjtaj2ip7aWBPWmnMVy/KcCsd+agW65P2+Tw1x0l9mFc4zU+A44kWD6T8Z1KwD4GuufcN54yPGb4/juFYxe8XZsWEYvibjLS7nPi3BKpFht0F6cgdqCULKgitfHXbSuxNBt137fn1xNmPp7zRrCr7k3IUmxXqW7abddxJt7dsEr4fybgw+hpQcFe9ICt+uuEcNv8AznEnWDKuVsEx68wl4fjoam2a9ZJb4N0hhYghxoyIshaErQUqQogg7a9Q2EWDKuNUY/ifLmX4/Y2JnEHH9xmsWu3TvKitP3GbZHpk1xts0Ljq1LV4nXqkgcoZZhaMutWQRLZgGQ2/jDCYcDGbxKx5T8G6S7ExaW7Td3YdwUlX17Sz5fcmvTWcz/V/zZwD6TOE8CyW9Y9I5SzPhbjCflOemxSFttr4lwWLYlz8lfusbsUw8pIjNuOBKu4AjWU4Nw5x/Fu/E3EXBPIHI+aZtmVjx7FOSudMqwu3xXrfPk27FrbAx7DbZIW44lLTbC1gECoAoL1n/oH9SGBYvy3fIiLtdvRv6hONOM4+epnIjMOzo/GXJUyx+RnUBa1K8luUv4o+6klI1d+PuU2cJwHOLBIKLtjuR8C4Db7jHW4CUOkP2Aokx3adyVoK0K8DrDuIucsgwCXiWa4nlsS3M2HjnC8RmryOHBNxt6G7rZbVEnKLqIiwWgvtXXcbaSlJA7julR7ia79tdqGuuVuQHZTUL7ncdZjkbEx5DTjTMu02KdLhlaHgpl0/FNIAQsFKiaHY6kBnPePnmG5E3y/O4a4271tKlPLjqcSmwBHclsiuxJ8STvrm7OecLjYLs/aOUIuO489YMNx/D2ExGsegzJwkN4/Bgs3BwSJQ99YUtI90Gg1PtPD/ACDC4B5Ddubd1Y5Es2A4jlTz77SSlyHerbf7bJZnQpdQFkdriRulQO+rjOzzNbXmXF6ZJatXL2EcRcf3TFZ7SgnsNzhMYm7Oxp4pP+SkAoSB9M6YcRzDbI0xhZcizo/GXGjEuHIAKBJiSGcXQ9FePTvQpKqddSvSv6qrpDyTPbrAl3rizkViHEt0y9ItrZfvGM3+LDYYivzWmD5sWQlIKkgpUCQDoKP0vkqB21rQA/19U9m37AnY0VSg3OuO+X7MyH/0JZ+p6+071uNWHMGGbU46EIbUKJuLUcqUSAANEL9p2qR3pIp756EV3I6axL015plFss3OPCFpZxiLaLvcI0JzL8JhdrWO3Sw/EvpcuD8OKoRpDTYUtHlBVKK1sAK0261JHXatE11OtVxaTIhXKHKgTWVFPY9Emx3I77R7juFsOkHbodc48QX2BJjQrfmt6vOJzHI622LzhuQTnbtZblCPYO5htiUWCRsFsHUy/ZXCmXzhfk6BCx7kq1W4ebcrS1EkF+25Ra43ehMiZbFuELQSS6ye0EeLebu+pTEHYb9vE9Nkiee/lACmytMV2xNoXORMH0C2U7KPs31j0PAbRdbBwPxU1cIuBsXZQReclvM9QTdcsukBCi1b0vNoDUVkkuIY+nQmmuIuCsWhuS3suyi2C+ymI777FrxO3SGZeTXaallCltRY1tQtJWQEhxaQTvrjzn3D7M7+jTkTCcbwS83OG045GtWZYRakW2K1clNjy4hvVoZDralUCygpFVax3nHD7ajIrY1GdsWaYa+8Y7WT4xcFITNjocb/AMhcYgSXYzivcS6CFChqIk648sSOLry8zHM3HuQ7U/aJEGQ4lKnWROb8+3yUtOEp70OEKAqOuuGcX4M5nw/kq/2jkeVdrlbMXnCfIg25VpDQlyvKBS0gqIFFEEH5dem8Ibcec/TlxmUob7QClOXWrvKSspSQhokqqRQA0qaa9WyeNscRacGx/nvPl5zzBm0hOO8VYLBRdB8VJv2WTUtwC7DZ95UdkuPkCvaAa654wHgDmS68+Xy0ZpZWeVeRodr+zePHsk+xh8PAwAqJduNrjRx70k1DqjXahGrB6vsCN3uOScHWx2DnWOIelz40vA5Dneb3braVLYhzLFIX5j7jae55kkK6Aj1DgGiT6Q+ce5IIoFptMAIJI8ElVQQep6atN1tVxlWq7W1qPIgXS3y5EG5wZaGAEyIU6MtuXGdH982tJpr0C5t63OE1+oPgHmfgmy2TJ+cccjR7N6jeNeVbZ5qkXWFmxQqNk0OVaVNrTCmlPnLaVuVGmsG9a/8A2efI1k9XHG3GuTxM1jRMYQuFzBgseCVSJli5S42aSbvHbfti1x3pUFMhKkFThSgUrbsjzjlODwpnsS3NnMuP+QUO2m42W+x0Bm6w4L60li6R2paF+UUHvKKVSDtrK/TF6QbpecouPICF2TkDk56A/arFbMUr/HrXjYlpD91m3xKvLU4EJabZKve7iBpiNH7nJEh1EWMw2Ct1+Q+tLUdlug7i644oJA3rXrqD6Y839NnLUnlC2ZHdsm5LmMzcfityr7fvKkQ/Ijy7gzKabZsYijscSntNdK/o08u9qklApdMT7h7ST9qk01Ms1+9KvI96tM+OuPLtN6l4XOts1taSlTUyJKuD7DsdYJBBQvY9Ncj8i4niMDAMazXLrrfrBhNsWhUHF7XMkFca1xvLQ22hKEjuUEjtClEDamvTk5j0eW83jtxvuR36RGQpTMSxW+0OpmGW4hKg0y6t5CaGncTSut1VIUoe6o9a1HdWh+f2dND+qvy/sCr6Ir1HUkmgOs+4b5Bt6bniHIWOXHGr3HUhC1Ns3BhbaJkVTgIamwnCHWVjdDiEnrq68e8gW2Xc8IuEmVN435IiR338fybGy7SEh+cUliPkENtSUSYylBXeCUgjUHIcdutwsF7tclMm3XmzXCTbLnAfTUpdiy4brLzS/mO1NJZtXq15iQ2iM3DbQ/ksmUhMZuiUNAyCtQ90Cqq1PXXcv1a8zeaad3ZlkltCaAUKUg0Guf8AkbLOWcpzH1U8Ky8atXHV7ze9qk2e/Yi9BuFwk4hcFlNWpT8tH8XkGvYogK92urzgnMuCZLx/lNgmLhToGQ216FGdW24QJMGetPwc6E+n3m3W1qStJ/BrvQWk1CiKdnbvskIUVUIIPXoDvq14Nw9gWU8jZTeZKIzFsxW1P3INd7iULkTpDYEWDFYJq646tKQn26uXJfKT1syH1JckQGo1+kW6ki0cfYwpLTzOH2J5SQp6Yp4FU+QmiXF0QB2oTrNeC+YbIi54hl8Exvio4bRd7Hcmx5lvyCxSlpUqFeLZJSHGXE9CKHYkavMhvDrry3w0qZLdxzkzCbZIubaLKlSlRvvdaIwcmWK6Msp8t33Sy4tJWg9pABQ7abs0WqFXn22Y0lvt6oUpxlICh7D0GrdgXEGDZHnuYXaUiJDtGOW1+atBUR3vTXkI+HgxG0mrjzykISPHXB73rE5ba5i9Sl25VwC14n6buBrrDulmwPJbtf7W3Z7rytnsZ1yO1Kx64uJW9AjKBKk0UNtc88LXTIU4jwzx9ynk1ggcVcfRVY5idzl2iaIysiyiPADUjJ8guZQHZD0sr+sOwp19TMdKEtL/AEi42txIQpC0pFhokqJSAQvuIp7RQ6ueOZBbmLvY75bZlpvFslsNyolwgTWlR5cSQw4FNrbdacIUCKUOvVnxsiPLlcX596RfUBnXDV/+D7YZxeXFhSJWNSHGQGE3TFnXhGKRuphLbh3VqMrynFoXCZWFIQpSShTKSSCBRSSK1psKa9O/BHJ0Mmw5RwvYfs+8RmWTdcZvsVp1dqyGzuOpWWJsKRRVRQqSSk7HX3tx6Rm1ji2+e69iHOHGP2nJxDIbI1JSuKzkXwheZhvuMlKZUKcjsKqgEpI01bPVziVs9LnqCktIjN+qXh+2MIwTMr+4pthqVzRxqw8lEIPKA+JuUEJUjdRAFdWeZ9iQuVuNswktDjvmDh+UnOcEzNM0Vt8aHNsypbsC9ymyCYElKH0KPbQmlcP9SvrAxqThfHuIz7dkeDcV3phCMqzS/RFiRBmZVb3O8WnGojhS4Y7g86Q4gA0RWvqsZckNAscu32OEqUhvymm22Ett+WDRlttoJCUbACgGikvR6VrVLiCO09NwadNJ8oJd7QallPmqTvUE9laCo1BxTjDjrLs9yK6OpagWjHLDPuEp5a9/NUW2gy0zWpUpakpHt1kHL/NbUJ71Dcp2mHBfskRxmVC44xL3ZbWOtzkdwev855zvnLQe1BSGwaA1pShBKab1oOpJO5JO+qezb5/2BBOxNRt0Ph4700n600ANU9oopVCKmhB6Hp8mrlxvzLgeO8iYZdUOCVZsjgNzGm3XElIkwnjSTb5bQ3Q6ytDiSB72pt44g5s5E4mhy1FUfHJ9uiZraIA3JajvTJtvuBb3FPMcWoAdTpaGfWdaTHQohhuVxFKW8lFapDjjebtJWr5kgDSlL9ZViJI2V+h+b4bb/wCvHs+fXLFjuHMkPllrku62O6R3IOIOYsmz/Y8d9hxtanLzeFS/iFPV6oCadDpVp5f4vwnkm3qSEpj5dj1uu5aQCSA09KZU8yATUdik6dur/pQ4+Ep+SmUtLTl8ZiBaQAEIgtXZMVtig+gE019j8O8YYPxtAU0hh5vEsct1pekst/5NEuXHaTKlAU/zi1VO/XVe412A22AHQde7fx33Oh3GtPk+b2EezUiPKbakRZLflvxnmUOsOp3BDjToWlxKgaEKBB1JM/hzjSWuYpa5SpGF2Fzz1OAhanAqGalVTXV2d4w4twXAX782pq8yMVxu22aRcmVp7VNSn4TLTrjZT4E0rv10zfbT6eOI4F5ZvH3hRdWMJsqbgL+JPxib0Zhjl9V0Ez63zyrzSvfurq53+98B8VXS+Xqc/c7xdpuG2d64XS4yld8mdOkrjFyTJfWKrWokqPXVyg8XYDiuAw7xKE66RcVs0SzsT5aW/KbkS24aGw8623sCdxrdZPTwHh7PGp9umJGZ4hj2TyI1sutkYkXm1RZshuzX1tlq9WpDzqC4m33ZuO2mQzXy3QgBQIA0htHpy4fQ20gNtNt4NY0NtsgUSyhtMXsS0E7doFKatuKYZZbZi+N2aOiHabHZITEC126GjZMaJDjpQ0y0muwApXUuxX63Qb3ZbhHVFn2q6Q2JtvmxlghTMmJIStl5sgmoUDXTsy7elbiT4p+QqU/Ig421bnHnlq7lLWILjDRqfDtp8mlYRxFxZh+B4mq7i/8A2BZbWkWtN8CAgXduJJXIaauASkfWpAVtrvLvcqlO7tAPSg6GlANXfK8r9OnEWRZNf5y7nfL7d8Js0253a4OAByZcJb0dTsp9YAqVE1prt/mucIUNa/8A6+sHj/4ptorhemfhmKogBRZwSxtk06fRjDRRx9gGH4X3I8pa8ax212h1bXUNuPQ4zby0BW4BUaHSFBVOw1pTYinQitBv4jfRPdvSgNOn49UrX9kR82+twCOhFPDemt0/uV/HobHY11sKCh9397UmtQPb/vPP/9k=;" vertex="1" parent="1">
          <mxGeometry x="293.5" y="750" width="63" height="63" as="geometry" />
        </mxCell>
        <mxCell id="e54BE-5O06g-NBE3f2j7-53" value="Azure Synapse DWH&lt;br&gt;(Data Mart Layer only)" style="text;html=1;align=center;verticalAlign=middle;resizable=0;points=[];autosize=1;strokeColor=none;fillColor=none;" vertex="1" parent="1">
          <mxGeometry x="1416.25" y="500" width="130" height="30" as="geometry" />
        </mxCell>
        <mxCell id="e54BE-5O06g-NBE3f2j7-54" value="Azure Synapse Data Factory" style="text;html=1;align=center;verticalAlign=middle;resizable=0;points=[];autosize=1;strokeColor=none;fillColor=none;" vertex="1" parent="1">
          <mxGeometry x="410.0000000000001" y="415" width="170" height="20" as="geometry" />
        </mxCell>
        <mxCell id="e54BE-5O06g-NBE3f2j7-58" style="edgeStyle=elbowEdgeStyle;rounded=0;orthogonalLoop=1;jettySize=auto;html=1;exitX=0.5;exitY=0;exitDx=0;exitDy=0;exitPerimeter=0;entryX=0.5;entryY=1;entryDx=0;entryDy=0;endArrow=classicThin;endFill=1;" edge="1" parent="1" source="e54BE-5O06g-NBE3f2j7-55" target="e54BE-5O06g-NBE3f2j7-57">
          <mxGeometry relative="1" as="geometry" />
        </mxCell>
        <mxCell id="e54BE-5O06g-NBE3f2j7-55" value="SYR" style="strokeWidth=2;html=1;shape=mxgraph.flowchart.database;whiteSpace=wrap;" vertex="1" parent="1">
          <mxGeometry x="140" y="730" width="100" height="97" as="geometry" />
        </mxCell>
        <mxCell id="e54BE-5O06g-NBE3f2j7-59" style="edgeStyle=elbowEdgeStyle;rounded=0;orthogonalLoop=1;jettySize=auto;html=1;exitX=1;exitY=0.5;exitDx=0;exitDy=0;entryX=0;entryY=0.5;entryDx=0;entryDy=0;entryPerimeter=0;endArrow=classicThin;endFill=1;" edge="1" parent="1" source="e54BE-5O06g-NBE3f2j7-57" target="JSSmb_3Z2BOipet1F9V3-8">
          <mxGeometry relative="1" as="geometry" />
        </mxCell>
        <mxCell id="e54BE-5O06g-NBE3f2j7-57" value="Oracle Data Integrator" style="shape=process;whiteSpace=wrap;html=1;backgroundOutline=1;" vertex="1" parent="1">
          <mxGeometry x="130" y="620" width="120" height="60" as="geometry" />
        </mxCell>
        <mxCell id="e54BE-5O06g-NBE3f2j7-60" value="Oracle Metadata Managment" style="shape=process;whiteSpace=wrap;html=1;backgroundOutline=1;sketch=0;shadow=0;rounded=0;glass=0;fillColor=#fff2cc;strokeColor=#d6b656;" vertex="1" parent="1">
          <mxGeometry x="430" y="690" width="120" height="60" as="geometry" />
        </mxCell>
        <mxCell id="e54BE-5O06g-NBE3f2j7-63" style="edgeStyle=elbowEdgeStyle;rounded=0;orthogonalLoop=1;jettySize=auto;html=1;exitX=0.5;exitY=0;exitDx=0;exitDy=0;exitPerimeter=0;entryX=1;entryY=1;entryDx=0;entryDy=0;endArrow=classicThin;endFill=1;" edge="1" parent="1" source="e54BE-5O06g-NBE3f2j7-62" target="e54BE-5O06g-NBE3f2j7-48">
          <mxGeometry relative="1" as="geometry">
            <Array as="points">
              <mxPoint x="1630" y="640" />
            </Array>
          </mxGeometry>
        </mxCell>
        <mxCell id="e54BE-5O06g-NBE3f2j7-62" value="SYR" style="strokeWidth=2;html=1;shape=mxgraph.flowchart.database;whiteSpace=wrap;" vertex="1" parent="1">
          <mxGeometry x="1574" y="780" width="100" height="97" as="geometry" />
        </mxCell>
        <mxCell id="e54BE-5O06g-NBE3f2j7-65" style="edgeStyle=elbowEdgeStyle;rounded=0;orthogonalLoop=1;jettySize=auto;html=1;exitX=0;exitY=0.5;exitDx=0;exitDy=0;entryX=1;entryY=0.5;entryDx=0;entryDy=0;entryPerimeter=0;endArrow=classicThin;endFill=1;" edge="1" parent="1" source="e54BE-5O06g-NBE3f2j7-48" target="e54BE-5O06g-NBE3f2j7-31">
          <mxGeometry relative="1" as="geometry">
            <Array as="points">
              <mxPoint x="1540" y="460" />
            </Array>
          </mxGeometry>
        </mxCell>
      </root>
    </mxGraphModel>
  </diagram>
</mxfile>
